<?xml version="1.0" encoding="utf-8"?>
<!-- Generator: Adobe Illustrator 27.2.0, SVG Export Plug-In . SVG Version: 6.00 Build 0)  -->
<svg version="1.1" id="Camada_1" xmlns="http://www.w3.org/2000/svg" xmlns:xlink="http://www.w3.org/1999/xlink" x="0px" y="0px"
	 viewBox="0 0 2000 280" style="enable-background:new 0 0 2000 280;" xml:space="preserve">
<style type="text/css">
	.st0{fill:url(#SVGID_1_);}
	.st1{opacity:0.7;}
	.st2{fill:#FFFFFF;}
	.st3{opacity:0.4;}
	.st4{opacity:0.6;}
	.st5{fill:#E6B945;}
	.st6{fill:#414142;}
	.st7{fill:#F7B95B;}
</style>
<linearGradient id="SVGID_1_" gradientUnits="userSpaceOnUse" x1="0" y1="140" x2="2000" y2="140">
	<stop  offset="0" style="stop-color:#273572"/>
	<stop  offset="1" style="stop-color:#1A4D9D"/>
</linearGradient>
<rect class="st0" width="2000" height="280"/>
<g class="st1">
	<g>
		<path class="st2" d="M595.17,187.72h-38.75l-19.37-33.56l19.37-33.56h38.75l19.37,33.56L595.17,187.72z M557.31,186.19h36.98
			l18.49-32.03l-18.49-32.03h-36.98l-18.49,32.03L557.31,186.19z"/>
	</g>
	<g>
		<path class="st2" d="M204.24,274.23c-29.48-0.14-53.36-24.25-53.21-53.73c0.14-29.48,24.25-53.35,53.73-53.21
			c29.48,0.14,53.35,24.25,53.21,53.73C257.83,250.51,233.72,274.38,204.24,274.23z M204.73,173.05
			c-26.31-0.13-47.82,21.17-47.94,47.48c-0.13,26.31,21.17,47.82,47.48,47.94c26.31,0.13,47.81-21.17,47.94-47.48
			C252.34,194.69,231.04,173.18,204.73,173.05z"/>
		<path class="st2" d="M204.18,285.48c-35.69-0.17-64.58-29.35-64.41-65.04l4.97,0.02c-0.16,32.95,26.51,59.89,59.47,60.05
			c32.95,0.16,59.89-26.52,60.05-59.47c0.16-32.95-26.51-59.89-59.47-60.05l0.02-4.97c35.69,0.17,64.58,29.35,64.41,65.04
			C269.05,256.77,239.87,285.66,204.18,285.48z"/>
		<path class="st2" d="M258.12,275.28l-3.49-3.53c27.94-27.67,28.16-72.91,0.49-100.85l3.53-3.49
			C288.24,197.29,288,245.68,258.12,275.28z"/>
		
			<rect x="291.75" y="201.14" transform="matrix(4.893945e-03 -1 1 4.893945e-03 75.9876 505.5245)" class="st2" width="0.5" height="26.88"/>
		
			<rect x="292.28" y="208.86" transform="matrix(4.894906e-03 -1 1 4.894906e-03 55.1851 527.279)" class="st2" width="0.5" height="54.1"/>
		
			<rect x="288.21" y="209.04" transform="matrix(4.897343e-03 -1 1 4.897343e-03 32.0976 542.1537)" class="st2" width="0.5" height="91.81"/>
		<path class="st2" d="M222.66,233.33c-3.15-0.02-5.94,1.58-7.59,4l-26.85-13.04c0.3-0.89,0.47-1.84,0.47-2.83
			c0.01-1.02-0.17-2.01-0.47-2.93l26.05-12.7c1.64,2.4,4.38,3.99,7.5,4c5.03,0.02,9.15-4.05,9.17-9.08
			c0.02-5.03-4.05-9.15-9.08-9.17c-5.03-0.02-9.15,4.05-9.17,9.08c0,1.02,0.17,2.01,0.47,2.93l-26.05,12.7
			c-1.64-2.4-4.38-3.99-7.5-4c-5.03-0.02-9.15,4.05-9.17,9.08c-0.02,5.03,4.05,9.15,9.08,9.17c3.15,0.02,5.94-1.58,7.59-4
			l26.85,13.04c-0.3,0.89-0.47,1.84-0.47,2.83c-0.02,5.03,4.05,9.15,9.08,9.17c5.03,0.02,9.15-4.05,9.17-9.08
			C231.76,237.47,227.69,233.36,222.66,233.33z"/>
		<path class="st2" d="M302.5,214.88c0.01-1.62,1.33-2.93,2.95-2.92s2.93,1.33,2.92,2.95c-0.01,1.62-1.33,2.93-2.95,2.92
			S302.49,216.5,302.5,214.88z"/>
		<path class="st2" d="M316.65,235.65c0.01-1.62,1.33-2.93,2.95-2.92c1.62,0.01,2.93,1.33,2.92,2.95c-0.01,1.62-1.33,2.93-2.95,2.92
			C317.94,238.59,316.64,237.27,316.65,235.65z"/>
		<path class="st2" d="M331.43,255.16c0.01-1.62,1.33-2.93,2.95-2.92c1.62,0.01,2.93,1.33,2.92,2.95c-0.01,1.62-1.33,2.93-2.95,2.92
			C332.73,258.1,331.42,256.78,331.43,255.16z"/>
	</g>
	<g>
		<g>
			<polygon class="st2" points="424.57,220.41 386.27,220.41 366.89,186.86 386.05,153.68 387.37,154.44 368.66,186.86 
				387.15,218.88 424.57,218.88 			"/>
		</g>
		<g>
			<path class="st2" d="M481.67,253.2h-38.75l-19.37-33.56l19.37-33.56h38.75l19.37,33.56L481.67,253.2z M443.81,251.68h36.98
				l18.49-32.03l-18.49-32.03h-36.98l-18.49,32.03L443.81,251.68z"/>
		</g>
		<g>
			<rect x="489.94" y="249.9" transform="matrix(0.866 -0.5 0.5 0.866 -68.677 281.367)" class="st2" width="1.53" height="37.87"/>
		</g>
		<g>
			<polygon class="st2" points="538.61,285.61 537.29,284.85 556,252.44 537.05,219.65 538.37,218.88 557.77,252.44 			"/>
		</g>
		<g>
			
				<rect x="528.14" y="202.68" transform="matrix(0.5 -0.866 0.866 0.5 97.4639 575.6968)" class="st2" width="38.32" height="1.53"/>
		</g>
		<g>
			<rect x="556.89" y="251.68" class="st2" width="40.74" height="1.53"/>
		</g>
	</g>
	<g>
		<g>
			<path class="st2" d="M360.56,113.08l18.52,32.08l-18.52,32.08h-37.04L305,145.16l18.52-32.08H360.56z M361.52,111.43h-38.95
				l-19.47,33.73l19.47,33.73h38.95l19.47-33.73L361.52,111.43L361.52,111.43z"/>
		</g>
	</g>
	<g>
		<g>
			<path class="st2" d="M370.31,186.77c0,1.37-1.11,2.48-2.48,2.48c-1.37,0-2.48-1.11-2.48-2.48c0-1.37,1.11-2.48,2.48-2.48
				C369.2,184.29,370.31,185.4,370.31,186.77z"/>
		</g>
		<g>
			<circle class="st2" cx="387.17" cy="154.16" r="2.48"/>
		</g>
		<g>
			<path class="st2" d="M446.37,186.77c0,1.37-1.11,2.48-2.48,2.48c-1.37,0-2.48-1.11-2.48-2.48c0-1.37,1.11-2.48,2.48-2.48
				C445.26,184.29,446.37,185.4,446.37,186.77z"/>
		</g>
		<g>
			<path class="st2" d="M559.37,186.77c0,1.37-1.11,2.48-2.48,2.48c-1.37,0-2.48-1.11-2.48-2.48c0-1.37,1.11-2.48,2.48-2.48
				C558.25,184.29,559.37,185.4,559.37,186.77z"/>
		</g>
		<g>
			<path class="st2" d="M502.65,286.13c0,1.37-1.11,2.48-2.48,2.48c-1.37,0-2.48-1.11-2.48-2.48c0-1.37,1.11-2.48,2.48-2.48
				C501.54,283.65,502.65,284.76,502.65,286.13z"/>
		</g>
		<g>
			<path class="st2" d="M445.85,252.44c0,1.37-1.11,2.48-2.48,2.48c-1.37,0-2.48-1.11-2.48-2.48c0-1.37,1.11-2.48,2.48-2.48
				C444.74,249.96,445.85,251.07,445.85,252.44z"/>
		</g>
		<g>
			<path class="st2" d="M597.63,252.44c0,1.37-1.11,2.48-2.48,2.48s-2.48-1.11-2.48-2.48c0-1.37,1.11-2.48,2.48-2.48
				S597.63,251.07,597.63,252.44z"/>
		</g>
		<g>
			<path class="st2" d="M559.37,252.44c0,1.37-1.11,2.48-2.48,2.48c-1.37,0-2.48-1.11-2.48-2.48c0-1.37,1.11-2.48,2.48-2.48
				C558.25,249.96,559.37,251.07,559.37,252.44z"/>
		</g>
	</g>
	<g>
		<g>
			<path class="st2" d="M99.47,80.62l-2.95-1.7l0.52-0.9l2.95,1.7L99.47,80.62z M94.85,77.95l-2.95-1.7l0.52-0.9l2.95,1.7
				L94.85,77.95z M90.23,75.28l-2.95-1.7l0.52-0.9l2.95,1.7L90.23,75.28z M85.62,72.62l-2.95-1.7l0.52-0.9l2.95,1.7L85.62,72.62z
				 M81,69.95l-2.95-1.7l0.52-0.9l2.95,1.7L81,69.95z M76.38,67.28l-2.95-1.7l0.52-0.9l2.95,1.7L76.38,67.28z M71.76,64.62
				l-2.95-1.7l0.52-0.9l2.95,1.7L71.76,64.62z M67.15,61.95l-2.95-1.7l0.52-0.9l2.95,1.7L67.15,61.95z M62.53,59.29l-2.95-1.7
				l0.52-0.9l2.95,1.7L62.53,59.29z M57.91,56.62l-2.95-1.7l0.52-0.9l2.95,1.7L57.91,56.62z M53.29,53.95l-2.95-1.7l0.52-0.9
				l2.95,1.7L53.29,53.95z M48.67,51.29l-2.95-1.7l0.52-0.9l2.95,1.7L48.67,51.29z M44.06,48.62l-2.95-1.7l0.52-0.9l2.95,1.7
				L44.06,48.62z M39.44,45.96l-2.95-1.7l0.52-0.9l2.95,1.7L39.44,45.96z"/>
		</g>
		<g>
			<path class="st2" d="M109.15,164.26l-0.52-0.9l2.95-1.71l0.52,0.9L109.15,164.26z M113.77,161.59l-0.52-0.9l2.95-1.71l0.52,0.9
				L113.77,161.59z M118.38,158.91l-0.52-0.9l2.95-1.71l0.52,0.9L118.38,158.91z M122.99,156.24l-0.52-0.9l2.95-1.71l0.52,0.9
				L122.99,156.24z M127.6,153.56l-0.52-0.9l2.95-1.71l0.52,0.9L127.6,153.56z M132.21,150.88l-0.52-0.9l2.95-1.71l0.52,0.9
				L132.21,150.88z M136.83,148.21l-0.52-0.9l2.95-1.71l0.52,0.9L136.83,148.21z M141.44,145.53l-0.52-0.9l2.95-1.71l0.52,0.9
				L141.44,145.53z M146.05,142.86l-0.52-0.9l2.95-1.71l0.52,0.9L146.05,142.86z M150.66,140.18l-0.52-0.9l2.95-1.71l0.52,0.9
				L150.66,140.18z M155.28,137.5l-0.52-0.9l2.95-1.71l0.52,0.9L155.28,137.5z M159.89,134.83l-0.52-0.9l2.95-1.71l0.52,0.9
				L159.89,134.83z M164.5,132.15l-0.52-0.9l2.95-1.71l0.52,0.9L164.5,132.15z M169.11,129.48l-0.52-0.9l2.95-1.71l0.52,0.9
				L169.11,129.48z"/>
		</g>
		<g>
			<path class="st2" d="M-62.66,80.75l-0.4-0.95l3.12-1.3l0.4,0.95L-62.66,80.75z M-57.78,78.71l-0.4-0.95l3.12-1.3l0.4,0.95
				L-57.78,78.71z M-52.9,76.67l-0.4-0.95l3.12-1.3l0.4,0.95L-52.9,76.67z M-48.01,74.63l-0.4-0.95l3.12-1.3l0.4,0.95L-48.01,74.63z
				 M-43.13,72.59l-0.4-0.95l3.12-1.3l0.4,0.95L-43.13,72.59z M-38.24,70.55l-0.4-0.95l3.12-1.3l0.4,0.95L-38.24,70.55z
				 M-33.36,68.51l-0.4-0.95l3.12-1.3l0.4,0.95L-33.36,68.51z M-28.47,66.47l-0.4-0.95l3.12-1.3l0.4,0.95L-28.47,66.47z
				 M-23.59,64.43l-0.4-0.95l3.12-1.3l0.4,0.95L-23.59,64.43z M-18.71,62.39l-0.4-0.95l3.12-1.3l0.4,0.95L-18.71,62.39z
				 M-13.82,60.35l-0.4-0.95l3.12-1.3l0.4,0.95L-13.82,60.35z M-8.94,58.31l-0.4-0.95l3.12-1.3l0.4,0.95L-8.94,58.31z M-4.05,56.28
				l-0.4-0.95l3.12-1.3l0.4,0.95L-4.05,56.28z M0.83,54.24l-0.4-0.95l3.12-1.3l0.4,0.95L0.83,54.24z M5.72,52.2l-0.4-0.95l3.12-1.3
				l0.4,0.95L5.72,52.2z M10.6,50.16l-0.4-0.95l3.12-1.3l0.4,0.95L10.6,50.16z M15.48,48.12l-0.4-0.95l3.12-1.3l0.4,0.95
				L15.48,48.12z M20.37,46.08l-0.4-0.95l3.12-1.3l0.4,0.95L20.37,46.08z M25.25,44.04l-0.4-0.95l3.12-1.3l0.4,0.95L25.25,44.04z
				 M172.61,40.6l-2.98-1.78l0.54-0.91l2.98,1.78L172.61,40.6z M36.12,38.81l-0.52-0.92l3.02-1.72l0.52,0.92L36.12,38.81z
				 M167.95,37.81l-2.98-1.78l0.54-0.91l2.98,1.78L167.95,37.81z M40.85,36.12l-0.52-0.92l3.02-1.72l0.52,0.92L40.85,36.12z
				 M163.29,35.02l-2.98-1.78l0.54-0.91l2.98,1.78L163.29,35.02z M45.58,33.44l-0.52-0.92l3.02-1.72l0.52,0.92L45.58,33.44z
				 M158.64,32.24l-2.98-1.78l0.54-0.91l2.98,1.78L158.64,32.24z M50.31,30.75l-0.52-0.92l3.02-1.72l0.52,0.92L50.31,30.75z
				 M153.98,29.45L151,27.67l0.54-0.91l2.98,1.78L153.98,29.45z M55.04,28.06l-0.52-0.92l3.02-1.72l0.52,0.92L55.04,28.06z
				 M149.32,26.66l-2.98-1.78l0.54-0.91l2.98,1.78L149.32,26.66z M59.77,25.38l-0.52-0.92l3.02-1.72l0.52,0.92L59.77,25.38z
				 M144.67,23.87l-2.98-1.78l0.54-0.91l2.98,1.78L144.67,23.87z M64.51,22.69l-0.52-0.92l3.02-1.72l0.52,0.92L64.51,22.69z
				 M140.01,21.08l-2.98-1.78l0.54-0.91l2.98,1.78L140.01,21.08z M69.24,20.01l-0.52-0.92l3.02-1.72l0.52,0.92L69.24,20.01z
				 M135.35,18.29l-2.98-1.78l0.54-0.91l2.98,1.78L135.35,18.29z M73.97,17.32l-0.52-0.92l3.02-1.72l0.52,0.92L73.97,17.32z
				 M130.69,15.5l-2.98-1.78l0.54-0.91l2.98,1.78L130.69,15.5z M78.7,14.64l-0.52-0.92L81.2,12l0.52,0.92L78.7,14.64z M126.04,12.72
				l-2.98-1.78l0.54-0.91l2.98,1.78L126.04,12.72z M83.43,11.95l-0.52-0.92l3.02-1.72l0.52,0.92L83.43,11.95z M121.38,9.93
				l-2.98-1.78l0.54-0.91l2.98,1.78L121.38,9.93z M88.17,9.27l-0.52-0.92l3.02-1.72l0.52,0.92L88.17,9.27z M116.72,7.14l-2.98-1.78
				l0.54-0.91l2.98,1.78L116.72,7.14z M92.9,6.58l-0.52-0.92l3.02-1.72l0.52,0.92L92.9,6.58z M112.07,4.35l-2.98-1.78l0.54-0.91
				l2.98,1.78L112.07,4.35z M97.63,3.9l-0.52-0.92l3.02-1.72l0.52,0.92L97.63,3.9z"/>
		</g>
		<g>
			<path class="st2" d="M248.29-1.88v2.3h0.86l0.84,0.85l0.71-0.7L248.29-1.88L248.29-1.88z M252,1.89l-0.71,0.7l2.31,2.34l0.71-0.7
				L252,1.89L252,1.89z M249.29,2.28h-1v3.29h1V2.28L249.29,2.28z M255.62,5.55l-0.71,0.7l2.31,2.34l0.71-0.7L255.62,5.55
				L255.62,5.55z M249.29,7.42h-1v3.29h1V7.42L249.29,7.42z M259.24,9.22l-0.71,0.7l2.31,2.34l0.71-0.7L259.24,9.22L259.24,9.22z
				 M249.29,12.57h-1v3.29h1V12.57L249.29,12.57z M262.85,12.88l-0.71,0.7l2.31,2.34l0.71-0.7L262.85,12.88L262.85,12.88z
				 M266.47,16.55l-0.71,0.7l2.31,2.34l0.71-0.7L266.47,16.55L266.47,16.55z M249.29,17.72h-1v3.29h1V17.72L249.29,17.72z
				 M270.08,20.21l-0.71,0.7l2.31,2.34l0.71-0.7L270.08,20.21L270.08,20.21z M249.29,22.87h-1v3.29h1V22.87L249.29,22.87z
				 M273.7,23.88l-0.71,0.7l2.31,2.34l0.71-0.7L273.7,23.88L273.7,23.88z M277.32,27.54l-0.71,0.7l2.31,2.34l0.71-0.7L277.32,27.54
				L277.32,27.54z M249.29,28.02h-1v3.29h1V28.02L249.29,28.02z M280.93,31.21l-0.71,0.7l2.31,2.34l0.71-0.7L280.93,31.21
				L280.93,31.21z M249.29,33.17h-1v3.29h1V33.17L249.29,33.17z M284.55,34.87l-0.71,0.7l2.31,2.34l0.71-0.7L284.55,34.87
				L284.55,34.87z M249.29,38.32h-1v3.29h1V38.32L249.29,38.32z M288.16,38.54l-0.71,0.7l2.31,2.34l0.71-0.7L288.16,38.54
				L288.16,38.54z M291.78,42.2l-0.71,0.7l2.31,2.34l0.71-0.7L291.78,42.2L291.78,42.2z M249.29,43.46h-1v3.29h1V43.46L249.29,43.46
				z M295.39,45.87l-0.71,0.7l2.31,2.34l0.71-0.7L295.39,45.87L295.39,45.87z M249.29,48.61h-1v3.29h1V48.61L249.29,48.61z
				 M299.01,49.53l-0.71,0.7l2.31,2.34l0.71-0.7L299.01,49.53L299.01,49.53z M302.63,53.2l-0.71,0.7l2.31,2.34l0.71-0.7L302.63,53.2
				L302.63,53.2z M249.29,53.76h-1v3.29h1V53.76L249.29,53.76z M306.24,56.86l-0.71,0.7l2.31,2.34l0.71-0.7L306.24,56.86
				L306.24,56.86z M249.29,58.91h-1v3.29h1V58.91L249.29,58.91z M309.86,60.53l-0.71,0.7l2.31,2.34l0.71-0.7L309.86,60.53
				L309.86,60.53z M249.29,64.06h-1v3.29h1V64.06L249.29,64.06z M313.47,64.19l-0.71,0.7l2.31,2.34l0.71-0.7L313.47,64.19
				L313.47,64.19z M317.09,67.86l-0.71,0.7l2.31,2.34l0.71-0.7L317.09,67.86L317.09,67.86z M249.29,69.21h-1v3.29h1V69.21
				L249.29,69.21z M320.71,71.52l-0.71,0.7l2.31,2.34l0.71-0.7L320.71,71.52L320.71,71.52z M249.29,74.35h-1v3.29h1V74.35
				L249.29,74.35z M324.32,75.19l-0.71,0.7l2.31,2.34l0.71-0.7L324.32,75.19L324.32,75.19z M327.94,78.85l-0.71,0.7l0.75,0.76
				l0.71-0.7L327.94,78.85L327.94,78.85z"/>
		</g>
		<g>
			<path class="st2" d="M5.03,0.36H1.63v-1.04h3.41V0.36z M-0.3,0.36h-3.41v-1.04h3.41V0.36z M-5.63,0.36h-3.41v-1.04h3.41V0.36z
				 M-10.96,0.36h-3.41v-1.04h3.41V0.36z M-16.3,0.36h-3.41v-1.04h3.41V0.36z M-21.63,0.36h-3.41v-1.04h3.41V0.36z M-26.96,0.36
				h-3.41v-1.04h3.41V0.36z M-32.29,0.36h-3.41v-1.04h3.41V0.36z M-37.63,0.36h-3.41v-1.04h3.41V0.36z"/>
		</g>
		<g>
			<path class="st2" d="M35.06,121.74l-0.52-0.94l3.07-1.72l0.52,0.94L35.06,121.74z M39.87,119.06l-0.52-0.94l3.07-1.72l0.52,0.94
				L39.87,119.06z M44.68,116.37l-0.52-0.94l3.07-1.72l0.52,0.94L44.68,116.37z M49.49,113.68l-0.52-0.94l3.07-1.72l0.52,0.94
				L49.49,113.68z M54.3,110.99l-0.52-0.94l3.07-1.72l0.52,0.94L54.3,110.99z M59.11,108.31l-0.52-0.94l3.07-1.72l0.52,0.94
				L59.11,108.31z M63.91,105.62l-0.52-0.94l3.07-1.72l0.52,0.94L63.91,105.62z M68.72,102.93L68.2,102l3.07-1.72l0.52,0.94
				L68.72,102.93z M73.53,100.25l-0.52-0.94l3.07-1.72l0.52,0.94L73.53,100.25z M78.34,97.56l-0.52-0.94l3.07-1.72l0.52,0.94
				L78.34,97.56z M83.15,94.87l-0.52-0.94l3.07-1.72l0.52,0.94L83.15,94.87z M87.96,92.18l-0.52-0.94l3.07-1.72l0.52,0.94
				L87.96,92.18z M92.77,89.5l-0.52-0.94l3.07-1.72l0.52,0.94L92.77,89.5z M97.58,86.81l-0.52-0.93l3.07-1.72l0.52,0.94L97.58,86.81
				z"/>
		</g>
	</g>
	<g>
		<g>
			<polygon class="st2" points="80.34,41.88 31.7,41.88 7.17,-0.62 31.49,-42.74 32.77,-42 8.88,-0.62 32.56,40.4 80.34,40.4 			"/>
		</g>
		<g>
			
				<rect x="68.29" y="186.53" transform="matrix(0.5001 -0.866 0.866 0.5001 -115.985 173.6398)" class="st2" width="48.21" height="1.48"/>
		</g>
		<g>
			<path class="st2" d="M152.91,83.63h-49.07L79.31,41.14l24.53-42.49h49.07l24.53,42.49L152.91,83.63z M104.7,82.15h47.36
				l23.68-41.01L152.05,0.12H104.7L81.02,41.14L104.7,82.15z"/>
		</g>
		<g>
			<polygon class="st2" points="152.91,167.14 103.84,167.14 79.52,125.01 80.81,124.27 104.7,165.66 152.05,165.66 175.73,124.64 
				151.84,83.26 153.12,82.52 177.44,124.64 			"/>
		</g>
		<g>
			<polygon class="st2" points="80.77,125.38 31.7,125.38 7.17,82.89 31.7,40.4 80.34,40.4 80.34,41.88 32.56,41.88 8.88,82.89 
				32.56,123.9 79.91,123.9 103.81,82.52 105.09,83.26 			"/>
		</g>
		<g>
			<polygon class="st2" points="225.34,125.01 224.06,124.27 247.95,82.89 224.27,41.88 176.49,41.88 176.49,40.4 225.13,40.4 
				249.66,82.89 			"/>
		</g>
		<g>
			
				<rect x="212.65" y="19.52" transform="matrix(0.5 -0.866 0.866 0.5 100.8358 215.1674)" class="st2" width="48.21" height="1.48"/>
		</g>
		<g>
			<rect x="248.8" y="82.15" class="st2" width="82.39" height="1.48"/>
		</g>
		<g>
			<rect x="-65.9" y="82.15" class="st2" width="73.92" height="1.48"/>
		</g>
	</g>
	<g>
		<g>
			<circle class="st2" cx="80.34" cy="124.64" r="2.41"/>
		</g>
		<g>
			<circle class="st2" cx="32.13" cy="124.64" r="2.41"/>
		</g>
		<g>
			<path class="st2" d="M82.75,208.15c0,1.33-1.08,2.41-2.41,2.41s-2.41-1.08-2.41-2.41c0-1.33,1.08-2.41,2.41-2.41
				S82.75,206.82,82.75,208.15z"/>
		</g>
		<g>
			<path class="st2" d="M106.85,82.89c0,1.33-1.08,2.41-2.41,2.41c-1.33,0-2.41-1.08-2.41-2.41c0-1.33,1.08-2.41,2.41-2.41
				C105.78,80.48,106.85,81.56,106.85,82.89z"/>
		</g>
		<g>
			<path class="st2" d="M106.85,166.4c0,1.33-1.08,2.41-2.41,2.41c-1.33,0-2.41-1.08-2.41-2.41c0-1.33,1.08-2.41,2.41-2.41
				C105.78,163.99,106.85,165.07,106.85,166.4z"/>
		</g>
		<g>
			<circle class="st2" cx="152.87" cy="82.89" r="2.41"/>
		</g>
		<g>
			<circle class="st2" cx="152.87" cy="-0.62" r="2.41"/>
		</g>
		<g>
			<path class="st2" d="M106.68-0.62c0,1.33-1.08,2.41-2.41,2.41c-1.33,0-2.41-1.08-2.41-2.41c0-1.33,1.08-2.41,2.41-2.41
				C105.6-3.02,106.68-1.95,106.68-0.62z"/>
		</g>
		<g>
			<circle class="st2" cx="248.8" cy="82.89" r="2.41"/>
		</g>
		<g>
			<path class="st2" d="M333.6,82.89c0,1.33-1.08,2.41-2.41,2.41c-1.33,0-2.41-1.08-2.41-2.41c0-1.33,1.08-2.41,2.41-2.41
				C332.52,80.48,333.6,81.56,333.6,82.89z"/>
		</g>
		<g>
			<path class="st2" d="M10.43,82.89c0,1.33-1.08,2.41-2.41,2.41s-2.41-1.08-2.41-2.41c0-1.33,1.08-2.41,2.41-2.41
				S10.43,81.56,10.43,82.89z"/>
		</g>
		<g>
			<path class="st2" d="M-63.49,82.89c0,1.33-1.08,2.41-2.41,2.41s-2.41-1.08-2.41-2.41c0-1.33,1.08-2.41,2.41-2.41
				S-63.49,81.56-63.49,82.89z"/>
		</g>
		<g>
			<circle class="st2" cx="80.34" cy="41.14" r="2.41"/>
		</g>
		<g>
			<circle class="st2" cx="32.13" cy="41.14" r="2.41"/>
		</g>
		<g>
			<circle class="st2" cx="224.62" cy="41.14" r="2.41"/>
		</g>
		<g>
			<circle class="st2" cx="248.8" cy="-0.62" r="2.41"/>
		</g>
		<g>
			<path class="st2" d="M178.82,41.14c0,1.33-1.08,2.41-2.41,2.41c-1.33,0-2.41-1.08-2.41-2.41s1.08-2.41,2.41-2.41
				C177.74,38.73,178.82,39.81,178.82,41.14z"/>
		</g>
		<g>
			<path class="st2" d="M155.28,166.4c0,1.33-1.08,2.41-2.41,2.41s-2.41-1.08-2.41-2.41c0-1.33,1.08-2.41,2.41-2.41
				S155.28,165.07,155.28,166.4z"/>
		</g>
		<g>
			<path class="st2" d="M178.82,124.64c0,1.33-1.08,2.41-2.41,2.41c-1.33,0-2.41-1.08-2.41-2.41c0-1.33,1.08-2.41,2.41-2.41
				C177.74,122.24,178.82,123.31,178.82,124.64z"/>
		</g>
		<g>
			<circle class="st2" cx="224.62" cy="124.64" r="2.41"/>
		</g>
		<g>
			<path class="st2" d="M10.43-0.62c0,1.33-1.08,2.41-2.41,2.41S5.62,0.71,5.62-0.62c0-1.33,1.08-2.41,2.41-2.41
				S10.43-1.95,10.43-0.62z"/>
		</g>
		<g>
			<circle class="st2" cx="32.13" cy="-41.69" r="2.41"/>
		</g>
	</g>
	<g>
		<g>
			<path class="st2" d="M127.8,21.17c-0.14-0.1-0.33-0.12-0.48-0.04c-0.16,0.08-0.26,0.24-0.26,0.41v3.94
				c-8.7,0.54-15.52,7.73-15.52,16.25c0,4,1.49,7.85,4.23,10.85c0.09,0.09,0.2,0.14,0.32,0.15c0.1,0,0.19-0.03,0.28-0.09l3.83-3.01
				c0.1-0.08,0.16-0.19,0.17-0.32c0.01-0.13-0.04-0.25-0.13-0.34c-1.93-1.96-2.99-4.53-2.99-7.24c0-5.42,4.32-9.98,9.81-10.38v3.95
				c0,0.17,0.1,0.33,0.26,0.4c0.16,0.07,0.35,0.05,0.48-0.06l4.48-3.54c0.03-0.02,0.06-0.03,0.09-0.06l1.72-1.37l2.67-2.11
				c0.11-0.09,0.18-0.22,0.18-0.36c0-0.14-0.07-0.27-0.18-0.35L127.8,21.17z"/>
		</g>
		<g>
			<path class="st2" d="M139.21,30.23l-4.09,3.24c-0.11,0.08-0.17,0.21-0.18,0.34c-0.01,0.13,0.05,0.26,0.14,0.35
				c2.15,1.99,3.35,4.69,3.35,7.58c0,5.73-4.7,10.33-10.44,10.41v-4.08c0-0.17-0.1-0.33-0.26-0.41c-0.16-0.08-0.35-0.06-0.48,0.05
				l-4.37,3.37c-0.08,0.03-0.15,0.07-0.2,0.14c-0.01,0.01-0.01,0.02-0.02,0.03l-4.09,3.16c-0.11,0.08-0.17,0.21-0.17,0.34
				c0,0.13,0.06,0.26,0.17,0.35l8.68,7.08c0.08,0.07,0.18,0.1,0.28,0.11c0.07,0,0.14-0.01,0.2-0.04c0.16-0.07,0.26-0.22,0.26-0.4
				v-3.83c9.12,0.07,16.69-7.17,16.69-16.28c0-4.32-1.73-8.41-4.83-11.48C139.68,30.09,139.4,30.08,139.21,30.23z"/>
		</g>
	</g>
	<g>
		<path class="st2" d="M371.85,187.97l-0.49,0.83l2.74,1.62l0.49-0.83L371.85,187.97L371.85,187.97z M376.13,190.5l-0.49,0.83
			l2.74,1.62l0.49-0.83L376.13,190.5L376.13,190.5z M380.42,193.04l-0.49,0.83l2.74,1.62l0.49-0.83L380.42,193.04L380.42,193.04z
			 M384.7,195.57l-0.49,0.83l2.74,1.62l0.49-0.83L384.7,195.57L384.7,195.57z M388.98,198.11l-0.49,0.83l2.74,1.62l0.49-0.83
			L388.98,198.11L388.98,198.11z M393.27,200.64l-0.49,0.83l2.74,1.62l0.49-0.83L393.27,200.64L393.27,200.64z M397.55,203.18
			l-0.49,0.83l2.74,1.62l0.49-0.83L397.55,203.18L397.55,203.18z M401.84,205.71l-0.49,0.83l2.74,1.62l0.49-0.83L401.84,205.71
			L401.84,205.71z M406.12,208.25l-0.49,0.83l2.74,1.62l0.49-0.83L406.12,208.25L406.12,208.25z M410.4,210.78l-0.49,0.83l2.74,1.62
			l0.49-0.83L410.4,210.78L410.4,210.78z M414.69,213.32l-0.49,0.83l2.74,1.62l0.49-0.83L414.69,213.32L414.69,213.32z
			 M418.97,215.85l-0.49,0.83l2.74,1.62l0.49-0.83L418.97,215.85L418.97,215.85z"/>
	</g>
	<path class="st2" d="M447.11,250.86l-0.51-0.88l2.88-1.67l0.51,0.88L447.11,250.86z M451.62,248.25l-0.51-0.88l2.88-1.67l0.51,0.88
		L451.62,248.25z M456.13,245.65l-0.51-0.88l2.88-1.67l0.51,0.88L456.13,245.65z M460.65,243.04l-0.51-0.88l2.88-1.67l0.51,0.88
		L460.65,243.04z M465.16,240.43l-0.51-0.88l2.88-1.67l0.51,0.88L465.16,240.43z M469.67,237.83l-0.51-0.88l2.88-1.67l0.51,0.88
		L469.67,237.83z M474.18,235.22l-0.51-0.88l2.88-1.67l0.51,0.88L474.18,235.22z M478.7,232.61l-0.51-0.88l2.88-1.67l0.51,0.88
		L478.7,232.61z M483.21,230l-0.51-0.88l2.88-1.67l0.51,0.88L483.21,230z M487.72,227.4l-0.51-0.88l2.88-1.67l0.51,0.88
		L487.72,227.4z M492.23,224.79l-0.51-0.88l2.88-1.67l0.51,0.88L492.23,224.79z M496.75,222.18l-0.51-0.88l2.88-1.67l0.51,0.88
		L496.75,222.18z M501.26,219.58l-0.51-0.88l2.88-1.67l0.51,0.88L501.26,219.58z M505.77,216.97l-0.51-0.88l2.88-1.67l0.51,0.88
		L505.77,216.97z M510.28,214.36l-0.51-0.88l2.88-1.67l0.51,0.88L510.28,214.36z M514.8,211.75l-0.51-0.88l2.88-1.67l0.51,0.88
		L514.8,211.75z M519.31,209.15l-0.51-0.88l2.88-1.67l0.51,0.88L519.31,209.15z M523.82,206.54l-0.51-0.88l2.88-1.67l0.51,0.88
		L523.82,206.54z M528.33,203.93l-0.51-0.88l2.88-1.67l0.51,0.88L528.33,203.93z M532.85,201.33l-0.51-0.88l2.88-1.67l0.51,0.88
		L532.85,201.33z M537.36,198.72l-0.51-0.88l2.88-1.67l0.51,0.88L537.36,198.72z M541.87,196.11l-0.51-0.88l2.88-1.67l0.51,0.88
		L541.87,196.11z M546.38,193.5l-0.51-0.88l2.88-1.67l0.51,0.88L546.38,193.5z M550.9,190.9l-0.51-0.88l2.88-1.67l0.51,0.88
		L550.9,190.9z"/>
	<g>
		<g>
			<g>
				<g>
					<g class="st3">
						<g>
							<g>
								<path class="st2" d="M1553.5,102.23l1.73,1.8c0.33,0.35,0.91,0.31,1.18-0.09c3.06-4.56,4.65-9.97,4.47-15.61
									c-0.48-14.63-12.77-26.14-27.4-25.66c-1,0.03-2.02,0.12-3.02,0.27c-12.16,1.76-21.66,11.94-22.57,24.2
									c-0.5,6.67,1.47,13.1,5.42,18.22c0.29,0.38,0.87,0.38,1.19,0.01l1.6-1.9c0.23-0.27,0.23-0.66,0.02-0.94
									c-2.79-3.8-4.34-8.41-4.36-13.24c-0.05-11.74,9.08-21.67,20.78-22.6c12.94-1.06,23.99,8.97,24.41,21.78
									c0.15,4.58-1.1,9.04-3.52,12.84C1553.23,101.59,1553.26,101.98,1553.5,102.23z"/>
							</g>
						</g>
					</g>
					<g class="st4">
						<g>
							<g>
								<path class="st2" d="M1547.27,95.37l2.06,2.15c0.42,0.44,1.16,0.31,1.41-0.24c1.17-2.52,1.75-5.28,1.65-8.12
									c-0.28-8.49-6.55-15.71-14.92-17.18c-2.44-0.43-4.99-0.35-7.4,0.24c-8.25,2.01-14.03,9.63-13.75,18.12
									c0.09,2.85,0.85,5.56,2.18,8c0.3,0.54,1.03,0.61,1.43,0.15l1.92-2.28c0.22-0.26,0.26-0.61,0.12-0.91
									c-0.72-1.6-1.13-3.33-1.19-5.1c-0.19-5.68,3.23-10.92,8.51-13.05c2.95-1.19,6.29-1.3,9.3-0.31
									c5.41,1.78,9.16,6.79,9.35,12.47c0.06,1.76-0.24,3.52-0.85,5.17C1546.98,94.78,1547.04,95.13,1547.27,95.37z"/>
							</g>
						</g>
					</g>
				</g>
			</g>
		</g>
		<path class="st2" d="M1550.05,112.21l-0.24-7.41c-0.02-0.5-0.18-2.19-1.62-2.65c-0.69-0.22-1.33-0.11-1.87,0.15l-0.13,0.01
			l-0.04,0c-0.28-0.92-0.91-1.5-1.83-1.63c-1.11-0.15-1.86,0.2-2.31,0.55c-0.49-0.97-1.42-1.45-2.65-1.3
			c-0.93,0.11-1.6,0.59-2.08,1.2l-0.21-6.32c-0.04-1.24-0.12-2.48-0.12-3.72c-0.16-1.3-1.27-2.32-2.61-2.32
			c-0.76,0-1.52,0.38-2.03,0.94c-0.53,0.6-0.57,1.34-0.57,2.1l0,3.03l0.01,8.4c-0.05,0.26,0.11,6.1,0.11,6.1
			c-0.51-0.49-1.08-1.04-1.59-1.58c-1.19-1.25-3.34-2.04-4.75-2.16c-0.74-0.06-1.31,0.06-1.67,0.36c-0.12,0.1-0.23,0.2-0.34,0.32
			c-0.7,0.74-1.21,1.91-0.68,2.74c0.23,0.36,0.62,0.6,1.02,0.84c0.54,0.33,1.45,0.67,2.15,1.5c1.17,1.4,3.88,4.53,5.53,6.19
			c0.34,0.2,1.07,0.88,1.41,1.04c1.03,0.61,1.87,1.19,2.17,1.51c0.23,0.25,1.58,0.88,1.58,0.88c1.09,0.64,3.06,1.21,5.3,1.14
			c2.24-0.07,4.28-0.01,5.74-1.38l0.08,0l0.04-0.1c1.48-1.45,2.37-3.43,2.3-5.58C1550.13,114.54,1550.07,112.58,1550.05,112.21z"/>
		<path class="st2" d="M1534.16,83.06c-3.46,0.11-6.17,3.01-6.06,6.47c0.06,1.86,0.73,3.5,1.97,4.61v-2.64
			c0-1.01,0.35-1.94,0.94-2.67c0.78-0.97,1.98-1.6,3.32-1.6c2.01,0,3.69,1.39,4.14,3.27c0.08,0.32,0.12,0.65,0.12,1l0.02,2.75
			c1.42-1.19,2.07-3.05,2-5.12C1540.51,85.66,1537.61,82.95,1534.16,83.06z"/>
	</g>
	<path class="st2" d="M66.78-13.33c-2.99-0.68-7.02,0.42-9.4,4.38c-2.17-3.49-5.95-5.27-9.46-4.44c-3.44,0.81-5.58,3.89-5.58,8.03
		c0,9.36,14.09,20.81,14.69,21.29c0.1,0.08,0.23,0.13,0.36,0.13c0.13,0,0.26-0.04,0.36-0.13c0.04-0.03,3.73-3.02,7.31-7.04
		c4.9-5.5,7.38-10.29,7.38-14.25C72.44-8.59,70.96-12.38,66.78-13.33z"/>
	<path class="st2" d="M360.13,141.15L360.13,141.15c-0.22-0.68-0.84-1.13-1.55-1.13h-10.73l-3.32-10.21
		c-0.22-0.68-0.84-1.13-1.55-1.13s-1.34,0.45-1.55,1.13l-3.32,10.21h-10.73c-0.71,0-1.33,0.45-1.55,1.13
		c-0.22,0.68,0.02,1.41,0.59,1.83l8.68,6.31l-3.32,10.21c-0.22,0.68,0.02,1.41,0.6,1.83c0.57,0.41,1.34,0.41,1.92,0l8.68-6.31
		l8.69,6.31c0.28,0.2,0.61,0.31,0.96,0.31c0.35,0,0.68-0.11,0.96-0.31c0.57-0.42,0.81-1.15,0.59-1.83l-3.32-10.21l8.68-6.31
		C360.11,142.56,360.35,141.83,360.13,141.15z"/>
	<path class="st2" d="M529.72,242.3c-2.02-3.32-5.37-5.34-9.2-5.54c-0.42-0.02-0.85-0.02-1.28,0c-3.83,0.19-7.18,2.21-9.2,5.54
		c-2.06,3.39-2.31,7.57-0.67,11.17l9.95,19.27c0.1,0.22,0.32,0.36,0.56,0.36s0.46-0.14,0.56-0.36l9.95-19.27
		C532.03,249.87,531.78,245.69,529.72,242.3z M519.88,253.55c-2.84,0-5.16-2.31-5.16-5.16s2.31-5.16,5.16-5.16s5.16,2.31,5.16,5.16
		S522.72,253.55,519.88,253.55z"/>
	<path class="st2" d="M586.57,141.25c-0.46-0.37-1.05-0.53-1.67-0.42l-16.84,3.42c-0.95,0.18-1.64,1.01-1.64,1.98v14.07
		c-0.49-0.14-1.01-0.22-1.54-0.22c-3.07,0-5.57,2.5-5.57,5.57c0,3.07,2.5,5.57,5.57,5.57c3.07,0,5.57-2.5,5.57-5.57V152l12.83-2.6
		v7.35c-0.49-0.14-1.01-0.22-1.54-0.22c-3.07,0-5.57,2.5-5.57,5.57c0,3.07,2.5,5.57,5.57,5.57c3.07,0,5.57-2.5,5.57-5.57v-19.29
		C587.3,142.21,587.04,141.64,586.57,141.25z"/>
	<g>
		<path class="st2" d="M128.74,117.96c-5.86,0-11.42,2.22-15.67,6.26c-0.67,0.64-1.06,1.5-1.08,2.42c-0.02,0.93,0.31,1.81,0.95,2.48
			c0.65,0.69,1.57,1.08,2.52,1.08c0.9,0,1.75-0.34,2.39-0.96c2.95-2.8,6.81-4.35,10.88-4.35c4.05,0,7.9,1.53,10.84,4.31
			c1.39,1.31,3.59,1.26,4.91-0.14c0.64-0.68,0.97-1.56,0.95-2.48c-0.02-0.93-0.41-1.79-1.09-2.43
			C140.12,120.16,134.58,117.96,128.74,117.96z"/>
		<path class="st2" d="M151.68,114.66c-6.22-5.88-14.36-9.11-22.92-9.11c-8.6,0-16.77,3.26-23,9.18c-0.67,0.64-1.06,1.5-1.08,2.42
			c-0.02,0.93,0.31,1.81,0.95,2.48c0.65,0.69,1.57,1.08,2.52,1.08c0.9,0,1.75-0.34,2.39-0.96c4.93-4.69,11.4-7.27,18.21-7.27
			c6.78,0,13.22,2.56,18.15,7.22c1.39,1.31,3.59,1.25,4.91-0.14c0.64-0.68,0.97-1.56,0.95-2.48
			C152.74,116.16,152.35,115.3,151.68,114.66z"/>
		<path class="st2" d="M129.3,130.56c-3.73,0-6.77,3.04-6.77,6.77c0,3.73,3.04,6.77,6.77,6.77c3.74,0,6.77-3.04,6.77-6.77
			C136.08,133.6,133.04,130.56,129.3,130.56z M129.35,137.34c0,0.04-0.09,0.05-0.09,0c0-0.02,0.02-0.05,0.05-0.05
			C129.32,137.29,129.35,137.31,129.35,137.34z"/>
	</g>
	<g>
		<path class="st2" d="M492.05,79.61h-28.17v-4.96h27.79c10.9-1.74,19.1-11.36,19.1-22.43c0-1.29-0.12-2.61-0.35-3.93
			c-0.69-3.98-2.45-7.72-5.08-10.8l-0.07-0.08c-5.28-6.77-13.21-10.65-21.77-10.65c-2.36,0-4.7,0.3-6.96,0.89l-1.96,0.51l-0.89-1.82
			c-4.47-9.16-13.58-14.85-23.76-14.85c-12.3,0-23.15,8.7-25.8,20.7l-0.46,2.1l-2.15-0.16c-0.6-0.05-1.1-0.07-1.57-0.07
			c-11.2,0-20.3,9.11-20.3,20.3s9.11,20.3,20.3,20.3h23.16v4.96h-23.16c-13.93,0-25.26-11.33-25.26-25.26
			c0-13.88,11.25-25.18,25.11-25.26c1.78-6.07,5.4-11.53,10.34-15.55c5.57-4.53,12.59-7.02,19.78-7.02
			c11.43,0,21.72,6.04,27.3,15.88c2.06-0.4,4.17-0.61,6.28-0.61c10.08,0,19.43,4.56,25.65,12.52c3.19,3.75,5.32,8.29,6.16,13.13
			c0.28,1.6,0.42,3.2,0.42,4.78c0,6.66-2.4,13.1-6.76,18.13c-4.31,4.98-10.26,8.26-16.74,9.24L492.05,79.61z"/>
		<path class="st2" d="M461.65,86.93h-5.18V63.25h-7.16v23.68h-5.18c-0.77,0-1.26,0.84-0.87,1.51l8.77,15.18
			c0.39,0.67,1.35,0.67,1.74,0l8.77-15.18C462.91,87.76,462.42,86.93,461.65,86.93z"/>
	</g>
	<g>
		<g>
			<path class="st2" d="M72,134.7l17.95,31.09L72,196.87H36.1l-17.95-31.09L36.1,134.7H72z M72.95,133.04H35.15l-18.9,32.74
				l18.9,32.74h37.81l18.9-32.74L72.95,133.04L72.95,133.04z"/>
		</g>
		<path class="st2" d="M54.78,151.34c-9.4,0-17.01,6.4-17.01,14.3c0,7.9,7.62,14.3,17.01,14.3c1.89,0,3.72-0.26,5.42-0.74l3.59,3.59
			c0.31,0.31,0.84,0.13,0.9-0.3l0.77-5.71c3.86-2.62,6.34-6.63,6.34-11.13C71.8,157.74,64.18,151.34,54.78,151.34z M44.46,168.37
			c-1.28,0-2.31-1.03-2.31-2.31c0-1.28,1.03-2.31,2.31-2.31c1.28,0,2.31,1.03,2.31,2.31C46.77,167.34,45.73,168.37,44.46,168.37z
			 M54.05,168.37c-1.28,0-2.31-1.03-2.31-2.31c0-1.28,1.03-2.31,2.31-2.31c1.28,0,2.31,1.03,2.31,2.31
			C56.36,167.34,55.33,168.37,54.05,168.37z M63.95,168.37c-1.28,0-2.31-1.03-2.31-2.31c0-1.28,1.03-2.31,2.31-2.31
			c1.28,0,2.31,1.03,2.31,2.31C66.26,167.34,65.23,168.37,63.95,168.37z"/>
	</g>
</g>
<g class="st1">
	<g>
		<path class="st2" d="M1705.97,219.9h-38.75l-19.37-33.56l19.37-33.56h38.75l19.37,33.56L1705.97,219.9z M1668.1,218.38h36.98
			l18.49-32.03l-18.49-32.03h-36.98l-18.49,32.03L1668.1,218.38z"/>
	</g>
	<g>
		<g>
			<polygon class="st2" points="1535.37,252.6 1497.06,252.6 1477.69,219.04 1496.84,185.87 1498.16,186.63 1479.45,219.04 
				1497.94,251.07 1535.37,251.07 			"/>
		</g>
		<g>
			<path class="st2" d="M1592.47,285.39h-38.75l-19.37-33.56l19.37-33.56h38.75l19.37,33.56L1592.47,285.39z M1554.6,283.86h36.98
				l18.49-32.03l-18.49-32.03h-36.98l-18.49,32.03L1554.6,283.86z"/>
		</g>
		<g>
			
				<rect x="1600.73" y="282.09" transform="matrix(0.866 -0.5 0.5 0.866 64.0487 841.0754)" class="st2" width="1.53" height="37.87"/>
		</g>
		<g>
			<polygon class="st2" points="1649.41,317.8 1648.09,317.04 1666.8,284.62 1647.85,251.83 1649.17,251.07 1668.56,284.62 			"/>
		</g>
		<g>
			
				<rect x="1638.93" y="234.86" transform="matrix(0.5 -0.866 0.866 0.5 624.9904 1553.7662)" class="st2" width="38.32" height="1.53"/>
		</g>
		<g>
			<rect x="1667.68" y="283.86" class="st2" width="40.74" height="1.53"/>
		</g>
	</g>
	<g>
		<g>
			<path class="st2" d="M1471.36,145.26l18.52,32.08l-18.52,32.08h-37.04l-18.52-32.08l18.52-32.08H1471.36z M1472.31,143.61h-38.95
				l-19.47,33.73l19.47,33.73h38.95l19.47-33.73L1472.31,143.61L1472.31,143.61z"/>
		</g>
	</g>
	<g>
		<g>
			<path class="st2" d="M2173.07,289.3c0,1.37-1.11,2.48-2.48,2.48s-2.48-1.11-2.48-2.48s1.11-2.48,2.48-2.48
				S2173.07,287.93,2173.07,289.3z"/>
		</g>
		<g>
			<circle class="st2" cx="2189.93" cy="256.69" r="2.48"/>
		</g>
		<g>
			<path class="st2" d="M2249.13,289.3c0,1.37-1.11,2.48-2.48,2.48c-1.37,0-2.48-1.11-2.48-2.48s1.11-2.48,2.48-2.48
				C2248.02,286.82,2249.13,287.93,2249.13,289.3z"/>
		</g>
		<g>
			<path class="st2" d="M2362.13,289.3c0,1.37-1.11,2.48-2.48,2.48s-2.48-1.11-2.48-2.48s1.11-2.48,2.48-2.48
				S2362.13,287.93,2362.13,289.3z"/>
		</g>
		<g>
			<path class="st2" d="M2305.41,388.66c0,1.37-1.11,2.48-2.48,2.48s-2.48-1.11-2.48-2.48c0-1.37,1.11-2.48,2.48-2.48
				S2305.41,387.29,2305.41,388.66z"/>
		</g>
		<g>
			<path class="st2" d="M2248.61,354.97c0,1.37-1.11,2.48-2.48,2.48c-1.37,0-2.48-1.11-2.48-2.48c0-1.37,1.11-2.48,2.48-2.48
				C2247.5,352.49,2248.61,353.6,2248.61,354.97z"/>
		</g>
		<g>
			<path class="st2" d="M2400.39,354.97c0,1.37-1.11,2.48-2.48,2.48s-2.48-1.11-2.48-2.48c0-1.37,1.11-2.48,2.48-2.48
				S2400.39,353.6,2400.39,354.97z"/>
		</g>
		<g>
			<path class="st2" d="M2362.13,354.97c0,1.37-1.11,2.48-2.48,2.48s-2.48-1.11-2.48-2.48c0-1.37,1.11-2.48,2.48-2.48
				S2362.13,353.6,2362.13,354.97z"/>
		</g>
	</g>
	<g>
		<g>
			<path class="st2" d="M1902.23,183.15l-2.95-1.7l0.52-0.9l2.95,1.7L1902.23,183.15z M1897.61,180.48l-2.95-1.7l0.52-0.9l2.95,1.7
				L1897.61,180.48z M1892.99,177.81l-2.95-1.7l0.52-0.9l2.95,1.7L1892.99,177.81z M1888.38,175.15l-2.95-1.7l0.52-0.9l2.95,1.7
				L1888.38,175.15z M1883.76,172.48l-2.95-1.7l0.52-0.9l2.95,1.7L1883.76,172.48z M1879.14,169.82l-2.95-1.7l0.52-0.9l2.95,1.7
				L1879.14,169.82z M1874.52,167.15l-2.95-1.7l0.52-0.9l2.95,1.7L1874.52,167.15z M1869.91,164.48l-2.95-1.7l0.52-0.9l2.95,1.7
				L1869.91,164.48z M1865.29,161.82l-2.95-1.7l0.52-0.9l2.95,1.7L1865.29,161.82z M1860.67,159.15l-2.95-1.7l0.52-0.9l2.95,1.7
				L1860.67,159.15z M1856.05,156.49l-2.95-1.7l0.52-0.9l2.95,1.7L1856.05,156.49z M1851.43,153.82l-2.95-1.7l0.52-0.9l2.95,1.7
				L1851.43,153.82z M1846.82,151.15l-2.95-1.7l0.52-0.9l2.95,1.7L1846.82,151.15z M1842.2,148.49l-2.95-1.7l0.52-0.9l2.95,1.7
				L1842.2,148.49z"/>
		</g>
		<g>
			<path class="st2" d="M1911.91,266.8l-0.52-0.9l2.95-1.71l0.52,0.9L1911.91,266.8z M1916.53,264.12l-0.52-0.9l2.95-1.71l0.52,0.9
				L1916.53,264.12z M1921.14,261.44l-0.52-0.9l2.95-1.71l0.52,0.9L1921.14,261.44z M1925.75,258.77l-0.52-0.9l2.95-1.71l0.52,0.9
				L1925.75,258.77z M1930.36,256.09l-0.52-0.9l2.95-1.71l0.52,0.9L1930.36,256.09z M1934.97,253.42l-0.52-0.9l2.95-1.71l0.52,0.9
				L1934.97,253.42z M1939.59,250.74l-0.52-0.9l2.95-1.71l0.52,0.9L1939.59,250.74z M1944.2,248.06l-0.52-0.9l2.95-1.71l0.52,0.9
				L1944.2,248.06z M1948.81,245.39l-0.52-0.9l2.95-1.71l0.52,0.9L1948.81,245.39z M1953.42,242.71l-0.52-0.9l2.95-1.71l0.52,0.9
				L1953.42,242.71z M1958.04,240.04l-0.52-0.9l2.95-1.71l0.52,0.9L1958.04,240.04z M1962.65,237.36l-0.52-0.9l2.95-1.71l0.52,0.9
				L1962.65,237.36z M1967.26,234.68l-0.52-0.9l2.95-1.71l0.52,0.9L1967.26,234.68z M1971.87,232.01l-0.52-0.9l2.95-1.71l0.52,0.9
				L1971.87,232.01z"/>
		</g>
		<g>
			<path class="st2" d="M1740.1,183.28l-0.4-0.95l3.12-1.3l0.4,0.95L1740.1,183.28z M1744.98,181.24l-0.4-0.95l3.12-1.3l0.4,0.95
				L1744.98,181.24z M1749.87,179.2l-0.4-0.95l3.12-1.3l0.4,0.95L1749.87,179.2z M1754.75,177.16l-0.4-0.95l3.12-1.3l0.4,0.95
				L1754.75,177.16z M1759.63,175.12l-0.4-0.95l3.12-1.3l0.4,0.95L1759.63,175.12z M1764.52,173.08l-0.4-0.95l3.12-1.3l0.4,0.95
				L1764.52,173.08z M1769.4,171.04l-0.4-0.95l3.12-1.3l0.4,0.95L1769.4,171.04z M1774.29,169l-0.4-0.95l3.12-1.3l0.4,0.95
				L1774.29,169z M1779.17,166.96l-0.4-0.95l3.12-1.3l0.4,0.95L1779.17,166.96z M1784.05,164.92l-0.4-0.95l3.12-1.3l0.4,0.95
				L1784.05,164.92z M1788.94,162.89l-0.4-0.95l3.12-1.3l0.4,0.95L1788.94,162.89z M1793.82,160.85l-0.4-0.95l3.12-1.3l0.4,0.95
				L1793.82,160.85z M1798.71,158.81l-0.4-0.95l3.12-1.3l0.4,0.95L1798.71,158.81z M1803.59,156.77l-0.4-0.95l3.12-1.3l0.4,0.95
				L1803.59,156.77z M1808.48,154.73l-0.4-0.95l3.12-1.3l0.4,0.95L1808.48,154.73z M1813.36,152.69l-0.4-0.95l3.12-1.3l0.4,0.95
				L1813.36,152.69z M1818.24,150.65l-0.4-0.95l3.12-1.3l0.4,0.95L1818.24,150.65z M1823.13,148.61l-0.4-0.95l3.12-1.3l0.4,0.95
				L1823.13,148.61z M1828.01,146.57l-0.4-0.95l3.12-1.3l0.4,0.95L1828.01,146.57z M1975.37,143.13l-2.98-1.78l0.54-0.91l2.98,1.78
				L1975.37,143.13z M1838.88,141.34l-0.52-0.92l3.02-1.72l0.52,0.92L1838.88,141.34z M1970.71,140.34l-2.98-1.78l0.54-0.91
				l2.98,1.78L1970.71,140.34z M1843.61,138.65l-0.52-0.92l3.02-1.72l0.52,0.92L1843.61,138.65z M1966.05,137.56l-2.98-1.78
				l0.54-0.91l2.98,1.78L1966.05,137.56z M1848.34,135.97l-0.52-0.92l3.02-1.72l0.52,0.92L1848.34,135.97z M1961.4,134.77
				l-2.98-1.78l0.54-0.91l2.98,1.78L1961.4,134.77z M1853.07,133.28l-0.52-0.92l3.02-1.72l0.52,0.92L1853.07,133.28z
				 M1956.74,131.98l-2.98-1.78l0.54-0.91l2.98,1.78L1956.74,131.98z M1857.8,130.6l-0.52-0.92l3.02-1.72l0.52,0.92L1857.8,130.6z
				 M1952.08,129.19l-2.98-1.78l0.54-0.91l2.98,1.78L1952.08,129.19z M1862.53,127.91l-0.52-0.92l3.02-1.72l0.52,0.92
				L1862.53,127.91z M1947.43,126.4l-2.98-1.78l0.54-0.91l2.98,1.78L1947.43,126.4z M1867.27,125.23l-0.52-0.92l3.02-1.72l0.52,0.92
				L1867.27,125.23z M1942.77,123.61l-2.98-1.78l0.54-0.91l2.98,1.78L1942.77,123.61z M1872,122.54l-0.52-0.92l3.02-1.72l0.52,0.92
				L1872,122.54z M1938.11,120.82l-2.98-1.78l0.54-0.91l2.98,1.78L1938.11,120.82z M1876.73,119.86l-0.52-0.92l3.02-1.72l0.52,0.92
				L1876.73,119.86z M1933.45,118.04l-2.98-1.78l0.54-0.91l2.98,1.78L1933.45,118.04z M1881.46,117.17l-0.52-0.92l3.02-1.72
				l0.52,0.92L1881.46,117.17z M1928.8,115.25l-2.98-1.78l0.54-0.91l2.98,1.78L1928.8,115.25z M1886.19,114.49l-0.52-0.92l3.02-1.72
				l0.52,0.92L1886.19,114.49z M1924.14,112.46l-2.98-1.78l0.54-0.91l2.98,1.78L1924.14,112.46z M1890.93,111.8l-0.52-0.92
				l3.02-1.72l0.52,0.92L1890.93,111.8z M1919.48,109.67l-2.98-1.78l0.54-0.91l2.98,1.78L1919.48,109.67z M1895.66,109.11
				l-0.52-0.92l3.02-1.72l0.52,0.92L1895.66,109.11z M1914.83,106.88l-2.98-1.78l0.54-0.91l2.98,1.78L1914.83,106.88z
				 M1900.39,106.43l-0.52-0.92l3.02-1.72l0.52,0.92L1900.39,106.43z"/>
		</g>
		<g>
			<path class="st2" d="M2051.05,100.65v2.3h0.86l0.84,0.85l0.71-0.7L2051.05,100.65L2051.05,100.65z M2054.76,104.42l-0.71,0.7
				l2.31,2.34l0.71-0.7L2054.76,104.42L2054.76,104.42z M2052.05,104.81h-1v3.29h1V104.81L2052.05,104.81z M2058.38,108.08
				l-0.71,0.7l2.31,2.34l0.71-0.7L2058.38,108.08L2058.38,108.08z M2052.05,109.96h-1v3.29h1V109.96L2052.05,109.96z M2062,111.75
				l-0.71,0.7l2.31,2.34l0.71-0.7L2062,111.75L2062,111.75z M2052.05,115.1h-1v3.29h1V115.1L2052.05,115.1z M2065.61,115.41
				l-0.71,0.7l2.31,2.34l0.71-0.7L2065.61,115.41L2065.61,115.41z M2069.23,119.08l-0.71,0.7l2.31,2.34l0.71-0.7L2069.23,119.08
				L2069.23,119.08z M2052.05,120.25h-1v3.29h1V120.25L2052.05,120.25z M2072.84,122.74l-0.71,0.7l2.31,2.34l0.71-0.7
				L2072.84,122.74L2072.84,122.74z M2052.05,125.4h-1v3.29h1V125.4L2052.05,125.4z M2076.46,126.41l-0.71,0.7l2.31,2.34l0.71-0.7
				L2076.46,126.41L2076.46,126.41z M2080.08,130.07l-0.71,0.7l2.31,2.34l0.71-0.7L2080.08,130.07L2080.08,130.07z M2052.05,130.55
				h-1v3.29h1V130.55L2052.05,130.55z M2083.69,133.74l-0.71,0.7l2.31,2.34l0.71-0.7L2083.69,133.74L2083.69,133.74z M2052.05,135.7
				h-1v3.29h1V135.7L2052.05,135.7z M2087.31,137.4l-0.71,0.7l2.31,2.34l0.71-0.7L2087.31,137.4L2087.31,137.4z M2052.05,140.85h-1
				v3.29h1V140.85L2052.05,140.85z M2090.92,141.07l-0.71,0.7l2.31,2.34l0.71-0.7L2090.92,141.07L2090.92,141.07z M2094.54,144.73
				l-0.71,0.7l2.31,2.34l0.71-0.7L2094.54,144.73L2094.54,144.73z M2052.05,146h-1v3.29h1V146L2052.05,146z M2098.15,148.4
				l-0.71,0.7l2.31,2.34l0.71-0.7L2098.15,148.4L2098.15,148.4z M2052.05,151.14h-1v3.29h1V151.14L2052.05,151.14z M2101.77,152.06
				l-0.71,0.7l2.31,2.34l0.71-0.7L2101.77,152.06L2101.77,152.06z M2105.39,155.73l-0.71,0.7l2.31,2.34l0.71-0.7L2105.39,155.73
				L2105.39,155.73z M2052.05,156.29h-1v3.29h1V156.29L2052.05,156.29z M2109,159.39l-0.71,0.7l2.31,2.34l0.71-0.7L2109,159.39
				L2109,159.39z M2052.05,161.44h-1v3.29h1V161.44L2052.05,161.44z M2112.62,163.06l-0.71,0.7l2.31,2.34l0.71-0.7L2112.62,163.06
				L2112.62,163.06z M2052.05,166.59h-1v3.29h1V166.59L2052.05,166.59z M2116.23,166.72l-0.71,0.7l2.31,2.34l0.71-0.7
				L2116.23,166.72L2116.23,166.72z M2119.85,170.39l-0.71,0.7l2.31,2.34l0.71-0.7L2119.85,170.39L2119.85,170.39z M2052.05,171.74
				h-1v3.29h1V171.74L2052.05,171.74z M2123.47,174.05l-0.71,0.7l2.31,2.34l0.71-0.7L2123.47,174.05L2123.47,174.05z
				 M2052.05,176.89h-1v3.29h1V176.89L2052.05,176.89z M2127.08,177.72l-0.71,0.7l2.31,2.34l0.71-0.7L2127.08,177.72L2127.08,177.72
				z M2130.7,181.38l-0.71,0.7l0.75,0.76l0.71-0.7L2130.7,181.38L2130.7,181.38z"/>
		</g>
		<g>
			<path class="st2" d="M1807.79,102.89h-3.41v-1.04h3.41V102.89z M1802.46,102.89h-3.41v-1.04h3.41V102.89z M1797.13,102.89h-3.41
				v-1.04h3.41V102.89z M1791.8,102.89h-3.41v-1.04h3.41V102.89z M1786.46,102.89h-3.41v-1.04h3.41V102.89z M1781.13,102.89h-3.41
				v-1.04h3.41V102.89z M1775.8,102.89h-3.41v-1.04h3.41V102.89z M1770.47,102.89h-3.41v-1.04h3.41V102.89z M1765.13,102.89h-3.41
				v-1.04h3.41V102.89z"/>
		</g>
		<g>
			<path class="st2" d="M1837.82,224.28l-0.52-0.94l3.07-1.72l0.52,0.94L1837.82,224.28z M1842.63,221.59l-0.52-0.94l3.07-1.72
				l0.52,0.94L1842.63,221.59z M1847.44,218.9l-0.52-0.94l3.07-1.72l0.52,0.94L1847.44,218.9z M1852.25,216.21l-0.52-0.94l3.07-1.72
				l0.52,0.94L1852.25,216.21z M1857.06,213.53l-0.52-0.94l3.07-1.72l0.52,0.94L1857.06,213.53z M1861.87,210.84l-0.52-0.94
				l3.07-1.72l0.52,0.94L1861.87,210.84z M1866.67,208.15l-0.52-0.94l3.07-1.72l0.52,0.94L1866.67,208.15z M1871.48,205.46
				l-0.52-0.94l3.07-1.72l0.52,0.94L1871.48,205.46z M1876.29,202.78l-0.52-0.94l3.07-1.72l0.52,0.94L1876.29,202.78z
				 M1881.1,200.09l-0.52-0.94l3.07-1.72l0.52,0.94L1881.1,200.09z M1885.91,197.4l-0.52-0.94l3.07-1.72l0.52,0.94L1885.91,197.4z
				 M1890.72,194.72l-0.52-0.94l3.07-1.72l0.52,0.94L1890.72,194.72z M1895.53,192.03l-0.52-0.94l3.07-1.72l0.52,0.94
				L1895.53,192.03z M1900.34,189.34l-0.52-0.93l3.07-1.72l0.52,0.94L1900.34,189.34z"/>
		</g>
	</g>
	<g>
		<g>
			<polygon class="st2" points="1883.1,144.41 1834.46,144.41 1809.93,101.92 1834.25,59.79 1835.53,60.53 1811.64,101.92 
				1835.32,142.93 1883.1,142.93 			"/>
		</g>
		<g>
			
				<rect x="1871.05" y="289.06" transform="matrix(0.5001 -0.866 0.866 0.5001 696.5129 1786.0845)" class="st2" width="48.21" height="1.48"/>
		</g>
		<g>
			<path class="st2" d="M1955.67,186.16h-49.07l-24.53-42.49l24.53-42.49h49.07l24.53,42.49L1955.67,186.16z M1907.46,184.68h47.36
				l23.68-41.01l-23.68-41.01h-47.36l-23.68,41.01L1907.46,184.68z"/>
		</g>
		<g>
			<polygon class="st2" points="1955.67,269.67 1906.6,269.67 1882.28,227.54 1883.57,226.8 1907.46,268.19 1954.81,268.19 
				1978.49,227.17 1954.6,185.79 1955.88,185.05 1980.2,227.17 			"/>
		</g>
		<g>
			<polygon class="st2" points="1883.53,227.92 1834.46,227.92 1809.93,185.42 1834.46,142.93 1883.1,142.93 1883.1,144.41 
				1835.32,144.41 1811.64,185.42 1835.32,226.43 1882.67,226.43 1906.57,185.05 1907.85,185.79 			"/>
		</g>
		<g>
			<polygon class="st2" points="2028.1,227.54 2026.82,226.8 2050.71,185.42 2027.03,144.41 1979.25,144.41 1979.25,142.93 
				2027.89,142.93 2052.42,185.42 			"/>
		</g>
		<g>
			
				<rect x="2015.41" y="122.05" transform="matrix(0.5 -0.866 0.866 0.5 913.465 1827.6982)" class="st2" width="48.21" height="1.48"/>
		</g>
		<g>
			<rect x="2051.57" y="184.68" class="st2" width="82.39" height="1.48"/>
		</g>
		<g>
			<rect x="1736.86" y="184.68" class="st2" width="73.92" height="1.48"/>
		</g>
	</g>
	<g>
		<g>
			<circle class="st2" cx="1883.1" cy="227.17" r="2.41"/>
		</g>
		<g>
			<circle class="st2" cx="1834.89" cy="227.17" r="2.41"/>
		</g>
		<g>
			<path class="st2" d="M1885.51,310.68c0,1.33-1.08,2.41-2.41,2.41c-1.33,0-2.41-1.08-2.41-2.41c0-1.33,1.08-2.41,2.41-2.41
				C1884.43,308.27,1885.51,309.35,1885.51,310.68z"/>
		</g>
		<g>
			<path class="st2" d="M1909.61,185.42c0,1.33-1.08,2.41-2.41,2.41c-1.33,0-2.41-1.08-2.41-2.41s1.08-2.41,2.41-2.41
				C1908.54,183.01,1909.61,184.09,1909.61,185.42z"/>
		</g>
		<g>
			<path class="st2" d="M1909.61,268.93c0,1.33-1.08,2.41-2.41,2.41c-1.33,0-2.41-1.08-2.41-2.41c0-1.33,1.08-2.41,2.41-2.41
				C1908.54,266.52,1909.61,267.6,1909.61,268.93z"/>
		</g>
		<g>
			<circle class="st2" cx="1955.63" cy="185.42" r="2.41"/>
		</g>
		<g>
			<circle class="st2" cx="1955.63" cy="101.92" r="2.41"/>
		</g>
		<g>
			<path class="st2" d="M1909.44,101.92c0,1.33-1.08,2.41-2.41,2.41c-1.33,0-2.41-1.08-2.41-2.41c0-1.33,1.08-2.41,2.41-2.41
				C1908.36,99.51,1909.44,100.59,1909.44,101.92z"/>
		</g>
		<g>
			<circle class="st2" cx="2051.57" cy="185.42" r="2.41"/>
		</g>
		<g>
			<path class="st2" d="M2136.36,185.42c0,1.33-1.08,2.41-2.41,2.41c-1.33,0-2.41-1.08-2.41-2.41s1.08-2.41,2.41-2.41
				C2135.28,183.01,2136.36,184.09,2136.36,185.42z"/>
		</g>
		<g>
			<path class="st2" d="M1813.19,185.42c0,1.33-1.08,2.41-2.41,2.41c-1.33,0-2.41-1.08-2.41-2.41s1.08-2.41,2.41-2.41
				C1812.11,183.01,1813.19,184.09,1813.19,185.42z"/>
		</g>
		<g>
			<path class="st2" d="M1739.27,185.42c0,1.33-1.08,2.41-2.41,2.41s-2.41-1.08-2.41-2.41s1.08-2.41,2.41-2.41
				S1739.27,184.09,1739.27,185.42z"/>
		</g>
		<g>
			<circle class="st2" cx="1883.1" cy="143.67" r="2.41"/>
		</g>
		<g>
			<circle class="st2" cx="1834.89" cy="143.67" r="2.41"/>
		</g>
		<g>
			<circle class="st2" cx="2027.38" cy="143.67" r="2.41"/>
		</g>
		<g>
			<circle class="st2" cx="2051.57" cy="101.92" r="2.41"/>
		</g>
		<g>
			<path class="st2" d="M1981.58,143.67c0,1.33-1.08,2.41-2.41,2.41c-1.33,0-2.41-1.08-2.41-2.41s1.08-2.41,2.41-2.41
				C1980.5,141.26,1981.58,142.34,1981.58,143.67z"/>
		</g>
		<g>
			<path class="st2" d="M1958.04,268.93c0,1.33-1.08,2.41-2.41,2.41c-1.33,0-2.41-1.08-2.41-2.41c0-1.33,1.08-2.41,2.41-2.41
				C1956.96,266.52,1958.04,267.6,1958.04,268.93z"/>
		</g>
		<g>
			<path class="st2" d="M1981.58,227.17c0,1.33-1.08,2.41-2.41,2.41c-1.33,0-2.41-1.08-2.41-2.41c0-1.33,1.08-2.41,2.41-2.41
				C1980.5,224.77,1981.58,225.85,1981.58,227.17z"/>
		</g>
		<g>
			<circle class="st2" cx="2027.38" cy="227.17" r="2.41"/>
		</g>
		<g>
			<path class="st2" d="M1813.19,101.92c0,1.33-1.08,2.41-2.41,2.41c-1.33,0-2.41-1.08-2.41-2.41c0-1.33,1.08-2.41,2.41-2.41
				C1812.11,99.51,1813.19,100.59,1813.19,101.92z"/>
		</g>
		<g>
			<circle class="st2" cx="1834.89" cy="60.84" r="2.41"/>
		</g>
	</g>
	<g>
		<g>
			<path class="st2" d="M1930.56,123.7c-0.14-0.1-0.33-0.12-0.48-0.04c-0.16,0.08-0.26,0.24-0.26,0.41v3.94
				c-8.7,0.54-15.52,7.73-15.52,16.25c0,4,1.49,7.85,4.23,10.85c0.09,0.09,0.2,0.14,0.32,0.15c0.1,0,0.19-0.03,0.28-0.09l3.83-3.01
				c0.1-0.08,0.16-0.19,0.17-0.32c0.01-0.13-0.04-0.25-0.13-0.34c-1.93-1.96-2.99-4.53-2.99-7.24c0-5.42,4.32-9.98,9.81-10.38v3.95
				c0,0.17,0.1,0.33,0.26,0.4c0.16,0.07,0.35,0.05,0.48-0.06l4.48-3.54c0.03-0.02,0.06-0.03,0.09-0.06l1.72-1.37l2.67-2.11
				c0.11-0.09,0.18-0.22,0.18-0.36c0-0.14-0.07-0.27-0.18-0.35L1930.56,123.7z"/>
		</g>
		<g>
			<path class="st2" d="M1941.97,132.76l-4.09,3.24c-0.11,0.08-0.17,0.21-0.18,0.34c-0.01,0.13,0.05,0.26,0.14,0.35
				c2.15,1.99,3.35,4.69,3.35,7.58c0,5.73-4.7,10.33-10.44,10.41v-4.08c0-0.17-0.1-0.33-0.26-0.41c-0.16-0.08-0.35-0.06-0.48,0.05
				l-4.37,3.37c-0.08,0.03-0.15,0.07-0.2,0.14c-0.01,0.01-0.01,0.02-0.02,0.03l-4.09,3.16c-0.11,0.08-0.17,0.21-0.17,0.34
				c0,0.13,0.06,0.26,0.17,0.35l8.68,7.08c0.08,0.07,0.18,0.1,0.28,0.11c0.07,0,0.14-0.01,0.2-0.04c0.16-0.07,0.26-0.22,0.26-0.4
				v-3.83c9.12,0.07,16.69-7.17,16.69-16.28c0-4.32-1.73-8.41-4.83-11.48C1942.44,132.62,1942.16,132.61,1941.97,132.76z"/>
		</g>
	</g>
	<g>
		<path class="st2" d="M2174.61,290.5l-0.49,0.83l2.74,1.62l0.49-0.83L2174.61,290.5L2174.61,290.5z M2178.89,293.04l-0.49,0.83
			l2.74,1.62l0.49-0.83L2178.89,293.04L2178.89,293.04z M2183.18,295.57l-0.49,0.83l2.74,1.62l0.49-0.83L2183.18,295.57
			L2183.18,295.57z M2187.46,298.1l-0.49,0.83l2.74,1.62l0.49-0.83L2187.46,298.1L2187.46,298.1z M2191.74,300.64l-0.49,0.83
			l2.74,1.62l0.49-0.83L2191.74,300.64L2191.74,300.64z M2196.03,303.17l-0.49,0.83l2.74,1.62l0.49-0.83L2196.03,303.17
			L2196.03,303.17z M2200.31,305.71l-0.49,0.83l2.74,1.62l0.49-0.83L2200.31,305.71L2200.31,305.71z M2204.6,308.24l-0.49,0.83
			l2.74,1.62l0.49-0.83L2204.6,308.24L2204.6,308.24z M2208.88,310.78l-0.49,0.83l2.74,1.62l0.49-0.83L2208.88,310.78
			L2208.88,310.78z M2213.16,313.31l-0.49,0.83l2.74,1.62l0.49-0.83L2213.16,313.31L2213.16,313.31z M2217.45,315.85l-0.49,0.83
			l2.74,1.62l0.49-0.83L2217.45,315.85L2217.45,315.85z M2221.73,318.38l-0.49,0.83l2.74,1.62l0.49-0.83L2221.73,318.38
			L2221.73,318.38z"/>
	</g>
	<path class="st2" d="M2249.87,353.39l-0.51-0.88l2.88-1.67l0.51,0.88L2249.87,353.39z M2254.38,350.79l-0.51-0.88l2.88-1.67
		l0.51,0.88L2254.38,350.79z M2258.89,348.18l-0.51-0.88l2.88-1.67l0.51,0.88L2258.89,348.18z M2263.41,345.57l-0.51-0.88l2.88-1.67
		l0.51,0.88L2263.41,345.57z M2267.92,342.96l-0.51-0.88l2.88-1.67l0.51,0.88L2267.92,342.96z M2272.43,340.36l-0.51-0.88l2.88-1.67
		l0.51,0.88L2272.43,340.36z M2276.94,337.75l-0.51-0.88l2.88-1.67l0.51,0.88L2276.94,337.75z M2281.46,335.14l-0.51-0.88l2.88-1.67
		l0.51,0.88L2281.46,335.14z M2285.97,332.54l-0.51-0.88l2.88-1.67l0.51,0.88L2285.97,332.54z M2290.48,329.93l-0.51-0.88l2.88-1.67
		l0.51,0.88L2290.48,329.93z M2294.99,327.32l-0.51-0.88l2.88-1.67l0.51,0.88L2294.99,327.32z M2299.51,324.71l-0.51-0.88l2.88-1.67
		l0.51,0.88L2299.51,324.71z M2304.02,322.11l-0.51-0.88l2.88-1.67l0.51,0.88L2304.02,322.11z M2308.53,319.5l-0.51-0.88l2.88-1.67
		l0.51,0.88L2308.53,319.5z M2313.04,316.89l-0.51-0.88l2.88-1.67l0.51,0.88L2313.04,316.89z M2317.56,314.29l-0.51-0.88l2.88-1.67
		l0.51,0.88L2317.56,314.29z M2322.07,311.68l-0.51-0.88l2.88-1.67l0.51,0.88L2322.07,311.68z M2326.58,309.07l-0.51-0.88l2.88-1.67
		l0.51,0.88L2326.58,309.07z M2331.09,306.46l-0.51-0.88l2.88-1.67l0.51,0.88L2331.09,306.46z M2335.61,303.86l-0.51-0.88l2.88-1.67
		l0.51,0.88L2335.61,303.86z M2340.12,301.25l-0.51-0.88l2.88-1.67l0.51,0.88L2340.12,301.25z M2344.63,298.64l-0.51-0.88l2.88-1.67
		l0.51,0.88L2344.63,298.64z M2349.15,296.04l-0.51-0.88l2.88-1.67l0.51,0.88L2349.15,296.04z M2353.66,293.43l-0.51-0.88l2.88-1.67
		l0.51,0.88L2353.66,293.43z"/>
	<g>
		<g>
			<g>
				<g>
					<g class="st3">
						<g>
							<g>
								<path class="st2" d="M2070.62,112.46l1.73,1.8c0.33,0.35,0.91,0.31,1.18-0.09c3.06-4.56,4.65-9.97,4.47-15.61
									c-0.48-14.63-12.77-26.14-27.4-25.66c-1,0.03-2.02,0.12-3.02,0.27c-12.16,1.76-21.66,11.94-22.57,24.2
									c-0.5,6.67,1.47,13.1,5.42,18.22c0.29,0.38,0.87,0.38,1.19,0.01l1.6-1.9c0.23-0.27,0.23-0.66,0.02-0.94
									c-2.79-3.8-4.34-8.41-4.36-13.24c-0.05-11.74,9.08-21.67,20.78-22.6c12.94-1.06,23.99,8.97,24.41,21.78
									c0.15,4.58-1.1,9.04-3.52,12.84C2070.34,111.82,2070.37,112.2,2070.62,112.46z"/>
							</g>
						</g>
					</g>
					<g class="st4">
						<g>
							<g>
								<path class="st2" d="M2064.39,105.59l2.06,2.15c0.42,0.44,1.16,0.31,1.41-0.24c1.17-2.52,1.75-5.28,1.65-8.12
									c-0.28-8.49-6.55-15.71-14.92-17.18c-2.44-0.43-4.99-0.35-7.4,0.24c-8.25,2.01-14.03,9.63-13.75,18.12
									c0.09,2.85,0.85,5.56,2.18,8c0.3,0.54,1.03,0.61,1.43,0.15l1.92-2.28c0.22-0.26,0.26-0.61,0.12-0.91
									c-0.72-1.6-1.13-3.33-1.19-5.1c-0.19-5.68,3.23-10.92,8.51-13.05c2.95-1.19,6.29-1.3,9.3-0.31
									c5.41,1.78,9.16,6.79,9.35,12.47c0.06,1.76-0.24,3.52-0.85,5.17C2064.09,105,2064.16,105.35,2064.39,105.59z"/>
							</g>
						</g>
					</g>
				</g>
			</g>
		</g>
		<path class="st2" d="M2067.17,122.43l-0.24-7.41c-0.02-0.5-0.18-2.19-1.62-2.65c-0.69-0.22-1.33-0.11-1.87,0.15l-0.13,0.01
			l-0.04,0c-0.28-0.92-0.91-1.5-1.83-1.63c-1.11-0.15-1.86,0.2-2.31,0.55c-0.49-0.97-1.42-1.45-2.65-1.3
			c-0.93,0.11-1.6,0.59-2.08,1.2l-0.21-6.32c-0.04-1.24-0.12-2.48-0.12-3.72c-0.16-1.3-1.27-2.32-2.61-2.32
			c-0.76,0-1.52,0.38-2.03,0.94c-0.53,0.6-0.57,1.34-0.57,2.1l0,3.03l0.01,8.4c-0.05,0.26,0.11,6.1,0.11,6.1
			c-0.51-0.49-1.08-1.04-1.59-1.58c-1.19-1.25-3.34-2.04-4.75-2.16c-0.74-0.06-1.31,0.06-1.67,0.36c-0.12,0.1-0.23,0.2-0.34,0.32
			c-0.7,0.74-1.21,1.91-0.68,2.74c0.23,0.36,0.62,0.6,1.02,0.84c0.54,0.33,1.45,0.67,2.15,1.5c1.17,1.4,3.88,4.53,5.53,6.19
			c0.34,0.2,1.07,0.88,1.41,1.04c1.03,0.61,1.87,1.19,2.17,1.51c0.23,0.25,1.58,0.88,1.58,0.88c1.09,0.64,3.06,1.21,5.3,1.14
			c2.24-0.07,4.28-0.01,5.74-1.38l0.08,0l0.04-0.1c1.49-1.45,2.37-3.43,2.3-5.58C2067.24,124.76,2067.18,122.8,2067.17,122.43z"/>
		<path class="st2" d="M2051.27,93.28c-3.46,0.11-6.17,3.01-6.06,6.47c0.06,1.86,0.73,3.5,1.97,4.61v-2.64
			c0-1.01,0.35-1.94,0.94-2.67c0.78-0.97,1.98-1.6,3.32-1.6c2.01,0,3.69,1.39,4.14,3.27c0.08,0.32,0.12,0.65,0.12,1l0.02,2.75
			c1.42-1.19,2.07-3.05,2-5.12C2057.62,95.88,2054.73,93.17,2051.27,93.28z"/>
	</g>
	<path class="st2" d="M1869.54,89.2c-2.99-0.68-7.02,0.42-9.4,4.38c-2.17-3.49-5.95-5.27-9.46-4.44c-3.44,0.81-5.58,3.89-5.58,8.03
		c0,9.36,14.09,20.81,14.69,21.29c0.1,0.08,0.23,0.13,0.36,0.13c0.13,0,0.26-0.04,0.36-0.13c0.04-0.03,3.73-3.02,7.31-7.04
		c4.9-5.5,7.38-10.29,7.38-14.25C1875.2,93.95,1873.72,90.15,1869.54,89.2z"/>
	<path class="st2" d="M2162.89,243.68L2162.89,243.68c-0.22-0.68-0.84-1.13-1.55-1.13h-10.73l-3.32-10.21
		c-0.22-0.68-0.84-1.13-1.55-1.13s-1.34,0.45-1.55,1.13l-3.32,10.21h-10.73c-0.71,0-1.33,0.45-1.55,1.13
		c-0.22,0.68,0.02,1.41,0.59,1.83l8.68,6.31l-3.32,10.21c-0.22,0.68,0.02,1.41,0.6,1.83c0.57,0.41,1.34,0.41,1.92,0l8.68-6.31
		l8.69,6.31c0.28,0.2,0.61,0.31,0.96,0.31c0.35,0,0.68-0.11,0.96-0.31c0.57-0.42,0.81-1.15,0.59-1.83l-3.32-10.21l8.68-6.31
		C2162.87,245.09,2163.11,244.36,2162.89,243.68z"/>
	<path class="st2" d="M2332.48,344.83c-2.02-3.32-5.37-5.34-9.2-5.54c-0.42-0.02-0.85-0.02-1.28,0c-3.83,0.19-7.18,2.21-9.2,5.54
		c-2.06,3.39-2.31,7.57-0.67,11.17l9.95,19.27c0.1,0.22,0.32,0.36,0.56,0.36c0.24,0,0.46-0.14,0.56-0.36l9.95-19.27
		C2334.79,352.4,2334.54,348.23,2332.48,344.83z M2322.64,356.08c-2.84,0-5.16-2.31-5.16-5.16c0-2.84,2.31-5.16,5.16-5.16
		s5.16,2.31,5.16,5.16C2327.8,353.77,2325.48,356.08,2322.64,356.08z"/>
	<path class="st2" d="M2389.33,243.78c-0.46-0.37-1.05-0.53-1.67-0.42l-16.84,3.42c-0.95,0.18-1.64,1.01-1.64,1.98v14.07
		c-0.49-0.14-1.01-0.22-1.54-0.22c-3.07,0-5.57,2.5-5.57,5.57c0,3.07,2.5,5.57,5.57,5.57c3.07,0,5.57-2.5,5.57-5.57v-13.66
		l12.83-2.6v7.35c-0.49-0.14-1.01-0.22-1.54-0.22c-3.07,0-5.57,2.5-5.57,5.57c0,3.07,2.5,5.57,5.57,5.57c3.07,0,5.57-2.5,5.57-5.57
		v-19.29C2390.06,244.74,2389.8,244.17,2389.33,243.78z"/>
	<g>
		<path class="st2" d="M1931.5,220.49c-5.86,0-11.42,2.22-15.67,6.26c-0.67,0.64-1.06,1.5-1.08,2.42c-0.02,0.93,0.31,1.81,0.95,2.48
			c0.65,0.69,1.57,1.08,2.52,1.08c0.9,0,1.75-0.34,2.39-0.96c2.95-2.8,6.81-4.35,10.88-4.35c4.05,0,7.9,1.53,10.84,4.31
			c1.39,1.31,3.59,1.26,4.91-0.14c0.64-0.68,0.97-1.56,0.95-2.48c-0.02-0.93-0.41-1.79-1.09-2.43
			C1942.88,222.69,1937.34,220.49,1931.5,220.49z"/>
		<path class="st2" d="M1954.44,217.19c-6.22-5.88-14.36-9.11-22.92-9.11c-8.6,0-16.77,3.26-23,9.18c-0.67,0.64-1.06,1.5-1.08,2.42
			c-0.02,0.93,0.31,1.81,0.95,2.48c0.65,0.69,1.57,1.08,2.52,1.08c0.9,0,1.75-0.34,2.39-0.96c4.93-4.69,11.4-7.27,18.21-7.27
			c6.78,0,13.22,2.56,18.15,7.22c1.39,1.31,3.59,1.25,4.91-0.14c0.64-0.68,0.97-1.56,0.95-2.48
			C1955.5,218.69,1955.11,217.83,1954.44,217.19z"/>
		<path class="st2" d="M1932.06,233.09c-3.73,0-6.77,3.04-6.77,6.77c0,3.73,3.04,6.77,6.77,6.77c3.74,0,6.77-3.04,6.77-6.77
			C1938.84,236.13,1935.8,233.09,1932.06,233.09z M1932.11,239.87c0,0.04-0.09,0.05-0.09,0c0-0.02,0.02-0.05,0.05-0.05
			C1932.08,239.82,1932.11,239.84,1932.11,239.87z"/>
	</g>
	<g>
		<path class="st2" d="M2294.81,182.14h-28.17v-4.96h27.79c10.9-1.74,19.1-11.36,19.1-22.43c0-1.29-0.12-2.61-0.35-3.93
			c-0.69-3.98-2.45-7.72-5.08-10.8l-0.07-0.08c-5.28-6.77-13.21-10.65-21.77-10.65c-2.36,0-4.7,0.3-6.96,0.89l-1.96,0.51l-0.89-1.82
			c-4.47-9.16-13.58-14.85-23.76-14.85c-12.3,0-23.15,8.7-25.8,20.7l-0.46,2.1l-2.15-0.16c-0.6-0.05-1.1-0.07-1.57-0.07
			c-11.2,0-20.3,9.11-20.3,20.3s9.11,20.3,20.3,20.3h23.16v4.96h-23.16c-13.93,0-25.26-11.33-25.26-25.26
			c0-13.88,11.25-25.18,25.11-25.26c1.78-6.07,5.4-11.53,10.34-15.55c5.57-4.53,12.59-7.02,19.78-7.02
			c11.43,0,21.72,6.04,27.3,15.88c2.06-0.4,4.17-0.61,6.28-0.61c10.08,0,19.43,4.56,25.65,12.52c3.19,3.75,5.32,8.29,6.16,13.13
			c0.28,1.6,0.42,3.2,0.42,4.78c0,6.66-2.4,13.1-6.76,18.13c-4.31,4.98-10.26,8.26-16.74,9.24L2294.81,182.14z"/>
		<path class="st2" d="M2264.41,189.46h-5.18v-23.68h-7.16v23.68h-5.18c-0.77,0-1.26,0.84-0.87,1.51l8.77,15.18
			c0.39,0.67,1.35,0.67,1.74,0l8.77-15.18C2265.67,190.3,2265.18,189.46,2264.41,189.46z"/>
	</g>
	<g>
		<g>
			<path class="st2" d="M1874.76,237.23l17.95,31.09l-17.95,31.09h-35.9l-17.95-31.09l17.95-31.09H1874.76z M1875.71,235.58h-37.81
				l-18.9,32.74l18.9,32.74h37.81l18.9-32.74L1875.71,235.58L1875.71,235.58z"/>
		</g>
		<path class="st2" d="M1857.54,253.87c-9.4,0-17.01,6.4-17.01,14.3s7.62,14.3,17.01,14.3c1.89,0,3.72-0.26,5.42-0.74l3.59,3.59
			c0.31,0.31,0.84,0.13,0.9-0.3l0.77-5.71c3.86-2.62,6.34-6.63,6.34-11.13C1874.56,260.27,1866.94,253.87,1857.54,253.87z
			 M1847.22,270.9c-1.28,0-2.31-1.03-2.31-2.31c0-1.28,1.03-2.31,2.31-2.31c1.28,0,2.31,1.03,2.31,2.31
			C1849.53,269.87,1848.49,270.9,1847.22,270.9z M1856.81,270.9c-1.28,0-2.31-1.03-2.31-2.31c0-1.28,1.03-2.31,2.31-2.31
			s2.31,1.03,2.31,2.31C1859.12,269.87,1858.09,270.9,1856.81,270.9z M1866.71,270.9c-1.28,0-2.31-1.03-2.31-2.31
			c0-1.28,1.03-2.31,2.31-2.31c1.28,0,2.31,1.03,2.31,2.31C1869.02,269.87,1867.99,270.9,1866.71,270.9z"/>
	</g>
</g>
<g>
	<g>
		<g>
			<g>
				<g>
					<g>
						<path class="st2" d="M750.6,118.31c0.05-0.04,0.09-0.08,0.13-0.13c0.43-0.5,0.38-1.24-0.12-1.67L725.6,94.75l29.6-14.85
							c0.59-0.29,0.82-1.01,0.53-1.59c-0.29-0.59-1.01-0.82-1.59-0.53l-31.18,15.65c-0.36,0.18-0.6,0.52-0.65,0.91
							c-0.05,0.39,0.1,0.78,0.4,1.04l26.35,22.91C749.5,118.68,750.16,118.67,750.6,118.31z"/>
					</g>
				</g>
			</g>
		</g>
		<g>
			<g>
				<g>
					<g>
						<path class="st2" d="M730.43,95.57c0.59-3.83-2.03-7.42-5.87-8.02c-3.83-0.59-7.42,2.03-8.02,5.87
							c-0.59,3.83,2.03,7.42,5.87,8.02C726.24,102.03,729.83,99.4,730.43,95.57z"/>
					</g>
				</g>
			</g>
		</g>
		<g>
			<g>
				<g>
					<g>
						<path class="st2" d="M756.83,118.48c0.59-3.83-2.03-7.42-5.87-8.02c-3.83-0.59-7.42,2.03-8.02,5.87
							c-0.59,3.83,2.03,7.42,5.87,8.02C752.64,124.94,756.23,122.31,756.83,118.48z"/>
					</g>
				</g>
			</g>
		</g>
		<g>
			<g>
				<g>
					<g>
						<path class="st2" d="M762.32,80.03c0.59-3.83-2.03-7.42-5.87-8.02c-3.83-0.59-7.42,2.03-8.02,5.87
							c-0.59,3.83,2.03,7.42,5.87,8.02C758.13,86.49,761.72,83.86,762.32,80.03z"/>
					</g>
				</g>
			</g>
		</g>
	</g>
	<g>
		<g>
			<g>
				<g>
					<g>
						<g>
							<path class="st2" d="M1138.63,86.63c-1.58,0-2.86-1.28-2.86-2.86c0-1.58,1.28-2.86,2.86-2.86c1.58,0,2.86,1.28,2.86,2.86
								C1141.49,85.35,1140.21,86.63,1138.63,86.63z M1138.63,81.86c-1.05,0-1.91,0.86-1.91,1.91c0,1.05,0.86,1.91,1.91,1.91
								s1.91-0.86,1.91-1.91C1140.54,82.72,1139.68,81.86,1138.63,81.86z"/>
						</g>
					</g>
				</g>
			</g>
			<g>
				<g>
					<g>
						<g>
							<path class="st2" d="M1149.98,89.18h-22.71c-4.87,0-8.75-3.83-9.44-9.32c-1.57-12.52-0.07-47.35-0.01-48.83
								c0-5.17,4.24-9.4,9.44-9.4h22.71c4.91,0,8.88,3.93,9.44,9.34c1.58,15.38,0.02,48.48,0,48.81
								C1159.42,84.95,1155.19,89.18,1149.98,89.18z M1127.27,23.53c-4.16,0-7.54,3.38-7.54,7.54c-0.02,0.4-1.56,36.19-0.01,48.55
								c0.57,4.51,3.67,7.66,7.54,7.66h22.71c4.16,0,7.54-3.38,7.54-7.54c0.02-0.38,1.57-33.33,0-48.57l0,0
								c-0.46-4.5-3.56-7.64-7.54-7.64H1127.27z"/>
						</g>
					</g>
				</g>
			</g>
			<g>
				<g>
					<path class="st5" d="M1129.34,28.1c-3.3,0-5.99,2.62-5.99,5.84c-0.01,0.33-1.27,28.94-0.01,38.81c0.37,2.87,2.4,5.96,5.99,5.96
						h18.57c3.3,0,5.99-2.62,5.99-5.84c0.01-0.31,1.29-26.66,0.01-38.83l0,0c-0.37-3.5-2.83-5.94-5.99-5.94H1129.34z"/>
				</g>
			</g>
		</g>
		<g>
			<g>
				<g>
					<path class="st2" d="M1131.07,50.05c1.25-1.5,2.51-2.99,3.76-4.49c0.7-0.84-0.5-2.06-1.21-1.21c-1.25,1.5-2.51,2.99-3.76,4.49
						C1129.15,49.68,1130.36,50.89,1131.07,50.05L1131.07,50.05z"/>
				</g>
			</g>
		</g>
		<g>
			<g>
				<g>
					<path class="st2" d="M1128.74,61.03c5.66-6.32,11.84-12.09,18.53-17.32c0.87-0.68-0.35-1.88-1.21-1.21
						c-6.69,5.22-12.87,11-18.53,17.32C1126.79,60.64,1128,61.85,1128.74,61.03L1128.74,61.03z"/>
				</g>
			</g>
		</g>
		<g>
			<g>
				<g>
					<path class="st2" d="M1139.83,56.9c1.44-1.31,2.87-2.62,4.31-3.93c0.82-0.75-0.4-1.96-1.21-1.21
						c-1.44,1.31-2.87,2.62-4.31,3.93C1137.8,56.43,1139.02,57.64,1139.83,56.9L1139.83,56.9z"/>
				</g>
			</g>
		</g>
	</g>
	<g>
		<g>
			<g>
				<g>
					<g>
						<g>
							<g>
								<g>
									<g>
										<path class="st5" d="M787.88,94.08c2.85-4,5.71-8,8.56-12.01c-4.88-5.02-7.38-12.26-6.66-19.22s4.63-13.53,10.4-17.5
											c7.31-5.02,17.39-5.6,25.29-1.56c7.89,4.04,13.31,12.47,13.83,21.32c0.27,4.58-0.75,9.33-3.45,13.03
											c-3.03,4.16-7.93,6.66-12.96,7.71c-5.03,1.06-13.68,0.99-18.8,0.54C804.07,86.4,793.33,93.43,787.88,94.08"/>
									</g>
								</g>
							</g>
						</g>
					</g>
				</g>
			</g>
		</g>
		<g>
			<g>
				<g>
					<g>
						<g>
							<g>
								<g>
									<g>
										<path class="st2" d="M820.68,73.43h-21.03c-0.48,0-0.87-0.39-0.87-0.87V55.41c0-0.48,0.39-0.87,0.87-0.87h21.03
											c0.48,0,0.87,0.39,0.87,0.87v17.15C821.56,73.04,821.17,73.43,820.68,73.43z M800.53,71.69h19.28V56.28h-19.28V71.69z"/>
									</g>
								</g>
							</g>
						</g>
					</g>
				</g>
			</g>
		</g>
		<g>
			<g>
				<g>
					<g>
						<g>
							<g>
								<g>
									<g>
										<path class="st2" d="M830.55,71.89c-0.09,0-0.17-0.01-0.26-0.04l-9.86-3.05c-0.37-0.11-0.61-0.45-0.61-0.83l0.02-7.55
											c0-0.38,0.25-0.72,0.61-0.83l9.85-3.09c0.26-0.09,0.55-0.03,0.78,0.13c0.22,0.16,0.36,0.43,0.36,0.7v13.69
											c0,0.28-0.13,0.54-0.35,0.7C830.91,71.83,830.73,71.89,830.55,71.89z M821.56,67.32l8.12,2.51V58.51l-8.1,2.54
											L821.56,67.32z"/>
									</g>
								</g>
							</g>
						</g>
					</g>
				</g>
			</g>
		</g>
	</g>
	<g>
		<g>
			<g>
				<path class="st2" d="M985.15,77.44h-54.11c-2.45,0-4.44-1.99-4.44-4.44v-6.3c0-2.45,1.99-4.44,4.44-4.44h54.11
					c2.45,0,4.44,1.99,4.44,4.44v6.3C989.59,75.44,987.6,77.44,985.15,77.44z M931.04,64.25c-1.35,0-2.44,1.1-2.44,2.44v6.3
					c0,1.35,1.1,2.44,2.44,2.44h54.11c1.35,0,2.44-1.1,2.44-2.44v-6.3c0-1.35-1.1-2.44-2.44-2.44H931.04z"/>
			</g>
		</g>
		<g>
			<g>
				<path class="st5" d="M983.83,74.01h-51.47c-0.87,0-1.59-0.72-1.59-1.59v-5.15c0-0.87,0.72-1.59,1.59-1.59h51.47
					c0.87,0,1.59,0.72,1.59,1.59v5.15C985.42,73.29,984.71,74.01,983.83,74.01z"/>
			</g>
		</g>
		<g>
			<g>
				<g>
					<path class="st2" d="M946.14,64.31c-0.65,0-1.29-0.32-1.67-0.9l-12-18.28c-0.61-0.92-0.35-2.16,0.57-2.77
						c0.92-0.61,2.16-0.35,2.77,0.57l12,18.28c0.61,0.92,0.35,2.16-0.57,2.77C946.9,64.21,946.52,64.31,946.14,64.31z"/>
				</g>
			</g>
			<g>
				<g>
					<path class="st2" d="M970.05,64.31c-0.38,0-0.76-0.11-1.1-0.33c-0.92-0.61-1.18-1.85-0.57-2.77l12-18.28
						c0.61-0.92,1.84-1.18,2.77-0.57c0.92,0.61,1.18,1.85,0.57,2.77l-12,18.28C971.34,64,970.7,64.31,970.05,64.31z"/>
				</g>
			</g>
		</g>
		<g>
			<g>
				<g>
					<path class="st2" d="M920.62,40.81c-0.04,0-0.07,0-0.11-0.01c-0.55-0.06-0.94-0.56-0.88-1.1c0.01-0.13,1.6-12.7,16.66-11.11
						c0.55,0.06,0.95,0.55,0.89,1.1c-0.06,0.55-0.55,0.94-1.1,0.89c-13.11-1.39-14.41,8.91-14.46,9.35
						C921.56,40.43,921.12,40.81,920.62,40.81z"/>
				</g>
			</g>
			<g>
				<g>
					<path class="st2" d="M925.39,42.79c-0.04,0-0.07,0-0.11-0.01c-0.55-0.06-0.94-0.56-0.88-1.1c0.01-0.09,1.15-9.07,11.85-7.95
						c0.55,0.06,0.95,0.55,0.89,1.1c-0.06,0.55-0.55,0.94-1.1,0.89c-8.76-0.92-9.62,5.9-9.65,6.19
						C926.33,42.41,925.89,42.79,925.39,42.79z"/>
				</g>
			</g>
			<g>
				<g>
					<path class="st2" d="M929.61,43.92c-0.04,0-0.08,0-0.12-0.01c-0.54-0.07-0.94-0.55-0.88-1.1c0.2-1.78,1.85-5.02,6.63-4.52
						c0.55,0.06,0.95,0.55,0.89,1.1c-0.06,0.55-0.55,0.94-1.1,0.89c-3.92-0.41-4.4,2.44-4.44,2.76
						C930.53,43.54,930.1,43.92,929.61,43.92z"/>
				</g>
			</g>
		</g>
		<g>
			<g>
				<g>
					<path class="st2" d="M995.1,41.63c-0.5,0-0.93-0.38-0.99-0.89c-0.05-0.44-1.41-10.72-14.46-9.35c-0.54,0.05-1.04-0.34-1.1-0.89
						c-0.06-0.55,0.34-1.04,0.89-1.1c15.06-1.58,16.64,10.99,16.66,11.11c0.06,0.55-0.33,1.04-0.88,1.1
						C995.17,41.63,995.14,41.63,995.1,41.63z"/>
				</g>
			</g>
			<g>
				<g>
					<path class="st2" d="M990.33,43.61c-0.5,0-0.93-0.38-0.99-0.89l0,0c-0.04-0.29-0.95-7.11-9.66-6.19
						c-0.55,0.05-1.04-0.34-1.1-0.89c-0.06-0.55,0.34-1.04,0.89-1.1c10.71-1.12,11.84,7.86,11.85,7.95c0.06,0.55-0.33,1.04-0.88,1.1
						C990.4,43.61,990.36,43.61,990.33,43.61z"/>
				</g>
			</g>
			<g>
				<g>
					<path class="st2" d="M986.11,44.74c-0.5,0-0.93-0.37-0.99-0.88c-0.04-0.33-0.53-3.17-4.44-2.76c-0.55,0.05-1.04-0.34-1.1-0.89
						c-0.06-0.55,0.34-1.04,0.89-1.1c4.79-0.5,6.43,2.74,6.63,4.52c0.06,0.55-0.33,1.04-0.88,1.1
						C986.19,44.73,986.15,44.74,986.11,44.74z"/>
				</g>
			</g>
		</g>
	</g>
	<g>
		<g>
			<g>
				<path class="st2" d="M1210.48,102.79c-0.82,0-1.63-0.02-2.43-0.07c-5.34-0.32-5.9-2.16-6.37-5.14
					c-0.04-0.27-0.09-0.56-0.14-0.85c-0.46-2.58-0.7-17.37,2.18-19.14c3.49-2.15,10.66-1.83,13.58-1.59
					c2.78,0.23,7.71-0.7,9.01,2.97l0,0c0.61,1.73,0.62,4.4,0.63,6.55c0,0.59,0.01,1.14,0.02,1.61c0.08,2.51,0.08,5.06,0.01,7.57
					c-0.02,0.55,0,1.09,0.01,1.61c0.07,2.43,0.14,4.94-3.42,5.77c-2.24,0.52-5.62,0.57-7.85,0.6c-0.68,0.01-1.38,0.03-2.07,0.05
					C1212.61,102.76,1211.54,102.79,1210.48,102.79z M1213.16,77.34c-2.97,0-6.62,0.29-8.65,1.54c-1.58,0.97-2.21,13.55-1.49,17.6
					c0.05,0.3,0.1,0.6,0.14,0.88c0.4,2.55,0.57,3.61,4.98,3.87c1.78,0.11,3.65,0.06,5.46,0.01c0.7-0.02,1.4-0.04,2.09-0.05
					c2.17-0.03,5.45-0.08,7.54-0.57c2.27-0.52,2.33-1.68,2.26-4.26c-0.01-0.54-0.03-1.11-0.01-1.69c0.07-2.49,0.07-5.01-0.01-7.48
					c-0.02-0.49-0.02-1.05-0.02-1.65c-0.01-2.04-0.02-4.57-0.55-6.05l0,0c-0.63-1.78-2.76-1.92-5.69-1.92c-0.72,0-1.4,0-2.03-0.05
					C1216.38,77.44,1214.89,77.34,1213.16,77.34z"/>
			</g>
		</g>
		<g>
			<g>
				<path class="st5" d="M1222.14,82.99c-0.76-2.13-3.93-2.21-5.86-2.37c-2.46-0.2-6.5-0.26-8.66,1.19
					c-0.35,0.24-0.61,0.57-0.82,0.94c-0.27,0.26-0.46,0.61-0.49,1.07c0,0.07-0.01,0.15-0.02,0.22c-0.2,0.9-0.24,1.9-0.26,2.84
					c-0.26,2.52-0.53,5.14-0.11,7.49c0.39,2.2,1.82,3.48,4.03,3.72c1.72,0.19,3.54,0,5.27-0.03c1.54-0.02,3.38,0.22,4.88-0.13
					c2.5-0.58,2.34-2.72,2.41-4.89c0.05-1.74,0.05-3.48-0.01-5.21C1222.45,86.33,1222.64,84.42,1222.14,82.99z"/>
			</g>
		</g>
		<g>
			<g>
				<g>
					<g>
						<path class="st2" d="M1205.95,73.11c-0.06,1.35,0.03,2.69,0.25,4.03c0.15,0.95,1.6,0.55,1.45-0.4
							c-0.19-1.2-0.25-2.41-0.19-3.63C1207.49,72.14,1205.99,72.14,1205.95,73.11L1205.95,73.11z"/>
					</g>
				</g>
			</g>
			<g>
				<g>
					<g>
						<path class="st2" d="M1210.76,73.02c0.02,0.89,0.03,1.78,0.05,2.67c0.02,0.96,1.52,0.97,1.5,0c-0.02-0.89-0.03-1.78-0.05-2.67
							C1212.25,72.06,1210.75,72.05,1210.76,73.02L1210.76,73.02z"/>
					</g>
				</g>
			</g>
			<g>
				<g>
					<g>
						<path class="st2" d="M1214.92,72.61c0.02,1.33,0.05,2.67,0.07,4c0.02,0.96,1.52,0.97,1.5,0c-0.02-1.33-0.05-2.67-0.07-4
							C1216.41,71.65,1214.91,71.64,1214.92,72.61L1214.92,72.61z"/>
					</g>
				</g>
			</g>
			<g>
				<g>
					<g>
						<path class="st2" d="M1219.43,72.86c0.02,1.33,0.05,2.67,0.07,4c0.02,0.96,1.52,0.97,1.5,0c-0.02-1.33-0.05-2.67-0.07-4
							C1220.91,71.9,1219.41,71.9,1219.43,72.86L1219.43,72.86z"/>
					</g>
				</g>
			</g>
		</g>
		<g>
			<g>
				<g>
					<g>
						<path class="st2" d="M1207.94,106.03c-0.1-1.28-0.08-2.56,0.08-3.83c0.12-0.96-1.38-0.95-1.5,0
							c-0.16,1.28-0.19,2.55-0.08,3.83C1206.52,106.99,1208.02,106.99,1207.94,106.03L1207.94,106.03z"/>
					</g>
				</g>
			</g>
			<g>
				<g>
					<g>
						<path class="st2" d="M1212.85,105.4c-0.02-0.89-0.03-1.78-0.05-2.67c-0.02-0.96-1.52-0.97-1.5,0
							c0.02,0.89,0.03,1.78,0.05,2.67C1211.37,106.36,1212.87,106.37,1212.85,105.4L1212.85,105.4z"/>
					</g>
				</g>
			</g>
			<g>
				<g>
					<g>
						<path class="st2" d="M1217.03,105.95c-0.02-1.33-0.05-2.67-0.07-4c-0.02-0.96-1.52-0.97-1.5,0c0.02,1.33,0.05,2.67,0.07,4
							C1215.54,106.91,1217.04,106.92,1217.03,105.95L1217.03,105.95z"/>
					</g>
				</g>
			</g>
			<g>
				<g>
					<g>
						<path class="st2" d="M1221.53,105.91c-0.02-1.33-0.05-2.67-0.07-4c-0.02-0.96-1.52-0.97-1.5,0c0.02,1.33,0.05,2.67,0.07,4
							C1220.04,106.87,1221.54,106.88,1221.53,105.91L1221.53,105.91z"/>
					</g>
				</g>
			</g>
		</g>
		<g>
			<g>
				<g>
					<g>
						<path class="st2" d="M1198.61,98.16c1.35,0.06,2.69-0.03,4.03-0.25c0.95-0.15,0.55-1.6-0.4-1.45
							c-1.2,0.19-2.41,0.25-3.63,0.19C1197.64,96.62,1197.64,98.12,1198.61,98.16L1198.61,98.16z"/>
					</g>
				</g>
			</g>
			<g>
				<g>
					<g>
						<path class="st2" d="M1198.52,93.34c0.89-0.02,1.78-0.03,2.67-0.05c0.96-0.02,0.97-1.52,0-1.5c-0.89,0.02-1.78,0.03-2.67,0.05
							C1197.55,91.86,1197.55,93.36,1198.52,93.34L1198.52,93.34z"/>
					</g>
				</g>
			</g>
			<g>
				<g>
					<g>
						<path class="st2" d="M1198.11,89.18c1.33-0.02,2.67-0.05,4-0.07c0.96-0.02,0.97-1.52,0-1.5c-1.33,0.02-2.67,0.05-4,0.07
							C1197.15,87.7,1197.14,89.2,1198.11,89.18L1198.11,89.18z"/>
					</g>
				</g>
			</g>
			<g>
				<g>
					<g>
						<path class="st2" d="M1198.36,84.68c1.33-0.02,2.67-0.05,4-0.07c0.96-0.02,0.97-1.52,0-1.5c-1.33,0.02-2.67,0.05-4,0.07
							C1197.4,83.19,1197.39,84.69,1198.36,84.68L1198.36,84.68z"/>
					</g>
				</g>
			</g>
		</g>
		<g>
			<g>
				<g>
					<g>
						<path class="st2" d="M1230.21,96.09c-1.28,0.1-2.56,0.08-3.83-0.08c-0.96-0.12-0.95,1.38,0,1.5c1.28,0.16,2.55,0.19,3.83,0.08
							C1231.16,97.51,1231.17,96.01,1230.21,96.09L1230.21,96.09z"/>
					</g>
				</g>
			</g>
			<g>
				<g>
					<g>
						<path class="st2" d="M1230.12,91.27c-0.89,0.02-1.78,0.03-2.67,0.05c-0.96,0.02-0.97,1.52,0,1.5
							c0.89-0.02,1.78-0.03,2.67-0.05C1231.09,92.75,1231.09,91.25,1230.12,91.27L1230.12,91.27z"/>
					</g>
				</g>
			</g>
			<g>
				<g>
					<g>
						<path class="st2" d="M1230.38,87.1c-1.33,0.02-2.67,0.05-4,0.07c-0.96,0.02-0.97,1.52,0,1.5c1.33-0.02,2.67-0.05,4-0.07
							C1231.34,88.58,1231.35,87.08,1230.38,87.1L1230.38,87.1z"/>
					</g>
				</g>
			</g>
			<g>
				<g>
					<g>
						<path class="st2" d="M1230.3,82.6c-1.33,0.02-2.67,0.05-4,0.07c-0.96,0.02-0.97,1.52,0,1.5c1.33-0.02,2.67-0.05,4-0.07
							C1231.26,84.08,1231.27,82.58,1230.3,82.6L1230.3,82.6z"/>
					</g>
				</g>
			</g>
		</g>
	</g>
	<g>
		<g>
			<g>
				<g>
					<g>
						<path class="st2" d="M866.04,96.4l12.35,5.74c0.32,0.15,0.66,0.22,1.01,0.22c0.46,0,0.9-0.13,1.29-0.38
							c0.69-0.44,1.11-1.2,1.11-2.02v-0.06c0-0.93-0.55-1.79-1.39-2.18l-7.73-3.59l7.73-3.59c0.84-0.39,1.39-1.25,1.39-2.18v-0.06
							c0-0.82-0.41-1.58-1.11-2.02c-0.38-0.25-0.83-0.38-1.29-0.38c-0.35,0-0.7,0.08-1.01,0.22l-12.35,5.74
							c-0.84,0.39-1.39,1.25-1.39,2.18v0.17C864.65,95.15,865.2,96.01,866.04,96.4z"/>
					</g>
				</g>
				<g>
					<g>
						<path class="st2" d="M881.92,108.1c0.45,0.62,1.18,0.98,1.94,0.98h0.06c1.05,0,1.97-0.67,2.29-1.67l8.14-25.22
							c0.23-0.73,0.1-1.53-0.35-2.15c-0.45-0.62-1.18-0.99-1.94-0.99h-0.06c-1.05,0-1.97,0.67-2.29,1.67l-8.14,25.22
							C881.33,106.69,881.47,107.49,881.92,108.1z"/>
					</g>
				</g>
				<g>
					<g>
						<path class="st2" d="M894.1,88.37c0,0.93,0.54,1.78,1.39,2.18l7.73,3.59l-7.73,3.59c-0.84,0.39-1.39,1.25-1.39,2.18v0.06
							c0,0.82,0.41,1.58,1.11,2.02c0.39,0.25,0.83,0.38,1.29,0.38c0.35,0,0.69-0.07,1.01-0.22l12.35-5.74
							c0.84-0.39,1.39-1.25,1.39-2.18v-0.17c0-0.93-0.55-1.78-1.39-2.18l-12.35-5.74c-0.31-0.14-0.66-0.22-1.01-0.22
							c-0.46,0-0.91,0.13-1.29,0.37c-0.7,0.44-1.11,1.2-1.11,2.02V88.37L894.1,88.37z"/>
					</g>
				</g>
			</g>
		</g>
	</g>
	<g>
		<g>
			<g>
				<g>
					<path class="st2" d="M1073.57,111.49h-46.58c-1.9,0-3.43-1.53-3.43-3.43V75.99c0-1.9,1.53-3.43,3.43-3.43h46.58
						c1.9,0,3.43,1.53,3.43,3.43v32.07C1077,109.96,1075.44,111.49,1073.57,111.49z M1026.99,73.84c-1.19,0-2.15,0.96-2.15,2.15
						v32.07c0,1.19,0.96,2.15,2.15,2.15h46.58c1.19,0,2.15-0.96,2.15-2.15V75.99c0-1.19-0.96-2.15-2.15-2.15H1026.99z"/>
					<path class="st2" d="M1073.57,111.74h-46.58c-2.03,0-3.68-1.65-3.68-3.68V75.99c0-2.03,1.65-3.68,3.68-3.68h46.58
						c2.03,0,3.68,1.65,3.68,3.68v32.07C1077.25,110.09,1075.6,111.74,1073.57,111.74z M1026.99,72.81c-1.75,0-3.18,1.43-3.18,3.18
						v32.07c0,1.75,1.43,3.18,3.18,3.18h46.58c1.75,0,3.18-1.43,3.18-3.18V75.99c0-1.75-1.43-3.18-3.18-3.18H1026.99z
						 M1073.57,110.47h-46.58c-1.33,0-2.4-1.08-2.4-2.4V75.99c0-1.33,1.08-2.4,2.4-2.4h46.58c1.33,0,2.4,1.08,2.4,2.4v32.07
						C1075.97,109.39,1074.89,110.47,1073.57,110.47z M1026.99,74.09c-1.05,0-1.9,0.85-1.9,1.9v32.07c0,1.05,0.85,1.9,1.9,1.9h46.58
						c1.05,0,1.9-0.85,1.9-1.9V75.99c0-1.05-0.85-1.9-1.9-1.9H1026.99z"/>
				</g>
			</g>
			<g>
				<g>
					<path class="st2" d="M1073.37,100.16h-22.69c-1.98,0-3.63-1.61-3.63-3.63v-20.4c0-1.98,1.61-3.63,3.63-3.63h22.69
						c1.98,0,3.63,1.61,3.63,3.63v20.4C1077,98.55,1075.38,100.16,1073.37,100.16z M1050.68,73.81c-1.3,0-2.35,1.05-2.35,2.35v20.4
						c0,1.3,1.05,2.35,2.35,2.35h22.69c1.3,0,2.35-1.05,2.35-2.35v-20.4c0-1.3-1.05-2.35-2.35-2.35H1050.68L1050.68,73.81z"/>
					<path class="st2" d="M1073.37,100.41h-22.69c-2.14,0-3.88-1.74-3.88-3.88v-20.4c0-2.14,1.74-3.88,3.88-3.88h22.69
						c2.14,0,3.88,1.74,3.88,3.88v20.4C1077.25,98.67,1075.51,100.41,1073.37,100.41z M1050.68,72.76c-1.86,0-3.38,1.51-3.38,3.38
						v20.4c0,1.86,1.51,3.38,3.38,3.38h22.69c1.86,0,3.38-1.51,3.38-3.38v-20.4c0-1.86-1.51-3.38-3.38-3.38H1050.68z M1073.37,99.16
						h-22.69c-1.43,0-2.6-1.17-2.6-2.6v-20.4c0-1.43,1.17-2.6,2.6-2.6h22.69c1.43,0,2.6,1.17,2.6,2.6v20.4
						C1075.97,98,1074.81,99.16,1073.37,99.16z M1050.68,74.06c-1.16,0-2.1,0.94-2.1,2.1v20.4c0,1.16,0.94,2.1,2.1,2.1h22.69
						c1.16,0,2.1-0.94,2.1-2.1v-20.4c0-1.16-0.94-2.1-2.1-2.1H1050.68z"/>
				</g>
			</g>
		</g>
		<g>
			<g>
				<path class="st2" d="M1024.41,104.5h-2.92c-0.4,0-0.74-0.34-0.74-0.74v-8.08c0-0.4,0.34-0.74,0.74-0.74h2.92V104.5z
					 M1021.49,95.37c-0.17,0-0.28,0.14-0.28,0.28v8.07c0,0.17,0.14,0.28,0.28,0.28h2.46v-8.67h-2.46V95.37z"/>
				<path class="st2" d="M1024.91,104.99h-3.42c-0.67,0-1.24-0.57-1.24-1.24v-8.08c0-0.67,0.57-1.24,1.24-1.24h3.42V104.99z
					 M1021.71,103.51h1.75v-7.67l-1.75,0.02V103.51z"/>
			</g>
		</g>
		<g>
			<g>
				<path class="st2" d="M1041.95,73.36h-11.11V70.3c0-0.51,0.42-0.93,0.93-0.93h9.24c0.51,0,0.94,0.42,0.94,0.93V73.36
					L1041.95,73.36z M1031.3,72.9h10.23V70.3c0-0.28-0.23-0.51-0.51-0.51h-9.24c-0.28,0-0.51,0.23-0.51,0.51v2.61H1031.3z"/>
				<path class="st2" d="M1041.95,73.86h-11.11c-0.28,0-0.5-0.22-0.5-0.5V70.3c0-0.79,0.64-1.44,1.43-1.44h9.24
					c0.79,0,1.44,0.64,1.44,1.44v3.06C1042.45,73.63,1042.23,73.86,1041.95,73.86z M1031.77,72.4h9.25V70.3l-9.25-0.01L1031.77,72.4
					z"/>
			</g>
		</g>
		<g>
			<circle class="st5" cx="1036.77" cy="101.58" r="5.01"/>
		</g>
		<g>
			<path class="st5" d="M1043.54,94.01h-13.49c-0.85,0-1.53-0.68-1.53-1.53V78.71c0-0.85,0.68-1.53,1.53-1.53h13.49
				c0.85,0,1.53,0.68,1.53,1.53v13.77C1045.07,93.33,1044.36,94.01,1043.54,94.01z"/>
		</g>
		<g>
			<g>
				<path class="st2" d="M1070.09,114.36h-13.94v-1.42c0-0.34-0.28-0.62-0.62-0.62h-0.85c-0.37,0-0.65,0.28-0.65,0.65v1.39h-2.49
					v-1.39c0-0.37-0.28-0.65-0.65-0.65h-0.82c-0.37,0-0.65,0.28-0.65,0.65v1.39h-2.55v-1.42c0-0.34-0.28-0.62-0.62-0.62h-0.85
					c-0.37,0-0.65,0.28-0.65,0.65v1.39h-15.13c-0.79,0-1.42-0.65-1.42-1.42v-2.29h43.38v2.29
					C1071.5,113.73,1070.88,114.36,1070.09,114.36z M1056.57,113.9h13.51c0.54,0,0.99-0.42,0.99-0.99v-1.87h-42.5v1.87
					c0,0.54,0.42,0.99,0.99,0.99h14.68v-0.96c0-0.59,0.48-1.1,1.11-1.1h0.85c0.59,0,1.08,0.48,1.08,1.08v0.96h1.67v-0.96
					c0-0.6,0.48-1.1,1.1-1.1h0.82c0.62,0,1.11,0.48,1.11,1.1v0.93h1.61v-0.96c0-0.6,0.48-1.11,1.1-1.11h0.85
					c0.59,0,1.08,0.48,1.08,1.08v1.05H1056.57z"/>
				<path class="st2" d="M1070.09,114.73h-14.32v-1.79c0-0.13-0.12-0.25-0.25-0.25h-0.85c-0.16,0-0.28,0.12-0.28,0.28v1.76h-3.24
					v-1.76c0-0.16-0.12-0.28-0.28-0.28h-0.82c-0.16,0-0.28,0.12-0.28,0.28v1.76h-3.3v-1.79c0-0.13-0.12-0.25-0.25-0.25h-0.85
					c-0.16,0-0.28,0.12-0.28,0.28v1.76h-15.5c-0.99,0-1.79-0.8-1.79-1.79v-2.67h44.13v2.67
					C1071.86,113.97,1071.07,114.73,1070.09,114.73z M1057,113.53h13.08c0.35,0,0.62-0.27,0.62-0.62v-1.5h-14.96
					c0.71,0.1,1.26,0.7,1.26,1.44V113.53z M1028.95,111.41v1.5c0,0.35,0.27,0.62,0.62,0.62h14.3v-0.59c0-0.82,0.66-1.48,1.48-1.48
					h0.85c0.8,0,1.45,0.65,1.45,1.45v0.59h0.92v-0.59c0-0.82,0.66-1.48,1.48-1.48h0.82c0.83,0,1.48,0.65,1.48,1.48v0.56h0.87v-0.59
					c0-0.75,0.56-1.37,1.28-1.47H1028.95z"/>
			</g>
		</g>
		<g>
			<g>
				<path class="st6" d="M1062.27,88.4c-1.42,0-2.55-1.13-2.55-2.55c0-1.42,1.13-2.55,2.55-2.55s2.55,1.13,2.55,2.55
					C1064.82,87.27,1063.68,88.4,1062.27,88.4z M1062.27,83.76c-1.16,0-2.1,0.93-2.1,2.1c0,1.16,0.94,2.1,2.1,2.1s2.1-0.93,2.1-2.1
					C1064.36,84.69,1063.43,83.76,1062.27,83.76z"/>
			</g>
		</g>
		<g>
			<circle class="st7" cx="1062.27" cy="85.85" r="2.55"/>
		</g>
		<g>
			<path class="st5" d="M1062.27,92.28c-3.54,0-6.43-2.89-6.43-6.43c0-3.54,2.89-6.43,6.43-6.43s6.43,2.89,6.43,6.43
				C1068.7,89.39,1065.81,92.28,1062.27,92.28z"/>
		</g>
		<g>
			<path class="st2" d="M1062.27,83.76c-1.16,0-2.1,0.93-2.1,2.1c0,1.16,0.94,2.1,2.1,2.1s2.1-0.93,2.1-2.1
				C1064.36,84.69,1063.43,83.76,1062.27,83.76z"/>
		</g>
		<g>
			<g>
				<path class="st2" d="M1062.27,95.37c-5.24,0-9.52-4.28-9.52-9.52c0-5.24,4.28-9.52,9.52-9.52s9.52,4.28,9.52,9.52
					C1071.79,91.09,1067.51,95.37,1062.27,95.37z M1062.27,76.76c-5.02,0-9.09,4.08-9.09,9.1s4.08,9.09,9.09,9.09
					c5.01,0,9.09-4.08,9.09-9.09S1067.28,76.76,1062.27,76.76z"/>
				<path class="st2" d="M1062.27,95.75c-5.46,0-9.89-4.44-9.89-9.89c0-5.46,4.44-9.9,9.89-9.9s9.9,4.44,9.9,9.9
					C1072.16,91.31,1067.72,95.75,1062.27,95.75z M1062.27,77.13c-4.81,0-8.72,3.91-8.72,8.72c0,4.81,3.91,8.72,8.72,8.72
					s8.72-3.91,8.72-8.72C1070.98,81.04,1067.07,77.13,1062.27,77.13z"/>
			</g>
		</g>
		<g>
			<g>
				<path class="st2" d="M1031.3,73.36h-3.15v-2.38c0-0.37,0.31-0.68,0.68-0.68h2.46V73.36L1031.3,73.36z M1028.58,72.9h2.27v-2.18
					h-2.01c-0.14,0-0.26,0.11-0.26,0.26V72.9z"/>
				<path class="st2" d="M1031.3,73.86h-3.15c-0.28,0-0.5-0.22-0.5-0.5v-2.38c0-0.64,0.54-1.18,1.18-1.18h2.46
					c0.28,0,0.5,0.22,0.5,0.5v3.06C1031.8,73.63,1031.57,73.86,1031.3,73.86z M1029.08,72.4h1.27v-1.18h-1.27V72.4z"/>
			</g>
		</g>
		<g>
			<g>
				<path class="st2" d="M1071.93,73.36h-30.43V70.3h30.43V73.36z M1041.92,72.9h29.55v-2.18h-29.55V72.9z"/>
				<path class="st2" d="M1071.93,73.86h-30.43c-0.28,0-0.5-0.22-0.5-0.5V70.3c0-0.28,0.22-0.5,0.5-0.5h30.43
					c0.28,0,0.5,0.22,0.5,0.5v3.06C1072.43,73.63,1072.2,73.86,1071.93,73.86z M1042.42,72.4h28.55v-1.18h-28.55V72.4z"/>
			</g>
		</g>
	</g>
	<g>
		<g>
			<g>
				<g>
					<g>
						<path class="st2" d="M1257.95,107.39c-0.57-13.52,10.28-25.31,23.69-26.24c4.06-0.28,3.48-6.57-0.58-6.29
							c-16.95,1.17-30.11,16.23-29.41,33.11C1251.83,112.04,1258.12,111.45,1257.95,107.39L1257.95,107.39z"/>
					</g>
				</g>
			</g>
		</g>
		<g>
			<g>
				<g>
					<g>
						<path class="st2" d="M1270.8,109.08c-0.35-8.32,6.39-15.51,14.6-16.08c4.06-0.28,3.48-6.57-0.58-6.29
							c-11.75,0.81-20.81,11.28-20.32,22.95C1264.68,113.73,1270.98,113.14,1270.8,109.08L1270.8,109.08z"/>
					</g>
				</g>
			</g>
		</g>
		<g>
			<g>
				<g>
					<g>
						<path class="st2" d="M1281.82,110.78c-0.14-3.35,2.68-6.17,5.94-6.39c4.06-0.28,3.48-6.57-0.58-6.29
							c-6.8,0.47-11.93,6.55-11.65,13.27C1275.7,115.42,1281.99,114.83,1281.82,110.78L1281.82,110.78z"/>
					</g>
				</g>
			</g>
		</g>
		<g>
			<g>
				<g>
					<g>
						<path class="st2" d="M1287.35,112.46c4.05-0.37,3.48-6.66-0.58-6.29C1282.72,106.54,1283.29,112.83,1287.35,112.46
							L1287.35,112.46z"/>
					</g>
				</g>
			</g>
		</g>
	</g>
</g>
</svg>
