<?xml version="1.0" encoding="utf-8"?>
<!-- Generator: Adobe Illustrator 27.2.0, SVG Export Plug-In . SVG Version: 6.00 Build 0)  -->
<svg version="1.1" id="Camada_1" xmlns="http://www.w3.org/2000/svg" xmlns:xlink="http://www.w3.org/1999/xlink" x="0px" y="0px"
	 viewBox="0 0 300 300" style="enable-background:new 0 0 300 300;" xml:space="preserve">
<style type="text/css">
	.st0{fill:#A7CAEC;}
	.st1{fill:#273885;}
	.st2{fill:#8BAECC;}
	.st3{fill:#4F5AA5;}
	.st4{fill:#2C488C;}
	.st5{fill:#7688C4;}
	.st6{fill:#FFD600;}
	.st7{fill:#1E396E;}
	.st8{fill:#8D9ACE;}
	.st9{fill:#1E386B;}
	.st10{opacity:0.7;}
	.st11{fill:#D76716;}
	.st12{fill:#A9D2A0;}
	.st13{fill:#82B378;}
	.st14{opacity:0.1;}
	.st15{fill:#DEE6F6;}
	.st16{fill:#EBF2F9;}
	.st17{fill:#D5E4F6;}
	.st18{fill:#E3EEFA;}
	.st19{fill:#A0AFDA;}
	.st20{fill:#B2CBEC;}
	.st21{fill:#B1C1E5;}
	.st22{fill:#839CD0;}
	.st23{fill:#C7D6EF;}
	.st24{fill:#D46E1B;}
	.st25{fill:#F49643;}
	.st26{fill:#F5A05A;}
	.st27{fill:#F9FCFF;}
	.st28{opacity:0.5;}
	.st29{fill:#F49749;}
	.st30{fill:#EE7D2C;}
	.st31{fill:#282E65;}
	.st32{fill:#171730;}
	.st33{fill:#859BCF;}
	.st34{fill:#EE985E;}
	.st35{fill:#F7B17F;}
	.st36{fill:#AA463E;}
	.st37{fill:#7E95CC;}
	.st38{fill:#243862;}
	.st39{fill:#EF873A;}
	.st40{fill:#EF7C4A;}
	.st41{fill:#282C61;}
	.st42{fill:#EE7269;}
	.st43{fill:#18162B;}
	.st44{opacity:0.3;}
	.st45{fill:#EB9A63;}
	.st46{fill:#687BBB;}
	.st47{fill:#A1AED9;}
	.st48{fill:#1A2D4C;}
	.st49{fill:#F8B484;}
	.st50{fill:#EA6D2D;}
	.st51{fill:#96C38B;}
	.st52{fill:#B6463D;}
	.st53{fill:#EECBAB;}
	.st54{fill:#F7B55F;}
	.st55{fill:#709AD1;}
	.st56{fill:#5B8AC8;}
</style>
<g>
	<g>
		<path class="st0" d="M293.68,222.92c-0.76,1.39-1.52,2.63-2.24,3.7c-0.02,0.03-0.04,0.06-0.06,0.1c-2.07,3.09-5.55,4.93-9.26,4.93
			c-19.92,0-88.66,0-110.08-0.01c0,0-112.4-0.32-147.56-0.43c-6.88-0.02-13.09-4.1-15.88-10.39c-3.17-7.14-6.6-17.43-7-29.1
			c-0.63-18.51,6.37-40.47,34.2-58.78c23.91-15.74-1.5-26.13,17.52-43.66c21.85-20.14,45.69,2.14,69.99-6.99
			c4.29-1.61,8.6-4.21,12.91-8.19c2.43-2.24,5.09-4.2,7.94-5.89c0.44-0.26,0.88-0.51,1.32-0.76c1.71-0.94,3.47-1.8,5.29-2.57
			c1.22-0.51,2.47-0.99,3.74-1.43c2.01-0.7,4.09-1.3,6.2-1.8c3-0.72,6.09-1.26,9.24-1.62c1.38-0.16,2.76-0.28,4.16-0.38
			c27.15-1.82,57.7,8.43,73.46,23.43c3.17,3.02,17.61,18.64,6.23,40.12c-7.18,13.56,22.91,26.51,33.6,41.99
			c6.69,9.69,10.12,18.6,11.47,26.54C301.18,205.29,297.46,216.02,293.68,222.92z"/>
	</g>
	<g>
		<path class="st1" d="M103.16,191.76l-0.58-0.08c0.01-0.1,0.36-2.58,2.8-4.13c2.16-1.37,1.42-5.64,1.41-5.68l0.58-0.1
			c0.01,0.05,0.21,1.17,0.11,2.5c-0.13,1.81-0.75,3.12-1.79,3.78C103.49,189.45,103.17,191.74,103.16,191.76z"/>
	</g>
	<g>
		<path class="st1" d="M106.93,191.86c-0.01-0.03-1.43-2.69,1.13-4.31c2.11-1.34,0.24-5.49,0.22-5.53l0.53-0.25
			c0.02,0.05,0.53,1.15,0.74,2.47c0.3,1.81-0.11,3.13-1.18,3.81c-2.1,1.33-0.97,3.44-0.92,3.53L106.93,191.86z"/>
	</g>
	<g>
		<path class="st2" d="M293.71,229.22c-0.05,0.11-0.1,0.22-0.15,0.33c-0.1,0.22-0.2,0.43-0.3,0.65c-0.66,1.43-1.32,2.71-1.94,3.84
			c-0.02,0.04-0.04,0.08-0.06,0.12c-2.07,3.74-5.55,5.98-9.26,5.98c-7.9,0-23.49,0-40.75,0h-2.35c-9.41,0-19.23,0-28.52,0h-2.77
			c-14.94,0-28.2,0-35.68-0.01c0,0-37.64-0.13-76.17-0.26c-0.65,0-1.3,0-1.96-0.01c-11.22-0.04-22.46-0.08-32.81-0.12
			c-1.34,0-2.66-0.01-3.97-0.01c-13.3-0.05-24.87-0.09-32.65-0.12c-5.45-0.02-10.48-3.12-13.72-8.2c-0.17-0.27-0.34-0.54-0.5-0.82
			c-0.64-1.11-1.2-2.3-1.66-3.57c-3.17-8.66-6.6-21.14-7-35.28h297.27C301.03,207.95,297.44,220.83,293.71,229.22z"/>
	</g>
	<g>
		<g>
			<polygon class="st3" points="229.34,221.44 62.18,221.44 79.03,204.28 214.65,204.28 			"/>
		</g>
		<g>
			<rect x="62.18" y="221.44" class="st4" width="167.16" height="2.19"/>
		</g>
		<g>
			<g>
				<g>
					<rect x="79.99" y="207.88" class="st4" width="133.23" height="0.59"/>
				</g>
			</g>
			<g>
				<g>
					<rect x="75.47" y="211.46" class="st4" width="141.32" height="0.59"/>
				</g>
			</g>
			<g>
				<g>
					<rect x="71.71" y="215.43" class="st4" width="148.85" height="0.59"/>
				</g>
			</g>
			<g>
				<rect x="80.67" y="205.23" class="st4" width="6.02" height="1.81"/>
			</g>
			<g>
				<rect x="126.81" y="205.23" class="st4" width="6.02" height="1.81"/>
			</g>
			<g>
				<rect x="136.49" y="205.23" class="st4" width="6.02" height="1.81"/>
			</g>
			<g>
				<rect x="162.25" y="205.23" class="st4" width="6.02" height="1.81"/>
			</g>
			<g>
				<rect x="171.2" y="205.23" class="st4" width="6.02" height="1.81"/>
			</g>
			<g>
				<rect x="180.89" y="205.23" class="st4" width="6.02" height="1.81"/>
			</g>
		</g>
	</g>
	<g>
		<g>
			<path class="st4" d="M291.47,191.72h-1.18c-2.67-3.9-4.98-4.08-9.47-4.43c-1.38-0.11-2.94-0.23-4.78-0.47
				c-4.09-0.55-5.43-2.74-6.98-5.28c-0.7-1.15-1.43-2.34-2.49-3.54c-3.26-3.69-10.59-2.61-10.66-2.6l-0.15-0.97
				c0.32-0.05,7.94-1.17,11.55,2.92c1.12,1.27,1.9,2.55,2.6,3.68c1.54,2.51,2.65,4.33,6.27,4.82c1.8,0.24,3.35,0.36,4.72,0.47
				C285.77,186.69,288.39,186.89,291.47,191.72z"/>
		</g>
	</g>
	<g>
		<g>
			<path class="st5" d="M251.92,198.5h-21.71c-2.12,0-3.83-1.72-3.83-3.83v-21.71c0-2.12,1.72-3.83,3.83-3.83h21.71
				c2.12,0,3.83,1.72,3.83,3.83v21.71C255.75,196.79,254.04,198.5,251.92,198.5z"/>
		</g>
		<g>
			<g>
				<g>
					<path class="st6" d="M251.14,183.15c0,0.53-0.04,1.05-0.12,1.55c-0.02,0.12-0.04,0.25-0.06,0.37c-0.17,0.87-0.45,1.7-0.82,2.47
						c-0.04,0.07-0.07,0.15-0.11,0.22c-0.66,1.27-1.58,2.39-2.69,3.28c-0.06,0.05-0.12,0.1-0.18,0.14
						c-1.13,0.86-2.45,1.49-3.89,1.81h0l-0.26,0.06h0c-0.36,0.07-0.73,0.12-1.11,0.15c-0.12,0.01-0.25,0.02-0.37,0.02h0
						c-0.15,0.01-0.31,0.01-0.47,0.01c-1.07,0-2.11-0.17-3.08-0.48c-0.15-0.05-0.3-0.1-0.45-0.16c-0.35-0.13-0.68-0.28-1.01-0.44
						c-0.07-0.04-0.15-0.07-0.22-0.11c-1.4-0.75-2.6-1.83-3.51-3.12c-0.04-0.06-0.09-0.13-0.13-0.19c-0.62-0.93-1.09-1.98-1.38-3.1
						c-0.04-0.15-0.07-0.31-0.1-0.46c-0.08-0.38-0.13-0.76-0.17-1.15c-0.01-0.1-0.02-0.19-0.02-0.29v0
						c-0.01-0.19-0.02-0.38-0.02-0.58c0-1.05,0.16-2.06,0.46-3.01c0.03-0.08,0.05-0.17,0.08-0.25c0.47-1.38,1.24-2.63,2.22-3.67
						c0.05-0.06,0.11-0.11,0.16-0.16c0.99-1.01,2.2-1.8,3.55-2.32c0.08-0.03,0.15-0.06,0.23-0.09c1.06-0.38,2.2-0.58,3.38-0.58
						c0.57,0,1.12,0.05,1.67,0.14c0.1,0.02,0.19,0.03,0.29,0.05c0.07,0.01,0.14,0.03,0.2,0.04c0.13,0.03,0.27,0.06,0.4,0.1
						c1.46,0.38,2.78,1.08,3.91,2.01c0.06,0.05,0.12,0.1,0.18,0.15c1.19,1.04,2.12,2.35,2.72,3.83c0.03,0.08,0.06,0.15,0.09,0.23
						c0.25,0.66,0.43,1.34,0.53,2.06c0.02,0.13,0.04,0.27,0.05,0.4v0C251.12,182.43,251.14,182.79,251.14,183.15z"/>
				</g>
			</g>
			<g>
				<g>
					<g>
						<path class="st7" d="M247.33,191.04c-0.06,0.05-0.12,0.1-0.18,0.14l-1.34-1.5l-0.15-0.17l-2.76-3.08l-0.15-0.17l-3.12-3.47
							l-0.15-0.17l-3.08-3.43l-0.15-0.17l-2.51-2.8c0.05-0.06,0.11-0.11,0.16-0.16l2.52,2.81l0.15,0.17l3.08,3.43l0.15,0.17
							l3.12,3.47l0.15,0.17l2.76,3.08l0.15,0.17L247.33,191.04z"/>
					</g>
				</g>
				<g>
					<g>
						<path class="st7" d="M250.13,187.54c-0.04,0.07-0.07,0.15-0.11,0.22l-0.92-1.03l-0.15-0.17l-2.76-3.08l-0.15-0.17l-3.12-3.47
							l-0.15-0.17l-3.08-3.43l-0.15-0.17l-2.09-2.33c0.08-0.03,0.15-0.06,0.23-0.09l2.03,2.26l0.15,0.17l3.08,3.43l0.15,0.17
							l3.12,3.47l0.15,0.17l2.76,3.08l0.15,0.17L250.13,187.54z"/>
					</g>
				</g>
				<g>
					<g>
						<path class="st7" d="M251.03,181.67c0.02,0.13,0.04,0.27,0.05,0.4l-1.48-1.65l-0.15-0.17l-3.12-3.48l-0.15-0.17l-2.97-3.31
							c0.13,0.03,0.27,0.06,0.4,0.1l2.74,3.06l0.15,0.17l3.12,3.48l0.15,0.17L251.03,181.67z"/>
					</g>
				</g>
				<g>
					<g>
						<path class="st7" d="M243.26,192.99l-0.26,0.06h0l-0.42-0.47l-0.15-0.17l-2.76-3.08l-0.15-0.17l-3.11-3.47l-0.15-0.17
							l-3.08-3.43l-0.15-0.17l-1.59-1.77c0.03-0.08,0.05-0.17,0.08-0.25l1.67,1.87l0.15,0.17l3.08,3.43l0.15,0.17l3.12,3.47
							l0.15,0.17l2.76,3.08l0.15,0.17L243.26,192.99z"/>
					</g>
				</g>
				<g>
					<g>
						<path class="st7" d="M243,173.26l-3.15,2.83l-0.17,0.15l-3.12,2.8l-0.17,0.15l-3.06,2.74l-0.17,0.15l-2.16,1.94
							c-0.01-0.1-0.02-0.19-0.02-0.29v0l2.03-1.82l0.17-0.15l3.06-2.74l0.17-0.15l3.12-2.8l0.17-0.15l3.02-2.71
							C242.81,173.22,242.91,173.24,243,173.26z"/>
					</g>
				</g>
				<g>
					<g>
						<path class="st7" d="M247.69,175.56l-1.19,1.06l-0.17,0.15l-3.24,2.91l-0.17,0.15l-3.12,2.8l-0.17,0.15l-3.06,2.74l-0.17,0.15
							l-2.64,2.37l-0.17,0.15l-0.8,0.72c-0.04-0.06-0.09-0.13-0.13-0.19l0.78-0.7l0.17-0.15l2.64-2.37l0.17-0.15l3.06-2.74
							l0.17-0.15l3.12-2.8l0.17-0.15l3.24-2.91l0.17-0.15l1.16-1.04C247.57,175.46,247.63,175.51,247.69,175.56z"/>
					</g>
				</g>
				<g>
					<g>
						<path class="st7" d="M250.5,179.62l-0.73,0.65l-0.17,0.15l-3.24,2.91l-0.17,0.15l-3.12,2.8l-0.17,0.15l-3.06,2.74l-0.17,0.15
							l-2.64,2.37l-0.17,0.15l-0.34,0.31c-0.07-0.04-0.15-0.07-0.22-0.11l0.41-0.36l0.17-0.15l2.64-2.37l0.17-0.15l3.06-2.74
							l0.17-0.15l3.12-2.8l0.17-0.15l3.24-2.91l0.17-0.15l0.79-0.71C250.44,179.46,250.47,179.54,250.5,179.62z"/>
					</g>
				</g>
				<g>
					<g>
						<path class="st7" d="M251.02,184.7c-0.02,0.12-0.04,0.25-0.06,0.37l-1.68,1.51l-0.17,0.15l-3.12,2.8l-0.17,0.15l-3.06,2.74
							l-0.17,0.15l-0.69,0.62c-0.12,0.01-0.25,0.02-0.37,0.02l0.91-0.82l0.17-0.15l3.06-2.74l0.17-0.15l3.12-2.8l0.17-0.15
							L251.02,184.7z"/>
					</g>
				</g>
				<g>
					<g>
						<path class="st7" d="M237.97,192.76c-0.15-0.05-0.3-0.1-0.45-0.16l-0.67-0.75l-0.15-0.17l-3.12-3.47l-0.15-0.17l-2.15-2.4
							c-0.04-0.15-0.07-0.31-0.1-0.46l2.43,2.71l0.15,0.17l3.12,3.47l0.15,0.17L237.97,192.76z"/>
					</g>
				</g>
			</g>
		</g>
	</g>
	<g>
		<g>
			<path class="st8" d="M252.18,169.22h-22.23c-1.97,0-3.57-1.6-3.57-3.57v-22.23c0-1.97,1.6-3.57,3.57-3.57h22.23
				c1.97,0,3.57,1.6,3.57,3.57v22.22C255.75,167.62,254.15,169.22,252.18,169.22z"/>
		</g>
		<g>
			<g>
				<g>
					<path class="st6" d="M251.14,153.87c0,0.53-0.04,1.05-0.12,1.55c-0.02,0.12-0.04,0.25-0.06,0.37c-0.17,0.87-0.45,1.7-0.82,2.47
						c-0.04,0.07-0.07,0.15-0.11,0.22c-0.66,1.27-1.58,2.39-2.69,3.28c-0.06,0.05-0.12,0.1-0.18,0.14
						c-1.13,0.86-2.45,1.49-3.89,1.81h0l-0.26,0.06h0c-0.36,0.07-0.73,0.12-1.11,0.15c-0.12,0.01-0.25,0.02-0.37,0.02h0
						c-0.15,0.01-0.31,0.01-0.47,0.01c-1.07,0-2.11-0.17-3.08-0.48c-0.15-0.05-0.3-0.1-0.45-0.16c-0.35-0.13-0.68-0.28-1.01-0.44
						c-0.07-0.04-0.15-0.07-0.22-0.11c-1.4-0.75-2.6-1.83-3.51-3.12c-0.04-0.06-0.09-0.13-0.13-0.19c-0.62-0.93-1.09-1.98-1.38-3.1
						c-0.04-0.15-0.07-0.31-0.1-0.46c-0.08-0.38-0.13-0.76-0.17-1.15c-0.01-0.1-0.02-0.19-0.02-0.29v0
						c-0.01-0.19-0.02-0.38-0.02-0.58c0-1.05,0.16-2.06,0.46-3.01c0.03-0.08,0.05-0.17,0.08-0.25c0.47-1.38,1.24-2.63,2.22-3.67
						c0.05-0.06,0.11-0.11,0.16-0.17c0.99-1.01,2.2-1.8,3.55-2.32c0.08-0.03,0.15-0.06,0.23-0.09c1.06-0.38,2.2-0.58,3.38-0.58
						c0.57,0,1.12,0.05,1.67,0.14c0.1,0.02,0.19,0.03,0.29,0.05c0.07,0.01,0.14,0.03,0.2,0.04c0.13,0.03,0.27,0.06,0.4,0.1
						c1.46,0.38,2.78,1.08,3.91,2.01c0.06,0.05,0.12,0.1,0.18,0.15c1.19,1.04,2.12,2.35,2.72,3.83c0.03,0.08,0.06,0.15,0.09,0.23
						c0.25,0.66,0.43,1.34,0.53,2.06c0.02,0.13,0.04,0.27,0.05,0.4v0C251.12,153.15,251.14,153.51,251.14,153.87z"/>
				</g>
			</g>
			<g>
				<g>
					<g>
						<path class="st7" d="M247.33,161.76c-0.06,0.05-0.12,0.1-0.18,0.14l-1.34-1.5l-0.15-0.17l-2.76-3.08l-0.15-0.17l-3.12-3.47
							l-0.15-0.17l-3.08-3.43l-0.15-0.17l-2.51-2.8c0.05-0.06,0.11-0.11,0.16-0.17l2.52,2.81l0.15,0.17l3.08,3.43l0.15,0.17
							l3.12,3.47l0.15,0.17l2.76,3.08l0.15,0.17L247.33,161.76z"/>
					</g>
				</g>
				<g>
					<g>
						<path class="st7" d="M250.13,158.26c-0.04,0.07-0.07,0.15-0.11,0.22l-0.92-1.03l-0.15-0.17l-2.76-3.08l-0.15-0.17l-3.12-3.47
							l-0.15-0.17l-3.08-3.43l-0.15-0.17l-2.09-2.33c0.08-0.03,0.15-0.06,0.23-0.09l2.03,2.26l0.15,0.17l3.08,3.43l0.15,0.17
							l3.12,3.47l0.15,0.17l2.76,3.08l0.15,0.17L250.13,158.26z"/>
					</g>
				</g>
				<g>
					<g>
						<path class="st7" d="M251.03,152.39c0.02,0.13,0.04,0.27,0.05,0.4l-1.48-1.65l-0.15-0.17l-3.12-3.48l-0.15-0.17l-2.97-3.31
							c0.13,0.03,0.27,0.06,0.4,0.1l2.74,3.06l0.15,0.17l3.12,3.48l0.15,0.17L251.03,152.39z"/>
					</g>
				</g>
				<g>
					<g>
						<path class="st7" d="M243.26,163.71l-0.26,0.06h0l-0.42-0.47l-0.15-0.17l-2.76-3.08l-0.15-0.17l-3.11-3.47l-0.15-0.17
							l-3.08-3.43l-0.15-0.17l-1.59-1.77c0.03-0.08,0.05-0.17,0.08-0.25l1.67,1.87l0.15,0.17l3.08,3.43l0.15,0.17l3.12,3.47
							l0.15,0.17l2.76,3.08l0.15,0.17L243.26,163.71z"/>
					</g>
				</g>
				<g>
					<g>
						<path class="st7" d="M243,143.98l-3.15,2.83l-0.17,0.15l-3.12,2.8l-0.17,0.15l-3.06,2.74l-0.17,0.15l-2.16,1.94
							c-0.01-0.1-0.02-0.19-0.02-0.29v0l2.03-1.82l0.17-0.15l3.06-2.74l0.17-0.15l3.12-2.8l0.17-0.15l3.02-2.71
							C242.81,143.94,242.91,143.96,243,143.98z"/>
					</g>
				</g>
				<g>
					<g>
						<path class="st7" d="M247.69,146.28l-1.19,1.06l-0.17,0.15l-3.24,2.91l-0.17,0.15l-3.12,2.8l-0.17,0.15l-3.06,2.74l-0.17,0.15
							l-2.64,2.37l-0.17,0.15l-0.8,0.72c-0.04-0.06-0.09-0.13-0.13-0.19l0.78-0.7l0.17-0.15l2.64-2.37l0.17-0.15l3.06-2.74
							l0.17-0.15l3.12-2.8l0.17-0.15l3.24-2.91l0.17-0.15l1.16-1.04C247.57,146.18,247.63,146.23,247.69,146.28z"/>
					</g>
				</g>
				<g>
					<g>
						<path class="st7" d="M250.5,150.34l-0.73,0.65l-0.17,0.15l-3.24,2.91l-0.17,0.15l-3.12,2.8l-0.17,0.15l-3.06,2.74l-0.17,0.15
							l-2.64,2.37l-0.17,0.15l-0.34,0.31c-0.07-0.04-0.15-0.07-0.22-0.11l0.41-0.36l0.17-0.15l2.64-2.37l0.17-0.15l3.06-2.74
							l0.17-0.15l3.12-2.8l0.17-0.15l3.24-2.91l0.17-0.15l0.79-0.71C250.44,150.18,250.47,150.26,250.5,150.34z"/>
					</g>
				</g>
				<g>
					<g>
						<path class="st7" d="M251.02,155.42c-0.02,0.12-0.04,0.25-0.06,0.37l-1.68,1.51l-0.17,0.15l-3.12,2.8l-0.17,0.15l-3.06,2.74
							l-0.17,0.15l-0.69,0.62c-0.12,0.01-0.25,0.02-0.37,0.02l0.91-0.82l0.17-0.15l3.06-2.74l0.17-0.15l3.12-2.8l0.17-0.15
							L251.02,155.42z"/>
					</g>
				</g>
				<g>
					<g>
						<path class="st7" d="M237.97,163.48c-0.15-0.05-0.3-0.1-0.45-0.16l-0.67-0.75l-0.15-0.17l-3.12-3.47l-0.15-0.17l-2.15-2.4
							c-0.04-0.15-0.07-0.31-0.1-0.46l2.43,2.71l0.15,0.17l3.12,3.47l0.15,0.17L237.97,163.48z"/>
					</g>
				</g>
			</g>
		</g>
	</g>
	<g>
		<g>
			<g>
				<g>
					<path class="st9" d="M245.02,217.24l15.58-14.02c0.64-0.57,2.37-0.96,3.87-0.88l19.99,1.16c1.5,0.09,2.21,0.62,1.57,1.19
						l-15.58,14.02c-0.63,0.57-2.37,0.96-3.87,0.88l-19.99-1.16C245.09,218.35,244.39,217.81,245.02,217.24z"/>
				</g>
				<g>
					<polygon class="st9" points="286.27,204.03 286.27,202.33 245.18,215.55 244.82,215.92 244.79,217.72 262.95,218.31 					"/>
				</g>
			</g>
			<g>
				<g>
					<path class="st3" d="M264.19,200.59l19.65,1.14c1.58,0.09,2.32,0.65,1.65,1.25l-14.65,13.18c-0.96,0.86-3.58,1.46-5.85,1.32
						l-17.61-1.02c-1.67-0.1-2.45-0.69-1.75-1.33l15.37-13.83C261.53,200.84,262.96,200.51,264.19,200.59z"/>
				</g>
				<g>
					<path class="st4" d="M286.27,202.33c-0.07-0.37-0.73-0.65-1.8-0.72l-19.99-1.16c-1.5-0.09-3.24,0.31-3.87,0.88l-15.58,14.02
						c-0.22,0.2-0.28,0.39-0.2,0.56v0c0.11,0.24,0.48,0.44,1.06,0.55h0c0.21,0.04,0.45,0.07,0.71,0.08l17.57,1.02h0l2.42,0.14
						c1.5,0.09,3.24-0.31,3.87-0.88l10.83-9.75l0,0l3.89-3.5l0.86-0.77c0.16-0.14,0.23-0.28,0.23-0.42
						C286.27,202.37,286.27,202.35,286.27,202.33z M285.35,202.77l-0.82,0.73l0,0l-5.53,4.98l-0.01,0.01l-9.02,8.11l0,0l-0.17,0.15
						l0,0l-0.04,0.03c-0.47,0.43-1.77,0.72-2.89,0.65l-0.08,0h-0.01l-2.21-0.13l-17.69-1.02c-0.27-0.02-0.5-0.05-0.69-0.1
						c-0.62-0.16-0.84-0.46-0.48-0.79l0.04-0.03l0,0l0.17-0.15l15.37-13.83c0.47-0.42,1.77-0.72,2.89-0.65l19.99,1.16
						c0.95,0.06,1.48,0.35,1.32,0.7C285.47,202.64,285.42,202.71,285.35,202.77z"/>
				</g>
				<g>
					<path class="st4" d="M246.29,216.39l20.35,1.18c1.37,0.08,2.94-0.28,3.52-0.8l0.17-0.15l-24.75-1.43l-0.4,0.36
						C244.73,215.96,245.22,216.33,246.29,216.39z"/>
				</g>
			</g>
		</g>
		<g>
			<path class="st9" d="M293.71,229.22c-0.05,0.11-0.1,0.22-0.15,0.33c-0.1,0.22-0.2,0.43-0.3,0.65c-3.76-0.03-8.54,0.29-13.51,0.63
				c-12.86,0.88-26.15,1.78-30.4-2.34c-1.4-1.37-1.91-2.81-1.5-4.3c0.64-2.32,3.39-4.22,5.47-5.37c0,0,0,0,0,0
				c0.58-0.32,1.11-0.58,1.53-0.77h0c0.51-0.24,0.85-0.37,0.91-0.4l0.29,0.44l0.29,0.44c-0.02,0.01-0.38,0.15-0.94,0.42
				c-1.8,0.85-5.61,2.92-6.31,5.45c-0.33,1.2,0.07,2.34,1.24,3.48c3.82,3.71,17.36,2.79,29.3,1.98
				C284.83,229.49,289.81,229.16,293.71,229.22z"/>
		</g>
	</g>
	<g>
		<g>
			<rect x="72.02" y="95.92" class="st6" width="147.48" height="86.58"/>
		</g>
		<g>
			<rect x="72.02" y="95.92" class="st1" width="147.48" height="72.75"/>
		</g>
		<g>
			<path class="st6" d="M165.06,196.6v2.1h-43.3v-2.1c3.06,0,5.57-2.36,5.8-5.36c0.01-0.15,0.02-0.3,0.02-0.45v-8.29h31.67v8.29
				c0,0.15,0.01,0.3,0.02,0.45c0.11,1.42,0.73,2.71,1.69,3.66C162,195.95,163.45,196.6,165.06,196.6z"/>
		</g>
		<g class="st10">
			<rect x="127.57" y="182.5" class="st11" width="31.67" height="1.73"/>
		</g>
		<g class="st10">
			<path class="st11" d="M165.06,196.6h-43.3c3.06,0,5.57-2.36,5.8-5.36h31.71c0.11,1.42,0.73,2.71,1.69,3.66
				C162,195.95,163.45,196.6,165.06,196.6z"/>
		</g>
	</g>
	<g>
		<g>
			<path class="st12" d="M40.24,170.05c0,0-1.53-13.62,4.36-25.1c0.63-1.22,2.18-0.91,2.43,0.48c0.92,4.99,1.83,14.97-2.39,25.57
				C38.62,186.09,40.24,170.05,40.24,170.05z"/>
		</g>
		<g>
			<path class="st12" d="M47.28,172.75c0,0,0.96-13.68,8.84-23.9c0.84-1.08,2.31-0.5,2.3,0.92c0,5.08-0.92,15.06-7,24.71
				C42.78,188.22,47.28,172.75,47.28,172.75z"/>
		</g>
		<g>
			<path class="st13" d="M43.36,170.02c0,0,0.03-13.71,7.19-24.44c0.76-1.14,2.27-0.66,2.36,0.76c0.34,5.07,0.11,15.08-5.29,25.13
				C39.92,185.77,43.36,170.02,43.36,170.02z"/>
		</g>
		<g>
			<path class="st13" d="M47.99,170.71c0,0,2.71-10.36,10.22-17.07c0.8-0.71,1.84-0.05,1.64,1.03c-0.73,3.9-2.87,11.42-8.92,17.96
				C42.31,181.94,47.99,170.71,47.99,170.71z"/>
		</g>
		<g>
			<path class="st12" d="M37.87,171.65c0,0,1.53-13.62-4.36-25.1c-0.62-1.22-2.18-0.91-2.43,0.48c-0.92,4.99-1.83,14.97,2.39,25.57
				C39.49,187.68,37.87,171.65,37.87,171.65z"/>
		</g>
		<g>
			<path class="st12" d="M30.83,174.34c0,0-0.96-13.68-8.84-23.9c-0.84-1.08-2.31-0.5-2.3,0.92c0,5.08,0.92,15.06,7,24.71
				C35.33,189.82,30.83,174.34,30.83,174.34z"/>
		</g>
		<g>
			<path class="st13" d="M34.75,171.62c0,0-0.03-13.71-7.19-24.44c-0.76-1.14-2.27-0.66-2.36,0.76c-0.34,5.07-0.11,15.08,5.29,25.13
				C38.18,187.37,34.75,171.62,34.75,171.62z"/>
		</g>
		<g>
			<path class="st13" d="M42.73,172.36c0,0,2.59-13.46-2.4-25.37c-0.53-1.26-2.1-1.08-2.46,0.29c-1.3,4.91-2.98,14.78,0.41,25.68
				C43.1,188.47,42.73,172.36,42.73,172.36z"/>
		</g>
		<g>
			<path class="st13" d="M30.12,172.31c0,0-2.71-10.36-10.22-17.07c-0.8-0.71-1.84-0.05-1.64,1.03c0.73,3.9,2.87,11.42,8.92,17.96
				C35.8,183.54,30.12,172.31,30.12,172.31z"/>
		</g>
		<g>
			<path class="st4" d="M39.92,194.88h-1.24c-9.86,0-17.93-8.07-17.93-17.93v-6.35c0-0.52,0.42-0.94,0.94-0.94h36.16v7.29
				C57.85,186.81,49.78,194.88,39.92,194.88z"/>
		</g>
	</g>
	<g>
		<rect x="73.93" y="97.83" class="st3" width="143.37" height="68.09"/>
	</g>
	<g>
		<g class="st14">
			<rect x="77.31" y="100.97" class="st15" width="30.74" height="30.74"/>
		</g>
		<g class="st14">
			<rect x="77.31" y="135.1" class="st15" width="30.74" height="28.01"/>
		</g>
		<g class="st14">
			<rect x="114" y="138.62" class="st15" width="99" height="24.48"/>
		</g>
		<g>
			<rect x="114" y="100.97" class="st16" width="63.28" height="34.63"/>
		</g>
		<g>
			<g>
				<path class="st17" d="M174.28,110.42v25.18H114v-18.8h2.25v1.17h1.85v-0.68h1.71v-2.69h0.85v-1.25h0.13v1.25h2.05v-2.35h0.2
					v2.35h1.36v-0.03h0v-0.3h0v-0.28h0v-0.47h0v-0.3h0v-0.47h0v-0.3h0v-0.47h0v-0.32h0v-0.47h0v-0.41h0v-0.47h0v-0.31h0.4v-0.35
					h0.06v0.35h2.99v-0.35h0.06v0.35h0.55v2.46l0.38,0v0h0v-0.47h0v-0.32h0v-0.47h0v-0.32h0v-0.47h0v0h3.63v0h0.62
					c0.03,0.01,0.06,0.02,0.1,0.04v2.68h2.65v3.52h2.14v-6.51h0.47v-0.46h0.08v0.46h1.69v-0.46h0.08v0.46h2.4v-0.46h0.08v0.46h1.51
					v-0.46h0.08v0.46h0.62v6.08h2.37v-0.98l2.79,0.01v-1.59h0.56v-0.31h0.07v0.31h2.16v0h0.43v-0.32h0.07v0.32h0.52v3.17h3.33v1.17
					h1.85v-0.68h1.71v-2.69h0.86v-1.25h0.13v1.25h2.05v-2.35h0.2v2.35h1.36v-0.03h0v-0.3h0v-0.28h0v-0.47h0v-0.3h0v-0.47h0v-0.3h0
					v-0.47h0v-0.32h0v-0.47h0v-0.41h0v-0.47h0v-0.31h0.4v-0.35h0.06v0.35h2.99v-0.35h0.06v0.35h0.55v2.46l0.38,0h0.01v0h0v-0.47h0
					v-0.32h0v-0.47h0v-0.32h0v-0.47h0v0h3.63v0h0.62C174.22,110.4,174.25,110.41,174.28,110.42z"/>
			</g>
			<g>
				<g>
					<rect x="139.67" y="110.12" class="st18" width="5.35" height="1.03"/>
				</g>
				<g>
					<g>
						<rect x="165.49" y="109.99" class="st18" width="2.5" height="0.63"/>
					</g>
					<g>
						<rect x="165.49" y="110.95" class="st18" width="2.5" height="0.63"/>
					</g>
					<g>
						<rect x="165.49" y="111.94" class="st18" width="2.5" height="0.63"/>
					</g>
					<g>
						<rect x="165.49" y="112.94" class="st18" width="2.5" height="0.63"/>
					</g>
					<g>
						<rect x="165.49" y="113.9" class="st18" width="2.5" height="0.63"/>
					</g>
				</g>
				<g>
					<g>
						<rect x="165.49" y="114.96" class="st18" width="2.5" height="0.63"/>
					</g>
					<g>
						<rect x="165.49" y="115.93" class="st18" width="2.5" height="0.63"/>
					</g>
					<g>
						<rect x="165.49" y="116.91" class="st18" width="2.5" height="0.63"/>
					</g>
					<g>
						<rect x="165.49" y="117.91" class="st18" width="2.5" height="0.63"/>
					</g>
					<g>
						<rect x="165.49" y="118.87" class="st18" width="2.5" height="0.63"/>
					</g>
				</g>
				<g>
					<g>
						<rect x="124.38" y="109.99" class="st18" width="2.68" height="0.63"/>
					</g>
					<g>
						<rect x="124.38" y="110.95" class="st18" width="2.68" height="0.63"/>
					</g>
					<g>
						<rect x="124.38" y="111.94" class="st18" width="2.68" height="0.63"/>
					</g>
					<g>
						<rect x="124.38" y="112.94" class="st18" width="2.68" height="0.63"/>
					</g>
					<g>
						<rect x="124.38" y="113.9" class="st18" width="2.68" height="0.63"/>
					</g>
				</g>
				<g>
					<g>
						<rect x="124.38" y="114.96" class="st18" width="2.68" height="0.63"/>
					</g>
					<g>
						<rect x="124.38" y="115.93" class="st18" width="2.68" height="0.63"/>
					</g>
					<g>
						<rect x="124.38" y="116.91" class="st18" width="2.68" height="0.63"/>
					</g>
					<g>
						<rect x="124.38" y="117.91" class="st18" width="2.68" height="0.63"/>
					</g>
					<g>
						<rect x="124.38" y="118.87" class="st18" width="2.68" height="0.63"/>
					</g>
				</g>
				<g>
					<g>
						<rect x="128.92" y="110.4" class="st18" width="3.04" height="0.63"/>
					</g>
					<g>
						<rect x="128.92" y="111.36" class="st18" width="3.04" height="0.63"/>
					</g>
					<g>
						<rect x="128.92" y="112.35" class="st18" width="3.04" height="0.63"/>
					</g>
					<g>
						<rect x="128.92" y="113.35" class="st18" width="3.04" height="0.63"/>
					</g>
					<g>
						<rect x="128.92" y="114.31" class="st18" width="3.04" height="0.63"/>
					</g>
				</g>
				<g>
					<g>
						<rect x="128.92" y="115.32" class="st18" width="3.04" height="0.63"/>
					</g>
					<g>
						<rect x="128.92" y="116.28" class="st18" width="3.04" height="0.63"/>
					</g>
					<g>
						<rect x="128.92" y="117.26" class="st18" width="3.04" height="0.63"/>
					</g>
					<g>
						<rect x="128.92" y="118.26" class="st18" width="3.04" height="0.63"/>
					</g>
					<g>
						<rect x="128.92" y="119.23" class="st18" width="3.04" height="0.63"/>
					</g>
				</g>
			</g>
		</g>
		<g>
			<g>
				<path class="st19" d="M168.87,107.82h-0.24l0-0.02l0.07-0.63c0-0.02,0.02-0.04,0.04-0.04c0,0,0.01,0,0.01,0
					c0.01,0,0.03,0.01,0.03,0.02c0.01,0.01,0.02,0.02,0.02,0.04L168.87,107.82z"/>
			</g>
			<g>
				<path class="st20" d="M168.66,107.68L168.66,107.68l0.05-0.5c0-0.02,0.02-0.04,0.04-0.04c0,0,0.01,0,0.01,0c0,0,0,0,0.01,0.01
					c0.01,0.01,0.02,0.03,0.02,0.04l0,0.36C168.79,107.62,168.73,107.68,168.66,107.68z"/>
			</g>
			<g>
				<rect x="168.57" y="110.61" class="st19" width="0.45" height="20.02"/>
			</g>
			<g>
				<rect x="168.57" y="110.61" class="st21" width="0.21" height="20.02"/>
			</g>
			<g>
				<rect x="168.08" y="127.44" class="st19" width="1.44" height="5.3"/>
			</g>
			<g>
				<rect x="168.08" y="127.44" class="st21" width="0.86" height="5.3"/>
			</g>
			<g>
				<path class="st19" d="M169.59,108.13c0,0.25-0.37,0.45-0.83,0.45c-0.04,0-0.07,0-0.1,0c-0.41-0.03-0.73-0.22-0.73-0.44
					c0-0.23,0.32-0.42,0.73-0.44c0.03,0,0.07,0,0.1,0C169.22,107.68,169.59,107.88,169.59,108.13z"/>
			</g>
			<g>
				<path class="st21" d="M169.16,108.13c0,0.2-0.21,0.37-0.5,0.44c-0.41-0.03-0.73-0.22-0.73-0.44c0-0.23,0.32-0.42,0.73-0.44
					C168.95,107.75,169.16,107.93,169.16,108.13z"/>
			</g>
			<g>
				<polygon class="st21" points="169.52,111.01 168.07,111.01 167.56,108.56 169.95,108.56 				"/>
			</g>
			<g>
				<rect x="167.44" y="108.37" class="st19" width="2.64" height="0.24"/>
			</g>
			<g>
				<rect x="167.44" y="108.37" class="st21" width="1.66" height="0.24"/>
			</g>
			<g>
				<path class="st22" d="M168.31,127.44h0.92l-0.13-0.41c-0.01-0.04-0.05-0.06-0.08-0.06h-0.43c-0.05,0-0.09,0.03-0.11,0.07
					L168.31,127.44z"/>
			</g>
			<g>
				<polygon class="st23" points="167.74,108.68 169.77,108.68 169.37,110.88 168.2,110.88 				"/>
			</g>
			<g>
				<polygon class="st19" points="169.91,108.37 167.6,108.37 167.79,108.1 169.73,108.1 				"/>
			</g>
			<g>
				<polygon class="st21" points="169.34,108.37 167.6,108.37 167.79,108.1 169.16,108.1 				"/>
			</g>
		</g>
		<g>
			<path class="st12" d="M128.56,132.76l-14.56,0v-3.55c0.05,0.02,0.09,0.04,0.14,0.07c1.99,1.01,1.73,2.36,4.19,1.86
				c2.46-0.49,4.49-0.7,5.59,0c1.1,0.7,1.91,0.42,3.28,0.42C128.33,131.55,128.53,132.45,128.56,132.76z"/>
		</g>
		<g>
			<g>
				<polygon class="st24" points="131.58,128.69 117.71,128.69 117.07,125.43 130.92,125.43 				"/>
			</g>
			<g>
				<polygon class="st25" points="131.82,128.69 117.95,128.69 117.31,125.43 131.15,125.43 				"/>
			</g>
			<g>
				<path class="st24" d="M121.8,129.09h-3.71c-0.21,0-0.39-0.17-0.39-0.39v-0.01h4.09V129.09z"/>
			</g>
			<g>
				<rect x="121.77" y="128.69" class="st26" width="12.6" height="0.4"/>
			</g>
			<g>
				<g>
					<path class="st26" d="M118.54,129.09l-0.24,0.93c0,0,0,0,0,0l-0.7,2.77c-0.01,0.04-0.04,0.06-0.08,0.06
						c-0.07,0-0.13-0.07-0.11-0.13l0.63-3.23l0.08-0.4H118.54z"/>
				</g>
			</g>
			<g>
				<path class="st24" d="M118.3,130.02c0.02-0.48-0.27-0.53-0.27-0.53l0.08-0.4h0.43L118.3,130.02z"/>
			</g>
			<g>
				<g>
					<path class="st26" d="M121.55,129.09l-0.24,0.93c0,0,0,0,0,0l-0.7,2.77c-0.01,0.04-0.04,0.06-0.08,0.06
						c-0.07,0-0.13-0.07-0.11-0.13l0.63-3.23l0.08-0.4H121.55z"/>
				</g>
			</g>
			<g>
				<path class="st24" d="M121.31,130.02c0.02-0.48-0.27-0.53-0.27-0.53l0.08-0.4h0.43L121.31,130.02z"/>
			</g>
			<g>
				<g>
					<path class="st26" d="M133.22,129.09l0.24,0.93c0,0,0,0,0,0l0.7,2.77c0.01,0.04,0.04,0.06,0.08,0.06
						c0.07,0,0.13-0.07,0.11-0.13l-0.63-3.23l-0.08-0.4H133.22z"/>
				</g>
			</g>
			<g>
				<path class="st24" d="M133.46,130.02c-0.02-0.48,0.27-0.53,0.27-0.53l-0.08-0.4h-0.43L133.46,130.02z"/>
			</g>
			<g>
				<g>
					<path class="st26" d="M130.21,129.09l0.24,0.93c0,0,0,0,0,0l0.7,2.77c0.01,0.04,0.04,0.06,0.08,0.06
						c0.07,0,0.13-0.07,0.11-0.13l-0.63-3.23l-0.08-0.4H130.21z"/>
				</g>
			</g>
			<g>
				<path class="st24" d="M130.45,130.02c-0.02-0.48,0.27-0.53,0.27-0.53l-0.08-0.4h-0.43L130.45,130.02z"/>
			</g>
		</g>
		<g>
			<path class="st12" d="M122.65,109.89c-0.36,0.21-0.78,0.34-1.24,0.37c-2.01,0.13-2.71,0.87-4.33,2.45
				c-0.87,0.85-2.08,1.03-3.08,1.06v-10.74c0.28,0.2,0.57,0.41,0.87,0.61c1.1,0.74,2.3,1.34,3.61,1.02c1.32-0.32,2.34-0.3,3.13-0.04
				c1.02,0.32,1.68,1.02,2.16,1.87C124.44,107.67,123.87,109.2,122.65,109.89z"/>
		</g>
		<g>
			<path class="st27" d="M139.05,106.1c0-0.5,0.4-0.9,0.9-0.9c0.5,0,0.9,0.4,0.9,0.9c0,0.5-0.4,0.9-0.9,0.9
				C139.46,107,139.05,106.59,139.05,106.1z"/>
		</g>
		<g>
			<path class="st27" d="M153.87,105.29c0,0,0.78-1.26,2.65-1.12c0,0,2.72-2.09,5.61-0.28c0,0,3.08-0.45,5.36,0.39
				c1.52,0.56,2.02,1.15,2.02,1.15L153.87,105.29z"/>
		</g>
		<g class="st28">
			<path class="st27" d="M163.22,108.52c0,0,0.51-0.82,1.73-0.73c0,0,1.78-1.37,3.67-0.18c0,0,2.01-0.29,3.5,0.25
				c0.99,0.37,1.32,0.75,1.32,0.75L163.22,108.52z"/>
		</g>
		<g class="st28">
			<path class="st27" d="M125.02,107.95c0,0,0.51-0.82,1.73-0.73c0,0,1.78-1.37,3.67-0.18c0,0,2.01-0.29,3.5,0.25
				c0.99,0.37,1.32,0.75,1.32,0.75L125.02,107.95z"/>
		</g>
		<g>
			<rect x="114" y="132.74" class="st19" width="63.28" height="2.87"/>
		</g>
		<g>
			<g>
				<path class="st29" d="M153.87,131.86c0,0-0.31-1.12,0.54-2.22c0.85-1.09,2.28-0.8,2.28-0.8s0.2,0.31-0.2,0.55
					c-0.4,0.24-1.78-0.24-2.12,2.15C154.37,131.54,154.2,132.04,153.87,131.86z"/>
			</g>
			<g>
				<path class="st30" d="M143.14,115.67c0-0.28,0.23-0.51,0.51-0.51c0.28,0,0.51,0.23,0.51,0.51c0,0.28-0.23,0.51-0.51,0.51
					C143.37,116.18,143.14,115.95,143.14,115.67z"/>
			</g>
			<g>
				<path class="st19" d="M155.49,131.19c0-0.4,0.32-0.72,0.72-0.72c0.4,0,0.72,0.32,0.72,0.72c0,0.4-0.32,0.72-0.72,0.72
					C155.81,131.91,155.49,131.59,155.49,131.19z"/>
			</g>
			<g>
				<path class="st19" d="M139.63,130.65c0-0.6,0.49-1.1,1.1-1.1c0.6,0,1.1,0.49,1.1,1.1c0,0.61-0.49,1.1-1.1,1.1
					C140.12,131.74,139.63,131.25,139.63,130.65z"/>
			</g>
			<g>
				<g>
					
						<rect x="135.39" y="122.29" transform="matrix(0.1359 -0.9907 0.9907 0.1359 1.1452 246.3379)" class="st31" width="12.8" height="0.44"/>
				</g>
			</g>
			<g>
				<g>
					<polygon class="st30" points="141.37,116.58 141.37,116.09 143.6,115.6 143.75,116.02 					"/>
				</g>
			</g>
			<g>
				<g>
					<path class="st32" d="M140.76,132.72c-1.12,0-2.04-0.91-2.04-2.04c0-1.12,0.91-2.04,2.04-2.04c1.12,0,2.04,0.91,2.04,2.04
						C142.8,131.81,141.89,132.72,140.76,132.72z M140.76,129.06c-0.9,0-1.63,0.73-1.63,1.63c0,0.9,0.73,1.63,1.63,1.63
						s1.63-0.73,1.63-1.63C142.39,129.79,141.66,129.06,140.76,129.06z"/>
				</g>
			</g>
			<g>
				<g>
					<path class="st32" d="M156.21,132.68c-0.82,0-1.49-0.67-1.49-1.49c0-0.82,0.67-1.49,1.49-1.49c0.82,0,1.49,0.67,1.49,1.49
						C157.7,132.01,157.03,132.68,156.21,132.68z M156.21,130.03c-0.64,0-1.16,0.52-1.16,1.16c0,0.64,0.52,1.16,1.16,1.16
						s1.16-0.52,1.16-1.16C157.37,130.55,156.85,130.03,156.21,130.03z"/>
				</g>
			</g>
			<g>
				<path class="st31" d="M153.94,132.05h-9.99c-0.22,0-0.39-0.18-0.39-0.39v-0.03c0-0.22,0.18-0.39,0.39-0.39h9.99
					c0.22,0,0.39,0.18,0.39,0.39v0.03C154.33,131.87,154.16,132.05,153.94,132.05z"/>
			</g>
			<g>
				<g>
					<path class="st31" d="M154.12,132.05c-0.07,0-0.13-0.04-0.16-0.11c-0.03-0.09,0.02-0.18,0.1-0.21l2.08-0.69
						c0.09-0.03,0.18,0.02,0.21,0.1c0.03,0.09-0.02,0.18-0.1,0.21l-2.08,0.69C154.16,132.05,154.14,132.05,154.12,132.05z"/>
				</g>
			</g>
			<g>
				<polygon class="st31" points="141.32,125.67 144.81,131.25 145.7,131.25 141.51,124.63 				"/>
			</g>
			<g>
				<path class="st32" d="M141.52,128.89l-0.32-0.1l-0.33,1.1c-0.11,0.36-0.46,0.6-0.84,0.57l-1.06-0.09l-0.03,0.33l1.06,0.09
					c0.44,0.04,0.84,0.28,1.08,0.65l0.56,0.88l0.28-0.18l-0.54-0.85c-0.25-0.4-0.32-0.89-0.18-1.34L141.52,128.89z"/>
			</g>
			<g>
				<path class="st32" d="M156.69,130.05l-0.21-0.06l-0.22,0.71c-0.07,0.24-0.3,0.39-0.55,0.37l-0.69-0.06l-0.02,0.22l0.69,0.06
					c0.29,0.02,0.54,0.18,0.7,0.42l0.37,0.57l0.18-0.12l-0.35-0.55c-0.16-0.26-0.21-0.58-0.12-0.87L156.69,130.05z"/>
			</g>
			<g>
				<path class="st29" d="M156.01,131.16c0-0.09,0.07-0.16,0.16-0.16c0.09,0,0.16,0.07,0.16,0.16c0,0.09-0.07,0.16-0.16,0.16
					C156.09,131.33,156.01,131.26,156.01,131.16z"/>
			</g>
			<g>
				<path class="st29" d="M140.56,130.65c0-0.09,0.07-0.16,0.16-0.16c0.09,0,0.16,0.07,0.16,0.16c0,0.09-0.07,0.16-0.16,0.16
					C140.63,130.81,140.56,130.74,140.56,130.65z"/>
			</g>
			<g>
				<path class="st29" d="M139.48,128.53c0,0,0.96-0.67,2.27-0.24c1.31,0.43,1.52,1.88,1.52,1.88s-0.22,0.29-0.59,0
					c-0.36-0.29-0.36-1.76-2.74-1.28C139.94,128.89,139.42,128.9,139.48,128.53z"/>
			</g>
			<g>
				<path class="st33" d="M148.56,103.48c0,0-1.65,2.65-1.65,3.37c0,0.72,0.53,1.55,0.53,1.55l1.67-1.39l0.83-1.49L148.56,103.48z"
					/>
			</g>
			<g>
				<path class="st34" d="M149.87,107.38c0,0-0.56,1-1.55,0.83c0,0-0.29-0.44-0.37-0.8c-0.01-0.04-0.02-0.09-0.03-0.13
					c-0.08-0.4-0.14-0.62-0.14-0.62s0,0,0,0c0.04-0.03,1.3-0.86,1.31-0.81C149.28,106.93,149.87,107.38,149.87,107.38z"/>
			</g>
			<g>
				<path class="st35" d="M147.35,106.72c0,0,1.53,0.51,1.84-0.45c0.3-0.96,0.71-1.54-0.26-1.91c-0.97-0.37-1.27-0.06-1.45,0.23
					C147.29,104.9,146.96,106.56,147.35,106.72z"/>
			</g>
			<g>
				<path class="st36" d="M145.61,131.25h2.52c0.02,0,0.04-0.01,0.05-0.02c0.17-0.08,0.12-0.73,0.1-0.93c0-0.04-0.01-0.06-0.01-0.06
					s-0.89-0.71-1.01-0.17c0,0.02-0.01,0.03-0.01,0.05v0c-0.15,0.51-0.84,0.74-1.24,0.8C145.71,130.98,145.63,131.16,145.61,131.25z
					"/>
			</g>
			<g>
				<path class="st36" d="M150.55,131.25h2.52c0.02,0,0.04-0.01,0.05-0.02c0.17-0.08,0.12-0.73,0.1-0.93c0-0.04-0.01-0.06-0.01-0.06
					s-0.89-0.71-1.01-0.17c0,0.02-0.01,0.03-0.01,0.05v0c-0.15,0.51-0.84,0.74-1.24,0.8C150.65,130.98,150.57,131.16,150.55,131.25z
					"/>
			</g>
			<g>
				<path class="st29" d="M146.12,116.69c0,0,0.13,1.68,0.29,3.7c0.22,2.75,0.47,6.12,0.5,6.76c0.04,1.11,0.34,2.97,0.34,2.97
					s0.18,0.29,1.02,0.12c0,0,0.87-2.5,1.09-5.18c0-0.04,0.01-0.09,0.01-0.13c0.2-2.73,0.51-8.47,0.51-8.47L146.12,116.69z"/>
			</g>
			<g>
				<path class="st30" d="M146.12,116.69c0,0,0.13,1.68,0.29,3.7l2.95,4.67c0-0.04,0.01-0.09,0.01-0.13
					c0.2-2.73,0.51-8.47,0.51-8.47L146.12,116.69z"/>
			</g>
			<g>
				<path class="st29" d="M146.73,116.89c0,0,1.66,6.34,3.25,9.2c1.6,2.86,2.17,4.14,2.17,4.14s0.98,0.26,1.06,0.01
					c0,0-0.84-6.81-1.49-8.4c-0.34-0.83-0.49-3.36-0.53-4.16c-0.03-0.8-0.59-1.89-0.59-1.89L146.73,116.89z"/>
			</g>
			<g>
				<path class="st19" d="M146.19,119.36c3.07,1.52,6.43,1.03,6.43,0.92c-0.01-0.11-1.28-6.89-1.72-8.87
					c-0.41-1.84-0.97-3.45-1.48-3.82c-0.07-0.05-0.47,0.16-0.84,0.35c-0.34,0.18-0.69,0.2-1.02,0.14c0,0-0.17,0.22-0.27,0.46
					c-0.21,0.5-1.28,3.95-1.3,4.54c0,0.04,0,0.07,0,0.11c0,0.17-0.01,0.35-0.01,0.52C145.97,113.92,146.15,119.35,146.19,119.36z"/>
			</g>
			<g>
				<path class="st37" d="M146.07,116.78c3.02-1.69,2.72-5.59,2.72-5.59l-2.82,2.54c0,0.2,0,0.39-0.01,0.58c0,0.14,0,0.29,0,0.43
					l0,0.02c0,0.05,0,0.11,0,0.16C145.97,115.15,146.07,116.56,146.07,116.78z"/>
			</g>
			<g>
				<path class="st35" d="M143.03,115.62c-0.15-0.26-0.03-0.37-0.03-0.37s2.49-1.83,2.69-2.02c0.2-0.19,1.18-3.23,1.18-3.23
					s0.34-1.23,1.06-1.35c0.62-0.1,1.04,0.22,1.31,0.59c0.32,0.44,0.34,1.03,0.04,1.49c-0.65,1.03-1.97,3.07-2.35,3.41
					c-0.84,0.77-3.55,1.69-3.55,1.69S143.15,115.82,143.03,115.62z"/>
			</g>
			<g>
				<path class="st38" d="M149.1,106.54c0.02,0.02,0.35,0.15,1.1-1.06c0.12-0.19,0.23-0.62,0.03-1.02c-0.2-0.4-1-0.78-1.67-0.97
					c-0.68-0.19-0.88,0.18-1.07,0.55c-0.21,0.39-0.73,0.68-0.73,0.68c0.56,0.39,1.32-0.02,1.56,0.08c0.24,0.1,0.29,0.5,0.3,0.63
					c0.01,0.13,0.03,0.23,0.35,0.15c0.32-0.08,0.1,0.45,0.04,0.56C149.01,106.13,148.94,106.41,149.1,106.54z"/>
			</g>
			<g>
				<path class="st19" d="M148.56,103.48c0,0,0.84,1.44,0.87,2.06c0.03,0.62-1.88,2.55-1.88,2.55s1.64,0.43,2.31,0
					c0,0,1.56-2.17,1.56-2.57C151.42,105.13,150.51,103.51,148.56,103.48z"/>
			</g>
			<g>
				<path class="st37" d="M147.07,116.64c0,0,1.48,0.24,2.41,0.11l-0.02,1.49l-1.19,0.45l-1.21-0.67V116.64z"/>
			</g>
			<g>
				<path class="st35" d="M142.99,115.24c0,0-0.96,0.05-1.15,0.23c-0.19,0.18-0.57,0.52-0.28,0.58l0.69-0.15
					c0.35,0.08,0.48,0.27,0.7,0.15c0.22-0.12,0.47-0.25,0.47-0.25L142.99,115.24z"/>
			</g>
			<g>
				<path class="st29" d="M140.7,116.27c0-0.28,0.23-0.51,0.51-0.51s0.51,0.23,0.51,0.51c0,0.28-0.23,0.51-0.51,0.51
					S140.7,116.55,140.7,116.27z"/>
			</g>
			<g>
				<path class="st29" d="M154.52,112.68c0,0.07-0.01,0.14-0.03,0.19c-0.2,0.77-2.79,1.34-3.08,1.07c-0.05-0.05-0.11-0.13-0.17-0.22
					c-0.74-1.21-1.67-5.63-1.3-5.37c0,0,0.69-0.21,1.25-0.27l0.1-0.01l0,0c0.18-0.01,0.34,0,0.45,0.04
					c0.48,0.18,0.87,1.44,0.87,1.44s0.4-0.06,0.75-0.01c0.04,0.01,0.09,0.01,0.13,0.02c0,0,0,0,0,0c0.11,0.02,0.21,0.06,0.28,0.11
					C154.08,109.89,154.57,111.85,154.52,112.68z"/>
			</g>
			<g>
				<path class="st29" d="M150.27,108.29c0,0-0.89-0.85-2.38-0.55l-0.34,0.36c0,0,1.49-0.36,2.32,0.43L150.27,108.29z"/>
			</g>
			<g>
				<path class="st29" d="M147.68,112.33c0,0,0.89,1.58,3.31,0.79l0.25,0.59c0,0-2.88,0.82-3.86-0.77L147.68,112.33z"/>
			</g>
			<g>
				<path class="st19" d="M148,108.41c0,0-0.62-0.07-0.84,0.5c-0.16,0.41-0.52,2.33-1.34,3.74c-0.33,0.56-1.58,1.66-2.1,2.06
					c0,0,0.19,0.61,0.6,0.77c0,0,1.97,0.2,3.27-1.27c0.37-0.42,2.57-4.01,2.12-4.75C149.25,108.72,148,108.41,148,108.41z"/>
			</g>
			<g>
				<g>
					<path class="st30" d="M151.3,108.07c-0.09,0.08-0.26,0.31-0.2,0.74c0.08,0.58,0.26,0.99,0.26,0.99l-0.06,0.03
						c0,0-0.19-0.43-0.27-1.01c-0.05-0.38,0.07-0.62,0.17-0.74L151.3,108.07z"/>
				</g>
			</g>
			<g>
				<g>
					<path class="st30" d="M153.8,112.7l-0.07,0.02c-0.03-0.09-0.72-2.31-0.67-2.72c0.03-0.26,0.18-0.39,0.3-0.46
						c0.04,0.01,0.09,0.01,0.13,0.02c-0.08,0.03-0.32,0.13-0.36,0.44C153.09,110.4,153.79,112.67,153.8,112.7z"/>
				</g>
			</g>
			<g>
				<path class="st30" d="M150.71,111.72l0.61,1.74c0,0,0.85,0.03,1.37-0.33l-0.57-1.78C152.13,111.34,151.65,111.7,150.71,111.72z"
					/>
			</g>
			<g>
				<path class="st30" d="M154.52,112.68c0,0.07-0.01,0.14-0.03,0.19c-0.2,0.77-2.79,1.34-3.08,1.07c-0.05-0.05-0.11-0.13-0.17-0.22
					C151.27,113.72,152.74,113.67,154.52,112.68z"/>
			</g>
			<g>
				<path class="st39" d="M150.71,111.72l0.18,0.51l0.81,0.06l0.58-0.45l-0.16-0.5C152.13,111.34,151.21,111.53,150.71,111.72z"/>
			</g>
			<g>
				<path class="st31" d="M151.58,112.13c0-0.03,0.02-0.05,0.05-0.05c0.03,0,0.05,0.02,0.05,0.05s-0.02,0.05-0.05,0.05
					C151.6,112.18,151.58,112.16,151.58,112.13z"/>
			</g>
		</g>
		<g>
			<rect x="118.52" y="141.65" class="st19" width="75.9" height="1.91"/>
		</g>
		<g>
			<rect x="118.52" y="145.5" class="st19" width="75.9" height="1.91"/>
		</g>
		<g>
			<rect x="152.34" y="149.35" class="st19" width="42.09" height="1.91"/>
		</g>
		<g>
			<rect x="143.73" y="153.21" class="st19" width="32.64" height="1.91"/>
		</g>
		<g>
			<rect x="152.34" y="157.06" class="st19" width="42.09" height="1.91"/>
		</g>
		<g>
			<rect x="79.52" y="126.18" class="st19" width="20.1" height="0.95"/>
		</g>
		<g>
			<rect x="101.56" y="126.18" class="st19" width="2.21" height="2.21"/>
		</g>
		<g>
			<rect x="87.03" y="126.18" class="st40" width="9.22" height="0.95"/>
		</g>
		<g>
			<rect x="79.52" y="120.95" class="st19" width="20.1" height="0.95"/>
		</g>
		<g>
			<rect x="101.56" y="120.95" class="st19" width="2.21" height="2.21"/>
		</g>
		<g>
			<rect x="82.15" y="120.95" class="st40" width="6.42" height="0.95"/>
		</g>
		<g>
			<rect x="79.52" y="115.71" class="st19" width="20.1" height="0.95"/>
		</g>
		<g>
			<rect x="101.56" y="115.71" class="st37" width="2.21" height="2.21"/>
		</g>
		<g>
			<rect x="89.47" y="115.71" class="st37" width="6.42" height="0.95"/>
		</g>
		<g>
			<rect x="79.52" y="110.48" class="st19" width="20.1" height="0.95"/>
		</g>
		<g>
			<rect x="101.56" y="110.48" class="st37" width="2.21" height="2.21"/>
		</g>
		<g>
			<rect x="82.15" y="110.48" class="st37" width="9.77" height="0.95"/>
		</g>
		<g>
			<rect x="79.52" y="105.25" class="st19" width="20.1" height="0.95"/>
		</g>
		<g>
			<rect x="101.56" y="105.25" class="st40" width="2.21" height="2.21"/>
		</g>
		<g>
			<rect x="89" y="105.25" class="st40" width="8.57" height="0.95"/>
		</g>
		<g>
			<g>
				<rect x="88.57" y="138.07" class="st19" width="1.95" height="1.95"/>
			</g>
			<g>
				<rect x="92.06" y="138.07" class="st19" width="1.95" height="1.95"/>
			</g>
			<g>
				<rect x="95.36" y="138.32" class="st19" width="10.18" height="0.72"/>
			</g>
			<g>
				<polygon class="st19" points="85.66,137.83 87.26,139.05 85.66,139.98 				"/>
			</g>
		</g>
		<g>
			<rect x="88.57" y="141.81" class="st37" width="1.95" height="1.95"/>
		</g>
		<g>
			<rect x="92.06" y="141.81" class="st19" width="1.95" height="1.95"/>
		</g>
		<g>
			<rect x="95.36" y="142.06" class="st19" width="10.18" height="0.72"/>
		</g>
		<g>
			<polygon class="st19" points="85.66,141.56 87.26,142.78 85.66,143.72 			"/>
		</g>
		<g>
			<rect x="88.57" y="145.54" class="st40" width="1.95" height="1.95"/>
		</g>
		<g>
			<rect x="92.06" y="145.54" class="st19" width="1.95" height="1.95"/>
		</g>
		<g>
			<rect x="95.36" y="145.79" class="st19" width="10.18" height="0.72"/>
		</g>
		<g>
			<polygon class="st19" points="85.66,145.3 87.26,146.52 85.66,147.45 			"/>
		</g>
		<g>
			<rect x="88.57" y="149.28" class="st40" width="1.95" height="1.95"/>
		</g>
		<g>
			<rect x="92.06" y="149.28" class="st19" width="1.95" height="1.95"/>
		</g>
		<g>
			<rect x="95.36" y="149.53" class="st19" width="10.18" height="0.72"/>
		</g>
		<g>
			<polygon class="st19" points="85.66,149.03 87.26,150.25 85.66,151.19 			"/>
		</g>
		<g>
			<rect x="88.57" y="153.01" class="st37" width="1.95" height="1.95"/>
		</g>
		<g>
			<rect x="92.06" y="153.01" class="st19" width="1.95" height="1.95"/>
		</g>
		<g>
			<rect x="95.36" y="153.26" class="st19" width="10.18" height="0.72"/>
		</g>
		<g>
			<polygon class="st19" points="85.66,152.77 87.26,153.99 85.66,154.92 			"/>
		</g>
		<g>
			<rect x="88.57" y="156.75" class="st37" width="1.95" height="1.95"/>
		</g>
		<g>
			<rect x="92.06" y="156.75" class="st19" width="1.95" height="1.95"/>
		</g>
		<g>
			<rect x="95.36" y="157" class="st19" width="10.18" height="0.72"/>
		</g>
		<g>
			<polygon class="st19" points="85.66,156.5 87.26,157.72 85.66,158.66 			"/>
		</g>
		<g class="st28">
			<g>
				<path class="st15" d="M79.21,138.9c0,0,0.52-0.67,1.21-0.67c0.71,0,1.15,0.67,1.15,0.67s-0.37,0.67-1.15,0.67
					C79.6,139.57,79.21,138.9,79.21,138.9z"/>
			</g>
			<g>
				<path class="st41" d="M79.94,138.9c0-0.25,0.21-0.46,0.46-0.46s0.46,0.21,0.46,0.46c0,0.25-0.21,0.46-0.46,0.46
					S79.94,139.16,79.94,138.9z"/>
			</g>
			<g>
				<path class="st15" d="M80.12,138.9c0-0.16,0.13-0.28,0.28-0.28c0.16,0,0.28,0.13,0.28,0.28c0,0.16-0.13,0.28-0.28,0.28
					C80.24,139.19,80.12,139.06,80.12,138.9z"/>
			</g>
		</g>
		<g class="st28">
			<g>
				<path class="st15" d="M79.21,142.64c0,0,0.52-0.67,1.21-0.67c0.71,0,1.15,0.67,1.15,0.67s-0.37,0.67-1.15,0.67
					C79.6,143.3,79.21,142.64,79.21,142.64z"/>
			</g>
			<g>
				<path class="st41" d="M79.94,142.64c0-0.25,0.21-0.46,0.46-0.46s0.46,0.21,0.46,0.46c0,0.25-0.21,0.46-0.46,0.46
					S79.94,142.89,79.94,142.64z"/>
			</g>
			<g>
				<path class="st15" d="M80.12,142.64c0-0.16,0.13-0.28,0.28-0.28c0.16,0,0.28,0.13,0.28,0.28c0,0.16-0.13,0.28-0.28,0.28
					C80.24,142.92,80.12,142.79,80.12,142.64z"/>
			</g>
		</g>
		<g class="st28">
			<g>
				<path class="st15" d="M79.21,146.37c0,0,0.52-0.67,1.21-0.67c0.71,0,1.15,0.67,1.15,0.67s-0.37,0.67-1.15,0.67
					C79.6,147.04,79.21,146.37,79.21,146.37z"/>
			</g>
			<g>
				<path class="st41" d="M79.94,146.37c0-0.25,0.21-0.46,0.46-0.46s0.46,0.21,0.46,0.46c0,0.25-0.21,0.46-0.46,0.46
					S79.94,146.63,79.94,146.37z"/>
			</g>
			<g>
				<path class="st15" d="M80.12,146.37c0-0.16,0.13-0.28,0.28-0.28c0.16,0,0.28,0.13,0.28,0.28c0,0.16-0.13,0.28-0.28,0.28
					C80.24,146.66,80.12,146.53,80.12,146.37z"/>
			</g>
		</g>
		<g class="st28">
			<g>
				<path class="st15" d="M79.21,150.11c0,0,0.52-0.67,1.21-0.67c0.71,0,1.15,0.67,1.15,0.67s-0.37,0.67-1.15,0.67
					C79.6,150.78,79.21,150.11,79.21,150.11z"/>
			</g>
			<g>
				<path class="st41" d="M79.94,150.11c0-0.25,0.21-0.46,0.46-0.46s0.46,0.21,0.46,0.46c0,0.25-0.21,0.46-0.46,0.46
					S79.94,150.36,79.94,150.11z"/>
			</g>
			<g>
				<path class="st15" d="M80.12,150.11c0-0.16,0.13-0.28,0.28-0.28c0.16,0,0.28,0.13,0.28,0.28c0,0.16-0.13,0.28-0.28,0.28
					C80.24,150.39,80.12,150.27,80.12,150.11z"/>
			</g>
		</g>
		<g class="st28">
			<g>
				<path class="st15" d="M79.21,153.85c0,0,0.52-0.67,1.21-0.67c0.71,0,1.15,0.67,1.15,0.67s-0.37,0.67-1.15,0.67
					C79.6,154.51,79.21,153.85,79.21,153.85z"/>
			</g>
			<g>
				<path class="st41" d="M79.94,153.85c0-0.25,0.21-0.46,0.46-0.46s0.46,0.21,0.46,0.46c0,0.25-0.21,0.46-0.46,0.46
					S79.94,154.1,79.94,153.85z"/>
			</g>
			<g>
				<path class="st15" d="M80.12,153.85c0-0.16,0.13-0.28,0.28-0.28c0.16,0,0.28,0.13,0.28,0.28c0,0.16-0.13,0.28-0.28,0.28
					C80.24,154.13,80.12,154,80.12,153.85z"/>
			</g>
		</g>
		<g class="st28">
			<g>
				<path class="st15" d="M79.21,157.58c0,0,0.52-0.67,1.21-0.67c0.71,0,1.15,0.67,1.15,0.67s-0.37,0.67-1.15,0.67
					C79.6,158.25,79.21,157.58,79.21,157.58z"/>
			</g>
			<g>
				<path class="st41" d="M79.94,157.58c0-0.25,0.21-0.46,0.46-0.46s0.46,0.21,0.46,0.46c0,0.25-0.21,0.46-0.46,0.46
					S79.94,157.84,79.94,157.58z"/>
			</g>
			<g>
				<path class="st15" d="M80.12,157.58c0-0.16,0.13-0.28,0.28-0.28c0.16,0,0.28,0.13,0.28,0.28s-0.13,0.28-0.28,0.28
					C80.24,157.86,80.12,157.74,80.12,157.58z"/>
			</g>
		</g>
		<g>
			<rect x="165.5" y="153.21" class="st29" width="28.92" height="1.91"/>
		</g>
		<g>
			<rect x="170.61" y="149.35" class="st29" width="16.8" height="1.91"/>
		</g>
		<g>
			<rect x="168.76" y="141.65" class="st29" width="19.45" height="1.91"/>
		</g>
		<g>
			<rect x="174.67" y="145.5" class="st37" width="16.8" height="1.91"/>
		</g>
		<g>
			<g>
				<path class="st41" d="M128.54,113.41c-3.97-5.08-8.4-5.25-8.44-5.26l0-0.11c0.04,0,4.52,0.18,8.53,5.3L128.54,113.41z"/>
			</g>
			<g>
				<path class="st40" d="M119.59,108.1c0-0.26,0.21-0.47,0.47-0.47s0.47,0.21,0.47,0.47c0,0.26-0.21,0.47-0.47,0.47
					S119.59,108.36,119.59,108.1z"/>
			</g>
			<g>
				<path class="st40" d="M128.12,113.33c0-0.26,0.21-0.47,0.47-0.47c0.26,0,0.47,0.21,0.47,0.47c0,0.26-0.21,0.47-0.47,0.47
					C128.33,113.8,128.12,113.59,128.12,113.33z"/>
			</g>
		</g>
		<g>
			<g>
				<path class="st41" d="M129.73,107.12l-0.09-0.07c0.03-0.03,2.98-3.41,9.48-3.32l0,0.11
					C132.67,103.75,129.76,107.08,129.73,107.12z"/>
			</g>
			<g>
				<path class="st40" d="M129.37,107.48c-0.2-0.16-0.24-0.46-0.07-0.66c0.16-0.2,0.46-0.24,0.66-0.07c0.2,0.16,0.24,0.46,0.07,0.66
					C129.87,107.61,129.57,107.64,129.37,107.48z"/>
			</g>
			<g>
				<path class="st40" d="M138.79,104.12c-0.2-0.16-0.24-0.46-0.07-0.66c0.16-0.2,0.46-0.24,0.66-0.07c0.2,0.16,0.24,0.46,0.07,0.66
					C139.29,104.25,138.99,104.29,138.79,104.12z"/>
			</g>
		</g>
		<g>
			<g>
				<path class="st41" d="M159.83,107.1l-0.1-0.09c0.03-0.04,3.37-3.82,11.18-3.32l-0.01,0.14
					C163.16,103.33,159.86,107.07,159.83,107.1z"/>
			</g>
			<g>
				<path class="st40" d="M159.42,107.51c-0.25-0.2-0.31-0.56-0.13-0.78c0.18-0.23,0.54-0.25,0.79-0.04
					c0.25,0.2,0.31,0.56,0.13,0.78C160.03,107.7,159.67,107.72,159.42,107.51z"/>
			</g>
			<g>
				<path class="st40" d="M170.53,104.14c-0.25-0.2-0.31-0.56-0.13-0.78c0.18-0.23,0.54-0.25,0.79-0.04
					c0.25,0.2,0.31,0.56,0.13,0.78C171.14,104.32,170.78,104.34,170.53,104.14z"/>
			</g>
		</g>
		<g>
			<rect x="146.41" y="108.87" class="st41" width="7.93" height="0.11"/>
		</g>
		<g>
			<path class="st42" d="M145.94,108.93c0-0.26,0.21-0.47,0.47-0.47c0.26,0,0.47,0.21,0.47,0.47c0,0.26-0.21,0.47-0.47,0.47
				C146.15,109.4,145.94,109.19,145.94,108.93z"/>
		</g>
		<g>
			<path class="st42" d="M153.87,108.93c0-0.26,0.21-0.47,0.47-0.47c0.26,0,0.47,0.21,0.47,0.47c0,0.26-0.21,0.47-0.47,0.47
				C154.08,109.4,153.87,109.19,153.87,108.93z"/>
		</g>
		<g>
			<g>
				
					<rect x="162.21" y="139.35" transform="matrix(0.7072 0.7071 -0.7071 0.7072 146.5997 -74.1196)" class="st40" width="1.14" height="1.14"/>
			</g>
		</g>
		<g>
			<path class="st41" d="M141.95,123.28c-4.52,0-9.28-0.79-13.14-1.66c-7-1.57-12.63-3.73-12.69-3.75l0.04-0.11
				c0.06,0.02,5.68,2.17,12.67,3.75c6.45,1.45,15.42,2.69,21.52,0.36c6.13-2.34,12.61-2,16.97-1.31c4.72,0.75,8.05,2.08,8.08,2.09
				l-0.04,0.11c-0.03-0.01-3.34-1.33-8.06-2.08c-4.35-0.69-10.81-1.03-16.91,1.3C147.93,122.92,145,123.28,141.95,123.28z"/>
		</g>
		<g>
			<path class="st43" d="M151.2,121.51c0-0.26,0.21-0.47,0.47-0.47c0.26,0,0.47,0.21,0.47,0.47c0,0.26-0.21,0.47-0.47,0.47
				C151.41,121.98,151.2,121.77,151.2,121.51z"/>
		</g>
		<g>
			<path class="st43" d="M138.11,123.17c0-0.26,0.21-0.47,0.47-0.47c0.26,0,0.47,0.21,0.47,0.47s-0.21,0.47-0.47,0.47
				C138.32,123.64,138.11,123.43,138.11,123.17z"/>
		</g>
		<g>
			<g>
				<path class="st41" d="M141.14,134.72c-0.97,0-2.06-0.17-3.15-0.67l0.05-0.1c3.25,1.5,6.53-0.03,6.56-0.04l0.05,0.1
					C144.63,134.02,143.13,134.72,141.14,134.72z"/>
			</g>
			<g>
				<path class="st40" d="M144.93,134.32c-0.2,0.16-0.5,0.13-0.66-0.07c-0.16-0.2-0.13-0.5,0.07-0.66c0.2-0.16,0.5-0.13,0.66,0.07
					C145.16,133.86,145.13,134.16,144.93,134.32z"/>
			</g>
			<g>
				<path class="st40" d="M138.32,134.37c-0.2,0.16-0.5,0.13-0.66-0.07c-0.16-0.2-0.13-0.5,0.07-0.66c0.2-0.16,0.5-0.13,0.66,0.07
					C138.55,133.91,138.52,134.2,138.32,134.37z"/>
			</g>
		</g>
		<g>
			<g>
				<path class="st41" d="M156.74,134.72c-0.97,0-2.06-0.17-3.15-0.67l0.05-0.1c3.25,1.5,6.53-0.03,6.56-0.04l0.05,0.1
					C160.23,134.02,158.73,134.72,156.74,134.72z"/>
			</g>
			<g>
				<path class="st40" d="M160.52,134.32c-0.2,0.16-0.5,0.13-0.66-0.07c-0.16-0.2-0.13-0.5,0.07-0.66c0.2-0.16,0.5-0.13,0.66,0.07
					C160.76,133.86,160.73,134.16,160.52,134.32z"/>
			</g>
			<g>
				<path class="st40" d="M153.91,134.37c-0.2,0.16-0.5,0.13-0.66-0.07c-0.16-0.2-0.13-0.5,0.07-0.66c0.2-0.16,0.5-0.13,0.66,0.07
					C154.15,133.91,154.12,134.2,153.91,134.37z"/>
			</g>
		</g>
		<g class="st44">
			<path class="st19" d="M177.29,117.33v16.16l-5.78-0.75c0,0-0.52-3.41,1.94-4.49C175.73,127.24,174.19,118.48,177.29,117.33z"/>
		</g>
		<g>
			<path class="st40" d="M174.64,122.71c0-0.26,0.21-0.47,0.47-0.47c0.26,0,0.47,0.21,0.47,0.47c0,0.26-0.21,0.47-0.47,0.47
				C174.85,123.18,174.64,122.97,174.64,122.71z"/>
		</g>
		<g>
			<path class="st40" d="M115.79,117.82c0-0.26,0.21-0.47,0.47-0.47c0.26,0,0.47,0.21,0.47,0.47c0,0.26-0.21,0.47-0.47,0.47
				C116,118.29,115.79,118.08,115.79,117.82z"/>
		</g>
	</g>
	<g class="st14">
		<rect x="182.53" y="101" class="st15" width="30.47" height="34.6"/>
	</g>
	<g>
		<g>
			<g>
				<rect x="185.19" y="103.09" class="st19" width="14.87" height="0.42"/>
			</g>
			<g>
				<rect x="185.19" y="104.14" class="st19" width="11.51" height="0.42"/>
			</g>
		</g>
		<g>
			<rect x="207.89" y="103.33" class="st19" width="0.81" height="0.81"/>
		</g>
		<g>
			<g>
				<rect x="185.19" y="107.78" class="st19" width="14.87" height="0.42"/>
			</g>
			<g>
				<rect x="185.19" y="108.84" class="st19" width="11.51" height="0.42"/>
			</g>
		</g>
		<g>
			<rect x="207.89" y="108.03" class="st19" width="0.81" height="0.81"/>
		</g>
		<g>
			<g>
				<rect x="185.19" y="112.47" class="st19" width="14.87" height="0.42"/>
			</g>
			<g>
				<rect x="185.19" y="113.53" class="st19" width="11.51" height="0.42"/>
			</g>
		</g>
		<g>
			<rect x="207.89" y="112.72" class="st19" width="0.81" height="0.81"/>
		</g>
		<g>
			<g>
				<rect x="185.19" y="117.17" class="st19" width="14.87" height="0.42"/>
			</g>
			<g>
				<rect x="185.19" y="118.22" class="st19" width="11.51" height="0.42"/>
			</g>
		</g>
		<g>
			<rect x="207.89" y="117.41" class="st19" width="0.81" height="0.81"/>
		</g>
		<g>
			<g>
				<rect x="185.19" y="121.86" class="st19" width="14.87" height="0.42"/>
			</g>
			<g>
				<rect x="185.19" y="122.92" class="st19" width="11.51" height="0.42"/>
			</g>
		</g>
		<g>
			<rect x="207.89" y="122.11" class="st19" width="0.81" height="0.81"/>
		</g>
		<g>
			<rect x="207.89" y="126.36" class="st19" width="0.81" height="0.81"/>
		</g>
		<g>
			<g>
				<rect x="185.19" y="126.55" class="st19" width="14.87" height="0.42"/>
			</g>
			<g>
				<rect x="185.19" y="127.61" class="st19" width="11.51" height="0.42"/>
			</g>
		</g>
		<g>
			<g>
				<rect x="185.19" y="131.25" class="st19" width="14.87" height="0.42"/>
			</g>
			<g>
				<rect x="185.19" y="132.3" class="st19" width="11.51" height="0.42"/>
			</g>
		</g>
		<g>
			<rect x="207.89" y="131.49" class="st19" width="0.81" height="0.81"/>
		</g>
	</g>
	<g>
		<g>
			<g>
				<path class="st45" d="M195.43,204.67c0,0-2.13,5.26-1.38,5.8c0.75,0.55,3.32-1.68,4-4.04
					C198.74,204.08,195.43,204.67,195.43,204.67z"/>
			</g>
			<g>
				<path class="st35" d="M238.89,240.13c-9.41,0-19.23,0-28.52,0c-0.36-0.86-0.74-1.77-1.14-2.69c-2.58-6-5.81-12.75-7.6-13.55
					c-3.31-1.48-5.3-0.18-9.42-4.99c-4.12-4.81-6.74-6.44-5.12-7.55c1.62-1.11,6.96,3.06,8.44,2.88c1.19-0.14,1.81-3.03,1.71-6.07
					c-0.02-0.8-0.1-1.6-0.23-2.37v0c-0.06-0.39-0.14-0.77-0.23-1.13c-0.14-0.57-0.32-1.1-0.52-1.58c-0.4-0.92-0.37-1.56-0.06-1.98
					c0.92-1.27,4.3-0.66,5.57-0.36c0.57,0.14,2.33-0.93,3.56-0.32c1.91,0.94,3.03-0.14,4.29,0.67c0.9,0.58,2.75,0.85,3.38,1.68
					c1.21,1.58,1.51,4.94,2.69,8.04c1.09,2.87,1.47,5.88,5.22,10.96c1.67,2.26,6.84,7.52,12.07,12.65
					C235.02,236.39,237.05,238.36,238.89,240.13z"/>
			</g>
			<g>
				<path class="st35" d="M196.18,201.06c0,0-7.85,6.43-6.83,7.29c1.02,0.86,3.61,0.01,7.84-2.7
					C201.43,202.94,196.18,201.06,196.18,201.06z"/>
			</g>
		</g>
		<g>
			<path class="st4" d="M241.24,240.13h-2.35c-9.41,0-19.23,0-28.52,0h-2.77l-0.32-0.67c0,0,0.65-0.88,1.96-2.03
				c3.43-3,11.36-7.78,23.76-3.03c0.55,0.21,1.11,0.44,1.68,0.69L241.24,240.13z"/>
		</g>
	</g>
	<g>
		<g>
			<g>
				<path class="st45" d="M112.93,207.95c0,0,1.36,5.5,0.54,5.94c-0.82,0.44-3.05-2.14-3.39-4.57
					C109.74,206.9,112.93,207.95,112.93,207.95z"/>
			</g>
			<g>
				<path class="st35" d="M114.11,222.48c-4.75,4.17-6.54,2.61-10.03,3.61c-1.89,0.54-6.05,6.77-9.44,12.34
					c-0.29,0.48-0.58,0.95-0.85,1.41c-11.22-0.04-22.46-0.08-32.81-0.12c2.81-2,6.69-4.8,10.57-7.65
					c5.9-4.34,11.76-8.81,13.74-10.82c4.43-4.5,5.23-7.43,6.72-10.11c1.59-2.86,1.54-6.23,3.73-6.2c1.08,0.02,2.03-1.39,3.03-1.85
					c1.37-0.63,2.68,0.77,4.71,0.11c1.31-0.43,3.1,0.73,3.68,0.67c1.12-0.1,3.83-0.52,5.05,0.12c0.68,0.35,0.9,1.02,0.15,2.25
					c-0.27,0.44-0.52,0.95-0.74,1.49c-0.12,0.31-0.24,0.63-0.35,0.96c-0.25,0.78-0.46,1.62-0.6,2.45c-0.53,3-0.32,5.94,0.84,6.25
					c1.44,0.39,7.4-3.61,8.85-2.29C121.77,216.43,118.86,218.3,114.11,222.48z"/>
			</g>
			<g>
				<path class="st35" d="M112.06,203.95c0,0,11.86,3.53,11.24,4.72c-0.62,1.18-6.82,0.98-11.77,0.08
					C106.58,207.84,112.06,203.95,112.06,203.95z"/>
			</g>
		</g>
		<g>
			<path class="st4" d="M95.74,239.85c-0.65,0-1.3,0-1.96-0.01c-11.22-0.04-22.46-0.08-32.81-0.12c-1.34,0-2.66-0.01-3.97-0.01
				l12.78-7.19c0.6-0.17,1.18-0.32,1.76-0.45c12.95-2.95,20.13,2.9,23.1,6.36C95.11,238.98,95.47,239.47,95.74,239.85z"/>
		</g>
	</g>
	<g>
		<g>
			<path class="st4" d="M156.47,230.99c0,0.08,0,0.15,0.01,0.23c0.03,0.24,0.1,0.46,0.21,0.66c0.09,0.16,0.19,0.3,0.32,0.42
				c0.34,0.34,0.8,0.54,1.31,0.54h26.07c1.02,0,1.85-0.83,1.85-1.85c0-0.51-0.21-0.98-0.54-1.31c-0.34-0.34-0.8-0.54-1.31-0.54
				h-26.07C157.3,229.14,156.47,229.97,156.47,230.99z"/>
		</g>
		<g>
			<path class="st4" d="M158.46,228.8h8.94c0.16,0,0.28-0.13,0.28-0.28l0,0c0-0.16-0.13-0.28-0.28-0.28h-8.94
				c-0.16,0-0.28,0.13-0.28,0.28l0,0C158.17,228.67,158.3,228.8,158.46,228.8z"/>
		</g>
		<g>
			
				<rect x="158.95" y="228.8" transform="matrix(-1 -1.224647e-16 1.224647e-16 -1 318.8669 457.936)" class="st38" width="0.97" height="0.34"/>
		</g>
		<g>
			<path class="st38" d="M156.69,231.88c0.09,0.16,0.19,0.3,0.32,0.42c0.34,0.34,0.8,0.54,1.31,0.54h5.52v-0.97H156.69z"/>
		</g>
		<g>
			<path class="st29" d="M189.7,230.45v1.09c0,0.12-0.02,0.23-0.05,0.34c-0.15,0.56-0.66,0.97-1.26,0.97h-27.16
				c-0.61,0-1.11-0.41-1.26-0.97c-0.03-0.11-0.05-0.22-0.05-0.34v-1.09c0-0.72,0.59-1.31,1.31-1.31h27.16
				C189.11,229.14,189.7,229.72,189.7,230.45z"/>
		</g>
		<g>
			<path class="st39" d="M189.65,231.88c-0.15,0.56-0.66,0.97-1.26,0.97h-27.16c-0.61,0-1.11-0.41-1.26-0.97H189.65z"/>
		</g>
		<g>
			<g>
				<path class="st8" d="M187,231c0,0.58,0.21,1.09,0.54,1.43c0.01,0.01,0.01,0.02,0.02,0.02c0.26,0.25,0.58,0.41,0.93,0.41
					c0.55,0,1.91-0.83,2.76-1.38c0.42-0.27,0.71-0.48,0.71-0.48s-0.29-0.21-0.71-0.48c-0.84-0.55-2.21-1.38-2.76-1.38
					c-0.16,0-0.31,0.03-0.46,0.09c-0.24,0.1-0.46,0.27-0.63,0.5c-0.19,0.25-0.32,0.56-0.38,0.91c0,0,0,0.01,0,0.01
					C187.01,230.75,187,230.87,187,231z"/>
			</g>
			<g>
				<path class="st46" d="M187,231c0,0.58,0.21,1.09,0.54,1.43l4.18-1.44l-4.69-0.35C187.01,230.75,187,230.87,187,231z"/>
			</g>
			<g>
				<path class="st47" d="M187.41,229.72l4.17,1.14l-3.54-1.63C187.79,229.32,187.58,229.49,187.41,229.72z"/>
			</g>
			<g>
				<path class="st48" d="M190.98,231c0,0.22,0.11,0.41,0.27,0.48c0.42-0.27,0.71-0.48,0.71-0.48s-0.29-0.21-0.71-0.48
					C191.09,230.59,190.98,230.77,190.98,231z"/>
			</g>
		</g>
	</g>
	<g>
		<g>
			<path class="st30" d="M25.84,226.09c1.09,0,2.23-0.12,3.39-0.39c4.4-1,9.09-3.99,12.54-9.49c0,0-0.72-3.7-2.79-6.59l0,0
				c-1.44-2.01-3.92-4.39-6.89-4.41c-1.91-0.01-3.26,0.69-4.32,1.59c-1.8,1.53-2.74,3.67-4.14,3.98c-1.37,0.3-2.86,1.04-4.11,2.08
				c-0.21,0.17-0.4,0.35-0.6,0.54l0,0c-0.08,0.08-0.16,0.15-0.23,0.24c0,0,0,0,0,0.01c-1.69,1.77-2.68,4.18-1.84,6.83
				c0.2,0.62,0.5,1.25,0.93,1.91C19.32,224.74,22.33,226.08,25.84,226.09z"/>
		</g>
		<g>
			<path class="st49" d="M30.66,206.76c0,0,2.57-0.9,3.78,0.66c1.21,1.56-0.42,2.52-1.79,2.27
				C31.28,209.44,29.37,207.61,30.66,206.76z"/>
		</g>
		<g>
			<path class="st50" d="M16.84,220.49c0.2,0.62,0.56,1.22,0.93,1.91c2.64,4.9,6.33,6.96,9.13,7.63c3.1,0.74,8.9-0.51,11.21-2
				c3.79-2.45,4.94-6.81,3.65-11.82c0,0-0.72-3.7-2.79-6.59l0,0c0,0-1.65,8.48-11.31,11.28C23.27,222.17,19.57,221.55,16.84,220.49z
				"/>
		</g>
		<g>
			<g>
				<path class="st12" d="M20.58,208.34c0.05-1.54,1.71-2.07,3.06-3.06c1.35-0.98,2.96-3.52,2.96-3.52s-2.16,0.08-4.73,0.84
					C19.29,203.36,20.58,208.34,20.58,208.34z"/>
			</g>
			<g>
				<path class="st13" d="M20.58,208.34c-0.19-1.6,0.56-3.86,1.55-4.56c0.99-0.7,4.46-2.02,4.46-2.02s-2.16,0.08-4.73,0.84
					C19.29,203.36,20.58,208.34,20.58,208.34z"/>
			</g>
		</g>
		<g>
			<path class="st50" d="M23.63,210.79c-1.37,0.3-2.86,1.04-4.11,2.08c2.26-1.7,5.88-1.12,6.09-2.17c0.23-1.13,2.09-3.79,2.16-3.89
				C25.97,208.34,25.02,210.48,23.63,210.79z"/>
		</g>
		<g>
			<path class="st51" d="M18.68,213.65c0.06-0.06,0.14-0.14,0.23-0.24C18.84,213.49,18.76,213.57,18.68,213.65z"/>
		</g>
		<g>
			<g>
				<path class="st13" d="M25.45,210.82L25.45,210.82c-1.12-1.73-3.33-2.59-4.99-3.02c-1.32-0.34-3.22-0.59-4.14-0.7
					c-0.19-0.02-0.32,0.2-0.19,0.35l0.32,0.4c0.33,0.4,0.81,0.64,1.32,0.65c1.59,0.04,5.14,0.36,6.94,2.39
					C24.93,211.13,25.65,211.13,25.45,210.82z"/>
			</g>
		</g>
	</g>
	<g>
		<g>
			<g>
				
					<rect x="46.4" y="177.39" transform="matrix(0.9873 -0.1586 0.1586 0.9873 -29.2693 9.8906)" class="st52" width="1.85" height="21.82"/>
			</g>
			<g>
				<polygon class="st53" points="44.98,173.73 44.68,177.67 46.51,177.38 				"/>
			</g>
		</g>
		<g>
			<g>
				
					<rect x="62.48" y="179.18" transform="matrix(0.9832 0.1826 -0.1826 0.9832 35.7863 -8.3837)" class="st52" width="1.85" height="21.82"/>
			</g>
			<g>
				<polygon class="st53" points="66.1,175.59 64.49,179.2 66.31,179.54 				"/>
			</g>
		</g>
		<g>
			<g>
				
					<rect x="60.17" y="172.89" transform="matrix(0.9832 0.1827 -0.1827 0.9832 34.6016 -8.0685)" class="st52" width="1.85" height="21.82"/>
			</g>
			<g>
				<polygon class="st53" points="63.8,169.3 62.18,172.91 64,173.24 				"/>
			</g>
		</g>
		<g>
			<g>
				<rect x="51.53" y="186.47" class="st54" width="14.58" height="21.02"/>
			</g>
			<g>
				<rect x="44.24" y="186.47" class="st6" width="14.58" height="21.02"/>
			</g>
		</g>
	</g>
	<g>
		
			<rect x="192.94" y="174.32" transform="matrix(0.9824 0.1868 -0.1868 0.9824 37.6014 -34.4823)" class="st12" width="17.63" height="15.89"/>
	</g>
	<g>
		
			<rect x="192.94" y="175.75" transform="matrix(0.9824 0.1868 -0.1868 0.9824 36.5984 -34.5779)" class="st13" width="17.63" height="2.29"/>
	</g>
	<g>
		<g>
			
				<rect x="79.76" y="172.22" transform="matrix(0.9725 -0.2328 0.2328 0.9725 -39.5095 25.5699)" class="st8" width="17.63" height="15.89"/>
		</g>
		<g>
			
				<rect x="78.31" y="172.4" transform="matrix(0.9725 -0.2328 0.2328 0.9725 -38.1444 25.067)" class="st46" width="17.63" height="3.49"/>
		</g>
	</g>
	<g>
		<g>
			
				<rect x="205.26" y="162.26" transform="matrix(0.985 -0.1725 0.1725 0.985 -26.1503 39.4806)" class="st55" width="17.63" height="15.89"/>
		</g>
		<g>
			
				<rect x="204.2" y="162.35" transform="matrix(0.985 -0.1725 0.1725 0.985 -25.1131 39.204)" class="st56" width="17.63" height="3.49"/>
		</g>
	</g>
</g>
</svg>
