<?xml version="1.0" encoding="utf-8"?>
<!-- Generator: Adobe Illustrator 27.2.0, SVG Export Plug-In . SVG Version: 6.00 Build 0)  -->
<svg version="1.1" id="Camada_1" xmlns="http://www.w3.org/2000/svg" xmlns:xlink="http://www.w3.org/1999/xlink" x="0px" y="0px"
	 viewBox="0 0 300 300" style="enable-background:new 0 0 300 300;" xml:space="preserve">
<style type="text/css">
	.st0{fill-rule:evenodd;clip-rule:evenodd;fill:#FFD600;}
	.st1{fill-rule:evenodd;clip-rule:evenodd;fill:#F2F2F2;}
	.st2{fill:#FECA17;}
	.st3{fill:#FFD600;}
	.st4{fill:#FFFFFF;}
	.st5{fill:#A7CAED;}
	.st6{fill-rule:evenodd;clip-rule:evenodd;fill:#FFFFFF;}
	.st7{fill-rule:evenodd;clip-rule:evenodd;fill:#A7CAED;}
	.st8{fill:#95BADC;}
	.st9{fill:#FFE16F;}
	.st10{fill:#E8ECEF;}
	.st11{fill:#0F2A40;}
</style>
<g>
	<polygon class="st0" points="187.99,245.11 189.15,245.77 190.3,246.44 190.3,247.77 190.3,249.1 189.15,249.77 187.99,250.43 
		186.84,249.77 185.68,249.1 185.68,247.77 185.68,246.44 186.84,245.77 	"/>
	<path class="st1" d="M165.89,92.07h-4.32v8.64h4.32h4.32v-8.64H165.89z M168.69,99.19h-2.8h-2.8v-5.59h2.8h2.8V99.19z"/>
	<rect x="180.74" y="293.54" class="st2" width="5.25" height="5.25"/>
	<rect x="291.65" y="83.96" class="st2" width="3.72" height="3.72"/>
	<rect x="110.22" y="136.52" class="st3" width="8.08" height="8.08"/>
	<rect x="26.33" y="105.84" class="st3" width="8.08" height="8.08"/>
	<rect x="189.73" y="9.71" class="st3" width="5.87" height="5.87"/>
	<rect x="77.68" y="12.65" class="st3" width="5.87" height="5.87"/>
	<polygon class="st4" points="39.65,72.54 41,74.86 42.34,77.18 39.65,77.18 36.98,77.18 38.31,74.86 	"/>
	<polygon class="st4" points="60.66,35.06 63.35,39.7 66.03,44.34 60.66,44.34 55.31,44.34 57.98,39.7 	"/>
	<polygon class="st4" points="272.15,52.6 273.88,55.6 275.62,58.6 272.15,58.6 268.69,58.6 270.41,55.6 	"/>
	<polygon class="st4" points="122.3,203.16 124.31,206.62 126.31,210.09 122.3,210.09 118.3,210.09 120.29,206.62 	"/>
	<polygon class="st4" points="23.24,211.87 24.79,214.54 26.33,217.2 23.24,217.2 20.17,217.2 21.7,214.54 	"/>
	<polygon class="st4" points="68.26,276.78 70.26,280.24 72.27,283.71 68.26,283.71 64.25,283.71 66.25,280.24 	"/>
	<path class="st5" d="M105.5,128.9c0,2.36-1.91,4.26-4.26,4.26c-2.36,0-4.26-1.91-4.26-4.26c0-2.36,1.91-4.26,4.26-4.26
		C103.59,124.63,105.5,126.54,105.5,128.9z"/>
	<circle class="st5" cx="132.61" cy="15.58" r="4.99"/>
	<path class="st5" d="M228.12,8.14c0,2.45-1.99,4.44-4.44,4.44c-2.45,0-4.44-1.99-4.44-4.44c0-2.45,1.99-4.44,4.44-4.44
		C226.13,3.71,228.12,5.69,228.12,8.14z"/>
	<path class="st5" d="M258.46,34.71c0,2.75-2.23,4.98-4.98,4.98c-2.75,0-4.98-2.23-4.98-4.98c0-2.75,2.23-4.98,4.98-4.98
		C256.23,29.73,258.46,31.96,258.46,34.71z"/>
	<path class="st5" d="M250.49,58.64c0,0.55-0.45,1-1,1c-0.55,0-1-0.45-1-1c0-0.55,0.45-1,1-1
		C250.04,57.64,250.49,58.09,250.49,58.64z"/>
	<circle class="st5" cx="262.85" cy="83.96" r="4.39"/>
	<path class="st5" d="M250.49,112.47c0,1.43-1.16,2.59-2.59,2.59c-1.43,0-2.59-1.16-2.59-2.59c0-1.43,1.16-2.59,2.59-2.59
		C249.33,109.88,250.49,111.04,250.49,112.47z"/>
	<path class="st5" d="M22.32,95.75c0,1.19-0.96,2.15-2.15,2.15c-1.19,0-2.15-0.96-2.15-2.15c0-1.19,0.96-2.15,2.15-2.15
		C21.36,93.59,22.32,94.56,22.32,95.75z"/>
	<circle class="st5" cx="44.73" cy="235.48" r="2.39"/>
	<circle class="st5" cx="13.68" cy="201.11" r="2.04"/>
	<path class="st5" d="M105.19,174.51c0,1.57-1.27,2.84-2.84,2.84s-2.84-1.27-2.84-2.84s1.27-2.84,2.84-2.84
		S105.19,172.94,105.19,174.51z"/>
	<path class="st5" d="M132.05,242.89c0,1.23-0.99,2.22-2.22,2.22s-2.22-0.99-2.22-2.22c0-1.23,0.99-2.22,2.22-2.22
		S132.05,241.66,132.05,242.89z"/>
	<path class="st5" d="M145.16,257.94c0,1.11-0.9,2.02-2.02,2.02s-2.02-0.9-2.02-2.02c0-1.12,0.9-2.02,2.02-2.02
		S145.16,256.82,145.16,257.94z"/>
	<path class="st5" d="M195.85,261.12c0,1.76-1.43,3.19-3.19,3.19s-3.19-1.43-3.19-3.19c0-1.76,1.43-3.19,3.19-3.19
		S195.85,259.36,195.85,261.12z"/>
	<path class="st5" d="M98.57,285.71c0,1.1-0.89,2-2,2c-1.1,0-2-0.89-2-2c0-1.1,0.89-2,2-2C97.68,283.71,98.57,284.61,98.57,285.71z"
		/>
	<g>
		<path class="st6" d="M217.46,267.03c-1.98,0.92-13.38,8.97-35.54-0.47c-22.14-9.44-21.54-23.73-27.52-20.63
			c-5.98,3.08-2.6,9.68,0.5,14.41c3.08,4.76,12.61,10.09,0.95,7.69c-11.69-2.43-21.81-1.78-37.85-22.31
			c-16.04-20.51-12.7-35.57-18.08-35.1c-5.36,0.47,0.98,12.58-4.17,13.44c-3.43,0.59-6.69-11.9-9.85-25.15
			c-8.08-34,16.13-45.4,10.15-51.67c-6.01-6.27-11.81,11.1-15.18,9.85c-3.37-1.21-3.34-18.41,13.55-36.87
			c16.9-18.5,34.92-23.91,56.58-19.68s43.24,31.16,52.44,25.3c9.2-5.86,8.2-27.64-8.73-40.19C177.77,73.11,77.3,67.93,66.89,118.15
			c-10.42,50.25-9.32,98.13,15.63,124.47c24.95,26.34,68.3,40.93,95.02,39.92C204.23,281.54,217.46,267.03,217.46,267.03
			L217.46,267.03z"/>
		<path class="st0" d="M208.46,73.29c3.7,3.67-26.84-17.52-24.95-24.18c1.89-6.66,61.79,21.6,58.68,11.78
			c-3.11-9.8-31.69-22.61-28.02-23.56c3.7-0.92,29.21,12.19,21.51,0.24c-7.72-11.93-48.89-19.18-89.11-11.69
			c-40.19,7.52-54.27,21.69-51.85,13.38c2.43-8.29,22.52-18.35,13.44-21.22c-9.06-2.9-48.06,40.99-62.71,75.43
			c-14.62,34.42-10.24,60.52-14.56,56.23c-4.29-4.29,2.22-27.55-7.58-23.05c-20.27,12.28,1.45,95.08,47.7,132.55
			c4.85,3.94-10.39-2.1-11.66,3.43c-1.3,5.5,13.23,9.77,56.88,22.52c43.65,12.75,81.74-4.38,81.74-4.38s-61.47,1.57-92.86-17.08
			c-31.37-18.61-45.25-45.51-51.91-96.24c-6.63-50.75,31.64-96.53,70.31-102.19C162.21,59.62,208.46,73.29,208.46,73.29
			L208.46,73.29z"/>
		<path class="st7" d="M217.46,267.03c-58.15,23.62-128.67-5.98-146.84-71.82C53.78,134.13,97.07,43.4,211.3,112.88
			c19.06,11.63,25.04,6.21,18.55-7.72c-6.51-13.97,23.35,9.14,26.4-3.79c3.02-12.9-0.09-22.11-34.54-42.85
			C114.29-6.23,16.1,91.13,42.24,202.79C59.78,277.78,168.21,316.19,217.46,267.03L217.46,267.03z"/>
		<path class="st7" d="M217.46,267.03c-44.18,6.84-44.77-4.14-48.38-2.66c-3.61,1.48-4.73,5.39-0.74,8.61
			c4,3.2-21.51-0.95-30.39-4.62c-8.88-3.7-23.26-12.1-28.82-23.29c-5.56-11.22-1.57-16.75-8.49-14.89c-6.9,1.86,2.99,10.48-5.39,9.8
			c-8.4-0.68-15.27-9.97-20.77-30.9c-5.5-20.92,11.25-37.79,4.32-43.62c-6.92-5.8-10.09,19.71-13.97,8.02
			c-3.85-11.66-0.71-33.91,11.07-48.09c11.78-14.15,27.23-9.29,26.28-17.34s-6.21-2.43-8.52-2.13c-2.31,0.3,6.51-9.68,20.69-13.35
			c14.18-3.67,20.42-1.12,37.61,5.27c17.22,6.39,28.29-2.84,15.03-11.57c-13.26-8.76-63.8-19.77-85.85-1.57
			c-22.05,18.17-28.65,43.68-28.41,77.45c0.21,33.8,19.98,73.78,39.39,89.31c19.41,15.57,43.65,26.81,69.04,30.04
			C186.5,284.73,217.46,267.03,217.46,267.03L217.46,267.03z"/>
		<path class="st0" d="M164.6,289.05c0,0-23.48-0.49-45.43-14.38c-11.47-7.26-7.99-15.63-13.94-16.69
			c-5.95-1.09-5.89,6.01-3.2,11.42c2.72,5.45-23.73-5.21-33.47-24.98c-9.74-19.77,2.4-23.85-4.85-30.63
			c-7.25-6.81-1.78,22.34-8.55,11.48c-6.81-10.89-12.87-34.06-11.54-58.33c1.3-24.24,25.27-30.24,17.19-41.34
			c-8.05-11.1-13.14,18.17-17.9,15.71c-4.76-2.43,2.81-31.93,22.73-50.43c19.89-18.5,40.51-9.23,37.67-24.38
			c-2.84-15.15-16.54-16.42-29.09-4.71c-12.55,11.72-19.98,24.21-26.66,42.64c-6.69,18.47-11.57,33.53-12.1,58.09
			s0.74,37.14,8.76,54.48c8.05,17.31,19.32,33.26,29.15,41.05C109,286.27,139.07,290.82,164.6,289.05L164.6,289.05z"/>
	</g>
	<path class="st8" d="M130.72,76.77c8.78,1.25,17.17,4.37,25.4,7.66c2.5,1,5.13,2.03,7.79,1.64c2.66-0.39,5.22-2.79,4.75-5.44
		c-0.46-2.57-3.45-4.25-3.53-6.86c-0.06-2.02,1.8-3.69,3.77-4.09c1.98-0.4,4.01,0.16,5.92,0.81c18.77,6.39,34.49,21.38,54.17,23.78
		c2.29,0.28,4.78,0.34,6.74-0.88c2.72-1.69,3.55-5.46,2.7-8.54c-0.86-3.09-3.04-5.62-5.31-7.88c-16.05-16-39.94-23.72-62.32-20.13
		c-1.52,0.24-3.67,0.09-3.82-1.44c-0.16-1.53,1.91-2.12,3.01-3.19c1.7-1.68,0.71-4.84-1.34-6.05c-2.05-1.22-4.64-1-6.98-0.52
		c-5.56,1.14-10.86,3.57-15.35,7.04c-2.05,1.58-3.97,3.4-6.35,4.41c-2.38,1.01-5.42,1.03-7.27-0.78c-0.77-0.75-1.31-1.79-2.3-2.23
		c-1.64-0.74-3.42,0.55-4.76,1.76c-5.44,4.92-10.89,9.84-16.33,14.76c-1.82,1.65-3.68,3.48-4.73,5.74c-0.34,0.73-1.02,2.12-0.48,2.9
		c0.48,0.69,1.59,0.56,2.28,0.37c2.5-0.68,4.82-1.83,7.38-2.39c2.62-0.57,5.3-0.87,7.98-0.95
		C124.76,76.16,127.76,76.35,130.72,76.77z"/>
	<path class="st8" d="M60.68,178.74c0.21,2.33,1.2,5.3,3.54,5.26c0.98-0.01,1.86-0.61,2.82-0.73c2.17-0.27,3.96,2.06,3.95,4.25
		c0,2.19-1.24,4.16-2.47,5.97c-2.56,3.76-5.3,7.4-8.21,10.9c-0.73,0.88-1.6,1.82-2.74,1.88c-1.97,0.1-2.97-2.29-3.35-4.22
		c-3.79-19.39-1.9-39.86,5.36-58.23c0.81-2.05,2.89-6.01,5.73-4.32c1.9,1.14-0.57,4.39-1.08,5.76c-2.45,6.64-3.41,14.19-3.78,21.21
		C60.24,170.56,60.31,174.67,60.68,178.74z"/>
	<path class="st8" d="M93.34,252.54c0.74,1.84,0.33,4.33-1.45,5.2c-1.15,0.57-2.55,0.31-3.72-0.23c-2.65-1.22-4.5-3.69-6.03-6.17
		c-1.87-3.03-3.47-6.23-4.76-9.55c-0.65-1.67-1.23-3.37-1.72-5.09c-0.16-0.55-0.72-1.85-0.01-2.27c1.24-0.74,3.97,2,4.71,2.7
		c2.17,2.03,3.67,4.61,5.57,6.88c1.28,1.52,2.65,2.96,4.09,4.33C91.29,249.58,92.66,250.85,93.34,252.54z"/>
	<path class="st8" d="M180.46,278.15c-6.57,0.04-13.1-0.95-19.64-1.6c-2.34-0.23-5.33-0.05-6.17,2.15
		c-0.56,1.45,0.24,3.14,1.48,4.07s2.82,1.26,4.35,1.49c6.71,1.02,13.63,0.57,20.18-1.19c3.28-0.88,6.47-2.09,9.5-3.62
		c1.32-0.66,2.9-1.31,3.92-2.41c0.13-0.14,0.8-0.8,0.59-1.04c-0.2-0.23-1.62,0.42-1.89,0.5
		C188.79,277.67,184.61,278.12,180.46,278.15z"/>
	<path class="st8" d="M63.86,110.19c0.96,0.76,2.41,0.54,3.4-0.19c0.98-0.72,1.59-1.83,2.16-2.91c1.51-2.91,2.89-5.9,4.87-8.51
		c2.11-2.79,4.71-4.63,8.06-5.6c1.57-0.45,1.96-1.88,0.06-2.18c-1.77-0.27-3.62,0.24-5.34,0.62c-2.06,0.45-4.21,0.92-5.94,2.19
		c-2.03,1.5-3.55,3.84-4.87,5.95c-1.15,1.84-2.11,3.81-2.8,5.87C62.96,106.89,62.43,109.06,63.86,110.19z"/>
	<path class="st9" d="M60.64,77.66c-0.9,1.92-1.59,4.54,0.05,5.88c0.99,0.81,2.48,0.71,3.63,0.13c1.14-0.58,2.02-1.55,2.92-2.46
		c5.44-5.57,12.29-9.75,19.72-12.06c1.14-0.35,2.34-0.69,3.23-1.49c0.89-0.8,1.34-2.24,0.64-3.22c-1.62-2.28-5.95,0.96-7.87-1.09
		c-1.14-1.22-0.31-3.22,0.78-4.49c1.22-1.41,2.71-2.59,3.74-4.13c0.86-1.28,1.4-2.99,0.92-4.51c-0.47-1.49-1.93-2.44-3.47-2.38
		c-1.14,0.04-2.4,0.24-3.39,0.83c-0.86,0.51-1.5,1.31-2.15,2.05c-2.27,2.57-4.65,5.02-6.8,7.7c-2.23,2.79-4.31,5.7-6.21,8.71
		c-1.9,3-3.63,6.11-5.18,9.31C61.02,76.85,60.83,77.26,60.64,77.66z"/>
	<path class="st9" d="M35.68,166.64c-0.07-0.82-0.14-1.66-0.55-2.37c-0.7-1.22-2.39-1.75-3.66-1.14c-1.27,0.61-1.91,2.27-1.39,3.57
		c-3.77-2.78-6.23-7.05-7.65-11.51c-1.41-4.47-1.87-9.17-2.33-13.83c-1.38,0.14-2.43,1.43-2.75,2.78c-0.32,1.35-0.06,2.77,0.19,4.14
		c1.33,7.19,2.71,14.52,6.24,20.93c1.81,3.3,4.17,6.3,5.73,9.73c2.6,5.74,2.78,12.27,4.63,18.29c1.19,3.88,3.08,7.54,5.56,10.76
		c0.68,0.88,1.61,1.82,2.71,1.65c0.94-0.14,1.58-1.1,1.69-2.05c0.11-0.95-0.2-1.88-0.51-2.78c-0.63-2.53-1.69-5.03-2.53-7.5
		c-0.85-2.53-1.71-5.07-2.56-7.6c-0.43-1.27-0.85-2.53-1.28-3.8c-0.31-0.92-0.32-1.56-0.25-2.51c0.1-1.22-0.13-2.5-0.23-3.72
		c-0.11-1.33-0.22-2.66-0.32-3.99C36.17,172.66,35.92,169.65,35.68,166.64z"/>
	<path class="st9" d="M88.62,273.75c0.81,0.25,1.77,0.48,2.44-0.04c0.61-0.48,0.67-1.43,0.32-2.13c-0.34-0.7-0.99-1.19-1.63-1.63
		c-2.62-1.79-5.56-3.05-8.59-3.95c-1.56-0.46-3.15-0.83-4.75-1.14c-1.29-0.24-2.58-0.54-3.89-0.35c-1.06,0.15-2.12,0.5-3.05,1.03
		c-0.45,0.26-1.4,0.81-1.24,1.47c0.08,0.32,0.42,0.48,0.69,0.59c0.79,0.32,1.65,0.52,2.47,0.78c1.76,0.55,3.53,1.1,5.29,1.65
		c3.54,1.11,7.09,2.22,10.63,3.32C87.75,273.47,88.19,273.61,88.62,273.75z"/>
	<path class="st10" d="M192.49,106.28c3.08,1.57,5.93,3.78,7.7,6.75c0.66,1.11,1.18,2.35,1.18,3.64c0,1.29-0.59,2.63-1.72,3.27
		c-1.49,0.84-3.36,0.25-4.88-0.53c-6.77-3.45-11.79-10.26-19.18-12.04c-0.66-0.16-1.36-0.29-1.92-0.69
		c-0.55-0.4-0.91-1.18-0.59-1.78c0.48-0.92,1.85-0.66,2.81-0.27c3.64,1.49,7.28,2.98,10.92,4.47c0.32-1.15-0.79-2.22-1.9-2.67
		c-1.05-0.43-2.32-0.6-3.16-1.43c-0.5-0.49-0.99-1.81-0.08-2.15c0.76-0.29,1.82,0.13,2.55,0.34c1.27,0.37,2.53,0.77,3.77,1.2
		C189.54,104.94,191.04,105.54,192.49,106.28z"/>
	<path class="st10" d="M83.29,203.94c1.19,4.04,2.98,7.87,4.69,11.72c0.25,0.55,0.5,1.13,0.48,1.74c-0.01,0.61-0.36,1.25-0.95,1.4
		c-0.71,0.18-1.38-0.38-1.87-0.92c-1.71-1.88-3.13-4.02-4.21-6.32c-1.09-2.32-1.85-4.8-2.24-7.34c-0.39-2.53-0.42-5.12-0.06-7.66
		c0.09-0.63,0.2-1.27,0.34-1.89c0.13-0.57,0.25-1.39,0.71-1.8c0.65-0.57,1.72-0.03,1.79,0.78c0.07,0.73-0.06,1.51-0.05,2.24
		c0.02,0.78,0.07,1.55,0.16,2.33c0.18,1.55,0.48,3.09,0.88,4.6C83.08,203.19,83.18,203.56,83.29,203.94z"/>
</g>
<g>
	<path class="st6" d="M194.09,236.76l23.53,26.41c-5-13.61-7.88-27.35-9.23-41.2c-8.45,0.49-14.92-2.42-20.02-7.71l-9.14,8.14
		l-9.13,8.13c4.67,5.67,6.82,12.43,5.35,20.77c13.6,2.94,26.92,7.38,39.86,13.91l-23.53-26.41c-1.16,0.3-2.45-0.05-3.3-1.01
		c-1.22-1.37-1.1-3.49,0.26-4.7c1.37-1.22,3.49-1.1,4.71,0.27C194.32,234.32,194.52,235.64,194.09,236.76L194.09,236.76z"/>
	
		<rect x="163.27" y="214.49" transform="matrix(0.7467 -0.6652 0.6652 0.7467 -100.6098 172.15)" class="st6" width="24.91" height="7.38"/>
	<path class="st6" d="M181.41,205.83l-18.6,16.57l-13.55-15.21l0.02-0.02c-0.03-0.01-0.05-0.04-0.07-0.06
		c-0.78-0.87,2.76-5.28,7.9-9.86c5.14-4.58,9.93-7.58,10.71-6.71c0.02,0.02,0.04,0.05,0.05,0.07l0,0L181.41,205.83z"/>
</g>
<g>
	<g>
		<line class="st11" x1="185.86" y1="154.78" x2="131.29" y2="154.78"/>
		<rect x="131.29" y="154.48" class="st11" width="54.57" height="0.59"/>
	</g>
	<g>
		<path class="st11" d="M186.03,156.88c1.16,0,2.11-0.94,2.11-2.1c0-1.16-0.94-2.11-2.11-2.11c-1.16,0-2.1,0.94-2.1,2.11
			C183.92,155.94,184.87,156.88,186.03,156.88z"/>
		<path class="st11" d="M131.12,156.88c1.16,0,2.1-0.94,2.1-2.1c0-1.16-0.94-2.11-2.1-2.11c-1.16,0-2.11,0.94-2.11,2.11
			C129.02,155.94,129.96,156.88,131.12,156.88z"/>
	</g>
	<g>
		<path class="st11" d="M158.58,154.02c14.39,0,26.1,11.71,26.1,26.1h-1.52c0-13.55-11.03-24.58-24.58-24.58
			c-13.55,0-24.58,11.03-24.58,24.58h-1.52C132.48,165.72,144.19,154.02,158.58,154.02z"/>
	</g>
	<g>
		<path class="st11" d="M132.9,178.01h0.47c1.03,0,1.87,0.84,1.87,1.87v0.06c0,1.03-0.84,1.87-1.87,1.87h-0.47
			c-1.03,0-1.87-0.84-1.87-1.87v-0.06C131.03,178.85,131.87,178.01,132.9,178.01z"/>
		<path class="st11" d="M183.78,178.01h0.47c1.03,0,1.87,0.84,1.87,1.87v0.06c0,1.03-0.84,1.87-1.87,1.87h-0.47
			c-1.03,0-1.87-0.84-1.87-1.87v-0.06C181.91,178.85,182.75,178.01,183.78,178.01z"/>
	</g>
	<path class="st11" d="M158.34,152.47h0.47c1.03,0,1.87,0.84,1.87,1.87v0.06c0,1.03-0.84,1.87-1.87,1.87h-0.47
		c-1.03,0-1.87-0.84-1.87-1.87v-0.06C156.47,153.31,157.31,152.47,158.34,152.47z"/>
</g>
</svg>
