<?xml version="1.0" encoding="utf-8"?>
<!-- Generator: Adobe Illustrator 27.2.0, SVG Export Plug-In . SVG Version: 6.00 Build 0)  -->
<svg version="1.1" id="Camada_1" xmlns="http://www.w3.org/2000/svg" xmlns:xlink="http://www.w3.org/1999/xlink" x="0px" y="0px"
	 viewBox="0 0 300 300" style="enable-background:new 0 0 300 300;" xml:space="preserve">
<style type="text/css">
	.st0{fill:#99CCF0;}
	.st1{opacity:0.7;fill:#FFFFFF;}
	.st2{fill:none;stroke:#FFFFFF;stroke-linecap:round;stroke-linejoin:round;stroke-miterlimit:10;}
	.st3{fill:#FFFFFF;stroke:#263239;stroke-linecap:round;stroke-linejoin:round;stroke-miterlimit:10;}
	.st4{fill:#FFD600;stroke:#263239;stroke-linecap:round;stroke-linejoin:round;stroke-miterlimit:10;}
	.st5{fill:#263239;stroke:#263239;stroke-linecap:round;stroke-linejoin:round;stroke-miterlimit:10;}
	.st6{fill:#99CCF0;stroke:#263239;stroke-linecap:round;stroke-linejoin:round;stroke-miterlimit:10;}
	.st7{fill:#FFFFFF;}
	.st8{fill:#9ACDA3;stroke:#263239;stroke-linecap:round;stroke-linejoin:round;stroke-miterlimit:10;}
	.st9{fill:none;stroke:#263239;stroke-linecap:round;stroke-linejoin:round;stroke-miterlimit:10;}
	.st10{fill:#9ACDA3;stroke:#263239;stroke-miterlimit:10;}
	.st11{fill:none;stroke:#263239;stroke-linecap:round;stroke-miterlimit:10;}
	.st12{fill:#263239;}
	.st13{fill:#5E5C61;}
	.st14{fill:#706D73;}
	.st15{fill:none;stroke:#263239;stroke-width:2;stroke-linecap:round;stroke-linejoin:round;stroke-miterlimit:10;}
	.st16{fill:#FFFFFF;stroke:#263239;stroke-width:2;stroke-linecap:round;stroke-linejoin:round;stroke-miterlimit:10;}
	.st17{fill:none;stroke:#5E5C61;stroke-linecap:round;stroke-linejoin:round;stroke-miterlimit:10;}
	.st18{fill:#868388;stroke:#263239;stroke-linecap:round;stroke-linejoin:round;stroke-miterlimit:10;}
	.st19{fill:#3A393E;stroke:#263239;stroke-linecap:round;stroke-linejoin:round;stroke-miterlimit:10;}
</style>
<g>
	<path class="st0" d="M248.68,59.33c-10.74-10.5-23.04-19.23-36.11-25.34c-19.91-9.31-41.84-13.8-63.78-14.06
		c-64.1-0.78-68.98,74.52-88.69,84.99c-19.71,10.47-55.43,11.7-56.66,53.58c-0.77,26.34,5.37,53.43,22.67,73.95
		c15.84,18.8,39.11,28.32,62.03,35.36c25.74,7.9,53.04,15.66,80.12,10.32c27.79-5.47,47.31-27.48,70.13-42.34
		c14.37-9.36,27.26-19.22,36.14-34.24c1.06-1.79,2.05-3.63,3-5.49c11.88-23.34,14.2-50.27,7.66-75.53
		C279.29,97.87,266.02,76.29,248.68,59.33z"/>
	<path class="st1" d="M248.68,59.05c-10.74-10.5-23.04-19.23-36.11-25.34c-19.91-9.31-41.84-13.8-63.78-14.06
		c-64.1-0.78-68.98,74.52-88.69,84.99c-19.71,10.47-55.43,11.7-56.66,53.58c-0.77,26.34,5.37,53.43,22.67,73.95
		c15.84,18.8,39.11,28.32,62.03,35.36c25.74,7.9,53.04,15.66,80.12,10.32c27.79-5.47,47.31-27.48,70.13-42.34
		c14.37-9.36,27.26-19.22,36.14-34.24c1.06-1.79,2.05-3.63,3-5.49c11.88-23.34,14.2-50.27,7.66-75.53
		C279.29,97.6,266.02,76.01,248.68,59.05z"/>
</g>
<g>
	<path class="st2" d="M248.4,70.28c0.04,0.12,0.06,0.25,0.07,0.41c0.01,0.16,0.01,0.3,0.01,0.44c0,0.35-0.04,0.68-0.12,0.99
		c-0.08,0.31-0.2,0.58-0.38,0.81c-0.17,0.23-0.4,0.42-0.68,0.57c-0.28,0.15-0.64,0.22-1.06,0.22c-0.41,0-0.81-0.09-1.21-0.26
		c-0.4-0.17-0.89-0.43-1.47-0.76l-6.25-3.6c-0.5-0.66-0.76-1.53-0.76-2.62c0-0.81,0.12-1.44,0.35-1.89
		c0.23-0.45,0.57-0.79,1.02-1.05l7.99-4.65c0.95,0.25,1.59,0.6,1.93,1.03c0.34,0.44,0.51,0.91,0.51,1.41c0,0.68-0.17,1.21-0.51,1.58
		c-0.34,0.38-0.84,0.73-1.5,1.06l-5.11,2.59L248.4,70.28z"/>
	<path class="st2" d="M259.3,76.9c-0.27,0.04-0.53,0.06-0.78,0.07c-0.25,0.01-0.48,0.01-0.7,0.01c-0.81,0-1.44-0.17-1.87-0.52
		c-0.44-0.35-0.65-0.91-0.65-1.69c0-0.52,0.08-1.05,0.23-1.58c0.16-0.53,0.29-1,0.41-1.41l5.11-18.45c0.29-0.04,0.56-0.06,0.81-0.07
		c0.25-0.01,0.48-0.01,0.7-0.01c0.77,0,1.39,0.17,1.85,0.49c0.46,0.33,0.68,0.86,0.68,1.6c0,0.56-0.08,1.09-0.23,1.6
		c-0.16,0.5-0.3,1.01-0.44,1.51L259.3,76.9z"/>
	<path class="st2" d="M271.97,62.31c-0.04-0.12-0.06-0.25-0.07-0.41c-0.01-0.15-0.01-0.3-0.01-0.44c0-0.35,0.04-0.68,0.12-0.99
		c0.08-0.31,0.2-0.58,0.38-0.81c0.17-0.23,0.4-0.42,0.68-0.57c0.28-0.15,0.63-0.22,1.06-0.22c0.41,0,0.81,0.09,1.21,0.26
		c0.4,0.17,0.89,0.43,1.47,0.76l6.25,3.6c0.5,0.66,0.76,1.53,0.76,2.62c0,0.81-0.12,1.44-0.35,1.89c-0.23,0.45-0.57,0.79-1.02,1.05
		l-7.99,4.65c-0.95-0.25-1.59-0.6-1.93-1.03c-0.34-0.44-0.51-0.91-0.51-1.41c0-0.68,0.17-1.21,0.51-1.58
		c0.34-0.38,0.84-0.73,1.5-1.06l5.11-2.59L271.97,62.31z"/>
</g>
<g>
	<polyline class="st2" points="153.95,67.59 153.95,75.64 176.76,75.64 176.76,56.94 195.46,56.94 195.46,34.13 184.93,34.13 	"/>
	<polyline class="st2" points="144.65,34.13 135.25,34.13 135.25,56.94 153.95,56.94 153.95,63.63 	"/>
	<polyline class="st2" points="181.73,34.13 176.76,34.13 176.76,15.43 153.95,15.43 153.95,34.13 149.17,34.13 	"/>
	<circle class="st2" cx="165.35" cy="45.54" r="4.75"/>
	<polygon class="st2" points="165.61,22.76 161.94,29.12 169.27,29.12 	"/>
	<polygon class="st2" points="165.61,69.77 169.27,63.41 161.94,63.41 	"/>
	<polygon class="st2" points="142.1,46.27 148.46,49.93 148.46,42.6 	"/>
	<polygon class="st2" points="189.11,46.27 182.75,42.6 182.75,49.93 	"/>
</g>
<g>
	<g>
		<path class="st2" d="M250.15,115.58c-1.2-1.2-3.15-1.2-4.35,0l-1,1l-1-1c-1.2-1.2-3.15-1.2-4.35,0c-1.2,1.2-1.2,3.15,0,4.35
			l5.25,5.25l0.1-0.1l0.1,0.1l5.25-5.25C251.35,118.73,251.35,116.78,250.15,115.58z"/>
		<path class="st2" d="M264.58,115.58c-1.2-1.2-3.15-1.2-4.35,0l-1,1l-1-1c-1.2-1.2-3.15-1.2-4.35,0c-1.2,1.2-1.2,3.15,0,4.35
			l5.25,5.25l0.1-0.1l0.1,0.1l5.25-5.25C265.78,118.73,265.78,116.78,264.58,115.58z"/>
		<path class="st2" d="M279.01,115.58c-1.2-1.2-3.15-1.2-4.35,0l-1,1l-1-1c-1.2-1.2-3.15-1.2-4.35,0c-1.2,1.2-1.2,3.15,0,4.35
			l5.25,5.25l0.1-0.1l0.1,0.1l5.25-5.25C280.21,118.73,280.21,116.78,279.01,115.58z"/>
	</g>
	<g>
		<g>
			<path class="st2" d="M67.12,44.57c-1.3-1.19-3.42-1.19-4.72,0l-1.08,0.99l-1.08-0.99c-1.3-1.19-3.42-1.19-4.72,0
				c-1.3,1.19-1.3,3.12,0,4.32l5.69,5.21l0.11-0.1l0.11,0.1l5.69-5.21C68.42,47.69,68.42,45.76,67.12,44.57z"/>
			<path class="st2" d="M82.78,44.57c-1.3-1.19-3.42-1.19-4.72,0l-1.08,0.99l-1.08-0.99c-1.3-1.19-3.42-1.19-4.72,0
				c-1.3,1.19-1.3,3.12,0,4.32l5.69,5.21l0.11-0.1l0.11,0.1l5.69-5.21C84.08,47.69,84.08,45.76,82.78,44.57z"/>
			<path class="st2" d="M98.43,44.57c-1.3-1.19-3.42-1.19-4.72,0l-1.08,0.99l-1.08-0.99c-1.3-1.19-3.42-1.19-4.72,0
				c-1.3,1.19-1.3,3.12,0,4.32l5.69,5.21l0.11-0.1l0.11,0.1l5.69-5.21C99.74,47.69,99.74,45.76,98.43,44.57z"/>
		</g>
	</g>
</g>
<g>
	<rect x="234.93" y="148.37" class="st3" width="13.07" height="4.59"/>
	<polygon class="st4" points="248.12,152.95 234.81,152.95 236.47,170.49 246.45,170.49 	"/>
	<rect x="233.5" y="152.14" class="st3" width="15.92" height="2.7"/>
</g>
<g>
	<g>
		<rect x="150.96" y="96.51" class="st5" width="77.87" height="60.92"/>
		<rect x="153.47" y="98.48" class="st3" width="72.85" height="54.71"/>
		<rect x="207.15" y="98.48" class="st5" width="19.17" height="54.71"/>
		<rect x="153.47" y="98.48" class="st3" width="72.85" height="2.99"/>
		<g>
			<g>
				<rect x="161.23" y="132.8" class="st3" width="7.86" height="15.79"/>
				<rect x="161.23" y="141.12" class="st3" width="7.86" height="7.47"/>
				<line class="st3" x1="161.38" y1="142.44" x2="169" y2="142.44"/>
				<line class="st3" x1="161.38" y1="143.92" x2="169" y2="143.92"/>
				<line class="st3" x1="161.38" y1="145.4" x2="169" y2="145.4"/>
				<line class="st3" x1="161.38" y1="146.87" x2="169" y2="146.87"/>
				<path class="st3" d="M164.57,148.59h-7.86l0,0c0-2.53,2.05-4.59,4.59-4.59h3.27V148.59z"/>
			</g>
			<g>
				
					<rect x="173.05" y="132.8" transform="matrix(-1 -1.224647e-16 1.224647e-16 -1 353.9509 281.3828)" class="st3" width="7.86" height="15.79"/>
				<rect x="173.05" y="141.12" class="st3" width="7.86" height="7.47"/>
				<line class="st3" x1="180.75" y1="142.44" x2="173.13" y2="142.44"/>
				<line class="st3" x1="180.75" y1="143.92" x2="173.13" y2="143.92"/>
				<line class="st3" x1="180.75" y1="145.4" x2="173.13" y2="145.4"/>
				<line class="st3" x1="180.75" y1="146.87" x2="173.13" y2="146.87"/>
				<path class="st3" d="M177.56,148.59h7.86l0,0c0-2.53-2.05-4.59-4.59-4.59h-3.27V148.59z"/>
			</g>
			<polygon class="st6" points="161.31,130.78 161.31,134.3 169.02,139.95 172.91,139.95 180.26,134.55 180.26,130.78 			"/>
			<rect x="161.31" y="116.74" class="st3" width="18.9" height="14.03"/>
			<rect x="161.61" y="126.32" class="st5" width="18.65" height="4.74"/>
			<g>
				<path class="st3" d="M158.15,119.29c0,0-1.92,2.76-1.92,5.1v13.82c0,0.35,0.28,0.63,0.63,0.63h4.93c0.35,0,0.63-0.28,0.63-0.63
					l0,0c0-0.35,0.28-0.63,0.63-0.63h0.75c0.35,0,0.63-0.28,0.63-0.63v-17.75C164.42,119.21,160.07,116.62,158.15,119.29z"/>
				<rect x="156.23" y="128.65" class="st5" width="8.19" height="5.26"/>
			</g>
			<g>
				<path class="st3" d="M184.74,119.29c0,0,1.92,2.76,1.92,5.1v13.82c0,0.35-0.28,0.63-0.63,0.63h-4.93
					c-0.35,0-0.63-0.28-0.63-0.63l0,0c0-0.35-0.28-0.63-0.63-0.63h-0.75c-0.35,0-0.63-0.28-0.63-0.63v-17.75
					C178.47,119.21,182.82,116.62,184.74,119.29z"/>
				<rect x="178.47" y="128.65" class="st5" width="8.19" height="5.26"/>
			</g>
			<path class="st3" d="M169.21,114.69c0,0-3.49-1.88-7.19,0.34c-3.7,2.22-3.43,4.77-2.82,5.64c0.6,0.87,1.95,1.01,3.16,0.47
				c1.21-0.54,1.88-2.62,4.37-2.89c2.49-0.27,3.76-0.94,3.49-2.55C169.95,114.08,169.21,114.69,169.21,114.69z"/>
			<path class="st3" d="M173.79,114.69c0,0,3.49-1.88,7.19,0.34c3.7,2.22,3.43,4.77,2.82,5.64c-0.6,0.87-1.95,1.01-3.16,0.47
				c-1.21-0.54-1.88-2.62-4.37-2.89c-2.49-0.27-3.76-0.94-3.49-2.55C173.05,114.08,173.79,114.69,173.79,114.69z"/>
			<g>
				<path class="st3" d="M173.04,108.22h3.4l0.87-2.17c0.06-0.16,0.3-0.11,0.3,0.06v3.46c0,0.94-0.76,1.7-1.7,1.7h-2.87V108.22z"/>
				<path class="st3" d="M169.92,108.22h-3.4l-0.87-2.17c-0.06-0.16-0.3-0.11-0.3,0.06v3.46c0,0.94,0.76,1.7,1.7,1.7h2.87V108.22z"
					/>
				<path class="st3" d="M169.01,111.39c-0.22,0.52-0.34,1.12-0.34,1.76c0,2.01,1.23,3.63,2.75,3.63c1.52,0,2.75-1.63,2.75-3.63
					c0-0.64-0.13-1.24-0.34-1.76H169.01z"/>
				<path class="st5" d="M169.01,111.39c0,0,0.37-4.92,2.71-4.8c2.34,0.12,2.11,4.8,2.11,4.8H169.01z"/>
				<path class="st6" d="M169.01,113.2c-0.22,0.52-0.34,1.12-0.34,1.76c0,2.01,1.23,3.63,2.75,3.63c1.52,0,2.75-1.63,2.75-3.63
					c0-0.64-0.13-1.24-0.34-1.76H169.01z"/>
				<rect x="170.75" y="111.33" class="st3" width="1.21" height="2.75"/>
			</g>
			<line class="st3" x1="171.42" y1="118.59" x2="171.42" y2="126.22"/>
		</g>
		<rect x="206.33" y="101.47" class="st3" width="2.11" height="51.52"/>
		<g>
			<rect x="187.84" y="103.71" class="st4" width="3.74" height="3.74"/>
			<rect x="187.84" y="108.86" class="st5" width="3.74" height="3.74"/>
			<rect x="187.84" y="113.93" class="st3" width="3.74" height="3.74"/>
		</g>
		<path class="st7" d="M210.94,105.21h-0.96c-0.13,0-0.24-0.11-0.24-0.24c0-0.13,0.11-0.24,0.24-0.24h0.96
			c0.13,0,0.24,0.11,0.24,0.24C211.18,105.1,211.07,105.21,210.94,105.21z M211.18,106.07c0-0.13-0.11-0.24-0.24-0.24h-0.96
			c-0.13,0-0.24,0.11-0.24,0.24c0,0.13,0.11,0.24,0.24,0.24h0.96C211.07,106.3,211.18,106.2,211.18,106.07z M211.18,107.16
			c0-0.13-0.11-0.24-0.24-0.24h-0.96c-0.13,0-0.24,0.11-0.24,0.24c0,0.13,0.11,0.24,0.24,0.24h0.96
			C211.07,107.4,211.18,107.29,211.18,107.16z M211.18,108.26c0-0.13-0.11-0.24-0.24-0.24h-0.96c-0.13,0-0.24,0.11-0.24,0.24
			c0,0.13,0.11,0.24,0.24,0.24h0.96C211.07,108.5,211.18,108.39,211.18,108.26z M211.18,109.36c0-0.13-0.11-0.24-0.24-0.24h-0.96
			c-0.13,0-0.24,0.11-0.24,0.24c0,0.13,0.11,0.24,0.24,0.24h0.96C211.07,109.59,211.18,109.49,211.18,109.36z M211.18,110.45
			c0-0.13-0.11-0.24-0.24-0.24h-0.96c-0.13,0-0.24,0.11-0.24,0.24c0,0.13,0.11,0.24,0.24,0.24h0.96
			C211.07,110.69,211.18,110.58,211.18,110.45z M211.18,111.55c0-0.13-0.11-0.24-0.24-0.24h-0.96c-0.13,0-0.24,0.11-0.24,0.24
			c0,0.13,0.11,0.24,0.24,0.24h0.96C211.07,111.79,211.18,111.68,211.18,111.55z M211.18,112.65c0-0.13-0.11-0.24-0.24-0.24h-0.96
			c-0.13,0-0.24,0.11-0.24,0.24c0,0.13,0.11,0.24,0.24,0.24h0.96C211.07,112.88,211.18,112.78,211.18,112.65z M214.77,104.97
			c0-0.13-0.11-0.24-0.24-0.24h-2.52c-0.13,0-0.24,0.11-0.24,0.24c0,0.13,0.11,0.24,0.24,0.24h2.52
			C214.66,105.21,214.77,105.1,214.77,104.97z M214.77,106.07c0-0.13-0.11-0.24-0.24-0.24h-2.52c-0.13,0-0.24,0.11-0.24,0.24
			c0,0.13,0.11,0.24,0.24,0.24h2.52C214.66,106.3,214.77,106.2,214.77,106.07z M214.77,107.16c0-0.13-0.11-0.24-0.24-0.24h-2.52
			c-0.13,0-0.24,0.11-0.24,0.24c0,0.13,0.11,0.24,0.24,0.24h2.52C214.66,107.4,214.77,107.29,214.77,107.16z M214.77,108.26
			c0-0.13-0.11-0.24-0.24-0.24h-2.52c-0.13,0-0.24,0.11-0.24,0.24c0,0.13,0.11,0.24,0.24,0.24h2.52
			C214.66,108.5,214.77,108.39,214.77,108.26z M214.77,109.36c0-0.13-0.11-0.24-0.24-0.24h-2.52c-0.13,0-0.24,0.11-0.24,0.24
			c0,0.13,0.11,0.24,0.24,0.24h2.52C214.66,109.59,214.77,109.49,214.77,109.36z M217.78,110.45c0-0.13-0.11-0.24-0.24-0.24h-2.52
			c-0.13,0-0.24,0.11-0.24,0.24c0,0.13,0.11,0.24,0.24,0.24h2.52C217.68,110.69,217.78,110.58,217.78,110.45z M217.78,111.55
			c0-0.13-0.11-0.24-0.24-0.24h-2.52c-0.13,0-0.24,0.11-0.24,0.24c0,0.13,0.11,0.24,0.24,0.24h2.52
			C217.68,111.79,217.78,111.68,217.78,111.55z M217.78,112.65c0-0.13-0.11-0.24-0.24-0.24h-2.52c-0.13,0-0.24,0.11-0.24,0.24
			c0,0.13,0.11,0.24,0.24,0.24h2.52C217.68,112.88,217.78,112.78,217.78,112.65z M215.88,104.97c0-0.15-0.12-0.27-0.27-0.27
			c-0.15,0-0.27,0.12-0.27,0.27c0,0.15,0.12,0.27,0.27,0.27C215.75,105.25,215.88,105.12,215.88,104.97z M216.7,104.97
			c0-0.15-0.12-0.27-0.27-0.27c-0.15,0-0.27,0.12-0.27,0.27c0,0.15,0.12,0.27,0.27,0.27C216.58,105.25,216.7,105.12,216.7,104.97z
			 M217.52,104.97c0-0.15-0.12-0.27-0.27-0.27c-0.15,0-0.27,0.12-0.27,0.27c0,0.15,0.12,0.27,0.27,0.27
			C217.4,105.25,217.52,105.12,217.52,104.97z M218.34,104.97c0-0.15-0.12-0.27-0.27-0.27c-0.15,0-0.27,0.12-0.27,0.27
			c0,0.15,0.12,0.27,0.27,0.27C218.22,105.25,218.34,105.12,218.34,104.97z M219.16,104.97c0-0.15-0.12-0.27-0.27-0.27
			c-0.15,0-0.27,0.12-0.27,0.27c0,0.15,0.12,0.27,0.27,0.27C219.04,105.25,219.16,105.12,219.16,104.97z M219.99,104.97
			c0-0.15-0.12-0.27-0.27-0.27c-0.15,0-0.27,0.12-0.27,0.27c0,0.15,0.12,0.27,0.27,0.27C219.86,105.25,219.99,105.12,219.99,104.97z
			 M215.88,107.16c0-0.15-0.12-0.27-0.27-0.27c-0.15,0-0.27,0.12-0.27,0.27c0,0.15,0.12,0.27,0.27,0.27
			C215.75,107.44,215.88,107.32,215.88,107.16z M216.7,107.16c0-0.15-0.12-0.27-0.27-0.27c-0.15,0-0.27,0.12-0.27,0.27
			c0,0.15,0.12,0.27,0.27,0.27C216.58,107.44,216.7,107.32,216.7,107.16z M217.52,107.16c0-0.15-0.12-0.27-0.27-0.27
			c-0.15,0-0.27,0.12-0.27,0.27c0,0.15,0.12,0.27,0.27,0.27C217.4,107.44,217.52,107.32,217.52,107.16z M218.34,107.16
			c0-0.15-0.12-0.27-0.27-0.27c-0.15,0-0.27,0.12-0.27,0.27c0,0.15,0.12,0.27,0.27,0.27C218.22,107.44,218.34,107.32,218.34,107.16z
			 M219.16,107.16c0-0.15-0.12-0.27-0.27-0.27c-0.15,0-0.27,0.12-0.27,0.27c0,0.15,0.12,0.27,0.27,0.27
			C219.04,107.44,219.16,107.32,219.16,107.16z M219.99,107.16c0-0.15-0.12-0.27-0.27-0.27c-0.15,0-0.27,0.12-0.27,0.27
			c0,0.15,0.12,0.27,0.27,0.27C219.86,107.44,219.99,107.32,219.99,107.16z M218.69,110.32c0-0.15-0.12-0.27-0.27-0.27
			c-0.15,0-0.27,0.12-0.27,0.27c0,0.15,0.12,0.27,0.27,0.27C218.56,110.59,218.69,110.47,218.69,110.32z M219.51,110.32
			c0-0.15-0.12-0.27-0.27-0.27s-0.27,0.12-0.27,0.27c0,0.15,0.12,0.27,0.27,0.27S219.51,110.47,219.51,110.32z M220.33,110.32
			c0-0.15-0.12-0.27-0.27-0.27c-0.15,0-0.27,0.12-0.27,0.27c0,0.15,0.12,0.27,0.27,0.27C220.21,110.59,220.33,110.47,220.33,110.32z
			 M221.15,110.32c0-0.15-0.12-0.27-0.27-0.27c-0.15,0-0.27,0.12-0.27,0.27c0,0.15,0.12,0.27,0.27,0.27
			C221.03,110.59,221.15,110.47,221.15,110.32z M221.97,110.32c0-0.15-0.12-0.27-0.27-0.27c-0.15,0-0.27,0.12-0.27,0.27
			c0,0.15,0.12,0.27,0.27,0.27C221.85,110.59,221.97,110.47,221.97,110.32z M222.8,110.32c0-0.15-0.12-0.27-0.27-0.27
			c-0.15,0-0.27,0.12-0.27,0.27c0,0.15,0.12,0.27,0.27,0.27C222.67,110.59,222.8,110.47,222.8,110.32z M218.69,112.58
			c0-0.15-0.12-0.27-0.27-0.27c-0.15,0-0.27,0.12-0.27,0.27c0,0.15,0.12,0.27,0.27,0.27C218.56,112.85,218.69,112.73,218.69,112.58z
			 M219.51,112.58c0-0.15-0.12-0.27-0.27-0.27s-0.27,0.12-0.27,0.27c0,0.15,0.12,0.27,0.27,0.27S219.51,112.73,219.51,112.58z
			 M220.33,112.58c0-0.15-0.12-0.27-0.27-0.27c-0.15,0-0.27,0.12-0.27,0.27c0,0.15,0.12,0.27,0.27,0.27
			C220.21,112.85,220.33,112.73,220.33,112.58z M221.15,112.58c0-0.15-0.12-0.27-0.27-0.27c-0.15,0-0.27,0.12-0.27,0.27
			c0,0.15,0.12,0.27,0.27,0.27C221.03,112.85,221.15,112.73,221.15,112.58z M221.97,112.58c0-0.15-0.12-0.27-0.27-0.27
			c-0.15,0-0.27,0.12-0.27,0.27c0,0.15,0.12,0.27,0.27,0.27C221.85,112.85,221.97,112.73,221.97,112.58z M222.8,112.58
			c0-0.15-0.12-0.27-0.27-0.27c-0.15,0-0.27,0.12-0.27,0.27c0,0.15,0.12,0.27,0.27,0.27C222.67,112.85,222.8,112.73,222.8,112.58z"
			/>
		<path class="st7" d="M210.94,114.19h-0.96c-0.13,0-0.24-0.11-0.24-0.24c0-0.13,0.11-0.24,0.24-0.24h0.96
			c0.13,0,0.24,0.11,0.24,0.24C211.18,114.09,211.07,114.19,210.94,114.19z M211.18,115.05c0-0.13-0.11-0.24-0.24-0.24h-0.96
			c-0.13,0-0.24,0.11-0.24,0.24c0,0.13,0.11,0.24,0.24,0.24h0.96C211.07,115.29,211.18,115.18,211.18,115.05z M211.18,116.15
			c0-0.13-0.11-0.24-0.24-0.24h-0.96c-0.13,0-0.24,0.11-0.24,0.24c0,0.13,0.11,0.24,0.24,0.24h0.96
			C211.07,116.39,211.18,116.28,211.18,116.15z M211.18,117.25c0-0.13-0.11-0.24-0.24-0.24h-0.96c-0.13,0-0.24,0.11-0.24,0.24
			c0,0.13,0.11,0.24,0.24,0.24h0.96C211.07,117.48,211.18,117.38,211.18,117.25z M211.18,118.34c0-0.13-0.11-0.24-0.24-0.24h-0.96
			c-0.13,0-0.24,0.11-0.24,0.24c0,0.13,0.11,0.24,0.24,0.24h0.96C211.07,118.58,211.18,118.47,211.18,118.34z M211.18,119.44
			c0-0.13-0.11-0.24-0.24-0.24h-0.96c-0.13,0-0.24,0.11-0.24,0.24c0,0.13,0.11,0.24,0.24,0.24h0.96
			C211.07,119.68,211.18,119.57,211.18,119.44z M211.18,120.53c0-0.13-0.11-0.24-0.24-0.24h-0.96c-0.13,0-0.24,0.11-0.24,0.24
			c0,0.13,0.11,0.24,0.24,0.24h0.96C211.07,120.77,211.18,120.67,211.18,120.53z M211.18,121.63c0-0.13-0.11-0.24-0.24-0.24h-0.96
			c-0.13,0-0.24,0.11-0.24,0.24c0,0.13,0.11,0.24,0.24,0.24h0.96C211.07,121.87,211.18,121.76,211.18,121.63z M214.77,113.96
			c0-0.13-0.11-0.24-0.24-0.24h-2.52c-0.13,0-0.24,0.11-0.24,0.24c0,0.13,0.11,0.24,0.24,0.24h2.52
			C214.66,114.19,214.77,114.09,214.77,113.96z M214.77,115.05c0-0.13-0.11-0.24-0.24-0.24h-2.52c-0.13,0-0.24,0.11-0.24,0.24
			c0,0.13,0.11,0.24,0.24,0.24h2.52C214.66,115.29,214.77,115.18,214.77,115.05z M214.77,116.15c0-0.13-0.11-0.24-0.24-0.24h-2.52
			c-0.13,0-0.24,0.11-0.24,0.24c0,0.13,0.11,0.24,0.24,0.24h2.52C214.66,116.39,214.77,116.28,214.77,116.15z M214.77,117.25
			c0-0.13-0.11-0.24-0.24-0.24h-2.52c-0.13,0-0.24,0.11-0.24,0.24c0,0.13,0.11,0.24,0.24,0.24h2.52
			C214.66,117.48,214.77,117.38,214.77,117.25z M214.77,118.34c0-0.13-0.11-0.24-0.24-0.24h-2.52c-0.13,0-0.24,0.11-0.24,0.24
			c0,0.13,0.11,0.24,0.24,0.24h2.52C214.66,118.58,214.77,118.47,214.77,118.34z M217.78,119.44c0-0.13-0.11-0.24-0.24-0.24h-2.52
			c-0.13,0-0.24,0.11-0.24,0.24c0,0.13,0.11,0.24,0.24,0.24h2.52C217.68,119.68,217.78,119.57,217.78,119.44z M217.78,120.53
			c0-0.13-0.11-0.24-0.24-0.24h-2.52c-0.13,0-0.24,0.11-0.24,0.24c0,0.13,0.11,0.24,0.24,0.24h2.52
			C217.68,120.77,217.78,120.67,217.78,120.53z M217.78,121.63c0-0.13-0.11-0.24-0.24-0.24h-2.52c-0.13,0-0.24,0.11-0.24,0.24
			c0,0.13,0.11,0.24,0.24,0.24h2.52C217.68,121.87,217.78,121.76,217.78,121.63z M215.88,113.96c0-0.15-0.12-0.27-0.27-0.27
			c-0.15,0-0.27,0.12-0.27,0.27c0,0.15,0.12,0.27,0.27,0.27C215.75,114.23,215.88,114.11,215.88,113.96z M216.7,113.96
			c0-0.15-0.12-0.27-0.27-0.27c-0.15,0-0.27,0.12-0.27,0.27c0,0.15,0.12,0.27,0.27,0.27C216.58,114.23,216.7,114.11,216.7,113.96z
			 M217.52,113.96c0-0.15-0.12-0.27-0.27-0.27c-0.15,0-0.27,0.12-0.27,0.27c0,0.15,0.12,0.27,0.27,0.27
			C217.4,114.23,217.52,114.11,217.52,113.96z M218.34,113.96c0-0.15-0.12-0.27-0.27-0.27c-0.15,0-0.27,0.12-0.27,0.27
			c0,0.15,0.12,0.27,0.27,0.27C218.22,114.23,218.34,114.11,218.34,113.96z M219.16,113.96c0-0.15-0.12-0.27-0.27-0.27
			c-0.15,0-0.27,0.12-0.27,0.27c0,0.15,0.12,0.27,0.27,0.27C219.04,114.23,219.16,114.11,219.16,113.96z M219.99,113.96
			c0-0.15-0.12-0.27-0.27-0.27c-0.15,0-0.27,0.12-0.27,0.27c0,0.15,0.12,0.27,0.27,0.27C219.86,114.23,219.99,114.11,219.99,113.96z
			 M215.88,116.15c0-0.15-0.12-0.27-0.27-0.27c-0.15,0-0.27,0.12-0.27,0.27c0,0.15,0.12,0.27,0.27,0.27
			C215.75,116.42,215.88,116.3,215.88,116.15z M216.7,116.15c0-0.15-0.12-0.27-0.27-0.27c-0.15,0-0.27,0.12-0.27,0.27
			c0,0.15,0.12,0.27,0.27,0.27C216.58,116.42,216.7,116.3,216.7,116.15z M217.52,116.15c0-0.15-0.12-0.27-0.27-0.27
			c-0.15,0-0.27,0.12-0.27,0.27c0,0.15,0.12,0.27,0.27,0.27C217.4,116.42,217.52,116.3,217.52,116.15z M218.34,116.15
			c0-0.15-0.12-0.27-0.27-0.27c-0.15,0-0.27,0.12-0.27,0.27c0,0.15,0.12,0.27,0.27,0.27C218.22,116.42,218.34,116.3,218.34,116.15z
			 M219.16,116.15c0-0.15-0.12-0.27-0.27-0.27c-0.15,0-0.27,0.12-0.27,0.27c0,0.15,0.12,0.27,0.27,0.27
			C219.04,116.42,219.16,116.3,219.16,116.15z M219.99,116.15c0-0.15-0.12-0.27-0.27-0.27c-0.15,0-0.27,0.12-0.27,0.27
			c0,0.15,0.12,0.27,0.27,0.27C219.86,116.42,219.99,116.3,219.99,116.15z M218.69,119.3c0-0.15-0.12-0.27-0.27-0.27
			c-0.15,0-0.27,0.12-0.27,0.27c0,0.15,0.12,0.27,0.27,0.27C218.56,119.58,218.69,119.45,218.69,119.3z M219.51,119.3
			c0-0.15-0.12-0.27-0.27-0.27s-0.27,0.12-0.27,0.27c0,0.15,0.12,0.27,0.27,0.27S219.51,119.45,219.51,119.3z M220.33,119.3
			c0-0.15-0.12-0.27-0.27-0.27c-0.15,0-0.27,0.12-0.27,0.27c0,0.15,0.12,0.27,0.27,0.27C220.21,119.58,220.33,119.45,220.33,119.3z
			 M221.15,119.3c0-0.15-0.12-0.27-0.27-0.27c-0.15,0-0.27,0.12-0.27,0.27c0,0.15,0.12,0.27,0.27,0.27
			C221.03,119.58,221.15,119.45,221.15,119.3z M221.97,119.3c0-0.15-0.12-0.27-0.27-0.27c-0.15,0-0.27,0.12-0.27,0.27
			c0,0.15,0.12,0.27,0.27,0.27C221.85,119.58,221.97,119.45,221.97,119.3z M222.8,119.3c0-0.15-0.12-0.27-0.27-0.27
			c-0.15,0-0.27,0.12-0.27,0.27c0,0.15,0.12,0.27,0.27,0.27C222.67,119.58,222.8,119.45,222.8,119.3z M218.69,121.56
			c0-0.15-0.12-0.27-0.27-0.27c-0.15,0-0.27,0.12-0.27,0.27c0,0.15,0.12,0.27,0.27,0.27C218.56,121.84,218.69,121.71,218.69,121.56z
			 M219.51,121.56c0-0.15-0.12-0.27-0.27-0.27s-0.27,0.12-0.27,0.27c0,0.15,0.12,0.27,0.27,0.27S219.51,121.71,219.51,121.56z
			 M220.33,121.56c0-0.15-0.12-0.27-0.27-0.27c-0.15,0-0.27,0.12-0.27,0.27c0,0.15,0.12,0.27,0.27,0.27
			C220.21,121.84,220.33,121.71,220.33,121.56z M221.15,121.56c0-0.15-0.12-0.27-0.27-0.27c-0.15,0-0.27,0.12-0.27,0.27
			c0,0.15,0.12,0.27,0.27,0.27C221.03,121.84,221.15,121.71,221.15,121.56z M221.97,121.56c0-0.15-0.12-0.27-0.27-0.27
			c-0.15,0-0.27,0.12-0.27,0.27c0,0.15,0.12,0.27,0.27,0.27C221.85,121.84,221.97,121.71,221.97,121.56z M222.8,121.56
			c0-0.15-0.12-0.27-0.27-0.27c-0.15,0-0.27,0.12-0.27,0.27c0,0.15,0.12,0.27,0.27,0.27C222.67,121.84,222.8,121.71,222.8,121.56z"
			/>
		<g>
			<rect x="190.83" y="120.57" class="st3" width="13.61" height="8.64"/>
			<path class="st8" d="M197.56,141.06L197.56,141.06c-0.57,0-1.02-0.46-1.02-1.02v-19.47h2.05v19.47
				C198.59,140.6,198.13,141.06,197.56,141.06z"/>
			<polyline class="st9" points="196.68,130.24 198.29,130.24 196.68,132.14 198.59,132.14 196.68,134.19 198.59,134.19 
				196.68,136.09 198.44,136.09 196.54,137.85 198.15,137.85 196.54,139.53 198.59,139.53 			"/>
			<rect x="193.61" y="120.57" class="st3" width="8.05" height="8.64"/>
		</g>
		<rect x="183.94" y="155.09" class="st5" width="7.91" height="16.18"/>
	</g>
	<g>
		<polygon class="st5" points="225.36,158.8 232.18,170.29 217.28,170.29 		"/>
		<polygon class="st5" points="232.32,148.21 191.03,148.21 178.19,170.65 219.47,170.65 		"/>
		<polygon class="st3" points="226.36,150.54 194.32,150.54 184.25,168.13 216.29,168.13 		"/>
		<g>
			<polygon class="st3" points="206.28,167.95 210.46,160.64 196.09,160.64 191.91,167.95 			"/>
			<polygon class="st3" points="206.33,167.95 206.34,167.93 192.15,167.93 192.14,167.95 			"/>
			<g>
				<path class="st3" d="M194.27,167.95l3.11-5.44c0,0-2.18-1.97-4.8,0.06c0,0-2.66,2.1-3.68,3.88l-0.86,1.5H194.27z"/>
			</g>
			<g>
				<path class="st3" d="M211.19,167.95l0.86-1.5c1.02-1.78,0.76-3.88,0.76-3.88c-0.3-2.03-4.73-0.06-4.73-0.06l-3.11,5.44H211.19z"
					/>
			</g>
			<path class="st3" d="M203,159.08c0,0-1.84-1.43-5.61,0.26c-3.78,1.69-4.68,3.63-4.6,4.29c0.08,0.66,1.04,0.77,2.2,0.36
				c1.15-0.41,2.57-1.99,4.58-2.2s3.27-0.72,3.77-1.94C203.82,158.62,203,159.08,203,159.08z"/>
			<path class="st3" d="M206.48,159.08c0,0,3.48-1.43,5.32,0.26s0.53,3.63-0.31,4.29c-0.84,0.66-1.92,0.77-2.61,0.36
				c-0.69-0.41-0.29-1.99-2.06-2.2s-2.45-0.72-1.55-1.94C206.18,158.62,206.48,159.08,206.48,159.08z"/>
			<g>
				<path class="st3" d="M208.73,154.16h2.58l1.6-1.65c0.12-0.12,0.28-0.09,0.21,0.04l-1.51,2.63c-0.41,0.71-1.32,1.29-2.03,1.29
					h-2.18L208.73,154.16z"/>
				<path class="st3" d="M206.36,154.16h-2.58l0.28-1.65c0.02-0.12-0.18-0.09-0.26,0.04l-1.51,2.63c-0.41,0.71-0.16,1.29,0.55,1.29
					h2.18L206.36,154.16z"/>
				<path class="st3" d="M204.29,156.57c-0.39,0.4-0.75,0.85-1.03,1.34c-0.87,1.53-0.64,2.76,0.51,2.76s2.8-1.24,3.67-2.76
					c0.28-0.48,0.44-0.94,0.5-1.34H204.29z"/>
				<path class="st3" d="M204.29,156.57c0,0,2.42-3.74,4.15-3.65c1.73,0.09-0.49,3.65-0.49,3.65H204.29z"/>
				<path class="st3" d="M203.5,157.95c-0.39,0.4-0.75,0.85-1.03,1.34c-0.87,1.53-0.64,2.76,0.51,2.76s2.8-1.24,3.67-2.76
					c0.28-0.48,0.44-0.94,0.5-1.34H203.5z"/>
				<polygon class="st3" points="205.36,158.62 204.44,158.62 205.64,156.53 206.56,156.53 				"/>
			</g>
			<path class="st3" d="M202.98,162.05c-0.97,1.69-1.94,3.38-2.9,5.07"/>
		</g>
	</g>
	<g id="XMLID_1_">
		<g id="XMLID_4_">
			<rect id="XMLID_5_" x="105.54" y="154.68" class="st5" width="6.05" height="12.75"/>
		</g>
		<rect id="XMLID_3_" x="71.49" y="96.24" class="st3" width="76.33" height="61.47"/>
		<rect id="XMLID_2_" x="75.57" y="99.43" class="st5" width="68.17" height="53.32"/>
		<g>
			<g>
				<path class="st7" d="M116.59,103.1h-1.76c-0.24,0-0.43-0.19-0.43-0.43c0-0.24,0.19-0.43,0.43-0.43h1.76
					c0.24,0,0.43,0.19,0.43,0.43C117.02,102.91,116.83,103.1,116.59,103.1z M117.02,104.68c0-0.24-0.19-0.43-0.43-0.43h-1.76
					c-0.24,0-0.43,0.19-0.43,0.43c0,0.24,0.19,0.43,0.43,0.43h1.76C116.83,105.11,117.02,104.92,117.02,104.68z M117.02,106.69
					c0-0.24-0.19-0.43-0.43-0.43h-1.76c-0.24,0-0.43,0.19-0.43,0.43c0,0.24,0.19,0.43,0.43,0.43h1.76
					C116.83,107.12,117.02,106.92,117.02,106.69z M117.02,108.69c0-0.24-0.19-0.43-0.43-0.43h-1.76c-0.24,0-0.43,0.19-0.43,0.43
					c0,0.24,0.19,0.43,0.43,0.43h1.76C116.83,109.13,117.02,108.93,117.02,108.69z M117.02,110.7c0-0.24-0.19-0.43-0.43-0.43h-1.76
					c-0.24,0-0.43,0.19-0.43,0.43s0.19,0.43,0.43,0.43h1.76C116.83,111.13,117.02,110.94,117.02,110.7z M117.02,112.71
					c0-0.24-0.19-0.43-0.43-0.43h-1.76c-0.24,0-0.43,0.19-0.43,0.43c0,0.24,0.19,0.43,0.43,0.43h1.76
					C116.83,113.14,117.02,112.95,117.02,112.71z M117.02,114.72c0-0.24-0.19-0.43-0.43-0.43h-1.76c-0.24,0-0.43,0.19-0.43,0.43
					c0,0.24,0.19,0.43,0.43,0.43h1.76C116.83,115.15,117.02,114.96,117.02,114.72z M117.02,116.73c0-0.24-0.19-0.43-0.43-0.43h-1.76
					c-0.24,0-0.43,0.19-0.43,0.43c0,0.24,0.19,0.43,0.43,0.43h1.76C116.83,117.16,117.02,116.97,117.02,116.73z M123.6,102.67
					c0-0.24-0.19-0.43-0.43-0.43h-4.61c-0.24,0-0.43,0.19-0.43,0.43c0,0.24,0.19,0.43,0.43,0.43h4.61
					C123.4,103.1,123.6,102.91,123.6,102.67z M123.6,104.68c0-0.24-0.19-0.43-0.43-0.43h-4.61c-0.24,0-0.43,0.19-0.43,0.43
					c0,0.24,0.19,0.43,0.43,0.43h4.61C123.4,105.11,123.6,104.92,123.6,104.68z M123.6,106.69c0-0.24-0.19-0.43-0.43-0.43h-4.61
					c-0.24,0-0.43,0.19-0.43,0.43c0,0.24,0.19,0.43,0.43,0.43h4.61C123.4,107.12,123.6,106.92,123.6,106.69z M123.6,108.69
					c0-0.24-0.19-0.43-0.43-0.43h-4.61c-0.24,0-0.43,0.19-0.43,0.43c0,0.24,0.19,0.43,0.43,0.43h4.61
					C123.4,109.13,123.6,108.93,123.6,108.69z M123.6,110.7c0-0.24-0.19-0.43-0.43-0.43h-4.61c-0.24,0-0.43,0.19-0.43,0.43
					s0.19,0.43,0.43,0.43h4.61C123.4,111.13,123.6,110.94,123.6,110.7z M129.12,112.71c0-0.24-0.19-0.43-0.43-0.43h-4.61
					c-0.24,0-0.43,0.19-0.43,0.43c0,0.24,0.19,0.43,0.43,0.43h4.61C128.92,113.14,129.12,112.95,129.12,112.71z M129.12,114.72
					c0-0.24-0.19-0.43-0.43-0.43h-4.61c-0.24,0-0.43,0.19-0.43,0.43c0,0.24,0.19,0.43,0.43,0.43h4.61
					C128.92,115.15,129.12,114.96,129.12,114.72z M129.12,116.73c0-0.24-0.19-0.43-0.43-0.43h-4.61c-0.24,0-0.43,0.19-0.43,0.43
					c0,0.24,0.19,0.43,0.43,0.43h4.61C128.92,117.16,129.12,116.97,129.12,116.73z M125.62,102.67c0-0.28-0.22-0.5-0.5-0.5
					s-0.5,0.22-0.5,0.5c0,0.28,0.22,0.5,0.5,0.5S125.62,102.95,125.62,102.67z M127.13,102.67c0-0.28-0.22-0.5-0.5-0.5
					c-0.28,0-0.5,0.22-0.5,0.5c0,0.28,0.22,0.5,0.5,0.5C126.91,103.17,127.13,102.95,127.13,102.67z M128.64,102.67
					c0-0.28-0.22-0.5-0.5-0.5c-0.28,0-0.5,0.22-0.5,0.5c0,0.28,0.22,0.5,0.5,0.5C128.41,103.17,128.64,102.95,128.64,102.67z
					 M130.14,102.67c0-0.28-0.22-0.5-0.5-0.5c-0.28,0-0.5,0.22-0.5,0.5c0,0.28,0.22,0.5,0.5,0.5
					C129.92,103.17,130.14,102.95,130.14,102.67z M131.65,102.67c0-0.28-0.22-0.5-0.5-0.5c-0.28,0-0.5,0.22-0.5,0.5
					c0,0.28,0.22,0.5,0.5,0.5C131.42,103.17,131.65,102.95,131.65,102.67z M133.16,102.67c0-0.28-0.22-0.5-0.5-0.5
					s-0.5,0.22-0.5,0.5c0,0.28,0.22,0.5,0.5,0.5S133.16,102.95,133.16,102.67z M125.62,106.69c0-0.28-0.22-0.5-0.5-0.5
					s-0.5,0.22-0.5,0.5c0,0.28,0.22,0.5,0.5,0.5S125.62,106.96,125.62,106.69z M127.13,106.69c0-0.28-0.22-0.5-0.5-0.5
					c-0.28,0-0.5,0.22-0.5,0.5c0,0.28,0.22,0.5,0.5,0.5C126.91,107.19,127.13,106.96,127.13,106.69z M128.64,106.69
					c0-0.28-0.22-0.5-0.5-0.5c-0.28,0-0.5,0.22-0.5,0.5c0,0.28,0.22,0.5,0.5,0.5C128.41,107.19,128.64,106.96,128.64,106.69z
					 M130.14,106.69c0-0.28-0.22-0.5-0.5-0.5c-0.28,0-0.5,0.22-0.5,0.5c0,0.28,0.22,0.5,0.5,0.5
					C129.92,107.19,130.14,106.96,130.14,106.69z M131.65,106.69c0-0.28-0.22-0.5-0.5-0.5c-0.28,0-0.5,0.22-0.5,0.5
					c0,0.28,0.22,0.5,0.5,0.5C131.42,107.19,131.65,106.96,131.65,106.69z M133.16,106.69c0-0.28-0.22-0.5-0.5-0.5
					s-0.5,0.22-0.5,0.5c0,0.28,0.22,0.5,0.5,0.5S133.16,106.96,133.16,106.69z M130.77,112.46c0-0.28-0.22-0.5-0.5-0.5
					c-0.28,0-0.5,0.22-0.5,0.5c0,0.28,0.22,0.5,0.5,0.5C130.55,112.96,130.77,112.74,130.77,112.46z M132.28,112.46
					c0-0.28-0.22-0.5-0.5-0.5c-0.28,0-0.5,0.22-0.5,0.5c0,0.28,0.22,0.5,0.5,0.5C132.05,112.96,132.28,112.74,132.28,112.46z
					 M133.78,112.46c0-0.28-0.22-0.5-0.5-0.5s-0.5,0.22-0.5,0.5c0,0.28,0.22,0.5,0.5,0.5S133.78,112.74,133.78,112.46z
					 M135.29,112.46c0-0.28-0.22-0.5-0.5-0.5c-0.28,0-0.5,0.22-0.5,0.5c0,0.28,0.22,0.5,0.5,0.5
					C135.06,112.96,135.29,112.74,135.29,112.46z M136.79,112.46c0-0.28-0.22-0.5-0.5-0.5c-0.28,0-0.5,0.22-0.5,0.5
					c0,0.28,0.22,0.5,0.5,0.5C136.57,112.96,136.79,112.74,136.79,112.46z M138.3,112.46c0-0.28-0.22-0.5-0.5-0.5
					c-0.28,0-0.5,0.22-0.5,0.5c0,0.28,0.22,0.5,0.5,0.5C138.08,112.96,138.3,112.74,138.3,112.46z M130.77,116.6
					c0-0.28-0.22-0.5-0.5-0.5c-0.28,0-0.5,0.22-0.5,0.5c0,0.28,0.22,0.5,0.5,0.5C130.55,117.1,130.77,116.88,130.77,116.6z
					 M132.28,116.6c0-0.28-0.22-0.5-0.5-0.5c-0.28,0-0.5,0.22-0.5,0.5c0,0.28,0.22,0.5,0.5,0.5
					C132.05,117.1,132.28,116.88,132.28,116.6z M133.78,116.6c0-0.28-0.22-0.5-0.5-0.5s-0.5,0.22-0.5,0.5c0,0.28,0.22,0.5,0.5,0.5
					S133.78,116.88,133.78,116.6z M135.29,116.6c0-0.28-0.22-0.5-0.5-0.5c-0.28,0-0.5,0.22-0.5,0.5c0,0.28,0.22,0.5,0.5,0.5
					C135.06,117.1,135.29,116.88,135.29,116.6z M136.79,116.6c0-0.28-0.22-0.5-0.5-0.5c-0.28,0-0.5,0.22-0.5,0.5
					c0,0.28,0.22,0.5,0.5,0.5C136.57,117.1,136.79,116.88,136.79,116.6z M138.3,116.6c0-0.28-0.22-0.5-0.5-0.5
					c-0.28,0-0.5,0.22-0.5,0.5c0,0.28,0.22,0.5,0.5,0.5C138.08,117.1,138.3,116.88,138.3,116.6z"/>
				<path class="st7" d="M116.59,119.17h-1.76c-0.24,0-0.43-0.19-0.43-0.43c0-0.24,0.19-0.43,0.43-0.43h1.76
					c0.24,0,0.43,0.19,0.43,0.43C117.02,118.98,116.83,119.17,116.59,119.17z M117.02,120.75c0-0.24-0.19-0.43-0.43-0.43h-1.76
					c-0.24,0-0.43,0.19-0.43,0.43c0,0.24,0.19,0.43,0.43,0.43h1.76C116.83,121.18,117.02,120.99,117.02,120.75z M117.02,122.75
					c0-0.24-0.19-0.43-0.43-0.43h-1.76c-0.24,0-0.43,0.19-0.43,0.43c0,0.24,0.19,0.43,0.43,0.43h1.76
					C116.83,123.19,117.02,122.99,117.02,122.75z M117.02,124.76c0-0.24-0.19-0.43-0.43-0.43h-1.76c-0.24,0-0.43,0.19-0.43,0.43
					s0.19,0.43,0.43,0.43h1.76C116.83,125.2,117.02,125,117.02,124.76z M117.02,126.77c0-0.24-0.19-0.43-0.43-0.43h-1.76
					c-0.24,0-0.43,0.19-0.43,0.43s0.19,0.43,0.43,0.43h1.76C116.83,127.2,117.02,127.01,117.02,126.77z M117.02,128.78
					c0-0.24-0.19-0.43-0.43-0.43h-1.76c-0.24,0-0.43,0.19-0.43,0.43c0,0.24,0.19,0.43,0.43,0.43h1.76
					C116.83,129.21,117.02,129.02,117.02,128.78z M117.02,130.79c0-0.24-0.19-0.43-0.43-0.43h-1.76c-0.24,0-0.43,0.19-0.43,0.43
					c0,0.24,0.19,0.43,0.43,0.43h1.76C116.83,131.22,117.02,131.03,117.02,130.79z M117.02,132.79c0-0.24-0.19-0.43-0.43-0.43h-1.76
					c-0.24,0-0.43,0.19-0.43,0.43s0.19,0.43,0.43,0.43h1.76C116.83,133.23,117.02,133.03,117.02,132.79z M123.6,118.74
					c0-0.24-0.19-0.43-0.43-0.43h-4.61c-0.24,0-0.43,0.19-0.43,0.43c0,0.24,0.19,0.43,0.43,0.43h4.61
					C123.4,119.17,123.6,118.98,123.6,118.74z M123.6,120.75c0-0.24-0.19-0.43-0.43-0.43h-4.61c-0.24,0-0.43,0.19-0.43,0.43
					c0,0.24,0.19,0.43,0.43,0.43h4.61C123.4,121.18,123.6,120.99,123.6,120.75z M123.6,122.75c0-0.24-0.19-0.43-0.43-0.43h-4.61
					c-0.24,0-0.43,0.19-0.43,0.43c0,0.24,0.19,0.43,0.43,0.43h4.61C123.4,123.19,123.6,122.99,123.6,122.75z M123.6,124.76
					c0-0.24-0.19-0.43-0.43-0.43h-4.61c-0.24,0-0.43,0.19-0.43,0.43s0.19,0.43,0.43,0.43h4.61C123.4,125.2,123.6,125,123.6,124.76z
					 M123.6,126.77c0-0.24-0.19-0.43-0.43-0.43h-4.61c-0.24,0-0.43,0.19-0.43,0.43s0.19,0.43,0.43,0.43h4.61
					C123.4,127.2,123.6,127.01,123.6,126.77z M129.12,128.78c0-0.24-0.19-0.43-0.43-0.43h-4.61c-0.24,0-0.43,0.19-0.43,0.43
					c0,0.24,0.19,0.43,0.43,0.43h4.61C128.92,129.21,129.12,129.02,129.12,128.78z M129.12,130.79c0-0.24-0.19-0.43-0.43-0.43h-4.61
					c-0.24,0-0.43,0.19-0.43,0.43c0,0.24,0.19,0.43,0.43,0.43h4.61C128.92,131.22,129.12,131.03,129.12,130.79z M129.12,132.79
					c0-0.24-0.19-0.43-0.43-0.43h-4.61c-0.24,0-0.43,0.19-0.43,0.43s0.19,0.43,0.43,0.43h4.61
					C128.92,133.23,129.12,133.03,129.12,132.79z M125.62,118.74c0-0.28-0.22-0.5-0.5-0.5s-0.5,0.22-0.5,0.5
					c0,0.28,0.22,0.5,0.5,0.5S125.62,119.01,125.62,118.74z M127.13,118.74c0-0.28-0.22-0.5-0.5-0.5c-0.28,0-0.5,0.22-0.5,0.5
					c0,0.28,0.22,0.5,0.5,0.5C126.91,119.24,127.13,119.01,127.13,118.74z M128.64,118.74c0-0.28-0.22-0.5-0.5-0.5
					c-0.28,0-0.5,0.22-0.5,0.5c0,0.28,0.22,0.5,0.5,0.5C128.41,119.24,128.64,119.01,128.64,118.74z M130.14,118.74
					c0-0.28-0.22-0.5-0.5-0.5c-0.28,0-0.5,0.22-0.5,0.5c0,0.28,0.22,0.5,0.5,0.5C129.92,119.24,130.14,119.01,130.14,118.74z
					 M131.65,118.74c0-0.28-0.22-0.5-0.5-0.5c-0.28,0-0.5,0.22-0.5,0.5c0,0.28,0.22,0.5,0.5,0.5
					C131.42,119.24,131.65,119.01,131.65,118.74z M133.16,118.74c0-0.28-0.22-0.5-0.5-0.5s-0.5,0.22-0.5,0.5
					c0,0.28,0.22,0.5,0.5,0.5S133.16,119.01,133.16,118.74z M125.62,122.75c0-0.28-0.22-0.5-0.5-0.5s-0.5,0.22-0.5,0.5
					c0,0.28,0.22,0.5,0.5,0.5S125.62,123.03,125.62,122.75z M127.13,122.75c0-0.28-0.22-0.5-0.5-0.5c-0.28,0-0.5,0.22-0.5,0.5
					c0,0.28,0.22,0.5,0.5,0.5C126.91,123.26,127.13,123.03,127.13,122.75z M128.64,122.75c0-0.28-0.22-0.5-0.5-0.5
					c-0.28,0-0.5,0.22-0.5,0.5c0,0.28,0.22,0.5,0.5,0.5C128.41,123.26,128.64,123.03,128.64,122.75z M130.14,122.75
					c0-0.28-0.22-0.5-0.5-0.5c-0.28,0-0.5,0.22-0.5,0.5c0,0.28,0.22,0.5,0.5,0.5C129.92,123.26,130.14,123.03,130.14,122.75z
					 M131.65,122.75c0-0.28-0.22-0.5-0.5-0.5c-0.28,0-0.5,0.22-0.5,0.5c0,0.28,0.22,0.5,0.5,0.5
					C131.42,123.26,131.65,123.03,131.65,122.75z M133.16,122.75c0-0.28-0.22-0.5-0.5-0.5s-0.5,0.22-0.5,0.5
					c0,0.28,0.22,0.5,0.5,0.5S133.16,123.03,133.16,122.75z M130.77,128.53c0-0.28-0.22-0.5-0.5-0.5c-0.28,0-0.5,0.22-0.5,0.5
					c0,0.28,0.22,0.5,0.5,0.5C130.55,129.03,130.77,128.8,130.77,128.53z M132.28,128.53c0-0.28-0.22-0.5-0.5-0.5
					c-0.28,0-0.5,0.22-0.5,0.5c0,0.28,0.22,0.5,0.5,0.5C132.05,129.03,132.28,128.8,132.28,128.53z M133.78,128.53
					c0-0.28-0.22-0.5-0.5-0.5s-0.5,0.22-0.5,0.5c0,0.28,0.22,0.5,0.5,0.5S133.78,128.8,133.78,128.53z M135.29,128.53
					c0-0.28-0.22-0.5-0.5-0.5c-0.28,0-0.5,0.22-0.5,0.5c0,0.28,0.22,0.5,0.5,0.5C135.06,129.03,135.29,128.8,135.29,128.53z
					 M136.79,128.53c0-0.28-0.22-0.5-0.5-0.5c-0.28,0-0.5,0.22-0.5,0.5c0,0.28,0.22,0.5,0.5,0.5
					C136.57,129.03,136.79,128.8,136.79,128.53z M138.3,128.53c0-0.28-0.22-0.5-0.5-0.5c-0.28,0-0.5,0.22-0.5,0.5
					c0,0.28,0.22,0.5,0.5,0.5C138.08,129.03,138.3,128.8,138.3,128.53z M130.77,132.67c0-0.28-0.22-0.5-0.5-0.5
					c-0.28,0-0.5,0.22-0.5,0.5c0,0.28,0.22,0.5,0.5,0.5C130.55,133.17,130.77,132.95,130.77,132.67z M132.28,132.67
					c0-0.28-0.22-0.5-0.5-0.5c-0.28,0-0.5,0.22-0.5,0.5c0,0.28,0.22,0.5,0.5,0.5C132.05,133.17,132.28,132.95,132.28,132.67z
					 M133.78,132.67c0-0.28-0.22-0.5-0.5-0.5s-0.5,0.22-0.5,0.5c0,0.28,0.22,0.5,0.5,0.5S133.78,132.95,133.78,132.67z
					 M135.29,132.67c0-0.28-0.22-0.5-0.5-0.5c-0.28,0-0.5,0.22-0.5,0.5c0,0.28,0.22,0.5,0.5,0.5
					C135.06,133.17,135.29,132.95,135.29,132.67z M136.79,132.67c0-0.28-0.22-0.5-0.5-0.5c-0.28,0-0.5,0.22-0.5,0.5
					c0,0.28,0.22,0.5,0.5,0.5C136.57,133.17,136.79,132.95,136.79,132.67z M138.3,132.67c0-0.28-0.22-0.5-0.5-0.5
					c-0.28,0-0.5,0.22-0.5,0.5c0,0.28,0.22,0.5,0.5,0.5C138.08,133.17,138.3,132.95,138.3,132.67z"/>
				<path class="st7" d="M116.59,135.63h-1.76c-0.24,0-0.43-0.19-0.43-0.43c0-0.24,0.19-0.43,0.43-0.43h1.76
					c0.24,0,0.43,0.19,0.43,0.43C117.02,135.43,116.83,135.63,116.59,135.63z M117.02,137.2c0-0.24-0.19-0.43-0.43-0.43h-1.76
					c-0.24,0-0.43,0.19-0.43,0.43c0,0.24,0.19,0.43,0.43,0.43h1.76C116.83,137.64,117.02,137.44,117.02,137.2z M117.02,139.21
					c0-0.24-0.19-0.43-0.43-0.43h-1.76c-0.24,0-0.43,0.19-0.43,0.43s0.19,0.43,0.43,0.43h1.76
					C116.83,139.64,117.02,139.45,117.02,139.21z M117.02,141.22c0-0.24-0.19-0.43-0.43-0.43h-1.76c-0.24,0-0.43,0.19-0.43,0.43
					c0,0.24,0.19,0.43,0.43,0.43h1.76C116.83,141.65,117.02,141.46,117.02,141.22z M117.02,143.23c0-0.24-0.19-0.43-0.43-0.43h-1.76
					c-0.24,0-0.43,0.19-0.43,0.43c0,0.24,0.19,0.43,0.43,0.43h1.76C116.83,143.66,117.02,143.47,117.02,143.23z M117.02,145.23
					c0-0.24-0.19-0.43-0.43-0.43h-1.76c-0.24,0-0.43,0.19-0.43,0.43c0,0.24,0.19,0.43,0.43,0.43h1.76
					C116.83,145.67,117.02,145.47,117.02,145.23z M117.02,147.24c0-0.24-0.19-0.43-0.43-0.43h-1.76c-0.24,0-0.43,0.19-0.43,0.43
					s0.19,0.43,0.43,0.43h1.76C116.83,147.68,117.02,147.48,117.02,147.24z M117.02,149.25c0-0.24-0.19-0.43-0.43-0.43h-1.76
					c-0.24,0-0.43,0.19-0.43,0.43c0,0.24,0.19,0.43,0.43,0.43h1.76C116.83,149.68,117.02,149.49,117.02,149.25z M123.6,135.19
					c0-0.24-0.19-0.43-0.43-0.43h-4.61c-0.24,0-0.43,0.19-0.43,0.43c0,0.24,0.19,0.43,0.43,0.43h4.61
					C123.4,135.63,123.6,135.43,123.6,135.19z M123.6,137.2c0-0.24-0.19-0.43-0.43-0.43h-4.61c-0.24,0-0.43,0.19-0.43,0.43
					c0,0.24,0.19,0.43,0.43,0.43h4.61C123.4,137.64,123.6,137.44,123.6,137.2z M123.6,139.21c0-0.24-0.19-0.43-0.43-0.43h-4.61
					c-0.24,0-0.43,0.19-0.43,0.43s0.19,0.43,0.43,0.43h4.61C123.4,139.64,123.6,139.45,123.6,139.21z M123.6,141.22
					c0-0.24-0.19-0.43-0.43-0.43h-4.61c-0.24,0-0.43,0.19-0.43,0.43c0,0.24,0.19,0.43,0.43,0.43h4.61
					C123.4,141.65,123.6,141.46,123.6,141.22z M123.6,143.23c0-0.24-0.19-0.43-0.43-0.43h-4.61c-0.24,0-0.43,0.19-0.43,0.43
					c0,0.24,0.19,0.43,0.43,0.43h4.61C123.4,143.66,123.6,143.47,123.6,143.23z M129.12,145.23c0-0.24-0.19-0.43-0.43-0.43h-4.61
					c-0.24,0-0.43,0.19-0.43,0.43c0,0.24,0.19,0.43,0.43,0.43h4.61C128.92,145.67,129.12,145.47,129.12,145.23z M129.12,147.24
					c0-0.24-0.19-0.43-0.43-0.43h-4.61c-0.24,0-0.43,0.19-0.43,0.43s0.19,0.43,0.43,0.43h4.61
					C128.92,147.68,129.12,147.48,129.12,147.24z M129.12,149.25c0-0.24-0.19-0.43-0.43-0.43h-4.61c-0.24,0-0.43,0.19-0.43,0.43
					c0,0.24,0.19,0.43,0.43,0.43h4.61C128.92,149.68,129.12,149.49,129.12,149.25z M125.62,135.19c0-0.28-0.22-0.5-0.5-0.5
					s-0.5,0.22-0.5,0.5c0,0.28,0.22,0.5,0.5,0.5S125.62,135.47,125.62,135.19z M127.13,135.19c0-0.28-0.22-0.5-0.5-0.5
					c-0.28,0-0.5,0.22-0.5,0.5c0,0.28,0.22,0.5,0.5,0.5C126.91,135.7,127.13,135.47,127.13,135.19z M128.64,135.19
					c0-0.28-0.22-0.5-0.5-0.5c-0.28,0-0.5,0.22-0.5,0.5c0,0.28,0.22,0.5,0.5,0.5C128.41,135.7,128.64,135.47,128.64,135.19z
					 M130.14,135.19c0-0.28-0.22-0.5-0.5-0.5c-0.28,0-0.5,0.22-0.5,0.5c0,0.28,0.22,0.5,0.5,0.5
					C129.92,135.7,130.14,135.47,130.14,135.19z M131.65,135.19c0-0.28-0.22-0.5-0.5-0.5c-0.28,0-0.5,0.22-0.5,0.5
					c0,0.28,0.22,0.5,0.5,0.5C131.42,135.7,131.65,135.47,131.65,135.19z M133.16,135.19c0-0.28-0.22-0.5-0.5-0.5s-0.5,0.22-0.5,0.5
					c0,0.28,0.22,0.5,0.5,0.5S133.16,135.47,133.16,135.19z M125.62,139.21c0-0.28-0.22-0.5-0.5-0.5s-0.5,0.22-0.5,0.5
					c0,0.28,0.22,0.5,0.5,0.5S125.62,139.49,125.62,139.21z M127.13,139.21c0-0.28-0.22-0.5-0.5-0.5c-0.28,0-0.5,0.22-0.5,0.5
					c0,0.28,0.22,0.5,0.5,0.5C126.91,139.71,127.13,139.49,127.13,139.21z M128.64,139.21c0-0.28-0.22-0.5-0.5-0.5
					c-0.28,0-0.5,0.22-0.5,0.5c0,0.28,0.22,0.5,0.5,0.5C128.41,139.71,128.64,139.49,128.64,139.21z M130.14,139.21
					c0-0.28-0.22-0.5-0.5-0.5c-0.28,0-0.5,0.22-0.5,0.5c0,0.28,0.22,0.5,0.5,0.5C129.92,139.71,130.14,139.49,130.14,139.21z
					 M131.65,139.21c0-0.28-0.22-0.5-0.5-0.5c-0.28,0-0.5,0.22-0.5,0.5c0,0.28,0.22,0.5,0.5,0.5
					C131.42,139.71,131.65,139.49,131.65,139.21z M133.16,139.21c0-0.28-0.22-0.5-0.5-0.5s-0.5,0.22-0.5,0.5
					c0,0.28,0.22,0.5,0.5,0.5S133.16,139.49,133.16,139.21z M130.77,144.98c0-0.28-0.22-0.5-0.5-0.5c-0.28,0-0.5,0.22-0.5,0.5
					c0,0.28,0.22,0.5,0.5,0.5C130.55,145.49,130.77,145.26,130.77,144.98z M132.28,144.98c0-0.28-0.22-0.5-0.5-0.5
					c-0.28,0-0.5,0.22-0.5,0.5c0,0.28,0.22,0.5,0.5,0.5C132.05,145.49,132.28,145.26,132.28,144.98z M133.78,144.98
					c0-0.28-0.22-0.5-0.5-0.5s-0.5,0.22-0.5,0.5c0,0.28,0.22,0.5,0.5,0.5S133.78,145.26,133.78,144.98z M135.29,144.98
					c0-0.28-0.22-0.5-0.5-0.5c-0.28,0-0.5,0.22-0.5,0.5c0,0.28,0.22,0.5,0.5,0.5C135.06,145.49,135.29,145.26,135.29,144.98z
					 M136.79,144.98c0-0.28-0.22-0.5-0.5-0.5c-0.28,0-0.5,0.22-0.5,0.5c0,0.28,0.22,0.5,0.5,0.5
					C136.57,145.49,136.79,145.26,136.79,144.98z M138.3,144.98c0-0.28-0.22-0.5-0.5-0.5c-0.28,0-0.5,0.22-0.5,0.5
					c0,0.28,0.22,0.5,0.5,0.5C138.08,145.49,138.3,145.26,138.3,144.98z M130.77,149.13c0-0.28-0.22-0.5-0.5-0.5
					c-0.28,0-0.5,0.22-0.5,0.5c0,0.28,0.22,0.5,0.5,0.5C130.55,149.63,130.77,149.4,130.77,149.13z M132.28,149.13
					c0-0.28-0.22-0.5-0.5-0.5c-0.28,0-0.5,0.22-0.5,0.5c0,0.28,0.22,0.5,0.5,0.5C132.05,149.63,132.28,149.4,132.28,149.13z
					 M133.78,149.13c0-0.28-0.22-0.5-0.5-0.5s-0.5,0.22-0.5,0.5c0,0.28,0.22,0.5,0.5,0.5S133.78,149.4,133.78,149.13z
					 M135.29,149.13c0-0.28-0.22-0.5-0.5-0.5c-0.28,0-0.5,0.22-0.5,0.5c0,0.28,0.22,0.5,0.5,0.5
					C135.06,149.63,135.29,149.4,135.29,149.13z M136.79,149.13c0-0.28-0.22-0.5-0.5-0.5c-0.28,0-0.5,0.22-0.5,0.5
					c0,0.28,0.22,0.5,0.5,0.5C136.57,149.63,136.79,149.4,136.79,149.13z M138.3,149.13c0-0.28-0.22-0.5-0.5-0.5
					c-0.28,0-0.5,0.22-0.5,0.5c0,0.28,0.22,0.5,0.5,0.5C138.08,149.63,138.3,149.4,138.3,149.13z"/>
				<path class="st7" d="M89.43,103.1h-1.76c-0.24,0-0.43-0.19-0.43-0.43c0-0.24,0.19-0.43,0.43-0.43h1.76
					c0.24,0,0.43,0.19,0.43,0.43C89.87,102.91,89.67,103.1,89.43,103.1z M89.87,104.68c0-0.24-0.19-0.43-0.43-0.43h-1.76
					c-0.24,0-0.43,0.19-0.43,0.43c0,0.24,0.19,0.43,0.43,0.43h1.76C89.67,105.11,89.87,104.92,89.87,104.68z M89.87,106.69
					c0-0.24-0.19-0.43-0.43-0.43h-1.76c-0.24,0-0.43,0.19-0.43,0.43c0,0.24,0.19,0.43,0.43,0.43h1.76
					C89.67,107.12,89.87,106.92,89.87,106.69z M89.87,108.69c0-0.24-0.19-0.43-0.43-0.43h-1.76c-0.24,0-0.43,0.19-0.43,0.43
					c0,0.24,0.19,0.43,0.43,0.43h1.76C89.67,109.13,89.87,108.93,89.87,108.69z M89.87,110.7c0-0.24-0.19-0.43-0.43-0.43h-1.76
					c-0.24,0-0.43,0.19-0.43,0.43s0.19,0.43,0.43,0.43h1.76C89.67,111.13,89.87,110.94,89.87,110.7z M89.87,112.71
					c0-0.24-0.19-0.43-0.43-0.43h-1.76c-0.24,0-0.43,0.19-0.43,0.43c0,0.24,0.19,0.43,0.43,0.43h1.76
					C89.67,113.14,89.87,112.95,89.87,112.71z M89.87,114.72c0-0.24-0.19-0.43-0.43-0.43h-1.76c-0.24,0-0.43,0.19-0.43,0.43
					c0,0.24,0.19,0.43,0.43,0.43h1.76C89.67,115.15,89.87,114.96,89.87,114.72z M89.87,116.73c0-0.24-0.19-0.43-0.43-0.43h-1.76
					c-0.24,0-0.43,0.19-0.43,0.43c0,0.24,0.19,0.43,0.43,0.43h1.76C89.67,117.16,89.87,116.97,89.87,116.73z M96.44,102.67
					c0-0.24-0.19-0.43-0.43-0.43H91.4c-0.24,0-0.43,0.19-0.43,0.43c0,0.24,0.19,0.43,0.43,0.43h4.61
					C96.25,103.1,96.44,102.91,96.44,102.67z M96.44,104.68c0-0.24-0.19-0.43-0.43-0.43H91.4c-0.24,0-0.43,0.19-0.43,0.43
					c0,0.24,0.19,0.43,0.43,0.43h4.61C96.25,105.11,96.44,104.92,96.44,104.68z M96.44,106.69c0-0.24-0.19-0.43-0.43-0.43H91.4
					c-0.24,0-0.43,0.19-0.43,0.43c0,0.24,0.19,0.43,0.43,0.43h4.61C96.25,107.12,96.44,106.92,96.44,106.69z M96.44,108.69
					c0-0.24-0.19-0.43-0.43-0.43H91.4c-0.24,0-0.43,0.19-0.43,0.43c0,0.24,0.19,0.43,0.43,0.43h4.61
					C96.25,109.13,96.44,108.93,96.44,108.69z M96.44,110.7c0-0.24-0.19-0.43-0.43-0.43H91.4c-0.24,0-0.43,0.19-0.43,0.43
					s0.19,0.43,0.43,0.43h4.61C96.25,111.13,96.44,110.94,96.44,110.7z M101.96,112.71c0-0.24-0.19-0.43-0.43-0.43h-4.61
					c-0.24,0-0.43,0.19-0.43,0.43c0,0.24,0.19,0.43,0.43,0.43h4.61C101.77,113.14,101.96,112.95,101.96,112.71z M101.96,114.72
					c0-0.24-0.19-0.43-0.43-0.43h-4.61c-0.24,0-0.43,0.19-0.43,0.43c0,0.24,0.19,0.43,0.43,0.43h4.61
					C101.77,115.15,101.96,114.96,101.96,114.72z M101.96,116.73c0-0.24-0.19-0.43-0.43-0.43h-4.61c-0.24,0-0.43,0.19-0.43,0.43
					c0,0.24,0.19,0.43,0.43,0.43h4.61C101.77,117.16,101.96,116.97,101.96,116.73z M98.47,102.67c0-0.28-0.22-0.5-0.5-0.5
					c-0.28,0-0.5,0.22-0.5,0.5c0,0.28,0.22,0.5,0.5,0.5C98.25,103.17,98.47,102.95,98.47,102.67z M99.98,102.67
					c0-0.28-0.22-0.5-0.5-0.5c-0.28,0-0.5,0.22-0.5,0.5c0,0.28,0.22,0.5,0.5,0.5C99.75,103.17,99.98,102.95,99.98,102.67z
					 M101.48,102.67c0-0.28-0.22-0.5-0.5-0.5s-0.5,0.22-0.5,0.5c0,0.28,0.22,0.5,0.5,0.5S101.48,102.95,101.48,102.67z
					 M102.99,102.67c0-0.28-0.22-0.5-0.5-0.5s-0.5,0.22-0.5,0.5c0,0.28,0.22,0.5,0.5,0.5S102.99,102.95,102.99,102.67z
					 M104.49,102.67c0-0.28-0.22-0.5-0.5-0.5c-0.28,0-0.5,0.22-0.5,0.5c0,0.28,0.22,0.5,0.5,0.5
					C104.27,103.17,104.49,102.95,104.49,102.67z M106,102.67c0-0.28-0.22-0.5-0.5-0.5c-0.28,0-0.5,0.22-0.5,0.5
					c0,0.28,0.22,0.5,0.5,0.5C105.78,103.17,106,102.95,106,102.67z M98.47,106.69c0-0.28-0.22-0.5-0.5-0.5
					c-0.28,0-0.5,0.22-0.5,0.5c0,0.28,0.22,0.5,0.5,0.5C98.25,107.19,98.47,106.96,98.47,106.69z M99.98,106.69
					c0-0.28-0.22-0.5-0.5-0.5c-0.28,0-0.5,0.22-0.5,0.5c0,0.28,0.22,0.5,0.5,0.5C99.75,107.19,99.98,106.96,99.98,106.69z
					 M101.48,106.69c0-0.28-0.22-0.5-0.5-0.5s-0.5,0.22-0.5,0.5c0,0.28,0.22,0.5,0.5,0.5S101.48,106.96,101.48,106.69z
					 M102.99,106.69c0-0.28-0.22-0.5-0.5-0.5s-0.5,0.22-0.5,0.5c0,0.28,0.22,0.5,0.5,0.5S102.99,106.96,102.99,106.69z
					 M104.49,106.69c0-0.28-0.22-0.5-0.5-0.5c-0.28,0-0.5,0.22-0.5,0.5c0,0.28,0.22,0.5,0.5,0.5
					C104.27,107.19,104.49,106.96,104.49,106.69z M106,106.69c0-0.28-0.22-0.5-0.5-0.5c-0.28,0-0.5,0.22-0.5,0.5
					c0,0.28,0.22,0.5,0.5,0.5C105.78,107.19,106,106.96,106,106.69z M103.62,112.46c0-0.28-0.22-0.5-0.5-0.5
					c-0.28,0-0.5,0.22-0.5,0.5c0,0.28,0.22,0.5,0.5,0.5C103.39,112.96,103.62,112.74,103.62,112.46z M105.12,112.46
					c0-0.28-0.22-0.5-0.5-0.5c-0.28,0-0.5,0.22-0.5,0.5c0,0.28,0.22,0.5,0.5,0.5C104.9,112.96,105.12,112.74,105.12,112.46z
					 M106.63,112.46c0-0.28-0.22-0.5-0.5-0.5c-0.28,0-0.5,0.22-0.5,0.5c0,0.28,0.22,0.5,0.5,0.5
					C106.4,112.96,106.63,112.74,106.63,112.46z M108.13,112.46c0-0.28-0.22-0.5-0.5-0.5c-0.28,0-0.5,0.22-0.5,0.5
					c0,0.28,0.22,0.5,0.5,0.5C107.91,112.96,108.13,112.74,108.13,112.46z M109.64,112.46c0-0.28-0.22-0.5-0.5-0.5
					c-0.28,0-0.5,0.22-0.5,0.5c0,0.28,0.22,0.5,0.5,0.5C109.42,112.96,109.64,112.74,109.64,112.46z M111.15,112.46
					c0-0.28-0.22-0.5-0.5-0.5c-0.28,0-0.5,0.22-0.5,0.5c0,0.28,0.22,0.5,0.5,0.5C110.92,112.96,111.15,112.74,111.15,112.46z
					 M103.62,116.6c0-0.28-0.22-0.5-0.5-0.5c-0.28,0-0.5,0.22-0.5,0.5c0,0.28,0.22,0.5,0.5,0.5
					C103.39,117.1,103.62,116.88,103.62,116.6z M105.12,116.6c0-0.28-0.22-0.5-0.5-0.5c-0.28,0-0.5,0.22-0.5,0.5
					c0,0.28,0.22,0.5,0.5,0.5C104.9,117.1,105.12,116.88,105.12,116.6z M106.63,116.6c0-0.28-0.22-0.5-0.5-0.5
					c-0.28,0-0.5,0.22-0.5,0.5c0,0.28,0.22,0.5,0.5,0.5C106.4,117.1,106.63,116.88,106.63,116.6z M108.13,116.6
					c0-0.28-0.22-0.5-0.5-0.5c-0.28,0-0.5,0.22-0.5,0.5c0,0.28,0.22,0.5,0.5,0.5C107.91,117.1,108.13,116.88,108.13,116.6z
					 M109.64,116.6c0-0.28-0.22-0.5-0.5-0.5c-0.28,0-0.5,0.22-0.5,0.5c0,0.28,0.22,0.5,0.5,0.5
					C109.42,117.1,109.64,116.88,109.64,116.6z M111.15,116.6c0-0.28-0.22-0.5-0.5-0.5c-0.28,0-0.5,0.22-0.5,0.5
					c0,0.28,0.22,0.5,0.5,0.5C110.92,117.1,111.15,116.88,111.15,116.6z"/>
				<path class="st7" d="M89.43,119.56h-1.76c-0.24,0-0.43-0.19-0.43-0.43c0-0.24,0.19-0.43,0.43-0.43h1.76
					c0.24,0,0.43,0.19,0.43,0.43C89.87,119.37,89.67,119.56,89.43,119.56z M89.87,121.13c0-0.24-0.19-0.43-0.43-0.43h-1.76
					c-0.24,0-0.43,0.19-0.43,0.43c0,0.24,0.19,0.43,0.43,0.43h1.76C89.67,121.57,89.87,121.37,89.87,121.13z M89.87,123.14
					c0-0.24-0.19-0.43-0.43-0.43h-1.76c-0.24,0-0.43,0.19-0.43,0.43s0.19,0.43,0.43,0.43h1.76
					C89.67,123.58,89.87,123.38,89.87,123.14z M89.87,125.15c0-0.24-0.19-0.43-0.43-0.43h-1.76c-0.24,0-0.43,0.19-0.43,0.43
					c0,0.24,0.19,0.43,0.43,0.43h1.76C89.67,125.58,89.87,125.39,89.87,125.15z M89.87,127.16c0-0.24-0.19-0.43-0.43-0.43h-1.76
					c-0.24,0-0.43,0.19-0.43,0.43c0,0.24,0.19,0.43,0.43,0.43h1.76C89.67,127.59,89.87,127.4,89.87,127.16z M89.87,129.17
					c0-0.24-0.19-0.43-0.43-0.43h-1.76c-0.24,0-0.43,0.19-0.43,0.43c0,0.24,0.19,0.43,0.43,0.43h1.76
					C89.67,129.6,89.87,129.41,89.87,129.17z M89.87,131.17c0-0.24-0.19-0.43-0.43-0.43h-1.76c-0.24,0-0.43,0.19-0.43,0.43
					c0,0.24,0.19,0.43,0.43,0.43h1.76C89.67,131.61,89.87,131.41,89.87,131.17z M89.87,133.18c0-0.24-0.19-0.43-0.43-0.43h-1.76
					c-0.24,0-0.43,0.19-0.43,0.43s0.19,0.43,0.43,0.43h1.76C89.67,133.62,89.87,133.42,89.87,133.18z M96.44,119.13
					c0-0.24-0.19-0.43-0.43-0.43H91.4c-0.24,0-0.43,0.19-0.43,0.43c0,0.24,0.19,0.43,0.43,0.43h4.61
					C96.25,119.56,96.44,119.37,96.44,119.13z M96.44,121.13c0-0.24-0.19-0.43-0.43-0.43H91.4c-0.24,0-0.43,0.19-0.43,0.43
					c0,0.24,0.19,0.43,0.43,0.43h4.61C96.25,121.57,96.44,121.37,96.44,121.13z M96.44,123.14c0-0.24-0.19-0.43-0.43-0.43H91.4
					c-0.24,0-0.43,0.19-0.43,0.43s0.19,0.43,0.43,0.43h4.61C96.25,123.58,96.44,123.38,96.44,123.14z M96.44,125.15
					c0-0.24-0.19-0.43-0.43-0.43H91.4c-0.24,0-0.43,0.19-0.43,0.43c0,0.24,0.19,0.43,0.43,0.43h4.61
					C96.25,125.58,96.44,125.39,96.44,125.15z M96.44,127.16c0-0.24-0.19-0.43-0.43-0.43H91.4c-0.24,0-0.43,0.19-0.43,0.43
					c0,0.24,0.19,0.43,0.43,0.43h4.61C96.25,127.59,96.44,127.4,96.44,127.16z M101.96,129.17c0-0.24-0.19-0.43-0.43-0.43h-4.61
					c-0.24,0-0.43,0.19-0.43,0.43c0,0.24,0.19,0.43,0.43,0.43h4.61C101.77,129.6,101.96,129.41,101.96,129.17z M101.96,131.17
					c0-0.24-0.19-0.43-0.43-0.43h-4.61c-0.24,0-0.43,0.19-0.43,0.43c0,0.24,0.19,0.43,0.43,0.43h4.61
					C101.77,131.61,101.96,131.41,101.96,131.17z M101.96,133.18c0-0.24-0.19-0.43-0.43-0.43h-4.61c-0.24,0-0.43,0.19-0.43,0.43
					s0.19,0.43,0.43,0.43h4.61C101.77,133.62,101.96,133.42,101.96,133.18z M98.47,119.13c0-0.28-0.22-0.5-0.5-0.5
					c-0.28,0-0.5,0.22-0.5,0.5c0,0.28,0.22,0.5,0.5,0.5C98.25,119.63,98.47,119.4,98.47,119.13z M99.98,119.13
					c0-0.28-0.22-0.5-0.5-0.5c-0.28,0-0.5,0.22-0.5,0.5c0,0.28,0.22,0.5,0.5,0.5C99.75,119.63,99.98,119.4,99.98,119.13z
					 M101.48,119.13c0-0.28-0.22-0.5-0.5-0.5s-0.5,0.22-0.5,0.5c0,0.28,0.22,0.5,0.5,0.5S101.48,119.4,101.48,119.13z
					 M102.99,119.13c0-0.28-0.22-0.5-0.5-0.5s-0.5,0.22-0.5,0.5c0,0.28,0.22,0.5,0.5,0.5S102.99,119.4,102.99,119.13z
					 M104.49,119.13c0-0.28-0.22-0.5-0.5-0.5c-0.28,0-0.5,0.22-0.5,0.5c0,0.28,0.22,0.5,0.5,0.5
					C104.27,119.63,104.49,119.4,104.49,119.13z M106,119.13c0-0.28-0.22-0.5-0.5-0.5c-0.28,0-0.5,0.22-0.5,0.5
					c0,0.28,0.22,0.5,0.5,0.5C105.78,119.63,106,119.4,106,119.13z M98.47,123.14c0-0.28-0.22-0.5-0.5-0.5c-0.28,0-0.5,0.22-0.5,0.5
					c0,0.28,0.22,0.5,0.5,0.5C98.25,123.64,98.47,123.42,98.47,123.14z M99.98,123.14c0-0.28-0.22-0.5-0.5-0.5
					c-0.28,0-0.5,0.22-0.5,0.5c0,0.28,0.22,0.5,0.5,0.5C99.75,123.64,99.98,123.42,99.98,123.14z M101.48,123.14
					c0-0.28-0.22-0.5-0.5-0.5s-0.5,0.22-0.5,0.5c0,0.28,0.22,0.5,0.5,0.5S101.48,123.42,101.48,123.14z M102.99,123.14
					c0-0.28-0.22-0.5-0.5-0.5s-0.5,0.22-0.5,0.5c0,0.28,0.22,0.5,0.5,0.5S102.99,123.42,102.99,123.14z M104.49,123.14
					c0-0.28-0.22-0.5-0.5-0.5c-0.28,0-0.5,0.22-0.5,0.5c0,0.28,0.22,0.5,0.5,0.5C104.27,123.64,104.49,123.42,104.49,123.14z
					 M106,123.14c0-0.28-0.22-0.5-0.5-0.5c-0.28,0-0.5,0.22-0.5,0.5c0,0.28,0.22,0.5,0.5,0.5C105.78,123.64,106,123.42,106,123.14z
					 M103.62,128.91c0-0.28-0.22-0.5-0.5-0.5c-0.28,0-0.5,0.22-0.5,0.5c0,0.28,0.22,0.5,0.5,0.5
					C103.39,129.42,103.62,129.19,103.62,128.91z M105.12,128.91c0-0.28-0.22-0.5-0.5-0.5c-0.28,0-0.5,0.22-0.5,0.5
					c0,0.28,0.22,0.5,0.5,0.5C104.9,129.42,105.12,129.19,105.12,128.91z M106.63,128.91c0-0.28-0.22-0.5-0.5-0.5
					c-0.28,0-0.5,0.22-0.5,0.5c0,0.28,0.22,0.5,0.5,0.5C106.4,129.42,106.63,129.19,106.63,128.91z M108.13,128.91
					c0-0.28-0.22-0.5-0.5-0.5c-0.28,0-0.5,0.22-0.5,0.5c0,0.28,0.22,0.5,0.5,0.5C107.91,129.42,108.13,129.19,108.13,128.91z
					 M109.64,128.91c0-0.28-0.22-0.5-0.5-0.5c-0.28,0-0.5,0.22-0.5,0.5c0,0.28,0.22,0.5,0.5,0.5
					C109.42,129.42,109.64,129.19,109.64,128.91z M111.15,128.91c0-0.28-0.22-0.5-0.5-0.5c-0.28,0-0.5,0.22-0.5,0.5
					c0,0.28,0.22,0.5,0.5,0.5C110.92,129.42,111.15,129.19,111.15,128.91z M103.62,133.06c0-0.28-0.22-0.5-0.5-0.5
					c-0.28,0-0.5,0.22-0.5,0.5s0.22,0.5,0.5,0.5C103.39,133.56,103.62,133.33,103.62,133.06z M105.12,133.06
					c0-0.28-0.22-0.5-0.5-0.5c-0.28,0-0.5,0.22-0.5,0.5s0.22,0.5,0.5,0.5C104.9,133.56,105.12,133.33,105.12,133.06z M106.63,133.06
					c0-0.28-0.22-0.5-0.5-0.5c-0.28,0-0.5,0.22-0.5,0.5s0.22,0.5,0.5,0.5C106.4,133.56,106.63,133.33,106.63,133.06z M108.13,133.06
					c0-0.28-0.22-0.5-0.5-0.5c-0.28,0-0.5,0.22-0.5,0.5s0.22,0.5,0.5,0.5C107.91,133.56,108.13,133.33,108.13,133.06z
					 M109.64,133.06c0-0.28-0.22-0.5-0.5-0.5c-0.28,0-0.5,0.22-0.5,0.5s0.22,0.5,0.5,0.5C109.42,133.56,109.64,133.33,109.64,133.06
					z M111.15,133.06c0-0.28-0.22-0.5-0.5-0.5c-0.28,0-0.5,0.22-0.5,0.5s0.22,0.5,0.5,0.5
					C110.92,133.56,111.15,133.33,111.15,133.06z"/>
			</g>
		</g>
	</g>
	<g>
		<rect x="130.71" y="168.21" class="st3" width="2.7" height="0.9"/>
		<rect x="134.51" y="168.21" class="st3" width="2.7" height="0.9"/>
		<rect x="138.31" y="168.21" class="st3" width="2.7" height="0.9"/>
		<rect x="142.11" y="168.21" class="st3" width="2.7" height="0.9"/>
		<rect x="145.91" y="168.21" class="st3" width="2.7" height="0.9"/>
		<rect x="149.71" y="168.21" class="st3" width="2.7" height="0.9"/>
		<rect x="153.51" y="168.21" class="st3" width="2.7" height="0.9"/>
		<rect x="157.31" y="168.21" class="st3" width="2.7" height="0.9"/>
		<rect x="161.11" y="168.21" class="st3" width="2.7" height="0.9"/>
		<rect x="164.91" y="168.21" class="st3" width="2.7" height="0.9"/>
		<rect x="168.71" y="168.21" class="st3" width="2.7" height="0.9"/>
		<rect x="172.51" y="168.21" class="st3" width="2.7" height="0.9"/>
		<rect x="176.31" y="168.21" class="st3" width="2.7" height="0.9"/>
		<rect x="180.1" y="168.21" class="st9" width="2.7" height="0.9"/>
		<rect x="183.9" y="168.21" class="st9" width="2.7" height="0.9"/>
		<rect x="128.82" y="168.97" class="st5" width="58.66" height="1.64"/>
		<rect x="167.81" y="168.97" class="st3" width="19.66" height="1.64"/>
	</g>
</g>
<g>
	<path class="st3" d="M79.54,269.01L79.54,269.01c0.85,0,1.54-0.68,1.55-1.52l1.56-94.29h-6.22l1.56,94.29
		C78,268.33,78.69,269.01,79.54,269.01z"/>
	<polygon class="st5" points="76.54,179.63 82.54,179.63 82.65,173.19 76.43,173.19 	"/>
	<path class="st3" d="M129.22,269.01L129.22,269.01c0.85,0,1.54-0.68,1.55-1.52l1.56-94.29h-6.22l1.56,94.29
		C127.69,268.33,128.38,269.01,129.22,269.01z"/>
	<polygon class="st5" points="126.22,179.63 132.23,179.63 132.33,173.19 126.11,173.19 	"/>
	<path class="st3" d="M176.19,269.01L176.19,269.01c0.85,0,1.54-0.68,1.55-1.52l1.56-94.29h-6.22l1.56,94.29
		C174.66,268.33,175.35,269.01,176.19,269.01z"/>
	<polygon class="st5" points="173.19,179.63 179.2,179.63 179.3,173.19 173.08,173.19 	"/>
	<path class="st3" d="M252.86,269.01L252.86,269.01c0.85,0,1.54-0.68,1.55-1.52l1.56-94.29h-6.22l1.56,94.29
		C251.32,268.33,252.01,269.01,252.86,269.01z"/>
	<polygon class="st5" points="249.86,179.63 255.86,179.63 255.97,173.19 249.75,173.19 	"/>
	<g>
		<rect x="73.32" y="170.39" class="st5" width="188.83" height="4.67"/>
		<rect x="184.9" y="170.39" class="st3" width="77.24" height="4.67"/>
	</g>
</g>
<g>
	<rect x="130.71" y="168.21" class="st3" width="2.7" height="0.9"/>
	<rect x="134.51" y="168.21" class="st3" width="2.7" height="0.9"/>
	<rect x="138.31" y="168.21" class="st3" width="2.7" height="0.9"/>
	<rect x="142.11" y="168.21" class="st3" width="2.7" height="0.9"/>
	<rect x="145.91" y="168.21" class="st3" width="2.7" height="0.9"/>
	<rect x="149.71" y="168.21" class="st3" width="2.7" height="0.9"/>
	<rect x="153.51" y="168.21" class="st3" width="2.7" height="0.9"/>
	<rect x="157.31" y="168.21" class="st3" width="2.7" height="0.9"/>
	<rect x="161.11" y="168.21" class="st3" width="2.7" height="0.9"/>
	<rect x="164.91" y="168.21" class="st3" width="2.7" height="0.9"/>
	<rect x="168.71" y="168.21" class="st3" width="2.7" height="0.9"/>
	<rect x="172.51" y="168.21" class="st3" width="2.7" height="0.9"/>
	<rect x="176.31" y="168.21" class="st3" width="2.7" height="0.9"/>
	<rect x="180.1" y="168.21" class="st9" width="2.7" height="0.9"/>
	<rect x="183.9" y="168.21" class="st9" width="2.7" height="0.9"/>
	<rect x="128.82" y="168.97" class="st5" width="58.66" height="1.64"/>
	<rect x="167.81" y="168.97" class="st3" width="19.66" height="1.64"/>
</g>
<g>
	<g>
		<ellipse class="st10" cx="261.14" cy="184.29" rx="5.59" ry="14.67"/>
		<path class="st10" d="M243.77,175.24c1.75,5.5,5.11,9.35,7.5,8.58c2.39-0.76,2.92-5.84,1.17-11.34c-1.75-5.5-5.11-9.35-7.5-8.58
			C242.54,164.66,242.02,169.74,243.77,175.24z"/>
		<path class="st10" d="M284.8,208.42c5.69-0.96,9.97-3.75,9.55-6.23c-0.42-2.48-5.37-3.7-11.07-2.74
			c-5.69,0.96-9.97,3.75-9.55,6.23C274.15,208.16,279.11,209.38,284.8,208.42z"/>
		<path class="st10" d="M238.5,194.86c4.75,4.71,10.37,6.76,12.55,4.57c2.17-2.19,0.08-7.79-4.67-12.51
			c-4.75-4.71-10.37-6.76-12.55-4.57C231.66,184.54,233.75,190.14,238.5,194.86z"/>
		<path class="st10" d="M271.26,181.93c-4.6,6.67-5.97,13.7-3.06,15.7c2.91,2,8.99-1.78,13.59-8.45c4.6-6.67,5.97-13.7,3.06-15.7
			C281.94,171.47,275.86,175.26,271.26,181.93z"/>
		<line class="st11" x1="260.75" y1="198.22" x2="260.32" y2="242.84"/>
		<line class="st11" x1="261.27" y1="178.83" x2="260.75" y2="198.22"/>
		<line class="st11" x1="261.23" y1="175.67" x2="261.27" y2="177.16"/>
		<path class="st11" d="M268.22,196.68c-2.8,5.89-5.08,13.04-5.52,21.16v27.6"/>
		<path class="st11" d="M277.83,181.98c-2.61,3.01-6.44,8.05-9.61,14.7"/>
		<path class="st11" d="M280.85,178.79c0,0-0.58,0.53-1.53,1.54"/>
		<path class="st11" d="M250.7,198.75c3.26,4.51,6.54,10.41,9.07,17.99"/>
		<path class="st11" d="M244.27,191.36c1.97,1.87,4.2,4.31,6.43,7.39"/>
		<path class="st11" d="M237.4,186.12c0,0,1.99,1.02,4.9,3.47"/>
		<path class="st11" d="M250.94,182.46c3.1,9.75,7.26,24.15,9.2,36.66"/>
		<path class="st11" d="M249.05,176.68c0.55,1.64,1.19,3.6,1.89,5.78"/>
		<path class="st11" d="M247.12,171.09c0,0,0.54,1.49,1.41,4.05"/>
		<path class="st11" d="M274.02,204.33c-3.87,1.47-9.16,5.56-11,10.92"/>
		<path class="st11" d="M281.17,202.87c-2.08,0.12-4.64,0.5-7.15,1.45"/>
		<path class="st11" d="M285.8,202.99c0,0-0.69-0.1-1.83-0.14"/>
		<path class="st10" d="M273.63,229.86c5.23,2.44,10.33,2.58,11.4,0.3c1.06-2.28-2.32-6.1-7.55-8.54c-5.23-2.44-10.33-2.58-11.4-0.3
			C265.02,223.6,268.4,227.42,273.63,229.86z"/>
		<path class="st11" d="M273.8,223.24c-1.78-1.08-4.1-2.22-6.71-2.87c0,0-1.75-1.17-3.6,0.07c-0.71,0.47-0.47,4.01-0.47,4.01v18.39"
			/>
		<path class="st11" d="M277.55,225.97c0,0-0.51-0.47-1.42-1.16"/>
		<path class="st10" d="M236.09,208.42c-5.69-0.96-9.97-3.75-9.55-6.23c0.42-2.48,5.37-3.7,11.07-2.74
			c5.69,0.96,9.97,3.75,9.55,6.23C246.74,208.16,241.78,209.38,236.09,208.42z"/>
		<path class="st11" d="M246.75,204.28c0.68,0.25,1.36,0.55,2.03,0.89c4.7,2.42,7.58,7.36,7.58,12.65v24.31"/>
		<path class="st11" d="M239.12,202.85c2.15,0.08,4.91,0.43,7.63,1.44"/>
		<path class="st11" d="M235.09,202.99c0,0,0.45-0.06,1.23-0.11"/>
		<path class="st10" d="M241.8,225.07c-5,2.88-10.07,3.46-11.33,1.28c-1.25-2.18,1.78-6.28,6.78-9.16c5-2.88,10.07-3.45,11.33-1.28
			C249.84,218.09,246.81,222.19,241.8,225.07z"/>
		<path class="st11" d="M240.59,218.85c1.71-1.31,4.05-2.8,6.79-3.75c0,0,6.2-1.02,7.62,2.99"/>
		<path class="st11" d="M237.57,221.53c0,0,0.31-0.34,0.88-0.87"/>
		<path class="st10" d="M254.06,218.32c0,0,7.31-1.41,7.31,3.54c0,4.95-5.19,8.96-7.31,14.62c-2.12,5.66-6.13,5.9-8.25,0.24
			C243.68,231.05,246.75,220.68,254.06,218.32z"/>
		<path class="st10" d="M259.01,218.55c0,0-6.37,2.59-8.25,10.85"/>
		<line class="st11" x1="258.54" y1="229.4" x2="258.54" y2="242.84"/>
	</g>
	<g>
		<path class="st12" d="M246.83,269.02c-1.67-5.21-2.64-11.22-2.64-17.21c0-3.71,0.38-7.25,1.06-10.52h29.79
			c0.68,3.27,1.06,6.81,1.06,10.52c0,5.99-0.97,12-2.64,17.21H246.83z"/>
		<g>
			<path class="st13" d="M275.79,246.21c0.09,0.81,0.15,1.63,0.2,2.46h-31.71c0.05-0.83,0.11-1.65,0.2-2.46H275.79z"/>
			<path class="st13" d="M244.62,258.78c-0.1-0.82-0.19-1.63-0.25-2.46h31.54c-0.07,0.82-0.15,1.64-0.25,2.46H244.62z"/>
		</g>
		<path class="st14" d="M272.23,251.95c0,0.68,0.57,1.24,1.28,1.24c0.71,0,1.28-0.55,1.28-1.24c0-0.68-0.57-1.24-1.28-1.24
			C272.81,250.71,272.23,251.26,272.23,251.95z"/>
		<path class="st14" d="M265.82,251.95c0,0.68,0.57,1.24,1.28,1.24c0.71,0,1.28-0.55,1.28-1.24c0-0.68-0.57-1.24-1.28-1.24
			C266.39,250.71,265.82,251.26,265.82,251.95z"/>
		<path class="st14" d="M259.4,251.95c0,0.68,0.57,1.24,1.28,1.24c0.71,0,1.28-0.55,1.28-1.24c0-0.68-0.57-1.24-1.28-1.24
			C259.97,250.71,259.4,251.26,259.4,251.95z"/>
		<path class="st14" d="M252.98,251.95c0,0.68,0.57,1.24,1.28,1.24c0.71,0,1.28-0.55,1.28-1.24c0-0.68-0.57-1.24-1.28-1.24
			C253.56,250.71,252.98,251.26,252.98,251.95z"/>
		<path class="st14" d="M246.57,251.95c0,0.68,0.57,1.24,1.28,1.24c0.71,0,1.28-0.55,1.28-1.24c0-0.68-0.57-1.24-1.28-1.24
			C247.14,250.71,246.57,251.26,246.57,251.95z"/>
	</g>
</g>
<g>
	<g>
		<path class="st3" d="M81.6,121.06c0,0,5.21-3.32,3.79-7.42c-1.42-4.11-9.32-8.37-9.79-17.06c-0.47-8.69,12.16-13.43,19.11-13.43
			c6.95,0,8.21,0.47,8.53,2.21c0.32,1.74,0.16,2.37,0.16,2.37s1.42,1.26,3.16,3.48s3.48,5.21,3,6.48c-0.47,1.26-0.63,2.69-0.16,4.11
			c0.47,1.42,6,2.37,5.05,3.95c-0.95,1.58-2.69,2.21-2.69,2.21s-0.47,5.21-1.9,9.32c-1.42,4.11-1.42,5.84-4.42,5.84
			c-3,0-4.11-1.9-4.11-1.9l-6.79,6.79L81.6,121.06z"/>
		<path class="st5" d="M105.45,123.11c3,0,3-1.74,4.42-5.84c1.2-3.47,1.73-7.74,1.86-8.97c-0.4-0.05-1.21-0.01-2.8,0.43
			c-2.84,0.78-5.6,3.79-7.72,5.91c-2.12,2.12-2.27,0.3-3.03-4.7c-0.76-5-0.15-10.15-0.15-10.15s3.33-2.88,4.24-6.36
			c0.91-3.48-5-2.73-6.97-3.79c-1.97-1.06,8.1-1.92,8.1-1.92s0.16-0.63-0.16-2.37c-0.32-1.74-1.58-2.21-8.53-2.21
			c-6.95,0-19.59,4.74-19.11,13.43c0.47,8.69,8.37,12.95,9.79,17.06c0.13,0.38,0.21,0.76,0.23,1.12c2.02,0.67,4.16,0.77,5.13-0.88
			c1.51-2.57-1.06-5.76-0.61-9.54c0.45-3.79,4.85-0.61,4.85-0.15c0,0.45,0,6.36,0.15,9.54c0.15,3.18,6.2,7.49,6.2,7.49
			S102.45,123.11,105.45,123.11z"/>
		<path class="st12" d="M108.02,101.08c0,0.96-0.24,1.74-0.53,1.74c-0.29,0-0.53-0.78-0.53-1.74s0.24-1.74,0.53-1.74
			C107.78,99.34,108.02,100.12,108.02,101.08z"/>
		<path class="st2" d="M109.69,113.87c0,0-2.73,0.45-3.48-2.73"/>
		<path class="st15" d="M108.93,98.28c0,0-1.97-2.12-4.24,0.91"/>
		<line class="st16" x1="110.44" y1="97.06" x2="111.66" y2="104.64"/>
		<line class="st16" x1="110.75" y1="99.94" x2="93.94" y2="103.42"/>
		<path class="st3" d="M95.75,104.94c0,0-3.48-6.06-5.76-3.48c-2.27,2.57-1.06,7.88,0.3,9.69c1.36,1.82,4.7,0.76,5.3,0"/>
	</g>
	<path class="st3" d="M138.01,162.04c0,0,6.66-2.27,8.94-1.67c2.27,0.61,5.3,2.88,5.3,2.88s1.36,0.3-1.82,1.06
		c-3.18,0.76-7.57,0.15-10.15-0.3C137.71,163.55,136.34,163.4,138.01,162.04z"/>
	<path class="st3" d="M91.54,167.33l6.78,1.61c0,0,0.16,3.07,3.07,3.55c2.9,0.48,4.71-2.87,5.58-2.89c0.87-0.02,7.33,0.47,7.33,0.47
		l-6.94-9.84l-13.23-3.55L91.54,167.33z"/>
	<path class="st3" d="M160.72,162.38l3.48,0.27c1.09,0.18,2.01,0.92,2.42,1.95l0.75,1.87c0,0,0.14,1.83-0.42,1.97
		c-0.56,0.14-0.43,0.13-0.85-1.41c-0.42-1.55-0.7-1.97-0.7-1.97l-2.25-0.42l1.13,1.13l0.56,2.82c0,0-0.7,0.42-1.41-0.28
		c-0.7-0.7-1.41-2.11-1.41-2.11l-3.8-3.52L160.72,162.38z"/>
	<path class="st3" d="M120.33,159.41l29.31,3.44c0,0,4.91-0.12,9.68-0.7c2.31-0.28,5.05,2.34,5.05,2.34s3.04,0.24,3.51,1.13
		c0.47,0.9,2.04,3.14,0.68,3.32c-1.36,0.18-1.7-1.63-2.47-1.91c-0.76-0.29-3.04-0.24-4.85,0.11c-1.81,0.34-4.81,1.47-7.54,1.38
		s-4.58-1.56-4.58-1.56s-26.72,4.08-29.9,4.15c-3.18,0.07-5.93-0.78-5.93-0.78L120.33,159.41z"/>
	<path class="st3" d="M114.69,154.92c0,0,0.61-0.76,1.51,0.45c0.91,1.21,1.51,2.12,2.27,2.57s2.88-0.15,1.82,2.88
		c-1.06,3.03-4.39,9.54-7.57,11.06s-5.15-0.76-5.76-2.27c-0.61-1.51-3.63-0.76-3.48-4.39C103.63,161.58,114.69,154.92,114.69,154.92
		z"/>
	<path class="st3" d="M113.63,256.56c0,0,2.73,0,4.39-0.29c1.66-0.29,8.89-2.34,9.13-1.02c0.24,1.32,0.24,1.61-2.61,5.12
		c-2.85,3.51-6.76,3.8-8.89,4.53c-2.13,0.73-3.32,1.32-6.64,2.34c-3.32,1.02-4.03-5.85-4.03-8.04
		C104.97,257,113.63,256.56,113.63,256.56z"/>
	<path class="st5" d="M92.42,207.47c0,0,7.25,42.04,9.22,47.04c1.97,5,3.18,7.42,3.18,7.42s1.06,0.76,4.39-0.76
		c3.33-1.51,7.12-4.85,7.12-4.85s-0.61-2.12-1.67-2.88c-1.06-0.76-3.33-0.45-3.33-2.12c0-1.67,1.38-46.43,1.38-46.43L92.42,207.47z"
		/>
	<path class="st3" d="M88.92,256.48c0,0,3.94,4.24,4.7,5c0.76,0.76,11.06,5.45,10.45,6.66c-0.61,1.21-13.48,1.06-16.05,0.3
		c-1.31-0.38-7.72-3.33-10.6-4.7c-2.88-1.36,4.24-8.03,4.24-8.03L88.92,256.48z"/>
	<g>
		<path class="st5" d="M54.26,185.06c0,0-0.01,0.16-0.03,0.44c-0.17,2.72-0.94,17.13,1.39,20c2.57,3.18,11.81,3.94,20.29,3.94
			s31.5-2.12,31.5-2.12l-25.77,48.4l8.78,2.12c0,0,26.22-34.16,29.71-39.16c3.48-5,6.36-10,8.78-12.87
			c2.42-2.88,5.45-9.69,4.54-11.81c-0.91-2.12-10.45-3.18-21.66-5.15c-11.21-1.97-25.75-2.12-25.75-2.12s-2.42,1.51-13.33,1.51
			S54.26,185.06,54.26,185.06z"/>
		<path class="st17" d="M107.42,207.32c0,0,12.72-1.36,16.81-3.94"/>
		<path class="st17" d="M126.8,205.2c0,0-7.27,8.33-17.72,15.3"/>
		<path class="st9" d="M78.49,190.21c0,0-6.36,5.91-11.36,9.09"/>
		<path class="st9" d="M80.61,189.6c0,0-3.48,5.76-6.06,9.39"/>
	</g>
	<path class="st3" d="M78.64,121.45c0,0-9.39,6.06-14.54,14.24c-5.15,8.18-6.21,17.72-6.66,18.93c-0.45,1.21-2.73,21.66-2.73,21.66
		s-3.44,5.39-1.51,8.48c1.51,2.42,0.45,2.42,4.39,3.33c1.48,0.34,13.78,2.42,21.2,1.51c7.42-0.91,9.84-4.09,10.6-6.21
		c0.76-2.12,0.3-6.51,0.76-9.09c0.45-2.57,6.51-12.27,6.51-12.27s7.12,5.15,8.33,5.6c1.21,0.45,4.39-1.97,7.88-6.66
		c3.48-4.7,2.57-4.7,0.91-6.97c-1.67-2.27-6.82-11.66-8.03-14.54c-1.21-2.88-4.69-4.85-4.69-4.85S87.27,121.14,78.64,121.45z"/>
	<path class="st3" d="M76.97,122.36c0,0,3.33-0.3,8.18,1.97c4.85,2.27,15.9,10.3,15.9,10.3l-0.91-6.97c0,0-13.78-8.48-15.6-9.24
		c-1.82-0.76-3.03,0-5,1.82C77.58,122.05,76.97,122.36,76.97,122.36z"/>
	<line class="st9" x1="96.66" y1="162.04" x2="86.82" y2="153.56"/>
	<path class="st9" d="M92.12,158.55c0,0-7.42,1.97-11.51,1.97"/>
	<path class="st9" d="M93.03,158.55c0,0-5,5.3-10.15,8.18"/>
</g>
<g>
	<g>
		<g>
			<path class="st3" d="M64.13,186.53c0,0,1.52-5.95-0.47-6.88c-1.98-0.93-15.05,0.23-22.63,2.57c-7.58,2.33-10.5,7.35-9.68,7.35
				S58.65,184.78,64.13,186.53z"/>
			<path class="st3" d="M64.51,180.84c-4.85,0.03-13.68,1.13-19.39,2.89c-4.18,1.29-6.94,3.39-8.44,5.01
				c8.22-1.28,23.45-3.49,27.46-2.21C64.13,186.53,65.06,182.87,64.51,180.84z"/>
		</g>
		<path class="st18" d="M35.08,187.93c0,0-8.52,1.52-9.1,5.72c-0.58,4.2,5.37,4.9,8.52,1.28c3.15-3.62,15.52-6.88,20.53-7
			c5.02-0.12,5.48,0.93,5.13,4.2c-0.35,3.27-9.68,16.8-10.73,20.18c-1.05,3.38,4.67,6.3,6.42,3.73c1.75-2.57,7.35-19.13,7.58-24.73
			c0.23-5.6-1.17-6.18-5.48-6.65C53.63,184.2,40.68,185.83,35.08,187.93z"/>
		<path class="st19" d="M36.48,187.93c0,0-8.52,1.52-9.1,5.72c-0.58,4.2,5.37,4.9,8.52,1.28c3.15-3.62,15.52-6.88,20.53-7
			c5.02-0.12,5.48,0.93,5.13,4.2c-0.35,3.27-9.68,16.8-10.73,20.18c-1.05,3.38,4.67,6.3,6.42,3.73c1.75-2.57,7.35-19.13,7.58-24.73
			c0.23-5.6-1.17-6.18-5.48-6.65S42.08,185.83,36.48,187.93z"/>
	</g>
	<path class="st5" d="M69.89,242.18c0,0-23.57,5.6-31.26,10.73c-7.7,5.13-7.7,9.8-7.7,9.8s0,1.63,3.27,0
		c3.27-1.63,4.67-5.83,8.87-7.47c4.2-1.63,26.12-5.61,26.12-5.61L69.89,242.18z"/>
	<g>
		<path class="st5" d="M39.07,264.99c0-2.06-1.67-3.72-3.72-3.72c-2.06,0-3.72,1.67-3.72,3.72c0,2.06,1.67,3.72,3.72,3.72
			C37.4,268.72,39.07,267.05,39.07,264.99z"/>
		<circle class="st3" cx="35.34" cy="264.99" r="1.56"/>
	</g>
	<path class="st5" d="M74.78,242.18c0,0,23.57,5.6,31.26,10.73c7.7,5.13,7.7,9.8,7.7,9.8s0,1.63-3.27,0
		c-3.27-1.63-4.67-5.83-8.87-7.47c-4.2-1.63-26.12-5.61-26.12-5.61L74.78,242.18z"/>
	<g>
		<path class="st5" d="M105.6,264.99c0-2.06,1.67-3.72,3.72-3.72c2.06,0,3.72,1.67,3.72,3.72c0,2.06-1.67,3.72-3.72,3.72
			C107.26,268.72,105.6,267.05,105.6,264.99z"/>
		<path class="st3" d="M107.76,264.99c0-0.86,0.7-1.56,1.56-1.56c0.86,0,1.56,0.7,1.56,1.56c0,0.86-0.7,1.56-1.56,1.56
			C108.46,266.55,107.76,265.85,107.76,264.99z"/>
	</g>
	<rect x="69.17" y="224.04" class="st5" width="7.15" height="25.59"/>
	<rect x="56.48" y="218.57" class="st5" width="34.5" height="5.42"/>
	<path class="st4" d="M108.85,203.68c-3.11-5.91-9.33-9.02-15.87-5.91c-6.53,3.11-16.18,8.09-16.18,8.09s0-16.8-2.8-24.89
		c-2.8-8.09-5.91-9.64-3.42-16.18c2.49-6.53,6.24-6.15,5.29-16.18c-0.64-6.73-6.53-10.27-6.53-10.27s-9.64-6.53-13.38-17.11
		c-3.73-10.58-1.56-13.07-12.75-14.93c-11.2-1.87-14.31,6.84-15.24,17.11c-0.93,10.27-10.58,20.53-8.4,29.55
		c2.18,9.02,5.29,12.13,6.84,16.8c1.56,4.67,8.4,43.55,9.64,46.35s7.16,3.42,8.09,3.42c0.93,0,62.84,0,62.84,0
		S111.96,209.59,108.85,203.68z M34.14,137.73c-1.52,0-2.75-1.23-2.75-2.75c0-0.82,0.36-1.59,0.99-2.12l4.25-3.53l2.96-0.31
		l0.81,8.71H34.14z M50.73,137.73h-6.27l-1.25-8.71l3.04,0.31l5.09,3.53c0.75,0.52,1.3,1.3,1.5,2.12
		C53.19,136.49,52.25,137.73,50.73,137.73z"/>
	<path class="st5" d="M67.02,219.54c0.66-10.82-1.69-31.84-6.09-51.69c-4.62-20.9-2.14-36.15-1.44-39.67
		c-0.17-0.25-0.34-0.51-0.51-0.78H27.21c-1,3.59-2.73,7.15-4.33,10.65c0,1.47,0.04,3.07,0.16,4.81c0.64,9.74,2.96,25.62,2.96,25.62
		s0.02,0.11,0.06,0.32c0.12,0.32,0.24,0.63,0.35,0.96c1.56,4.67,8.4,43.55,9.64,46.35s7.16,3.42,8.09,3.42
		C44.52,219.54,54.85,219.54,67.02,219.54z M34.14,137.73c-1.52,0-2.75-1.23-2.75-2.75c0-0.82,0.36-1.59,0.99-2.12l4.25-3.53
		l2.96-0.31l0.81,8.71H34.14z M46.25,129.33l5.09,3.53c0.75,0.52,1.3,1.3,1.5,2.12c0.36,1.52-0.58,2.75-2.1,2.75h-6.27l-1.25-8.71
		L46.25,129.33z"/>
	<rect x="35.74" y="199.19" class="st19" width="21.81" height="2.33"/>
	<polygon class="st19" points="43.51,201.49 47.55,219.26 50.38,219.26 46.33,201.49 	"/>
	<g>
		<circle class="st19" cx="52.9" cy="221.92" r="5.77"/>
		<circle class="st5" cx="55.21" cy="221.92" r="3.92"/>
	</g>
	<polygon class="st5" points="74.37,241.68 70.65,241.68 70.65,255.14 71.73,257.9 71.73,263.91 73.29,263.91 73.29,257.9 
		74.37,255.14 	"/>
	<path class="st5" d="M72.51,268.84L72.51,268.84c-0.66,0-1.2-0.54-1.2-1.2v-5.17c0-0.66,0.54-1.2,1.2-1.2l0,0
		c0.66,0,1.2,0.54,1.2,1.2v5.17C73.71,268.3,73.17,268.84,72.51,268.84z"/>
	<g>
		<g>
			<path class="st18" d="M106.75,186.53c0,0,1.52-4.55-0.47-5.48c-1.98-0.93-15.05-1.17-22.63,1.17c-7.58,2.33-10.5,7.35-9.68,7.35
				C74.78,189.56,101.27,184.78,106.75,186.53z"/>
		</g>
		<path class="st19" d="M85.97,182.82c-5.49,1.69-8.54,4.79-9.49,6.37c6.89-1.09,25.73-4.1,30.26-2.66c0,0,1.35-4.07-0.18-5.3
			C102.13,180.72,92.2,180.9,85.97,182.82z"/>
		<path class="st18" d="M77.7,187.93c0,0-8.52,1.52-9.1,5.72c-0.58,4.2,5.37,4.9,8.52,1.28c3.15-3.62,15.52-6.88,20.53-7
			c5.02-0.12,5.48,0.93,5.13,4.2c-0.35,3.27-9.68,16.8-10.73,20.18c-1.05,3.38,4.67,6.3,6.42,3.73c1.75-2.57,7.35-19.13,7.58-24.73
			c0.23-5.6-1.17-6.18-5.48-6.65C96.25,184.2,83.3,185.83,77.7,187.93z"/>
		<path class="st19" d="M79.1,187.93c0,0-8.52,1.52-9.1,5.72c-0.58,4.2,5.37,4.9,8.52,1.28c3.15-3.62,15.52-6.88,20.53-7
			c5.02-0.12,5.48,0.93,5.13,4.2c-0.35,3.27-9.68,16.8-10.73,20.18c-1.05,3.38,4.67,6.3,6.42,3.73c1.75-2.57,7.35-19.13,7.58-24.73
			c0.23-5.6-1.17-6.18-5.48-6.65S84.7,185.83,79.1,187.93z"/>
	</g>
</g>
<g>
	<line class="st9" x1="209.24" y1="269.02" x2="298.84" y2="269.02"/>
	<line class="st9" x1="0.99" y1="269.02" x2="206.17" y2="269.02"/>
</g>
</svg>
