<?xml version="1.0" encoding="utf-8"?>
<!-- Generator: Adobe Illustrator 27.2.0, SVG Export Plug-In . SVG Version: 6.00 Build 0)  -->
<svg version="1.1" id="Camada_1" xmlns="http://www.w3.org/2000/svg" xmlns:xlink="http://www.w3.org/1999/xlink" x="0px" y="0px"
	 viewBox="0 0 300 300" style="enable-background:new 0 0 300 300;" xml:space="preserve">
<style type="text/css">
	.st0{fill:#9ACDA3;}
	.st1{fill:#99CCEF;}
	.st2{opacity:0.2;fill:#263239;}
	.st3{opacity:0.2;fill:#010202;}
	.st4{fill:#FFFFFF;stroke:#263239;stroke-miterlimit:10;}
	.st5{fill:#263239;stroke:#FFFFFF;stroke-miterlimit:10;}
	.st6{opacity:0.2;}
	.st7{fill:#FFFFFF;}
	.st8{fill:#FFD600;stroke:#263239;stroke-linecap:round;stroke-linejoin:round;stroke-miterlimit:10;}
	.st9{fill:#263239;}
	.st10{opacity:0.5;clip-path:url(#XMLID_00000031910757787036732300000000611661438422846654_);}
	.st11{fill:#2578BD;}
	.st12{opacity:0.5;fill:#2578BD;}
	.st13{opacity:0.5;}
	.st14{fill:none;}
	.st15{fill:none;stroke:#263239;stroke-miterlimit:10;}
	.st16{opacity:0.5;clip-path:url(#XMLID_00000125574114307647240620000009361258082593214390_);fill:#2578BD;}
	.st17{clip-path:url(#XMLID_00000125574114307647240620000009361258082593214390_);}
	.st18{opacity:0.5;clip-path:url(#XMLID_00000125574114307647240620000009361258082593214390_);fill:#FFFFFF;}
	.st19{opacity:0.5;clip-path:url(#XMLID_00000125574114307647240620000009361258082593214390_);}
	.st20{fill:none;stroke:#263239;stroke-linecap:round;stroke-linejoin:round;stroke-miterlimit:10;}
	.st21{fill:#FFFFFF;stroke:#263239;stroke-linecap:round;stroke-linejoin:round;stroke-miterlimit:10;}
	.st22{fill:#59575D;stroke:#263239;stroke-linecap:round;stroke-linejoin:round;stroke-miterlimit:10;}
	.st23{fill:#7D7B80;stroke:#263239;stroke-linecap:round;stroke-linejoin:round;stroke-miterlimit:10;}
	.st24{fill:#A9A7AB;stroke:#263239;stroke-linecap:round;stroke-linejoin:round;stroke-miterlimit:10;}
	.st25{opacity:0.5;fill:#FFFFFF;}
	.st26{opacity:0.1;fill:#FFFFFF;}
	.st27{opacity:0.25;clip-path:url(#XMLID_00000163039340502343844100000004145363185556638864_);}
</style>
<g>
	<path class="st0" d="M297.87,152.76c0,6.14-0.67,12.26-2.13,18.21c-0.48,1.96-1.05,3.91-1.71,5.82c-0.19,0.55-0.38,1.1-0.59,1.64
		c-0.17,0.45-0.34,0.9-0.51,1.34c-0.05,0.12-0.1,0.24-0.15,0.36c-0.19,0.46-0.37,0.92-0.57,1.37c-0.03,0.07-0.06,0.15-0.1,0.22
		c-0.19,0.45-0.39,0.9-0.59,1.34c-0.09,0.2-0.18,0.39-0.27,0.58c-0.18,0.4-0.36,0.79-0.56,1.18c-0.2,0.42-0.4,0.82-0.61,1.23
		c-0.08,0.15-0.15,0.29-0.22,0.43c-0.18,0.35-0.36,0.7-0.54,1.05c-0.15,0.27-0.29,0.54-0.44,0.81c-0.68,1.25-1.39,2.49-2.13,3.71
		c-0.3,0.5-0.61,1-0.92,1.49c-0.07,0.12-0.15,0.24-0.22,0.36c-0.36,0.56-0.72,1.13-1.09,1.69c-0.3,0.45-0.6,0.91-0.91,1.36
		c-0.27,0.4-0.54,0.79-0.81,1.18c-0.06,0.08-0.12,0.17-0.18,0.25c-0.28,0.41-0.58,0.82-0.86,1.23c-0.36,0.51-0.72,1-1.09,1.5
		c-0.08,0.1-0.15,0.2-0.22,0.3c-0.42,0.57-0.84,1.13-1.27,1.69c-0.26,0.33-0.51,0.67-0.77,1c-0.46,0.61-0.93,1.21-1.41,1.81
		c-0.45,0.58-0.91,1.14-1.38,1.71c-0.05,0.06-0.1,0.12-0.15,0.19c-0.46,0.57-0.92,1.13-1.39,1.69c-0.13,0.17-0.28,0.35-0.42,0.51
		c-0.43,0.52-0.86,1.04-1.3,1.55c-1.25,1.48-2.52,2.95-3.79,4.41c-2.59,2.98-5.24,5.94-7.93,8.88c-2.24,2.43-4.52,4.85-6.84,7.22
		c-11.14,11.44-23.19,22.11-36.31,30.61c-1.63,1.05-3.27,2.08-4.94,3.06c-0.61,0.36-1.21,0.72-1.82,1.07
		c-0.1,0.06-0.21,0.12-0.31,0.18c-0.63,0.36-1.25,0.71-1.89,1.05c-0.65,0.36-1.29,0.71-1.94,1.05c-0.29,0.15-0.59,0.31-0.88,0.46
		c-1.27,0.66-2.56,1.3-3.86,1.92c-0.7,0.33-1.39,0.65-2.1,0.97c-0.65,0.29-1.3,0.58-1.95,0.86c-0.27,0.12-0.53,0.23-0.8,0.34
		c-0.59,0.26-1.2,0.5-1.8,0.74c-1.16,0.47-2.33,0.91-3.5,1.34c-0.45,0.17-0.9,0.33-1.36,0.49c-0.26,0.09-0.51,0.17-0.77,0.26
		c-0.42,0.14-0.84,0.28-1.27,0.42c-0.36,0.12-0.74,0.24-1.1,0.35c-0.01,0.01-0.03,0.01-0.04,0.01c-0.72,0.22-1.44,0.44-2.17,0.65
		c-1.14,0.33-2.29,0.64-3.44,0.93c-0.76,0.19-1.52,0.37-2.29,0.54c-0.72,0.17-1.44,0.32-2.17,0.47c-0.06,0.01-0.12,0.03-0.17,0.03
		c-0.75,0.15-1.52,0.3-2.28,0.43c-0.39,0.07-0.77,0.13-1.16,0.2s-0.78,0.13-1.18,0.19c-0.35,0.06-0.71,0.11-1.06,0.15
		c-0.43,0.06-0.86,0.12-1.29,0.18c-4.55,0.58-9.1,0.82-13.66,0.77c-0.27,0-0.54-0.01-0.82-0.01c-4.13-0.08-8.26-0.4-12.37-0.93
		c-0.3-0.04-0.6-0.08-0.9-0.12c-0.52-0.07-1.04-0.14-1.55-0.22c-0.4-0.06-0.81-0.13-1.21-0.19c-1.71-0.27-3.4-0.58-5.1-0.92
		c-0.38-0.07-0.75-0.15-1.12-0.23c-1.14-0.24-2.28-0.49-3.41-0.76c-0.76-0.18-1.52-0.36-2.27-0.56c-0.38-0.1-0.75-0.19-1.13-0.29
		c-0.38-0.1-0.75-0.2-1.13-0.3c-1.5-0.4-3-0.84-4.49-1.29c-1.73-0.52-3.45-1.08-5.17-1.67c-0.62-0.21-1.25-0.43-1.87-0.65
		c-1.92-0.68-3.85-1.41-5.75-2.15c-0.34-0.13-0.68-0.27-1.04-0.42c-0.27-0.12-0.55-0.24-0.84-0.36c-0.19-0.08-0.37-0.17-0.56-0.26
		c-1.24-0.56-2.59-1.22-4.04-1.96c-0.24-0.13-0.49-0.26-0.74-0.38c-0.89-0.47-1.82-0.96-2.77-1.48c-2-1.1-4.14-2.31-6.39-3.64
		c-25.58-15.05-64.74-43.29-73.93-54c-0.47-0.54-0.92-1.09-1.37-1.65c-0.35-0.43-0.7-0.88-1.04-1.32c-0.31-0.4-0.62-0.81-0.92-1.22
		c-0.27-0.36-0.53-0.72-0.79-1.09c-0.24-0.34-0.49-0.68-0.72-1.03c-0.01-0.03-0.03-0.05-0.05-0.08c-0.29-0.43-0.58-0.86-0.86-1.29
		c-0.27-0.42-0.54-0.83-0.79-1.25c-0.13-0.2-0.25-0.4-0.37-0.61c-0.29-0.47-0.57-0.95-0.84-1.42c0-0.01,0-0.01-0.01-0.01
		c-0.29-0.52-0.59-1.05-0.88-1.58c-0.5-0.93-0.98-1.86-1.43-2.81c-0.12-0.24-0.23-0.49-0.35-0.74c-0.91-1.94-1.71-3.93-2.39-5.94
		c-0.25-0.7-0.47-1.41-0.69-2.12c-0.27-0.91-0.52-1.83-0.75-2.76c-0.04-0.19-0.09-0.36-0.13-0.55c-0.12-0.48-0.22-0.97-0.32-1.45
		c-0.15-0.68-0.27-1.36-0.38-2.04c-0.03-0.17-0.06-0.33-0.08-0.5c-0.06-0.35-0.11-0.7-0.15-1.06c-0.06-0.42-0.11-0.85-0.15-1.27
		c-0.02-0.15-0.03-0.29-0.04-0.43c-0.04-0.36-0.06-0.73-0.1-1.09c0-0.03,0-0.06-0.01-0.09c-0.03-0.43-0.06-0.86-0.07-1.29
		C2,172.28,2,172.24,2,172.21c-0.02-0.45-0.03-0.91-0.04-1.36c0-0.17,0-0.34,0-0.51c0-0.27,0-0.53,0-0.8c0.01-0.67,0.03-1.33,0.07-2
		c0.03-0.43,0.06-0.87,0.1-1.3c0.08-0.86,0.18-1.71,0.31-2.56c0.06-0.43,0.13-0.87,0.22-1.3c0.15-0.86,0.34-1.73,0.56-2.59
		c0.58-2.27,1.31-4.46,2.21-6.55c0.68-1.62,1.44-3.17,2.3-4.69c0.06-0.13,0.14-0.26,0.22-0.39c3.45-6.07,8.13-11.45,13.41-16.44
		c0.56-0.54,1.13-1.06,1.71-1.58c0.61-0.56,1.22-1.1,1.84-1.65c0.04-0.03,0.08-0.07,0.12-0.1c0.99-0.87,1.99-1.73,3.01-2.58
		c1.57-1.31,3.16-2.6,4.76-3.87c0.05-0.04,0.11-0.08,0.16-0.13c1.37-1.09,2.76-2.17,4.14-3.24c2.17-1.68,4.35-3.36,6.49-5.03
		c0.57-0.44,1.13-0.88,1.69-1.32c0.62-0.49,1.23-0.97,1.83-1.46c5.73-4.59,10.66-9.47,15.25-14.47c0.89-0.97,1.77-1.95,2.65-2.93
		c0.42-0.47,0.83-0.94,1.24-1.41c5.84-6.65,11.26-13.37,17.31-19.72c1.44-1.52,2.91-3,4.42-4.47c1.28-1.22,2.58-2.42,3.93-3.6
		c1.54-1.36,3.13-2.68,4.79-3.96c2.27-1.76,4.66-3.46,7.22-5.08c0.63-0.4,1.25-0.79,1.87-1.18c63.75-39.62,110.67-26.69,141.97,0
		c2.36,2,4.64,4.09,6.82,6.25c1.33,1.29,2.61,2.61,3.86,3.96c0.14,0.14,0.27,0.29,0.4,0.44c0.88,0.93,1.73,1.87,2.56,2.82
		c0.25,0.28,0.49,0.56,0.74,0.84c0.36,0.42,0.73,0.84,1.09,1.27c0.44,0.52,0.88,1.04,1.31,1.57c0.27,0.33,0.54,0.66,0.81,1
		c1.75,2.15,3.41,4.33,4.99,6.52c0.32,0.43,0.63,0.88,0.95,1.32c2.19,3.07,4.22,6.17,6.11,9.25c0.27,0.44,0.54,0.88,0.8,1.32
		c0.27,0.44,0.53,0.88,0.79,1.32c0.26,0.43,0.51,0.88,0.76,1.31c0.26,0.44,0.51,0.88,0.75,1.31c0.24,0.43,0.49,0.88,0.73,1.31
		c0.25,0.43,0.49,0.87,0.71,1.3c0.24,0.43,0.47,0.87,0.7,1.3c0.23,0.43,0.45,0.86,0.68,1.29c0.22,0.43,0.44,0.86,0.66,1.28
		c0.22,0.43,0.43,0.86,0.64,1.28c0.84,1.69,1.63,3.36,2.38,5c0.37,0.83,0.74,1.66,1.09,2.47c1.59,3.66,2.95,7.15,4.07,10.41
		c0.01,0.01,0.01,0.03,0.01,0.04c0.11,0.31,0.21,0.62,0.31,0.93c0.11,0.32,0.21,0.63,0.31,0.95c0.08,0.24,0.16,0.48,0.23,0.72
		c0.12,0.36,0.23,0.72,0.34,1.08c0.12,0.39,0.24,0.78,0.35,1.17c0.21,0.72,0.42,1.43,0.61,2.15c0.17,0.61,0.33,1.21,0.48,1.83
		c0.03,0.12,0.06,0.22,0.09,0.34c0.03,0.1,0.04,0.19,0.07,0.29c0.09,0.36,0.18,0.72,0.26,1.08c0.23,0.95,0.44,1.91,0.64,2.87
		c0.11,0.52,0.22,1.04,0.31,1.57c0.02,0.1,0.04,0.19,0.06,0.29c0.1,0.49,0.19,0.98,0.27,1.48c0.12,0.66,0.22,1.32,0.32,1.98
		c0.08,0.5,0.15,1,0.22,1.51c0.01,0.07,0.02,0.15,0.03,0.22c0.04,0.33,0.09,0.67,0.13,1.01c0.04,0.28,0.07,0.56,0.1,0.84
		c0.12,1.02,0.22,2.03,0.3,3.04c0.02,0.23,0.04,0.46,0.06,0.69c0.03,0.38,0.05,0.77,0.08,1.16c0.03,0.43,0.05,0.86,0.07,1.29
		c0.02,0.33,0.03,0.66,0.04,0.99c0.02,0.49,0.03,0.98,0.04,1.46C297.86,151.62,297.87,152.19,297.87,152.76z"/>
	<g>
		<path class="st1" d="M297.87,152.76c0,6.14-0.67,12.26-2.13,18.21c-0.48,1.96-1.05,3.91-1.71,5.82c-0.19,0.55-0.38,1.1-0.59,1.64
			c-0.17,0.45-0.34,0.9-0.51,1.34c-0.05,0.12-0.1,0.24-0.15,0.36c-0.19,0.46-0.37,0.92-0.57,1.37c-0.03,0.07-0.06,0.15-0.1,0.22
			c-0.19,0.45-0.39,0.9-0.59,1.34c-0.09,0.2-0.18,0.39-0.27,0.58c-0.18,0.4-0.36,0.79-0.56,1.18c-0.2,0.42-0.4,0.82-0.61,1.23
			c-0.08,0.15-0.15,0.29-0.22,0.43c-0.18,0.35-0.36,0.7-0.54,1.05c-0.15,0.27-0.29,0.54-0.44,0.81c-0.68,1.25-1.39,2.49-2.13,3.71
			c-0.3,0.5-0.61,1-0.92,1.49c-0.07,0.12-0.15,0.24-0.22,0.36c-0.36,0.56-0.72,1.13-1.09,1.69c-0.3,0.45-0.6,0.91-0.91,1.36
			c-0.27,0.4-0.54,0.79-0.81,1.18c-0.06,0.08-0.12,0.17-0.18,0.25c-0.28,0.41-0.58,0.82-0.86,1.23c-0.36,0.51-0.72,1-1.09,1.5
			c-0.08,0.1-0.15,0.2-0.22,0.3c-0.42,0.57-0.84,1.13-1.27,1.69c-0.26,0.33-0.51,0.67-0.77,1c-0.46,0.61-0.93,1.21-1.41,1.81
			c-0.45,0.58-0.91,1.14-1.38,1.71c-0.05,0.06-0.1,0.12-0.15,0.19c-0.46,0.57-0.92,1.13-1.39,1.69c-0.13,0.17-0.28,0.35-0.42,0.51
			c-0.43,0.52-0.86,1.04-1.3,1.55c-1.25,1.48-2.52,2.95-3.79,4.41c-2.59,2.98-5.24,5.94-7.93,8.88c-2.24,2.43-4.52,4.85-6.84,7.22
			c-11.14,11.44-23.19,22.11-36.31,30.61c-1.63,1.05-3.27,2.08-4.94,3.06c-0.61,0.36-1.21,0.72-1.82,1.07
			c-0.1,0.06-0.21,0.12-0.31,0.18c-0.63,0.36-1.25,0.71-1.89,1.05c-0.65,0.36-1.29,0.71-1.94,1.05c-0.29,0.15-0.59,0.31-0.88,0.46
			c-1.27,0.66-2.56,1.3-3.86,1.92c-0.7,0.33-1.39,0.65-2.1,0.97c-0.65,0.29-1.3,0.58-1.95,0.86c-0.27,0.12-0.53,0.23-0.8,0.34
			c-0.59,0.26-1.2,0.5-1.8,0.74c-1.16,0.47-2.33,0.91-3.5,1.34c-0.45,0.17-0.9,0.33-1.36,0.49c-0.26,0.09-0.51,0.17-0.77,0.26
			c-0.42,0.14-0.84,0.28-1.27,0.42c-0.36,0.12-0.74,0.24-1.1,0.35c-0.01,0.01-0.03,0.01-0.04,0.01c-0.72,0.22-1.44,0.44-2.17,0.65
			c-1.14,0.33-2.29,0.64-3.44,0.93c-0.76,0.19-1.52,0.37-2.29,0.54c-0.72,0.17-1.44,0.32-2.17,0.47c-0.06,0.01-0.12,0.03-0.17,0.03
			c-0.75,0.15-1.52,0.3-2.28,0.43c-0.39,0.07-0.77,0.13-1.16,0.2s-0.78,0.13-1.18,0.19c-0.35,0.06-0.71,0.11-1.06,0.15
			c-0.43,0.06-0.86,0.12-1.29,0.18c-4.55,0.58-9.1,0.82-13.66,0.77c-0.27,0-0.54-0.01-0.82-0.01c-4.13-0.08-8.26-0.4-12.37-0.93
			c-0.3-0.04-0.6-0.08-0.9-0.12c-0.52-0.07-1.04-0.14-1.55-0.22c-0.4-0.06-0.81-0.13-1.21-0.19c-1.71-0.27-3.4-0.58-5.1-0.92
			c-0.38-0.07-0.75-0.15-1.12-0.23c-1.14-0.24-2.28-0.49-3.41-0.76c-0.76-0.18-1.52-0.36-2.27-0.56c-0.38-0.1-0.75-0.19-1.13-0.29
			c-0.38-0.1-0.75-0.2-1.13-0.3c-1.5-0.4-3-0.84-4.49-1.29c-1.73-0.52-3.45-1.08-5.17-1.67c-0.62-0.21-1.25-0.43-1.87-0.65
			c-1.92-0.68-3.85-1.41-5.75-2.15c-0.34-0.13-0.68-0.27-1.04-0.42c-0.27-0.12-0.55-0.24-0.84-0.36c-0.19-0.08-0.37-0.17-0.56-0.26
			c-1.24-0.56-2.59-1.22-4.04-1.96c-0.24-0.13-0.49-0.26-0.74-0.38c-0.89-0.47-1.82-0.96-2.77-1.48c-2-1.1-4.14-2.31-6.39-3.64
			c-25.58-15.05-64.74-43.29-73.93-54c-0.47-0.54-0.92-1.09-1.37-1.65c-0.35-0.43-0.7-0.88-1.04-1.32c-0.31-0.4-0.62-0.81-0.92-1.22
			c-0.27-0.36-0.53-0.72-0.79-1.09c-0.24-0.34-0.49-0.68-0.72-1.03c-0.01-0.03-0.03-0.05-0.05-0.08c-0.29-0.43-0.58-0.86-0.86-1.29
			c-0.27-0.42-0.54-0.83-0.79-1.25c-0.13-0.2-0.25-0.4-0.37-0.61c-0.29-0.47-0.57-0.95-0.84-1.42c0-0.01,0-0.01-0.01-0.01
			c-0.29-0.52-0.59-1.05-0.88-1.58c-0.5-0.93-0.98-1.86-1.43-2.81c-0.12-0.24-0.23-0.49-0.35-0.74c-0.91-1.94-1.71-3.93-2.39-5.94
			c-0.25-0.7-0.47-1.41-0.69-2.12c-0.27-0.91-0.52-1.83-0.75-2.76c-0.04-0.19-0.09-0.36-0.13-0.55c-0.12-0.48-0.22-0.97-0.32-1.45
			c-0.15-0.68-0.27-1.36-0.38-2.04c-0.03-0.17-0.06-0.33-0.08-0.5c-0.06-0.35-0.11-0.7-0.15-1.06c-0.06-0.42-0.11-0.85-0.15-1.27
			c-0.02-0.15-0.03-0.29-0.04-0.43c-0.04-0.36-0.06-0.73-0.1-1.09c0-0.03,0-0.06-0.01-0.09c-0.03-0.43-0.06-0.86-0.07-1.29
			C2,172.28,2,172.24,2,172.21c-0.02-0.45-0.03-0.91-0.04-1.36c-0.02-1.11,0.01-2.21,0.07-3.31c0.03-0.43,0.06-0.87,0.1-1.3
			c0.08-0.86,0.18-1.71,0.31-2.56c0.06-0.43,0.13-0.87,0.22-1.3c0.15-0.86,0.34-1.73,0.56-2.59c0.58-2.27,1.31-4.46,2.21-6.55
			c0.68-1.62,1.44-3.17,2.3-4.69c0.06-0.13,0.14-0.26,0.22-0.39c3.45-6.07,8.13-11.45,13.41-16.44c0.3-0.29,0.6-0.57,0.91-0.85
			c0.27-0.24,0.54-0.49,0.81-0.73c0.61-0.56,1.22-1.1,1.84-1.65c0.04-0.03,0.08-0.07,0.12-0.1c0.99-0.87,1.99-1.73,3.01-2.58
			c1.57-1.31,3.16-2.6,4.76-3.87c0.05-0.04,0.11-0.08,0.16-0.13c1.37-1.09,2.76-2.17,4.14-3.24c0.7-0.54,1.39-1.07,2.08-1.61
			c1.48-1.14,2.95-2.28,4.4-3.41c0.57-0.44,1.13-0.88,1.69-1.32c0.62-0.49,1.23-0.97,1.83-1.46c5.73-4.59,10.66-9.47,15.25-14.47
			c0.89-0.97,1.77-1.95,2.65-2.93c0.42-0.47,0.83-0.94,1.24-1.41c5.84-6.65,11.26-13.37,17.31-19.72c1.44-1.52,2.91-3,4.42-4.47
			c1.28-1.22,2.58-2.42,3.93-3.6c1.54-1.36,3.13-2.68,4.79-3.96c2.27-1.76,4.66-3.46,7.22-5.08c0.63-0.4,1.25-0.79,1.87-1.18
			c63.75-39.62,110.67-26.69,141.97,0c2.36,2,4.64,4.09,6.82,6.25c1.33,1.29,2.61,2.61,3.86,3.96c0.14,0.14,0.27,0.29,0.4,0.44
			c0.88,0.93,1.73,1.87,2.56,2.82c0.25,0.28,0.49,0.56,0.74,0.84c0.36,0.42,0.73,0.84,1.09,1.27c0.44,0.52,0.88,1.04,1.31,1.57
			c0.27,0.33,0.54,0.66,0.81,1c1.75,2.15,3.41,4.33,4.99,6.52c0.32,0.43,0.63,0.88,0.95,1.32c2.19,3.07,4.22,6.17,6.11,9.25
			c0.27,0.44,0.54,0.88,0.8,1.32c0.27,0.44,0.53,0.88,0.79,1.32c0.26,0.43,0.51,0.88,0.76,1.31c0.26,0.44,0.51,0.88,0.75,1.31
			c0.24,0.43,0.49,0.88,0.73,1.31c0.25,0.43,0.49,0.87,0.71,1.3c0.24,0.43,0.47,0.87,0.7,1.3c0.23,0.43,0.45,0.86,0.68,1.29
			c0.22,0.43,0.44,0.86,0.66,1.28c0.22,0.43,0.43,0.86,0.64,1.28c0.84,1.69,1.64,3.36,2.38,5c0.37,0.83,0.74,1.66,1.09,2.47
			c1.59,3.66,2.95,7.15,4.07,10.41c0.01,0.01,0.01,0.03,0.01,0.04c0.11,0.31,0.21,0.62,0.31,0.93c0.11,0.32,0.21,0.63,0.31,0.95
			c0.08,0.24,0.16,0.48,0.23,0.72c0.12,0.36,0.23,0.72,0.34,1.08c0.12,0.39,0.24,0.78,0.35,1.17c0.21,0.72,0.42,1.43,0.61,2.15
			c0.17,0.61,0.33,1.21,0.48,1.83c0.03,0.12,0.06,0.22,0.09,0.34c0.03,0.1,0.04,0.19,0.07,0.29c0.09,0.36,0.18,0.72,0.26,1.08
			c0.23,0.95,0.44,1.91,0.64,2.87c0.11,0.52,0.22,1.04,0.31,1.57c0.02,0.1,0.04,0.19,0.06,0.29c0.1,0.49,0.19,0.98,0.27,1.48
			c0.12,0.66,0.22,1.32,0.32,1.98c0.08,0.5,0.15,1,0.22,1.51c0.01,0.07,0.02,0.15,0.03,0.22c0.04,0.33,0.09,0.67,0.13,1.01
			c0.04,0.28,0.07,0.56,0.1,0.84c0.12,1.02,0.22,2.03,0.3,3.04c0.02,0.23,0.04,0.46,0.06,0.69c0.03,0.38,0.05,0.77,0.08,1.16
			c0.03,0.43,0.05,0.86,0.07,1.29c0.02,0.33,0.03,0.66,0.04,0.99c0.02,0.49,0.03,0.98,0.04,1.46
			C297.86,151.62,297.87,152.19,297.87,152.76z"/>
	</g>
</g>
<path class="st2" d="M10.44,163.26C10.31,163.18,10.35,163.12,10.44,163.26L10.44,163.26z"/>
<g>
	<path class="st3" d="M70.24,157.62c-0.65,4.35-3.86,7.88-8.04,9.25l-1.59,0.52c-5.7,8.07-15.7,11.52-24.22,6.51l-2.49-1.46
		l-6.98-8.3c-0.03,0.01-0.06,0.01-0.08,0.02c-2.21,0.46-4.71,0.12-6.35-1.44c-0.26,1.37-2.05,2.17-3.24,1.47
		c-1.2-0.7-1.35-2.66-0.28-3.55c-1.41,1.24-3.58,0.67-4.94-0.68c-0.06-3.7,0.33-7.4,1.25-11.05c0.58-2.27,1.31-4.46,2.21-6.55
		c0.68-1.62,1.44-3.17,2.3-4.69c0.06-0.13,0.14-0.26,0.22-0.39c1.26-2.22,2.69-4.35,4.25-6.41c0.27-0.24,0.54-0.49,0.81-0.73
		c0.61-0.56,1.22-1.1,1.84-1.65c0.04-0.03,0.08-0.07,0.12-0.1c0.99-0.87,1.99-1.73,3.01-2.58c1.57-1.31,3.16-2.6,4.76-3.87
		c0.05-0.04,0.11-0.08,0.16-0.13c1.37-1.09,2.76-2.17,4.14-3.24c0.7-0.54,1.39-1.07,2.08-1.61c0.42,0.05,0.83,0.15,1.23,0.29
		c1.71,0.59,2,2.16,3.18,3.23c1.57,1.44,3.08-0.98,5.5-0.9c7.45,0.23,4.56,7.87,8.2,6.91c15.71-4.14,13.07,15.95,6.24,20.36
		C67.55,150.19,71.02,152.39,70.24,157.62z"/>
	<g>
		<ellipse class="st4" cx="36.46" cy="150.56" rx="26.49" ry="26.16"/>
		<ellipse class="st5" cx="36.46" cy="149.5" rx="24.16" ry="23.86"/>
	</g>
	<g>
		<g>
			<g>
				<g>
					<g>
						<g>
							<path class="st0" d="M10.5,158.9c-1.52,0.94-1.96,4.12-0.76,5.5c1.2,1.37,3.49,0.31,3.96-1.83c0.22,0.6,0.93,0.7,1.29,0.18
								c0.26-0.37,0.27-0.95,0.09-1.35c-0.11-0.1-0.07-0.17,0,0c0.78,0.62,2.12-0.06,2.31-1.38c-0.57,3.51,2.63,6.58,4.98,4.8
								c-0.7,1.49,0.22,3.46,1.43,3.84c1.21,0.38,2.52-0.34,3.68-1.14c1.16-0.8,2.35-1.71,3.63-1.76c1.11-0.05,2.14,0.57,3.19,0.94
								c3.36,1.17,7.3-0.38,9.87-3.91c1.7,2.91,5.89,1.84,7.01-1.78c0.24,1.7,1.4,2.99,2.69,3c1.29,0.02,2.6-1.24,3.04-2.93l0,0.02
								c0.03,1.6,1.46,2.39,2.48,1.36c1.31-1.32,2.12-3.73,1.47-5.67c1.74-0.07,3.43-2.09,3.69-4.43c0.27-2.34-0.91-4.69-2.59-5.15
								c2.88-1.2,5.14-5.13,5.25-9.14c0.1-4-1.95-7.73-4.79-8.66c-1.08-0.36-2.34-0.29-3.25,0.68c-0.34-2.28-1.37-4.32-2.9-5.35
								c-2.43-1.64-5.81-0.52-7.62,2.54c0.88-1.58,0.94-3.86,0.14-5.36c-0.8-1.49-2.4-2.09-3.75-1.38
								c-0.29-2.45-2.18-4.19-4.03-3.71c-1.84,0.48-3.34,3.09-3.18,5.57c-0.17-2-2.53-2.49-3.38-0.81c0.07,0.15-0.04,0.06,0,0
								c-1.17-2.47-3.57-3.73-5.79-3.01c-2.36,0.77-4.34,3.74-4.64,6.97c-1.63-1.48-4-1.42-5.75,0.16
								c-1.75,1.57-2.75,4.57-2.45,7.24c-1.84-1.81-4.93-0.82-6.18,1.98c-1.26,2.8-0.39,6.77,1.74,7.94
								c-1.47,0.22-2.76,2.17-2.76,4.14c0,1.98,1.3,3.66,2.77,3.61c-1.48,0.13-2.88,1.88-3.1,3.87
								C8.09,156.47,9.08,158.46,10.5,158.9z"/>
						</g>
					</g>
					<g class="st6">
						<g>
							<path class="st7" d="M34.86,149.73c-0.74-0.62-1.68-0.92-2.59-0.64c-0.9,0.28-1.73,1.22-1.94,2.38
								c-0.21,1.16,0.33,2.43,1.22,2.65c1.08,0.27,2.18-0.94,3.28-0.81c0.39,0.05,0.75,0.26,1.13,0.37
								c1.58,0.44,3.17-0.97,4.51-2.31c0.47-0.47,0.95-0.95,1.27-1.59c0.32-0.64,0.45-1.48,0.17-2.1c-0.39-0.86-1.35-0.93-2.15-0.77
								c-1.61,0.33-3.17,1.25-4.45,2.62c0.05-0.32,0.09-0.65,0.14-0.97L34.86,149.73z"/>
						</g>
						<g>
							<path class="st7" d="M57.95,146.58c-0.42-0.36-0.86-0.72-1.37-0.84c-0.51-0.12-1.11,0.05-1.45,0.6
								c-0.46,0.75-0.2,1.87,0.36,2.4c0.55,0.54,1.3,0.65,2.01,0.75c0.73,0.1,1.65,0.08,2.03-0.77c0.27-0.62,0.08-1.4-0.31-1.84
								c-0.38-0.45-0.91-0.64-1.42-0.82L57.95,146.58z"/>
						</g>
						<g>
							<path class="st7" d="M21.8,133.52c-1.48,0.87-2.65,2.67-3.03,4.68c-0.11,0.6-0.11,1.36,0.29,1.65
								c0.29,0.21,0.66,0.09,0.99-0.03c1.42-0.51,2.83-1.02,4.25-1.54c-0.68,0.37-1.38,0.76-1.93,1.4c-0.55,0.65-0.93,1.62-0.77,2.5
								c0.19,1.04,1.08,1.63,1.93,1.56c0.85-0.07,1.65-0.65,2.35-1.32c0.75-0.72,1.48-1.69,1.52-2.85c0.04-1.15-1.08-2.15-1.79-1.37
								c1.62-0.66,3.17-1.64,4.58-2.91c0.51-0.46,1.01-0.97,1.34-1.64c0.33-0.67,0.45-1.55,0.17-2.2c-1.38-3.25-3.29,1.76-4.19,2.25
								C25.81,134.63,23.96,132.25,21.8,133.52z"/>
							<path class="st7" d="M14.98,148.19c-0.16,0.66-0.07,1.44,0.34,1.84c0.41,0.4,1.15,0.21,1.35-0.44
								c-0.95,0.43-1.96,0.93-2.57,1.97c-0.61,1.05-0.49,2.81,0.44,3.14c0.58,0.21,1.21-0.2,1.76-0.61
								c1.55-1.16,3.03-2.48,4.43-3.93c-0.44,1.26,0.54,2.6,1.59,2.65c1.05,0.05,2.04-0.73,2.96-1.49c1.12-0.92,2.41-2.31,2.15-3.9
								c-0.23-1.38-1.62-1.92-2.7-1.44c-1.09,0.48-1.92,1.63-2.69,2.74c0.61-1.14-0.2-2.72-1.23-2.83c-1-0.11-2.02,0.73-2.67,1.72
								c1.19-0.89,1.49-3.05-0.08-3.2C17.03,144.33,15.24,147.09,14.98,148.19z"/>
							<path class="st7" d="M47.28,141.41c-0.88-0.37-2,0.44-2.26,1.62c-0.26,1.18,0.4,2.47,1.34,2.6c-0.69,0.12-1.36,0.6-1.81,1.3
								c-0.25,0.39-0.45,0.88-0.4,1.37c0.07,0.72,0.67,1.16,1.24,1.15c0.57-0.01,1.13-0.35,1.65-0.69c-0.57,0.1-1.17,0.22-1.63,0.7
								c-0.46,0.47-0.67,1.43-0.28,1.91c0.33,0.41,0.89,0.3,1.35,0.11c1.04-0.43,2.01-1.18,2.8-2.15c0.57,0.79,1.43,1.33,2.29,1.1
								c0.87-0.23,1.62-1.45,1.37-2.49c-0.18-0.74-0.79-1.18-1.41-1.24c-0.62-0.06-1.24,0.2-1.84,0.48
								c0.62-0.59,1.27-1.24,1.51-2.16c0.24-0.92-0.22-2.11-0.96-1.99c-0.84,0.13-1.29,1.61-1.96,2.17
								C47.49,144.27,49.05,142.15,47.28,141.41z"/>
							<g>
								<path class="st7" d="M32.32,137.91c-0.96,0.88-1.32,2.51-1.28,3.97c0.04,1.61,0.59,3.29,1.73,3.87
									c1.51,0.76,3.45-0.98,3.77-3.09c0.32-2.11-0.72-4.17-2.18-5.06C34.36,137.6,33.29,137.03,32.32,137.91z"/>
							</g>
							<g>
								<path class="st7" d="M43.01,135.51c0.13,0.14,0.26,0.27,0.38,0.41c-0.63-1.01-1.99-1.06-2.78-0.11
									c-0.78,0.95-0.82,2.7-0.07,3.56c0.75,0.86,2.12,0.65,2.79-0.43c1.09,0.58,2.55,0.24,3.34-1c0.8-1.24,0.66-3.31-0.38-4.01
									c-1.04-0.7-2.67,0.55-2.59,2.08c-0.15-0.21-0.3-0.42-0.45-0.62L43.01,135.51z"/>
							</g>
							<g>
								<path class="st7" d="M54.73,137.21c-0.77,0.99-1.57,2.05-1.87,3.37c-0.3,1.32,0.13,2.95,1.15,3.22
									c1.01,0.27,2-0.86,2.6-2.02c0.54-1.04,0.97-2.32,0.69-3.45c-0.28-1.13-1.57-1.73-2.23-0.81L54.73,137.21z"/>
							</g>
							<path class="st7" d="M37.92,130.38c-0.36-1.07-1.57-1.38-2.38-0.69c-0.81,0.68-1.13,2.12-0.8,3.22
								c0.33,1.09,1.21,1.79,2.14,1.86c1.15,0.09,2.54-1.18,2.31-2.61c0.48,0.81,1.37,1.08,2.19,0.93c0.82-0.15,1.59-0.67,2.32-1.24
								c0.98-0.77,2.04-1.94,1.96-3.35c-0.06-1.13-0.9-1.95-1.79-2c-0.89-0.05-1.77,0.53-2.46,1.31c-0.54,0.61-1,1.36-1.59,1.9
								c-0.59,0.54-1.38,0.86-1.98,0.48L37.92,130.38z"/>
						</g>
					</g>
				</g>
			</g>
		</g>
	</g>
</g>
<g>
	<g>
		<rect x="83.03" y="169.97" class="st8" width="147.47" height="62.11"/>
		<g>
			<rect x="86.11" y="173.73" class="st4" width="13.88" height="7.68"/>
			<rect x="205.24" y="211.17" class="st4" width="21.85" height="7.68"/>
			<rect x="213.6" y="183.32" class="st4" width="13.49" height="7.68"/>
			<rect x="86.11" y="201.7" class="st4" width="13.88" height="7.68"/>
			<rect x="86.11" y="192.45" class="st4" width="11.23" height="7.68"/>
			<g>
				<rect x="86.11" y="183.09" class="st4" width="7.68" height="7.68"/>
				<rect x="95.92" y="183.09" class="st4" width="7.68" height="7.68"/>
				<rect x="105.72" y="183.09" class="st4" width="7.68" height="7.68"/>
				<rect x="115.52" y="183.09" class="st4" width="7.68" height="7.68"/>
				<rect x="125.33" y="183.09" class="st4" width="7.68" height="7.68"/>
				<rect x="135.13" y="183.09" class="st4" width="7.68" height="7.68"/>
				<rect x="144.93" y="183.09" class="st4" width="7.68" height="7.68"/>
				<rect x="154.74" y="183.09" class="st4" width="7.68" height="7.68"/>
				<rect x="164.54" y="183.09" class="st4" width="7.68" height="7.68"/>
				<rect x="174.34" y="183.09" class="st4" width="7.68" height="7.68"/>
				<rect x="184.14" y="183.09" class="st4" width="7.68" height="7.68"/>
				<rect x="193.95" y="183.09" class="st4" width="7.68" height="7.68"/>
				<rect x="203.75" y="183.09" class="st4" width="7.68" height="7.68"/>
			</g>
			<g>
				<rect x="86.11" y="220.64" class="st4" width="7.68" height="7.68"/>
				<rect x="95.92" y="220.64" class="st4" width="7.68" height="7.68"/>
				<rect x="105.72" y="220.64" class="st4" width="7.68" height="7.68"/>
				<rect x="115.52" y="220.64" class="st4" width="9.37" height="7.68"/>
				<rect x="127.02" y="220.64" class="st4" width="46.89" height="7.68"/>
				<rect x="189.68" y="220.64" class="st4" width="7.68" height="7.68"/>
				<rect x="199.48" y="220.64" class="st4" width="7.68" height="7.68"/>
				<rect x="209.3" y="220.64" class="st4" width="7.68" height="7.68"/>
				<rect x="175.83" y="220.64" class="st4" width="11.93" height="7.68"/>
				<rect x="219.41" y="220.64" class="st4" width="7.68" height="7.68"/>
			</g>
			<g>
				<rect x="99.53" y="192.45" class="st4" width="7.68" height="7.68"/>
				<rect x="109.33" y="192.45" class="st4" width="7.68" height="7.68"/>
				<rect x="119.13" y="192.45" class="st4" width="7.68" height="7.68"/>
				<rect x="128.93" y="192.45" class="st4" width="7.68" height="7.68"/>
				<rect x="138.74" y="192.45" class="st4" width="7.68" height="7.68"/>
				<rect x="148.54" y="192.45" class="st4" width="7.68" height="7.68"/>
				<rect x="158.34" y="192.45" class="st4" width="7.68" height="7.68"/>
				<rect x="168.15" y="192.45" class="st4" width="7.68" height="7.68"/>
				<rect x="177.95" y="192.45" class="st4" width="7.68" height="7.68"/>
				<rect x="187.75" y="192.45" class="st4" width="7.68" height="7.68"/>
				<rect x="197.56" y="192.45" class="st4" width="7.68" height="7.68"/>
				<rect x="207.36" y="192.45" class="st4" width="7.68" height="7.68"/>
				<polygon class="st4" points="227.09,192.45 227.09,209.5 219.41,209.5 219.41,200.13 217.16,200.13 217.16,192.45 				"/>
			</g>
			<g>
				<rect x="101.77" y="201.81" class="st4" width="7.68" height="7.68"/>
				<rect x="111.58" y="201.81" class="st4" width="7.68" height="7.68"/>
				<rect x="121.38" y="201.81" class="st4" width="7.68" height="7.68"/>
				<rect x="131.18" y="201.81" class="st4" width="7.68" height="7.68"/>
				<rect x="140.99" y="201.81" class="st4" width="7.68" height="7.68"/>
				<rect x="150.79" y="201.81" class="st4" width="7.68" height="7.68"/>
				<rect x="160.59" y="201.81" class="st4" width="7.68" height="7.68"/>
				<rect x="170.4" y="201.81" class="st4" width="7.68" height="7.68"/>
				<rect x="180.2" y="201.81" class="st4" width="7.68" height="7.68"/>
				<rect x="190" y="201.81" class="st4" width="7.68" height="7.68"/>
				<rect x="199.81" y="201.81" class="st4" width="7.68" height="7.68"/>
				<rect x="209.61" y="201.81" class="st4" width="7.68" height="7.68"/>
			</g>
			<g>
				<rect x="97.61" y="211.17" class="st4" width="7.68" height="7.68"/>
				<rect x="107.41" y="211.17" class="st4" width="7.68" height="7.68"/>
				<rect x="117.21" y="211.17" class="st4" width="7.68" height="7.68"/>
				<rect x="127.02" y="211.17" class="st4" width="7.68" height="7.68"/>
				<rect x="136.82" y="211.17" class="st4" width="7.68" height="7.68"/>
				<rect x="146.62" y="211.17" class="st4" width="7.68" height="7.68"/>
				<rect x="156.43" y="211.17" class="st4" width="7.68" height="7.68"/>
				<rect x="166.23" y="211.17" class="st4" width="7.68" height="7.68"/>
				<rect x="176.03" y="211.17" class="st4" width="7.68" height="7.68"/>
				<rect x="185.84" y="211.17" class="st4" width="7.68" height="7.68"/>
				<rect x="195.64" y="211.17" class="st4" width="7.68" height="7.68"/>
			</g>
			<g>
				<rect x="101.77" y="174.2" class="st4" width="7.68" height="7.68"/>
				<rect x="111.58" y="174.2" class="st4" width="7.68" height="7.68"/>
				<rect x="121.38" y="174.2" class="st4" width="7.68" height="7.68"/>
				<rect x="131.18" y="174.2" class="st4" width="7.68" height="7.68"/>
				<rect x="140.99" y="174.2" class="st4" width="7.68" height="7.68"/>
				<rect x="150.79" y="174.2" class="st4" width="7.68" height="7.68"/>
				<rect x="160.59" y="174.2" class="st4" width="7.68" height="7.68"/>
				<rect x="170.4" y="174.2" class="st4" width="7.68" height="7.68"/>
				<rect x="180.2" y="174.2" class="st4" width="7.68" height="7.68"/>
				<rect x="190" y="174.2" class="st4" width="7.68" height="7.68"/>
				<rect x="199.81" y="174.2" class="st4" width="7.68" height="7.68"/>
				<rect x="209.61" y="174.2" class="st4" width="7.68" height="7.68"/>
				<rect x="219.41" y="174.2" class="st4" width="7.68" height="7.68"/>
			</g>
			<rect x="86.11" y="211.17" class="st4" width="9.31" height="7.68"/>
		</g>
	</g>
	<polygon class="st9" points="83.03,170.37 86.11,169.34 228.5,169.34 230.53,170.36 	"/>
</g>
<g>
	<path class="st3" d="M188.3,276.89l-3-18.06c-0.66-2.69-2.07-5.14-4.06-7.07c-5.96-5.75-13.85-11.66-14.19-19.21
		c-0.52-11.53-2.31-11.18-2.12-14.03c0.01-0.1,0.9-1.37,2.05-4.22c0.37-0.92,0.62-2.29,0.87-3.41c0.26-1.18,1.38-1.99,2.58-1.82
		c0.81,0.11,1.6,0.47,2.17,1.02c1.09,1.06,1.58,2.63,1.62,4.16c0.04,1.52-0.29,3.03-0.64,4.51c1.07,2.4,1.58,5.33,1.92,7.93
		c0.68-2.11,1.2-4.24,1.89-6.34c0.14-0.08,0.09-0.24,0.22-0.32c-0.97-2.07-0.15-1.96-2.06-6.51c-3.22-7.67-6.8-15.07-9.37-24.71
		c-0.2-0.75-0.19-1.98,0.06-2.71c0.93-2.76,3.77-2.12,5.01-0.52c0.33,0.42,0.58,0.9,0.77,1.39c1.31,3.43,4.1,8.73,6.12,11.8
		l6.96,10.61c0,0,2.42-1.99,2.79-2.88l0.01-0.01c0.36-0.9,0.54-8.1,0.54-8.1s-0.55,1.35-1.77,1.27c-0.88-0.06-2.67,0.45-3.94-0.98
		c-1.04-1.17-1.04-2.93-0.12-4.18l3.15-4.26c0,0,2.12-1.85,4.95-0.59c2.83,1.27,5.57,3.9,5.57,3.9s2.62-0.13,4.85,0.93
		c2.23,1.07,4.57,4.16,4.57,4.16s2.6,0.16,3.77,1.01c0.29,0.21,4.26,6.39,2.83,11.21c-0.85,2.87-1.37,7.04-1.76,8.16l-1.95,28.19
		l3.93,18.55l-8.41,4.69c-3.09,1.72-6.33,3.17-9.67,4.33L188.3,276.89z"/>
	<g>
		<g>
			<g>
				<g>
					<g>
						<defs>
							<path id="XMLID_2_" d="M212.17,243.96l0.08-28.26c0.31-1.14,0.55-5.34,1.21-8.26c1.11-4.9-3.26-10.8-3.57-10.99
								c-1.22-0.77-3.83-0.75-3.83-0.75s-2.54-2.92-4.84-3.84c-2.29-0.92-4.9-0.61-4.9-0.61s-2.91-2.45-5.81-3.52
								c-2.91-1.07-4.9,0.92-4.9,0.92l-2.86,4.45c-0.84,1.31-0.73,3.07,0.39,4.17c1.37,1.35,3.12,0.72,4,0.72
								c1.22,0,1.68-1.38,1.68-1.38s0.3,7.2,0,8.11l-0.01,0.01c-0.31,0.92-2.6,3.06-2.6,3.06l-7.65-10.12
								c-2.22-2.93-5.36-8.02-6.89-11.36c-0.23-0.49-0.5-0.94-0.86-1.34c-1.34-1.52-4.21-1.96-4.96,0.85
								c-0.2,0.75-0.13,1.98,0.12,2.71c3.2,9.45,7.27,16.59,10.99,24.03c2.21,4.42,1.39,4.36,2.49,6.36
								c-0.13,0.09-0.07,0.25-0.21,0.34c-0.54,2.15-0.92,4.3-1.46,6.45c-0.52-2.58-1.22-5.46-2.45-7.79
								c0.25-1.51,0.49-3.03,0.34-4.55c-0.14-1.52-0.73-3.05-1.89-4.04c-0.6-0.51-1.42-0.81-2.23-0.87
								c-1.21-0.09-2.28,0.79-2.46,1.99c-0.17,1.14-0.33,2.52-0.64,3.46c-0.96,2.91-1.76,4.24-1.76,4.34
								c0,2.85,1.76,2.39,3.05,13.86c1,8.93,12.51,14.84,18.77,21.29l6.68,21c7.75-3.11,15.17-7.08,22.28-11.7L212.17,243.96z"/>
						</defs>
						<use xlink:href="#XMLID_2_"  style="overflow:visible;fill:#FFFFFF;"/>
						<clipPath id="XMLID_00000028296245409170352450000010556729783001465274_">
							<use xlink:href="#XMLID_2_"  style="overflow:visible;"/>
						</clipPath>
						<g style="opacity:0.5;clip-path:url(#XMLID_00000028296245409170352450000010556729783001465274_);">
							<g>
								<path class="st11" d="M208.89,205.55c0.34-0.83,0.74-1.69,1.47-2.22c0.73-0.53,1.86-0.6,2.45,0.09
									c-0.48-1.47-0.98-2.92-1.52-4.37c-0.41-1.1-0.87-2.25-1.78-2.99c-0.91-0.74-2.41-0.9-3.19-0.02
									c0.56,3.33,0.62,6.75,0.18,10.1c-0.24,1.82-0.54,3.9,0.68,5.27c0.34,0.28,0.92-0.22,0.71-0.6c-0.1-0.18-0.46-0.19-0.62-0.18
									C207.66,208.91,208.22,207.2,208.89,205.55z"/>
								<path class="st11" d="M208.89,205.55c0.34-0.83,0.74-1.69,1.47-2.22c0.73-0.53,1.86-0.6,2.45,0.09
									c-0.48-1.47-0.98-2.92-1.52-4.37c-0.41-1.1-0.87-2.25-1.78-2.99c-0.91-0.74-2.41-0.9-3.19-0.02
									c0.56,3.33,0.62,6.75,0.18,10.1c-0.24,1.82-0.54,3.9,0.68,5.27c0.34,0.28,0.92-0.22,0.71-0.6c-0.1-0.18-0.46-0.19-0.62-0.18
									C207.66,208.91,208.22,207.2,208.89,205.55z"/>
								<path class="st12" d="M208.89,205.55c0.34-0.83,0.74-1.69,1.47-2.22c0.73-0.53,1.86-0.6,2.45,0.09
									c-0.48-1.47-0.98-2.92-1.52-4.37c-0.41-1.1-0.87-2.25-1.78-2.99c-0.91-0.74-2.41-0.9-3.19-0.02
									c0.56,3.33,0.62,6.75,0.18,10.1c-0.24,1.82-0.54,3.9,0.68,5.27c0.34,0.28,0.92-0.22,0.71-0.6c-0.1-0.18-0.46-0.19-0.62-0.18
									C207.66,208.91,208.22,207.2,208.89,205.55z"/>
							</g>
							<g>
								<path class="st11" d="M198.69,202.52c0.05,1.23,0.04,2.48,0.34,3.67c0.3,1.19,0.97,2.35,2.04,2.95
									c-0.63-2.38-0.29-4.9,0.06-7.34c0.21-1.48,0.42-2.97,0.63-4.45c0.07-0.52,0.15-1.05,0.45-1.48c0.3-0.43,0.88-0.71,1.35-0.49
									c-0.63,0.37-1.45-0.13-1.83-0.76c-0.38-0.63-0.53-1.39-0.98-1.97c-0.85-1.1-2.68-1.34-3.95-1.05
									C197.19,195.26,198.54,198.75,198.69,202.52z"/>
								<g>
									<path class="st11" d="M198.69,202.52c0.05,1.23,0.04,2.48,0.34,3.67c0.3,1.19,0.97,2.35,2.04,2.95
										c-0.63-2.38-0.29-4.9,0.06-7.34c0.21-1.48,0.42-2.97,0.63-4.45c0.07-0.52,0.15-1.05,0.45-1.48
										c0.3-0.43,0.88-0.71,1.35-0.49c-0.63,0.37-1.45-0.13-1.83-0.76c-0.38-0.63-0.53-1.39-0.98-1.97
										c-0.85-1.1-2.68-1.34-3.95-1.05C197.19,195.26,198.54,198.75,198.69,202.52z"/>
								</g>
								<g class="st13">
									<path class="st11" d="M198.69,202.52c0.05,1.23,0.04,2.48,0.34,3.67c0.3,1.19,0.97,2.35,2.04,2.95
										c-0.63-2.38-0.29-4.9,0.06-7.34c0.21-1.48,0.42-2.97,0.63-4.45c0.07-0.52,0.15-1.05,0.45-1.48
										c0.3-0.43,0.88-0.71,1.35-0.49c-0.63,0.37-1.45-0.13-1.83-0.76c-0.38-0.63-0.53-1.39-0.98-1.97
										c-0.85-1.1-2.68-1.34-3.95-1.05C197.19,195.26,198.54,198.75,198.69,202.52z"/>
								</g>
							</g>
							<g>
								<g>
									<path class="st11" d="M188.25,192.67c-0.41-0.3-0.55-0.85-0.67-1.34c-0.12-0.5-0.3-1.04-0.75-1.29
										c-1.96,1.24-0.89,4.9-2.88,6.11c-0.38,0.23-0.88,0.37-1.09,0.76c-0.19,0.36-0.07,0.83,0.21,1.13
										c0.28,0.3,0.68,0.44,1.09,0.52c1.58,0.28,3.24-0.52,4.19-1.82c0.78-1.07,1.32-2.8,0.93-4.07
										C188.98,192.82,188.55,192.88,188.25,192.67z"/>
									<path class="st11" d="M167.84,216.57c-0.04,0.14-0.06,0.31,0.05,0.4c0.17,0.14,0.39-0.08,0.52-0.25
										c0.82-1.17,2.45-1.7,3.81-1.24c0.52-0.01,0.69-0.8,0.35-1.19s-0.91-0.46-1.43-0.46c-0.52,0-1.07,0.03-1.51-0.25
										c-0.54-0.34-0.75-1.02-0.61-1.61C168.67,213.5,168.24,215.03,167.84,216.57z"/>
								</g>
								<g class="st13">
									<path class="st11" d="M188.25,192.67c-0.41-0.3-0.55-0.85-0.67-1.34c-0.12-0.5-0.3-1.04-0.75-1.29
										c-1.96,1.24-0.89,4.9-2.88,6.11c-0.38,0.23-0.88,0.37-1.09,0.76c-0.19,0.36-0.07,0.83,0.21,1.13
										c0.28,0.3,0.68,0.44,1.09,0.52c1.58,0.28,3.24-0.52,4.19-1.82c0.78-1.07,1.32-2.8,0.93-4.07
										C188.98,192.82,188.55,192.88,188.25,192.67z"/>
									<path class="st11" d="M167.84,216.57c-0.04,0.14-0.06,0.31,0.05,0.4c0.17,0.14,0.39-0.08,0.52-0.25
										c0.82-1.17,2.45-1.7,3.81-1.24c0.52-0.01,0.69-0.8,0.35-1.19s-0.91-0.46-1.43-0.46c-0.52,0-1.07,0.03-1.51-0.25
										c-0.54-0.34-0.75-1.02-0.61-1.61C168.67,213.5,168.24,215.03,167.84,216.57z"/>
								</g>
							</g>
							<g>
								<path class="st11" d="M193.87,192.18c-1.12-0.15-2.3-0.18-3.27-0.75c-1.22-0.71-2.06-2.24-3.47-2.3
									c-1.25-0.05-2.19,1.1-2.9,2.13c-0.08-1.56,1.07-3.02,2.52-3.6c1.45-0.58,3.12-0.4,4.57,0.18c1.45,0.58,2.73,1.52,3.97,2.47
									c0.5,0.38,1,0.78,1.34,1.31C198.2,194.1,194.86,192.31,193.87,192.18z"/>
								<path class="st12" d="M193.87,192.18c-1.12-0.15-2.3-0.18-3.27-0.75c-1.22-0.71-2.06-2.24-3.47-2.3
									c-1.25-0.05-2.19,1.1-2.9,2.13c-0.08-1.56,1.07-3.02,2.52-3.6c1.45-0.58,3.12-0.4,4.57,0.18c1.45,0.58,2.73,1.52,3.97,2.47
									c0.5,0.38,1,0.78,1.34,1.31C198.2,194.1,194.86,192.31,193.87,192.18z"/>
							</g>
						</g>
						<g style="opacity:0.5;clip-path:url(#XMLID_00000028296245409170352450000010556729783001465274_);">
							<path class="st11" d="M173.88,228.49c0.08-0.14,0.14-0.28,0.21-0.43C173.95,228.16,173.86,228.3,173.88,228.49z"/>
							<path class="st11" d="M175.77,218.58c-0.13-1.58,0.1-3.16,0.03-4.74c-0.07-1.58-0.48-3.24-1.63-4.33
								c-1.65-1.55-6.17-0.76-4.65,2.19c0.42,0.82,1.5,1.24,2.35,0.87c0.84-0.37,1.26-1.51,0.8-2.31c1.83,2.77,1.66,6.7-0.39,9.31
								c2.34,2.03,3.09,5.66,1.8,8.47c0.27-0.21,0.75-0.24,1.05-0.01c0.45,0.34,0.6,0.93,0.82,1.44c0.22,0.52,0.64,1.05,1.2,1.02
								c0.77-1.88,0.51-4.02,0.01-6C176.67,222.54,175.94,220.61,175.77,218.58z"/>
							<path class="st11" d="M192.32,188.94c-0.88-0.67-1.92-1.13-3.02-1.27L192.32,188.94z"/>
							<path class="st11" d="M199.83,208.94c-0.24-1.09-0.74-2.1-1.04-3.17c-0.7-2.5-0.26-5.17-0.58-7.75
								c-0.41-3.33-2.15-6.48-4.75-8.6l-1.14-0.48c1.1,0.84,1.94,2.02,2.3,3.35c0.88,3.05,1.16,6.24,1.56,9.4
								c0.61,4.86,1.49,9.69,2.66,14.46C199.6,213.81,200.37,211.34,199.83,208.94z"/>
							<path class="st11" d="M187.66,197.57c0.79-0.63,1.21-1.63,1.35-2.63c0.12-0.89,0.03-1.8-0.07-2.7
								c-0.08,0.39-0.58,0.71-1.01,0.61c-0.54-0.13-0.9-0.63-1.21-1.1c-0.08,0.27-0.16,0.54-0.23,0.8
								c-0.03-0.15-0.06-0.29-0.09-0.44l-0.3,0.39c0.45,1.28,0.89,2.77,0.19,3.94c-0.34,0.57-0.9,0.96-1.44,1.33
								C185.67,198.36,186.87,198.2,187.66,197.57z"/>
							<path class="st11" d="M188.9,191.93c0.01,0.11,0.02,0.21,0.04,0.32C188.96,192.14,188.95,192.03,188.9,191.93z"/>
							<path class="st11" d="M185.56,204.87c-2.24-4.4-4.49-8.81-6.95-13.09c-1.44-2.5-2.97-4.98-4.89-7.14
								c-0.85-0.96-3.3-3.17-4.65-1.71c-0.9,0.97,0.28,2.74-0.82,3.79c0.25,0.01,1.5-0.12,1.64,0.04c2.81,3.47,4.35,7.94,4.29,12.4
								c0.9-0.71,2.14,0.27,2.84,1.18c4.33,5.57,8.38,11.35,12.13,17.33c-0.73-2.64-0.74-5.44-1.53-8.07
								C187.13,207.95,186.34,206.4,185.56,204.87z"/>
							<path class="st11" d="M211.6,215.6c1.07-2.87,1.91-5.8,2-8.85c0.09-2.77-0.55-5.64-2.01-8.01c-0.37-0.6-1.91-3.05-2.75-2.85
								c-1.5,0.36,0.47,2.96,0.81,3.62c1.3,2.46,2.63,5.06,2.54,7.84c-0.06,2.14-0.97,4.15-1.69,6.17c-0.5,1.41-0.91,2.91-0.9,4.39
								c-0.11,0.16-0.21,0.33-0.33,0.49c-1,1.31-2.39,2.38-4.02,2.65c0.62-1.91,1.24-3.81,1.85-5.72c0.22-0.68,0.3-1.61-0.1-2.09
								c0.13-0.26,0.21-0.54,0.2-0.83c-0.02-0.53-0.32-0.99-0.54-1.47c-0.86-1.84-0.57-3.98-0.36-6c0.26-2.49,0.35-5.06-0.38-7.46
								c-0.73-2.4-2.42-4.62-4.8-5.42c0.2,0.22,0.41,0.44,0.61,0.66l-0.81-0.59c0.5,1.04,1,2.08,1.5,3.12
								c-0.18,0.26-0.37,0.53-0.55,0.79c0.82-0.43,1.88,0.19,2.26,1.05c0.38,0.85,0.27,1.83,0.19,2.75
								c-0.49,5.17-0.22,10.41,0.75,15.51c-0.09,1.19-0.3,2.4-0.92,3.41c-0.67,1.1-1.93,1.92-3.2,1.73
								c0.28-1.23-0.19-2.68-1.23-3.41c-1.29,1.79-0.53,4.57-0.33,6.61c0.3,3.09,0.79,6.16,1.48,9.18c0.2-2.62,0.75-5.22,1.63-7.7
								c0.7,2.52,1.39,5.05,2.09,7.57c0.02-0.71,0.05-1.44,0.39-2.06c0.34-0.62,1.1-1.07,1.76-0.82c0.54,0.2,0.83,0.78,1.06,1.31
								c1.81,4.34,2.26,9.23,1.29,13.83c0.86,0.48,1.99-0.1,2.47-0.96c0.48-0.86,0.47-1.89,0.45-2.87
								C211.9,232.66,211.75,224.13,211.6,215.6z"/>
							<path class="st11" d="M189.93,218.31c-0.41,0.72,1.27,3.57,1.54,4.25c1.41,3.44,2.82,6.88,4.23,10.32
								c-0.47-4.53-1.57-8.99-3.28-13.22C192.13,218.94,190.74,216.88,189.93,218.31z"/>
							<path class="st11" d="M192.12,200.07c-0.24,0.36-0.58,0.81-1,0.68c-0.39-0.12-0.45-0.63-0.45-1.04
								c0.04-2.39,0.08-4.79,0.12-7.18c-1.93,1.38-1.68,3.2-1.82,5.27c-0.08,1.2,0.27,6.9-0.55,7.6c1.91-1.63,3.53-3.6,4.76-5.79
								C192.84,199.34,192.36,199.71,192.12,200.07z"/>
							<g class="st13">
								<path class="st11" d="M173.88,228.49c0.08-0.14,0.14-0.28,0.21-0.43C173.95,228.16,173.86,228.3,173.88,228.49z"/>
								<path class="st11" d="M175.77,218.58c-0.13-1.58,0.1-3.16,0.03-4.74c-0.07-1.58-0.48-3.24-1.63-4.33
									c-1.65-1.55-6.17-0.76-4.65,2.19c0.42,0.82,1.5,1.24,2.35,0.87c0.84-0.37,1.26-1.51,0.8-2.31c1.83,2.77,1.66,6.7-0.39,9.31
									c2.34,2.03,3.09,5.66,1.8,8.47c0.27-0.21,0.75-0.24,1.05-0.01c0.45,0.34,0.6,0.93,0.82,1.44c0.22,0.52,0.64,1.05,1.2,1.02
									c0.77-1.88,0.51-4.02,0.01-6C176.67,222.54,175.94,220.61,175.77,218.58z"/>
								<path class="st11" d="M192.32,188.94c-0.88-0.67-1.92-1.13-3.02-1.27L192.32,188.94z"/>
								<path class="st11" d="M199.83,208.94c-0.24-1.09-0.74-2.1-1.04-3.17c-0.7-2.5-0.26-5.17-0.58-7.75
									c-0.41-3.33-2.15-6.48-4.75-8.6l-1.14-0.48c1.1,0.84,1.94,2.02,2.3,3.35c0.88,3.05,1.16,6.24,1.56,9.4
									c0.61,4.86,1.49,9.69,2.66,14.46C199.6,213.81,200.37,211.34,199.83,208.94z"/>
								<path class="st11" d="M187.66,197.57c0.79-0.63,1.21-1.63,1.35-2.63c0.12-0.89,0.03-1.8-0.07-2.7
									c-0.08,0.39-0.58,0.71-1.01,0.61c-0.54-0.13-0.9-0.63-1.21-1.1c-0.08,0.27-0.16,0.54-0.23,0.8
									c-0.03-0.15-0.06-0.29-0.09-0.44l-0.3,0.39c0.45,1.28,0.89,2.77,0.19,3.94c-0.34,0.57-0.9,0.96-1.44,1.33
									C185.67,198.36,186.87,198.2,187.66,197.57z"/>
								<path class="st11" d="M188.9,191.93c0.01,0.11,0.02,0.21,0.04,0.32C188.96,192.14,188.95,192.03,188.9,191.93z"/>
								<path class="st11" d="M185.56,204.87c-2.24-4.4-4.49-8.81-6.95-13.09c-1.44-2.5-2.97-4.98-4.89-7.14
									c-0.85-0.96-3.3-3.17-4.65-1.71c-0.9,0.97,0.28,2.74-0.82,3.79c0.25,0.01,1.5-0.12,1.64,0.04c2.81,3.47,4.35,7.94,4.29,12.4
									c0.9-0.71,2.14,0.27,2.84,1.18c4.33,5.57,8.38,11.35,12.13,17.33c-0.73-2.64-0.74-5.44-1.53-8.07
									C187.13,207.95,186.34,206.4,185.56,204.87z"/>
								<path class="st11" d="M211.6,215.6c1.07-2.87,1.91-5.8,2-8.85c0.09-2.77-0.55-5.64-2.01-8.01c-0.37-0.6-1.91-3.05-2.75-2.85
									c-1.5,0.36,0.47,2.96,0.81,3.62c1.3,2.46,2.63,5.06,2.54,7.84c-0.06,2.14-0.97,4.15-1.69,6.17c-0.5,1.41-0.91,2.91-0.9,4.39
									c-0.11,0.16-0.21,0.33-0.33,0.49c-1,1.31-2.39,2.38-4.02,2.65c0.62-1.91,1.24-3.81,1.85-5.72c0.22-0.68,0.3-1.61-0.1-2.09
									c0.13-0.26,0.21-0.54,0.2-0.83c-0.02-0.53-0.32-0.99-0.54-1.47c-0.86-1.84-0.57-3.98-0.36-6c0.26-2.49,0.35-5.06-0.38-7.46
									c-0.73-2.4-2.42-4.62-4.8-5.42c0.2,0.22,0.41,0.44,0.61,0.66l-0.81-0.59c0.5,1.04,1,2.08,1.5,3.12
									c-0.18,0.26-0.37,0.53-0.55,0.79c0.82-0.43,1.88,0.19,2.26,1.05c0.38,0.85,0.27,1.83,0.19,2.75
									c-0.49,5.17-0.22,10.41,0.75,15.51c-0.09,1.19-0.3,2.4-0.92,3.41c-0.67,1.1-1.93,1.92-3.2,1.73
									c0.28-1.23-0.19-2.68-1.23-3.41c-1.29,1.79-0.53,4.57-0.33,6.61c0.3,3.09,0.79,6.16,1.48,9.18c0.2-2.62,0.75-5.22,1.63-7.7
									c0.7,2.52,1.39,5.05,2.09,7.57c0.02-0.71,0.05-1.44,0.39-2.06c0.34-0.62,1.1-1.07,1.76-0.82c0.54,0.2,0.83,0.78,1.06,1.31
									c1.81,4.34,2.26,9.23,1.29,13.83c0.86,0.48,1.99-0.1,2.47-0.96c0.48-0.86,0.47-1.89,0.45-2.87
									C211.9,232.66,211.75,224.13,211.6,215.6z"/>
								<path class="st11" d="M189.93,218.31c-0.41,0.72,1.27,3.57,1.54,4.25c1.41,3.44,2.82,6.88,4.23,10.32
									c-0.47-4.53-1.57-8.99-3.28-13.22C192.13,218.94,190.74,216.88,189.93,218.31z"/>
								<path class="st11" d="M192.12,200.07c-0.24,0.36-0.58,0.81-1,0.68c-0.39-0.12-0.45-0.63-0.45-1.04
									c0.04-2.39,0.08-4.79,0.12-7.18c-1.93,1.38-1.68,3.2-1.82,5.27c-0.08,1.2,0.27,6.9-0.55,7.6c1.91-1.63,3.53-3.6,4.76-5.79
									C192.84,199.34,192.36,199.71,192.12,200.07z"/>
							</g>
						</g>
					</g>
					<g>
						<g>
							<g>
								<path class="st14" d="M197.01,192.24c1.13,4.17,1.72,8.48,1.74,12.8c0,0.72,0,1.46,0.23,2.15c0.23,0.68,0.76,1.32,1.47,1.46
									"/>
								<path class="st14" d="M206.06,196.44c1.9,4-0.04,12.94,0.1,13.57c0.14,0.63,0.5,1.24,1.08,1.54"/>
								<g>
									<path class="st14" d="M189.57,191.7c-0.22,1.27-0.41,2.75-0.63,4.02c-1.49-1.26-2.43-3.14-2.56-5.09"/>
									<path class="st14" d="M177.32,225.81c-0.46,0.2-0.92,0.41-1.38,0.61"/>
									<path class="st14" d="M177.68,226.91c-0.22,1.06-0.23,2.17-0.01,3.23"/>
									<path class="st14" d="M185.76,214.97c0.51,0.92,1.02,1.84,1.53,2.76"/>
									<path class="st14" d="M188.69,204.88c0.51-0.72,1.01-1.43,1.52-2.15"/>
									<path class="st14" d="M210.1,214.97c-0.15,0.56-0.31,1.12-0.46,1.68"/>
									<path class="st14" d="M206.38,210.36c0.45-1.43,0.9-2.86,1.35-4.3"/>
									<path class="st14" d="M210.87,202.74c0.79-0.46,1.94-0.1,2.33,0.72"/>
									<path class="st14" d="M201.69,195.4c1.06-0.31,2.26-0.03,3.08,0.7"/>
									<path class="st14" d="M173.21,199.66c0.98-1.09,2.51-1.67,3.97-1.49"/>
								</g>
							</g>
							<path class="st14" d="M167.44,187.61c0.91-0.67,2.1-0.95,3.22-0.75"/>
							<path class="st7" d="M168.63,216.21c-0.74,0.59-1.38,1.3-1.87,2.11L168.63,216.21z"/>
						</g>
						<path class="st14" d="M169.24,213.31c1.01-0.72,2.62,0.89,3.55,0.07c0.37-0.33,0.4-0.9,0.31-1.38
							c-0.09-0.49-0.26-0.98-0.18-1.46"/>
					</g>
				</g>
			</g>
			<path class="st14" d="M197.75,208.88c1.23,2.52,1.48,5.5,0.7,8.19"/>
			<path class="st14" d="M205.18,212.82c0.2,1.2-0.03,2.46-0.64,3.51"/>
		</g>
	</g>
	<g>
		<g>
			<g>
				<g>
					<g>
						<path class="st15" d="M195.19,274.39l-6.68-21c-6.27-6.45-17.77-12.35-18.77-21.29c-1.29-11.47-3.05-11.01-3.05-13.86
							c0-0.1,0.8-1.43,1.76-4.34c0.31-0.94,0.47-2.33,0.64-3.46c0.18-1.2,1.25-2.08,2.46-1.99c0.81,0.05,1.63,0.36,2.23,0.87
							c1.16,0.99,1.75,2.52,1.89,4.04c0.15,1.52-0.09,3.04-0.34,4.55c1.23,2.33,1.93,5.21,2.45,7.79c0.54-2.15,0.92-4.3,1.46-6.45
							c0.14-0.08,0.08-0.25,0.21-0.34c-1.1-2-0.28-1.94-2.49-6.36c-3.71-7.44-7.79-14.59-10.99-24.03
							c-0.25-0.73-0.32-1.96-0.12-2.71c0.75-2.81,3.62-2.37,4.96-0.85c0.36,0.4,0.64,0.86,0.86,1.34c1.53,3.34,4.67,8.44,6.89,11.36
							l7.65,10.12c0,0,2.28-2.14,2.6-3.06l0.01-0.01c0.3-0.92,0-8.11,0-8.11s-0.46,1.38-1.68,1.38c-0.88,0-2.63,0.63-4-0.72
							c-1.12-1.09-1.23-2.85-0.39-4.17l2.86-4.45c0,0,1.99-1.99,4.9-0.92c2.91,1.07,5.81,3.52,5.81,3.52s2.61-0.31,4.9,0.61
							c2.3,0.92,4.84,3.84,4.84,3.84s2.61-0.01,3.83,0.75c0.31,0.19,4.68,6.1,3.57,10.99c-0.66,2.92-0.9,7.11-1.21,8.26l-0.08,28.26
							l5.3,18.74"/>
					</g>
					<g>
						<g>
							<g>
								<path class="st15" d="M197.01,192.24c1.13,4.17,1.72,8.48,1.74,12.8c0,0.72,0,1.46,0.23,2.15c0.23,0.68,0.76,1.32,1.47,1.46
									"/>
								<path class="st15" d="M206.06,196.44c1.9,4-0.04,12.94,0.1,13.57c0.14,0.63,0.5,1.24,1.08,1.54"/>
								<g>
									<path class="st15" d="M189.57,191.7c-0.22,1.27-0.41,2.75-0.63,4.02c-1.49-1.26-2.43-3.14-2.56-5.09"/>
									<path class="st15" d="M177.32,225.81c-0.46,0.2-0.92,0.41-1.38,0.61"/>
									<path class="st15" d="M177.68,226.91c-0.22,1.06-0.23,2.17-0.01,3.23"/>
									<path class="st15" d="M185.76,214.97c0.51,0.92,1.02,1.84,1.53,2.76"/>
									<path class="st15" d="M188.69,204.88c0.51-0.72,1.01-1.43,1.52-2.15"/>
									<path class="st15" d="M210.1,214.97c-0.15,0.56-0.31,1.12-0.46,1.68"/>
									<path class="st15" d="M206.38,210.36c0.45-1.43,0.9-2.86,1.35-4.3"/>
									<path class="st15" d="M210.87,202.74c0.79-0.46,1.94-0.1,2.33,0.72"/>
									<path class="st15" d="M201.69,195.4c1.06-0.31,2.26-0.03,3.08,0.7"/>
									<path class="st15" d="M173.21,199.66c0.98-1.09,2.51-1.67,3.97-1.49"/>
								</g>
							</g>
							<path class="st15" d="M167.44,187.61c0.91-0.67,2.1-0.95,3.22-0.75"/>
							<path class="st15" d="M168.63,216.21c-0.74,0.59-1.38,1.3-1.87,2.11"/>
						</g>
						<path class="st15" d="M169.24,213.31c1.01-0.72,2.62,0.89,3.55,0.07c0.37-0.33,0.4-0.9,0.31-1.38
							c-0.09-0.49-0.26-0.98-0.18-1.46"/>
					</g>
				</g>
			</g>
			<path class="st15" d="M197.75,208.88c1.23,2.52,1.48,5.5,0.7,8.19"/>
			<path class="st15" d="M205.18,212.82c0.2,1.2-0.03,2.46-0.64,3.51"/>
		</g>
	</g>
	<path class="st3" d="M143.36,222.42c0.06,0.44,0.04,0.9-0.06,1.33c-0.42,1.92-1.62,7.53-2.06,10.6
		c-0.52,3.75-6.58,15.34-6.58,15.34s-5.57,6.93-8.41,10.54c-1.39,1.77-3.6,8.94-5.47,15.77c-2.37-0.72-4.71-1.49-7.03-2.31
		c-1.92-0.68-3.85-1.41-5.75-2.15c-2.67-1.05-6.08-2.73-9.99-4.87c1.06-3.86,1.77-6.82,1.76-6.99c-0.03-0.4,2.28-4.85,2.28-4.85
		l-2.01-26.49l-1.19-4.03c-0.62-2.08-1.01-4.23-1.17-6.38c-0.25-3.28,0.03-6.59,0.82-9.8l3.47-5.15l1.62-0.12l5.03-7.02
		c0,0,2.72-0.82,3.41,1.23c0.7,2.05-2.26,5.87-2.26,5.87l-1.02,6.31l2.42,5.91l1.25,0.46c0,0,0.42-10.4,0.13-12.48l2.67-9.49
		c0,0,1.59-3.17,2.08-4.77c0.49-1.59,3.34-3.17,4.99-0.38c0,0,0.91,1.42,0.26,3.37c-0.67,1.95-1.23,3.48-1.23,3.48
		s-0.61,8.04-0.8,8.27c-0.19,0.21,1.18,11.97,1.18,11.97l1.05,0.47l0.37-11.22l2.18-10.54c0,0-0.18-5.07,3.39-4.46
		c0,0,1.68-0.19,2.63,1.64c0.95,1.82,0.04,13.96,0.04,13.96l0.88,12.54l1.41,9.67l1.66-6.63c0,0,0.1-9.5,6.09-10.31
		c0,0,1.78-0.32,2.15,0.92c0.36,1.23-0.89,3.77-0.71,6.2C143,219.5,143.24,221.43,143.36,222.42z"/>
	<g>
		<g>
			<defs>
				<path id="XMLID_1_" d="M141.54,210.67c-0.27-1.27-2.07-1.08-2.07-1.08c-6.04,0.36-6.85,9.82-6.85,9.82l-2.16,6.49l-0.68-9.76
					l0.07-12.57c0,0,1.83-12.03,1.01-13.92c-0.81-1.89-2.5-1.83-2.5-1.83c-3.52-0.88-3.72,4.19-3.72,4.19l-2.97,10.34l-1.22,11.16
					l-1.01-0.54c0,0-0.48-11.84-0.27-12.03c0.21-0.21,1.42-8.18,1.42-8.18s0.67-1.48,1.48-3.38c0.81-1.9,0-3.38,0-3.38
					c-1.42-2.91-4.39-1.55-5,0c-0.61,1.55-2.44,4.6-2.44,4.6l-3.39,9.26c0.13,2.09-1.07,12.44-1.07,12.44l-1.22-0.55l-1.96-6.07
					l1.49-6.22c0,0,3.24-3.58,2.7-5.68c-0.54-2.09-3.31-1.48-3.31-1.48l-5.54,6.62h-1.63l-3.85,4.87c-1.04,3.15-1.57,6.42-1.57,9.71
					c0,2.15,0.23,4.32,0.68,6.45l0.88,4.11v26.57c0,0-2.63,4.26-2.63,4.66c0,0.18-1.09,3.54-2.61,7.73
					c6.63,3.9,12.34,6.92,16.38,8.51c1.9,0.75,3.82,1.47,5.75,2.15c2.43-6.82,5.27-14.12,6.83-15.82c3.11-3.38,9.19-9.87,9.19-9.87
					s6.92-11.1,7.72-14.8c0.67-3.03,2.29-8.53,2.85-10.42c0.13-0.42,0.18-0.88,0.16-1.32c-0.05-1-0.14-2.93-0.14-4.65
					C140.36,214.37,141.81,211.93,141.54,210.67z"/>
			</defs>
			<use xlink:href="#XMLID_1_"  style="overflow:visible;fill:#FFFFFF;"/>
			<clipPath id="XMLID_00000066491484062472768640000012454171722217714105_">
				<use xlink:href="#XMLID_1_"  style="overflow:visible;"/>
			</clipPath>
			<path style="opacity:0.5;clip-path:url(#XMLID_00000066491484062472768640000012454171722217714105_);fill:#2578BD;" d="
				M100.44,208.94c1.03-1.29,3.16-1.78,4.36-0.65c0.69,0.65,0.92,1.64,1.1,2.57c0.17,0.93,0.35,1.92,0.96,2.63
				c0.62,0.72,1.85,1,2.5,0.31c0.09,1.4,0.17,2.8,0.26,4.2c1.49-2.59,2.26-5.6,2.2-8.59c-0.03-1.45-0.25-2.93,0.09-4.35
				c0.34-1.41,1.44-2.79,2.89-2.86c1.61-0.07,2.89,1.5,3.19,3.08c0.31,1.58-0.05,3.21-0.15,4.82c-0.15,2.46,0.33,4.95,1.38,7.17
				c0.34-0.69,0.68-1.37,1.02-2.06c0.3,1.38,0.61,2.75,0.91,4.13c0.26-3.03,0.53-6.05,0.79-9.08c0.07-0.86,0.16-1.74,0.56-2.5
				c0.4-0.76,1.2-1.38,2.05-1.29c1.15,0.11,1.81,1.34,2.2,2.43c2.88,8.15,1.69,17.1,0.47,25.65c0.8,0.14,1.47-0.66,1.67-1.45
				c0.2-0.79,0.13-1.64,0.43-2.4c0.3-0.76,1.23-1.38,1.91-0.95c1.01,0.63,0.3,2.6,1.36,3.14c0.33-2.53,1.34-4.97,2.89-6.99
				c0.71-0.92,1.77-1.83,2.9-1.54c0.84,0.22,1.39,1.08,1.51,1.93c0.12,0.86,1.36-2.69,1.15-1.85c0.48-4.93-0.48-5.45,0-10.38
				c0.09-0.89,1.53-2.43,0.91-3.09c-0.58-0.62-2.32-1.53-3.09-1.17c-0.77,0.36-3.28,1.61-3.78,2.3c-3.14,4.34-2.93,10.62-3.9,15.88
				c-0.83-8.03-1.66-16.19-0.19-24.13c0.81-4.38,2.31-8.94,0.89-13.16c-0.65-1.93-2.36-3.86-4.36-3.49
				c-1.61,0.3-2.59,1.92-3.24,3.43c-2.2,5.05-3.18,10.54-4.14,15.96c1.2-5.46,2.4-10.92,3.6-16.38c0.31-1.42,0.63-2.88,0.37-4.31
				c-0.26-1.43-1.23-2.83-2.66-3.13c-1.41-0.3-2.81,0.54-3.88,1.51c-3.8,3.48-5.21,8.78-6.45,13.78c0.43-1.31,0.88-2.66,0.74-4.03
				c-0.13-1.37-1.01-2.77-2.35-3.06c-1.74-0.38-3.32,1.17-4.09,2.78c-0.76,1.61-1.14,3.46-2.36,4.76c-0.89-1-2.56-0.94-3.67-0.2
				c-1.12,0.74-1.79,1.98-2.33,3.2c-2,4.49-2.86,9.48-2.47,14.37c0.88-1.97,3.11-3.23,5.25-2.99c-0.13-1.09-0.25-2.18-0.38-3.27"/>
			<g style="clip-path:url(#XMLID_00000066491484062472768640000012454171722217714105_);">
				<g>
					<path class="st0" d="M104.26,218.4c-0.05,0.81-0.11,1.61-0.16,2.42c0.25-0.67,1.23-0.92,1.77-0.45c-0.12-0.51,0.2-1.01,0.4-1.5
						c0.2-0.49,0.22-1.18-0.25-1.41c-0.56-0.27-1.12,0.37-1.41,0.92c-0.02-0.2-0.05-0.4-0.07-0.6L104.26,218.4z"/>
				</g>
				<g>
					<path class="st0" d="M113.43,216.96c-0.66,0.75-1.11,1.69-1.29,2.67c0.28-0.27,0.57-0.55,0.93-0.69
						c0.37-0.13,0.83-0.08,1.06,0.24c0.14,0.19,0.2,0.48,0.41,0.59c0.22,0.11,0.5-0.02,0.62-0.23c0.13-0.21,0.15-0.46,0.16-0.71
						c0.03-0.47,0.06-0.94-0.08-1.39c-0.13-0.45-0.47-0.86-0.92-0.96c-0.46-0.1-1,0.24-1,0.7L113.43,216.96z"/>
				</g>
				<g>
					<path class="st0" d="M122.31,219.16c-0.7,0.94-1.17,2.06-1.34,3.22c0.47-0.07,0.87-0.38,1.24-0.67
						c0.38-0.29,0.79-0.59,1.26-0.62c0.47-0.04,1.01,0.31,0.99,0.78c-0.09-0.54,0-1.08,0.05-1.62c0.06-0.54,0.08-1.11-0.12-1.61
						c-0.2-0.51-0.69-0.93-1.23-0.9c-0.54,0.03-1.01,0.66-0.76,1.14L122.31,219.16z"/>
				</g>
				<g>
					<path class="st0" d="M97.88,222.37c-0.49,0.92-0.75,1.96-0.74,3.01c0.01-0.48,0.46-0.87,0.93-0.94
						c0.48-0.07,0.95,0.12,1.37,0.36c0.1-0.48,0.19-0.98,0.09-1.47c-0.1-0.48-0.45-0.95-0.94-1.03c-0.49-0.08-1.02,0.39-0.89,0.87
						c-0.05-0.12-0.1-0.25-0.15-0.37L97.88,222.37z"/>
				</g>
			</g>
			
				<path id="XMLID_3_" style="opacity:0.5;clip-path:url(#XMLID_00000066491484062472768640000012454171722217714105_);fill:#FFFFFF;" d="
				M100.44,208.94c1.03-1.29,3.16-1.78,4.36-0.65c0.69,0.65,0.92,1.64,1.1,2.57c0.17,0.93,0.35,1.92,0.96,2.63
				c0.62,0.72,1.85,1,2.5,0.31c0.09,1.4,0.17,2.8,0.26,4.2c1.49-2.59,2.26-5.6,2.2-8.59c-0.03-1.45-0.25-2.93,0.09-4.35
				c0.34-1.41,1.44-2.79,2.89-2.86c1.61-0.07,2.89,1.5,3.19,3.08c0.31,1.58-0.05,3.21-0.15,4.82c-0.15,2.46,0.33,4.95,1.38,7.17
				c0.34-0.69,0.68-1.37,1.02-2.06c0.3,1.38,0.61,2.75,0.91,4.13c0.26-3.03,0.53-6.05,0.79-9.08c0.07-0.86,0.16-1.74,0.56-2.5
				c0.4-0.76,1.2-1.38,2.05-1.29c1.15,0.11,1.81,1.34,2.2,2.43c2.88,8.15,1.69,17.1,0.47,25.65c0.8,0.14,1.47-0.66,1.67-1.45
				c0.2-0.79,0.13-1.64,0.43-2.4c0.3-0.76,1.23-1.38,1.91-0.95c1.01,0.63,0.3,2.6,1.36,3.14c0.33-2.53,1.34-4.97,2.89-6.99
				c0.71-0.92,1.77-1.83,2.9-1.54c0.84,0.22,1.39,1.08,1.51,1.93c0.12,0.86,1.36-2.69,1.15-1.85c0.48-4.93-0.48-5.45,0-10.38
				c0.09-0.89,1.53-2.43,0.91-3.09c-0.58-0.62-2.32-1.53-3.09-1.17c-0.77,0.36-3.28,1.61-3.78,2.3c-3.14,4.34-2.93,10.62-3.9,15.88
				c-0.83-8.03-1.66-16.19-0.19-24.13c0.81-4.38,2.31-8.94,0.89-13.16c-0.65-1.93-2.36-3.86-4.36-3.49
				c-1.61,0.3-2.59,1.92-3.24,3.43c-2.2,5.05-3.18,10.54-4.14,15.96c1.2-5.46,2.4-10.92,3.6-16.38c0.31-1.42,0.63-2.88,0.37-4.31
				c-0.26-1.43-1.23-2.83-2.66-3.13c-1.41-0.3-2.81,0.54-3.88,1.51c-3.8,3.48-5.21,8.78-6.45,13.78c0.43-1.31,0.88-2.66,0.74-4.03
				c-0.13-1.37-1.01-2.77-2.35-3.06c-1.74-0.38-3.32,1.17-4.09,2.78c-0.76,1.61-1.14,3.46-2.36,4.76c-0.89-1-2.56-0.94-3.67-0.2
				c-1.12,0.74-1.79,1.98-2.33,3.2c-2,4.49-2.86,9.48-2.47,14.37c0.88-1.97,3.11-3.23,5.25-2.99c-0.13-1.09-0.25-2.18-0.38-3.27"/>
			<g style="opacity:0.5;clip-path:url(#XMLID_00000066491484062472768640000012454171722217714105_);">
				<g>
					<path class="st11" d="M104.26,218.4c-0.05,0.81-0.11,1.61-0.16,2.42c0.25-0.67,1.23-0.92,1.77-0.45
						c-0.12-0.51,0.2-1.01,0.4-1.5c0.2-0.49,0.22-1.18-0.25-1.41c-0.56-0.27-1.12,0.37-1.41,0.92c-0.02-0.2-0.05-0.4-0.07-0.6
						L104.26,218.4z"/>
				</g>
				<g>
					<path class="st11" d="M113.43,216.96c-0.66,0.75-1.11,1.69-1.29,2.67c0.28-0.27,0.57-0.55,0.93-0.69
						c0.37-0.13,0.83-0.08,1.06,0.24c0.14,0.19,0.2,0.48,0.41,0.59c0.22,0.11,0.5-0.02,0.62-0.23c0.13-0.21,0.15-0.46,0.16-0.71
						c0.03-0.47,0.06-0.94-0.08-1.39c-0.13-0.45-0.47-0.86-0.92-0.96c-0.46-0.1-1,0.24-1,0.7L113.43,216.96z"/>
				</g>
				<g>
					<path class="st11" d="M122.31,219.16c-0.7,0.94-1.17,2.06-1.34,3.22c0.47-0.07,0.87-0.38,1.24-0.67
						c0.38-0.29,0.79-0.59,1.26-0.62c0.47-0.04,1.01,0.31,0.99,0.78c-0.09-0.54,0-1.08,0.05-1.62c0.06-0.54,0.08-1.11-0.12-1.61
						c-0.2-0.51-0.69-0.93-1.23-0.9c-0.54,0.03-1.01,0.66-0.76,1.14L122.31,219.16z"/>
				</g>
				<g>
					<path class="st11" d="M97.88,222.37c-0.49,0.92-0.75,1.96-0.74,3.01c0.01-0.48,0.46-0.87,0.93-0.94
						c0.48-0.07,0.95,0.12,1.37,0.36c0.1-0.48,0.19-0.98,0.09-1.47c-0.1-0.48-0.45-0.95-0.94-1.03c-0.49-0.08-1.02,0.39-0.89,0.87
						c-0.05-0.12-0.1-0.25-0.15-0.37L97.88,222.37z"/>
				</g>
			</g>
		</g>
		<g>
			<path class="st15" d="M91.62,263.01c1.52-4.19,2.61-7.55,2.61-7.73c0-0.4,2.63-4.66,2.63-4.66v-26.57l-0.88-4.11
				c-0.46-2.13-0.68-4.3-0.68-6.45c0-3.29,0.53-6.57,1.57-9.71l3.85-4.87h1.63l5.54-6.62c0,0,2.77-0.61,3.31,1.48
				c0.54,2.1-2.7,5.68-2.7,5.68l-1.49,6.22l1.96,6.07l1.22,0.55c0,0,1.2-10.34,1.07-12.44l3.39-9.26c0,0,1.83-3.04,2.44-4.6
				c0.61-1.55,3.58-2.91,5,0c0,0,0.81,1.48,0,3.38c-0.81,1.89-1.48,3.38-1.48,3.38s-1.22,7.98-1.42,8.18
				c-0.21,0.2,0.27,12.03,0.27,12.03l1.01,0.54l1.22-11.16l2.97-10.34c0,0,0.21-5.07,3.72-4.19c0,0,1.69-0.07,2.5,1.83
				c0.81,1.89-1.01,13.92-1.01,13.92l-0.07,12.57l0.68,9.76l2.16-6.49c0,0,0.81-9.47,6.85-9.82c0,0,1.8-0.18,2.07,1.08
				c0.27,1.26-1.18,3.69-1.18,6.13c0,1.71,0.1,3.65,0.14,4.65c0.03,0.44-0.03,0.9-0.16,1.32c-0.56,1.89-2.18,7.39-2.85,10.42
				c-0.81,3.69-7.72,14.8-7.72,14.8s-6.08,6.49-9.19,9.87c-1.57,1.7-4.41,9-6.83,15.82"/>
		</g>
		<path class="st4" d="M110.06,213.3c0.35,1.26,0,2.69-0.91,3.64"/>
		<path class="st4" d="M99.75,222.23c0.88-1.36,1.73-3.23,1.5-4.83c-0.46-3.14-1.89-6.75-1.25-9.86c0.41-1.98,0.82-3.97,1.23-5.95"
			/>
		<path class="st15" d="M125.24,192.58c1.04-0.27,2.15-0.27,3.19,0.01c0.01-0.3,0.02-0.59,0.04-0.89"/>
		<path class="st15" d="M116.85,188.59c0.61,0.44,1.48,0.5,2.14,0.15c0.67-0.35,1.1-1.1,1.09-1.85"/>
		<path class="st15" d="M139.96,210.78c-1.77,0.4-3.1,2.24-2.93,4.05c0.52,0.16,1.05,0.31,1.57,0.47"/>
		<path class="st4" d="M119.38,211.56c0.07,1.07-0.06,3.64,0.01,4.71"/>
		<path class="st4" d="M120.56,213.05c-0.13,1.76-0.26,3.51-0.39,5.27c0.01-0.22,0.02-0.45,0.03-0.67"/>
		<path class="st4" d="M130.31,227.87c0.47,1.92,0.25,4-0.6,5.79"/>
		<path class="st15" d="M114.11,218.65c-1.39,1.53-1.19,5.19-0.2,7.21"/>
		<path class="st15" d="M124.41,221.17c0.03,1.65-0.57,3.3-1.71,4.69"/>
		<path class="st15" d="M103.96,219.38c-0.23,1.53,0.11,3.15,0.95,4.46"/>
		<path class="st15" d="M98.02,224.16c-0.07,1.21,0.29,2.43,0.98,3.41"/>
		<path class="st15" d="M106.15,194.68c0.72-0.35,1.66-0.2,2.24,0.36c0.26-0.35,0.53-0.7,0.79-1.04"/>
		<path class="st15" d="M112.71,199.37c1.06-0.67,2.6-0.41,3.38,0.57"/>
		<path class="st15" d="M122.96,202.57c1.14-0.52,2.51-0.49,3.63,0.08"/>
		<path class="st15" d="M100.16,207.94c0.66-1.14,2.04-1.83,3.35-1.66"/>
		<path class="st15" d="M95.87,214.05c0.02-0.83,0.7-1.59,1.52-1.7"/>
	</g>
</g>
<g>
	<circle class="st20" cx="260.61" cy="141.61" r="26.5"/>
	<g>
		<g>
			<g>
				<path class="st3" d="M290.61,142.3c-5.65,9.27-7.66,8.01-26.93,17.25c-9.78,4.69-19.24-10.38-12.84-25.84
					c0.31-0.75,3.08-4.57,3.08-4.57c1.16-5.11,5.41-9.4,10.52-10.6c5.1-1.21,10.82,0.72,14.15,4.77c3.62-3.2,8.87-4.39,13.54-3.23
					c0.22,0.65,0.43,1.29,0.64,1.92c0.08,0.24,0.16,0.48,0.23,0.72c0.24,0.75,0.47,1.5,0.68,2.25c0.42,1.43,0.81,2.87,1.18,4.32
					c-2.13-0.59-4.27-0.61-6.29,0.38c-1.41,0.69-2.6,1.83-4.07,2.39c-1.47,0.56-3.5,0.24-4.07-1.23c0.71,2.95,3.81,2.07,6.79,2.66
					C291.82,134.38,292.98,138.4,290.61,142.3z"/>
			</g>
			<g>
				<path class="st21" d="M281.9,137.74c0,0,4.74-0.64,7-0.31c1.43,0.21,2.31,1.05,2.73,1.57c0.19,0.24,0.31,0.54,0.33,0.85
					l0.25,3.71c0.03,0.42-0.11,0.84-0.41,1.15c-0.92,0.96-3.72,2.72-11.99,3.35C268.18,148.94,281.9,137.74,281.9,137.74z"/>
				<g>
					<path class="st21" d="M278.44,128.15c1.34,1.66,3.88,5.43,3.88,11.27c0,4.42-5.12,19.51-18.22,21.34
						c-13.87,1.94-25.01-9.92-22.63-24.2C243.12,126.68,267.3,114.32,278.44,128.15z"/>
					<ellipse class="st7" cx="261.49" cy="138.43" rx="20.12" ry="19.04"/>
					<ellipse class="st9" cx="261.45" cy="139.42" rx="16.52" ry="15.63"/>
					<path class="st20" d="M281.61,138.43c0-10.52-9.01-19.04-20.12-19.04c-11.11,0-20.12,8.53-20.12,19.04"/>
					<path class="st20" d="M276.3,151.32c3.3-3.39,5.31-7.92,5.31-12.89"/>
					<path class="st20" d="M247.4,152.02c3.63,3.37,8.61,5.45,14.09,5.45c3.37,0,6.55-0.78,9.34-2.17"/>
					<path class="st20" d="M244.5,148.62c0.26,0.39,0.54,0.78,0.83,1.15"/>
					<path class="st20" d="M241.37,138.43c0,2.91,0.69,5.66,1.92,8.12"/>
				</g>
				<path class="st21" d="M291.02,143.64c0,0-3.59-2.51-9.41-0.23"/>
				<path class="st21" d="M287.93,145.38c-1.37,0.41-3.67,0.88-7.44,1.17"/>
				<path class="st21" d="M289.8,144.59c0,0-0.22,0.19-0.9,0.46"/>
			</g>
		</g>
		<g>
			<g>
				<path class="st7" d="M292.98,122.71c-0.07-0.24-0.15-0.48-0.23-0.72c-1.22-3.78-2.79-7.94-4.71-12.33
					c-0.35-0.81-0.72-1.64-1.09-2.47c-0.15,0.01-0.29,0.03-0.43,0.04c-1.83,0.19-3.77,0.42-5.27,1.46
					c-1.52,1.06-2.41,3.24-1.43,4.81c0.96,1.55,3.47,2.42,3.08,4.19c-4.1,2.31-9.1,2.04-13.66,3.2c-2.74,0.7-5.34,1.93-7.61,3.59
					c-0.01,0-0.01,0.01-0.01,0.01c-0.72,0.54-1.42,1.12-2.07,1.74c-0.29,0.27-0.59,0.58-0.84,0.91c-0.01,0.01-0.01,0.01-0.01,0.01
					c-0.38,0.48-0.66,1.02-0.72,1.62c-0.16,1.71,1.39,2.87,3.05,3.61c0.31,0.14,0.29,0.58-0.03,0.69c-1.08,0.43-2.14,0.94-2.99,1.73
					c-0.01,0-0.01,0.01-0.02,0.01c-0.52,0.47-0.1,1.36,0.62,1.27c0.08-0.01,0.17-0.02,0.26-0.03c0.7-0.05,1.36,0.03,1.93,0.23
					c0.98,0.35,1.66,1.01,1.73,1.83c0.1,1.3-1.37,2.47-3.29,2.61c-0.47,0.04-0.11,0.6,0.58,0.72c1.36,0.24,2.75-0.02,4.09-0.33
					c1.6-0.38,3.32-0.94,4.23-2.31c0.38-0.58,0.5-1.34,0.38-2.03c-0.16-0.95-0.75-1.77-1.7-1.87c2.97-0.35,5.91-0.94,8.77-1.76h0.01
					l0.9-0.27c0.86-0.26,1.76-0.57,2.47-1.08c0.45-0.32,0.82-0.7,1.08-1.19c0.66-1.29-0.27-3.32-1.69-3.05
					c4.12-1.62,8.48-2.56,12.65-4.05C291.67,123.25,292.33,122.99,292.98,122.71z"/>
			</g>
		</g>
	</g>
</g>
<g>
	<path class="st3" d="M261.38,67.41c-3.86,3.43-8.27,6.35-12.72,8.98c-23.28,13.77-49.57,22.02-76.32,26.04
		c-26.74,4.02-53.98,3.9-80.94,1.68c-5.29-0.43-10.68-0.97-15.54-3.11c-4.12-1.82-7.86-4.97-9.62-9.06
		c5.84-6.65,11.26-13.37,17.31-19.72c1.44-1.52,2.91-3,4.42-4.47c1.28-1.22,2.58-2.42,3.93-3.6c1.54-1.36,3.13-2.68,4.79-3.96
		c2.27-1.76,4.66-3.46,7.22-5.08c0.63-0.4,1.25-0.79,1.87-1.18c63.75-39.62,110.67-26.69,141.97,0c2.36,2,4.64,4.09,6.82,6.25
		c1.33,1.29,2.61,2.61,3.86,3.96c0.14,0.14,0.27,0.29,0.4,0.44C259.69,65.52,260.54,66.46,261.38,67.41z"/>
	<path class="st21" d="M263.89,61.05L49.42,62.03l3.24-4.86c1.56-2.34,4.18-3.74,6.99-3.74h194.07c2.55,0,4.95,1.15,6.55,3.14
		L263.89,61.05z"/>
	<g>
		<g>
			<path class="st22" d="M154.52,148.62L154.52,148.62c-15.3,0-27.71-12.41-27.71-27.71v0c0-15.3,12.41-27.71,27.71-27.71h0
				c15.3,0,27.71,12.41,27.71,27.71v0C182.23,136.21,169.82,148.62,154.52,148.62z"/>
			<path class="st23" d="M136.88,125.59v7.88c0,2.47,2,4.48,4.48,4.48h27.02c2.46,0,4.45-1.99,4.48-4.44
				c0.03-3.54,0.22-7.91,0.22-7.91H136.88z"/>
			<g>
				<g>
					<path class="st24" d="M235.79,128.22H77.74c-1.67,0-3.17-1.02-3.77-2.58L49.59,63.08c-0.64-1.64,0.57-3.4,2.33-3.4h209.69
						c1.76,0,2.96,1.77,2.33,3.4l-24.38,62.56C238.95,127.2,237.46,128.22,235.79,128.22z"/>
					<polygon class="st9" points="236.96,122.77 76.19,122.77 54.07,63.64 258.98,63.64 					"/>
				</g>
			</g>
		</g>
		<rect x="137.06" y="128.14" class="st9" width="35.84" height="2.45"/>
		<g>
			<g>
				<path class="st8" d="M213.48,120.23H99.95c-0.62,0-1.22-0.28-1.33-0.63l-16.15-51.3c-0.18-0.58,0.32-1.04,1.13-1.04h146.23
					c0.8,0,1.31,0.47,1.13,1.04l-16.15,51.3C214.69,119.95,214.1,120.23,213.48,120.23z"/>
				<polygon class="st9" points="213.06,119.07 100.37,119.07 86.64,73.99 226.78,73.99 				"/>
				<g>
					<path class="st7" d="M116.54,85.18H95.21c-0.53,0-0.87,0.28-0.77,0.63c0.1,0.35,0.6,0.63,1.13,0.63h21.21
						c0.52,0,0.9-0.28,0.84-0.63C117.55,85.46,117.07,85.18,116.54,85.18z"/>
					<path class="st7" d="M117.26,89.08H99.11c-0.52,0-0.86,0.27-0.77,0.61c0.09,0.34,0.58,0.61,1.1,0.61h18.04
						c0.51,0,0.88-0.27,0.82-0.61C118.24,89.35,117.77,89.08,117.26,89.08z"/>
					<path class="st25" d="M117.95,92.83H97.36c-0.51,0-0.84,0.26-0.75,0.59c0.09,0.32,0.58,0.59,1.08,0.59h20.47
						c0.51,0,0.87-0.26,0.81-0.59C118.91,93.1,118.45,92.83,117.95,92.83z"/>
					<path class="st7" d="M118.61,96.46h-12.09c-0.5,0-0.84,0.26-0.76,0.57c0.08,0.31,0.54,0.57,1.04,0.57h12.03
						c0.5,0,0.85-0.25,0.8-0.57C119.56,96.72,119.11,96.46,118.61,96.46z"/>
					<path class="st7" d="M119.25,99.97H99.36c-0.49,0-0.82,0.25-0.73,0.55c0.09,0.3,0.55,0.55,1.04,0.55h19.79
						c0.49,0,0.84-0.25,0.79-0.55C120.19,100.22,119.75,99.97,119.25,99.97z"/>
					<path class="st7" d="M119.88,103.36h-16.06c-0.48,0-0.81,0.24-0.73,0.53c0.08,0.29,0.53,0.53,1.01,0.53h15.98
						c0.48,0,0.83-0.24,0.78-0.53C120.79,103.6,120.36,103.36,119.88,103.36z"/>
					<path class="st7" d="M120.48,106.64h-15.8c-0.48,0-0.8,0.23-0.72,0.52c0.08,0.28,0.52,0.51,0.99,0.51h15.72
						c0.47,0,0.81-0.23,0.76-0.51C121.38,106.87,120.95,106.64,120.48,106.64z"/>
					<path class="st7" d="M121.06,109.82h-17.24c-0.47,0-0.78,0.22-0.71,0.5c0.08,0.27,0.51,0.5,0.98,0.5h17.15
						c0.47,0,0.8-0.22,0.75-0.5C121.95,110.04,121.53,109.82,121.06,109.82z"/>
					<path class="st25" d="M121.62,112.89h-11.14c-0.46,0-0.78,0.22-0.71,0.48c0.07,0.27,0.49,0.48,0.95,0.48h11.08
						c0.46,0,0.79-0.22,0.74-0.48C122.5,113.11,122.08,112.89,121.62,112.89z"/>
					<path class="st25" d="M115.8,81.14H99.9c-0.54,0-0.9,0.29-0.8,0.66c0.09,0.36,0.6,0.65,1.13,0.65h15.81
						c0.53,0,0.91-0.29,0.85-0.65C116.82,81.44,116.34,81.14,115.8,81.14z"/>
					<path class="st7" d="M115.03,76.95H92.9c-0.55,0-0.9,0.31-0.8,0.68c0.11,0.37,0.63,0.68,1.18,0.68h22
						c0.54,0,0.93-0.3,0.86-0.68C116.08,77.26,115.58,76.95,115.03,76.95z"/>
					<path class="st7" d="M122.17,115.87h-18.34c-0.45,0-0.76,0.21-0.69,0.47c0.07,0.26,0.5,0.47,0.95,0.47h18.25
						c0.45,0,0.78-0.21,0.73-0.47C123.03,116.08,122.62,115.87,122.17,115.87z"/>
					<polygon class="st25" points="124.03,86.6 128.17,86.6 127.97,85.02 123.8,85.02 					"/>
					<polygon class="st25" points="124.61,90.45 128.68,90.45 128.48,88.92 124.38,88.92 					"/>
					<polygon class="st25" points="125.17,94.16 129.16,94.16 128.97,92.69 124.95,92.69 					"/>
					<polygon class="st25" points="125.71,97.74 129.63,97.74 129.45,96.32 125.49,96.32 					"/>
					<polygon class="st25" points="126.23,101.21 130.09,101.21 129.91,99.83 126.02,99.83 					"/>
					<polygon class="st25" points="126.73,104.56 130.53,104.56 130.35,103.23 126.53,103.23 					"/>
					<polygon class="st25" points="127.22,107.8 130.95,107.8 130.78,106.51 127.03,106.51 					"/>
					<polygon class="st25" points="127.69,110.94 131.37,110.94 131.2,109.69 127.5,109.69 					"/>
					<polygon class="st25" points="128.15,113.97 131.76,113.97 131.61,112.77 127.96,112.77 					"/>
					<polygon class="st25" points="123.44,82.61 127.65,82.61 127.44,80.98 123.19,80.98 					"/>
					<polygon class="st25" points="122.82,78.48 127.11,78.48 126.88,76.78 122.56,76.78 					"/>
					<polygon class="st25" points="128.59,116.92 132.15,116.92 132,115.75 128.41,115.75 					"/>
					<path class="st7" d="M150.39,110.31c-0.01-0.28,0.36-0.5,0.83-0.5h61.26c0.47,0,0.78,0.22,0.7,0.5
						c-0.08,0.27-0.52,0.5-0.99,0.5h-60.94C150.79,110.81,150.4,110.59,150.39,110.31z"/>
					<path class="st7" d="M213.1,107.67h-33.92c-0.47,0-0.83-0.23-0.8-0.51c0.03-0.28,0.44-0.52,0.92-0.52h34.1
						c0.48,0,0.79,0.23,0.71,0.52C214.02,107.44,213.57,107.67,213.1,107.67z"/>
					<path class="st25" d="M171.13,107.67h-10.55c-0.47,0-0.85-0.23-0.85-0.51c0-0.28,0.39-0.52,0.87-0.52h10.61
						c0.48,0,0.84,0.23,0.82,0.52C172,107.44,171.6,107.67,171.13,107.67z"/>
					<path class="st7" d="M193.15,104.42H145.3c-0.48,0-0.88-0.24-0.9-0.53c-0.02-0.29,0.36-0.53,0.84-0.53h48.1
						c0.48,0,0.83,0.24,0.78,0.53C194.06,104.19,193.63,104.42,193.15,104.42z"/>
					<path class="st25" d="M135.3,103.36h3.41c0.48,0,0.89,0.24,0.92,0.53c0.02,0.29-0.34,0.53-0.82,0.53h-3.39
						c-0.48,0-0.9-0.24-0.93-0.53C134.45,103.6,134.82,103.36,135.3,103.36z"/>
					<path class="st7" d="M200.07,100.52c-0.06,0.3-0.51,0.55-1,0.55h-45.09c-0.49,0-0.89-0.25-0.89-0.55
						c-0.01-0.3,0.39-0.55,0.88-0.55h45.33C199.79,99.97,200.14,100.22,200.07,100.52z"/>
					<path class="st7" d="M134.94,99.97h12.8c0.49,0,0.9,0.25,0.91,0.55c0.01,0.3-0.37,0.55-0.86,0.55h-12.73
						c-0.49,0-0.91-0.25-0.95-0.55C134.07,100.22,134.45,99.97,134.94,99.97z"/>
					<path class="st7" d="M134.56,96.46h49.18c0.5,0,0.87,0.26,0.83,0.57c-0.04,0.31-0.48,0.57-0.98,0.57h-48.91
						c-0.5,0-0.93-0.25-0.96-0.57C133.69,96.72,134.06,96.46,134.56,96.46z"/>
					<path class="st7" d="M166.5,94.01c-0.51,0-0.9-0.26-0.89-0.59c0.01-0.33,0.44-0.59,0.95-0.59h25.95c0.51,0,0.87,0.26,0.82,0.59
						c-0.06,0.32-0.51,0.59-1.02,0.59H166.5z"/>
					<path class="st7" d="M134.18,92.83h22.46c0.51,0,0.92,0.26,0.92,0.59c0,0.32-0.41,0.59-0.92,0.59H134.3
						c-0.51,0-0.94-0.26-0.98-0.59C133.28,93.1,133.67,92.83,134.18,92.83z"/>
					<path class="st7" d="M218.08,90.29h-61.82c-0.51,0-0.93-0.27-0.94-0.61c0-0.34,0.42-0.61,0.93-0.61h62.18
						c0.52,0,0.86,0.27,0.76,0.61C219.1,90.02,218.6,90.29,218.08,90.29z"/>
					<path class="st7" d="M219.19,86.44h-54.4c-0.52,0-0.94-0.28-0.93-0.63c0.01-0.35,0.45-0.63,0.97-0.63h54.72
						c0.53,0,0.87,0.28,0.77,0.63C220.22,86.16,219.71,86.44,219.19,86.44z"/>
					<path class="st25" d="M220.33,82.45h-11.39c-0.53,0-0.9-0.29-0.81-0.65c0.08-0.36,0.59-0.66,1.12-0.66h11.46
						c0.54,0,0.89,0.29,0.78,0.66C221.39,82.16,220.87,82.45,220.33,82.45z"/>
					<path class="st7" d="M200.97,82.45h-41.83c-0.53,0-0.96-0.29-0.96-0.65c0-0.36,0.44-0.66,0.98-0.66h42.08
						c0.54,0,0.91,0.29,0.84,0.66C202,82.16,201.51,82.45,200.97,82.45z"/>
					<path class="st7" d="M136.31,112.89h38.63c0.46,0,0.81,0.22,0.78,0.48c-0.03,0.27-0.42,0.48-0.88,0.48h-38.43
						c-0.46,0-0.85-0.22-0.88-0.48C135.51,113.11,135.85,112.89,136.31,112.89z"/>
					<path class="st7" d="M136.63,115.87h59.35c0.45,0,0.78,0.21,0.72,0.47c-0.05,0.26-0.46,0.47-0.92,0.47h-59.06
						c-0.45,0-0.84-0.21-0.87-0.47C135.84,116.08,136.18,115.87,136.63,115.87z"/>
					<path class="st7" d="M198.9,78.31h-30.21c-0.54,0-0.97-0.3-0.95-0.68c0.02-0.38,0.48-0.68,1.02-0.68h30.4
						c0.55,0,0.93,0.31,0.86,0.68C199.94,78.01,199.44,78.31,198.9,78.31z"/>
					<path class="st25" d="M160.11,78.31h-27.48c-0.54,0-1.02-0.3-1.06-0.68c-0.04-0.38,0.37-0.68,0.91-0.68h27.65
						c0.55,0,0.98,0.31,0.98,0.68C161.1,78.01,160.65,78.31,160.11,78.31z"/>
					<path class="st25" d="M183.51,112.89c0.46,0,0.8,0.22,0.76,0.48c-0.04,0.27-0.44,0.48-0.9,0.48h-2.99
						c-0.46,0-0.8-0.22-0.77-0.48c0.03-0.27,0.43-0.48,0.89-0.48H183.51z"/>
					<path class="st25" d="M146.87,110.31c0.01,0.27-0.35,0.5-0.82,0.5h-4.07c-0.47,0-0.86-0.22-0.88-0.5
						c-0.02-0.28,0.34-0.5,0.81-0.5H146C146.47,109.82,146.86,110.04,146.87,110.31z"/>
					<path class="st25" d="M195.94,97.03c-0.06,0.31-0.51,0.57-1.01,0.57h-4.76c-0.5,0-0.86-0.25-0.81-0.57
						c0.05-0.31,0.49-0.57,0.99-0.57h4.78C195.65,96.46,196,96.72,195.94,97.03z"/>
					<path class="st25" d="M210.78,99.97c0.49,0,0.82,0.25,0.74,0.55c-0.08,0.3-0.54,0.55-1.03,0.55h-3.79
						c-0.49,0-0.83-0.25-0.75-0.55c0.07-0.3,0.53-0.55,1.02-0.55H210.78z"/>
					<path class="st25" d="M148.77,90.29c-0.51,0-0.94-0.27-0.96-0.61c-0.01-0.34,0.39-0.61,0.91-0.61h4.04
						c0.52,0,0.94,0.27,0.95,0.61c0,0.34-0.41,0.61-0.92,0.61H148.77z"/>
				</g>
			</g>
			<g>
				<path class="st7" d="M93.83,70.61c0.31,1.05-0.29,1.89-1.35,1.89c-1.05,0-2.18-0.84-2.52-1.89c-0.34-1.06,0.25-1.93,1.33-1.93
					C92.38,68.68,93.51,69.55,93.83,70.61z"/>
				<path class="st7" d="M99.03,70.64c0.28,1.05-0.35,1.89-1.41,1.89c-1.05,0-2.15-0.84-2.46-1.89c-0.31-1.06,0.31-1.93,1.39-1.93
					C97.64,68.71,98.75,69.58,99.03,70.64z"/>
				<path class="st7" d="M104.3,70.61c0.24,1.05-0.41,1.89-1.47,1.89s-2.13-0.84-2.4-1.89c-0.27-1.06,0.38-1.93,1.46-1.93
					C102.97,68.68,104.05,69.55,104.3,70.61z"/>
			</g>
		</g>
		<g>
			<polygon class="st26" points="54.07,63.64 71.3,109.69 92.08,63.64 			"/>
			<polygon class="st26" points="83.14,122.77 117.62,63.64 153.71,63.64 102.97,122.77 			"/>
			<polygon class="st26" points="169.26,63.35 115.52,122.77 123.8,122.77 179.47,63.64 			"/>
			<polygon class="st26" points="179.87,122.77 238.94,63.64 247.27,63.64 186.38,122.77 			"/>
		</g>
	</g>
</g>
<g>
	<g>
		<g>
			<g>
				<path class="st21" d="M99.79,148.43H86.31c-1.75,0-3.17,1.42-3.17,3.17v6.56c0,1.75,1.42,3.17,3.17,3.17h3.53l2.67,6.05
					l3.77-6.05h3.53c1.75,0,3.17-1.42,3.17-3.17v-6.56C102.97,149.85,101.55,148.43,99.79,148.43z"/>
			</g>
		</g>
		<g>
			<path class="st9" d="M91.18,152.19c0-0.34,0.28-0.62,0.66-0.62c0.38,0,0.66,0.25,0.66,0.59c0,0.36-0.27,0.64-0.66,0.64
				C91.46,152.8,91.18,152.53,91.18,152.19z M91.32,153.53h1.03v4.39h-1.03V153.53z"/>
			<path class="st9" d="M94.82,153.3v0.26h1.21v0.82h-1.17v3.53h-1.03v-3.53h-0.72v-0.82h0.72v-0.28c0-0.92,0.55-1.52,1.57-1.52
				c0.35,0,0.7,0.07,0.93,0.24l-0.29,0.77c-0.16-0.11-0.35-0.18-0.57-0.18C95.04,152.59,94.82,152.83,94.82,153.3z"/>
		</g>
	</g>
	<g>
		<g>
			<g>
				<path class="st21" d="M140.85,149.35h-13.49c-1.75,0-3.17,1.42-3.17,3.17v6.56c0,1.75,1.42,3.17,3.17,3.17h3.53l2.67,6.05
					l3.77-6.05h3.53c1.75,0,3.17-1.42,3.17-3.17v-6.56C144.02,150.77,142.6,149.35,140.85,149.35z"/>
			</g>
		</g>
		<g>
			<path class="st9" d="M130.2,156.97h-3.44c0.12,0.64,0.66,1.05,1.42,1.05c0.49,0,0.88-0.16,1.19-0.48l0.55,0.63
				c-0.39,0.47-1.01,0.71-1.77,0.71c-1.47,0-2.42-0.94-2.42-2.25c0-1.31,0.96-2.24,2.27-2.24c1.28,0,2.22,0.9,2.22,2.27
				C130.21,156.74,130.21,156.87,130.2,156.97z M126.75,156.28h2.49c-0.08-0.63-0.57-1.07-1.24-1.07
				C127.33,155.22,126.85,155.64,126.75,156.28z"/>
			<path class="st9" d="M131.2,152.74h1.03v6.09h-1.03V152.74z"/>
			<path class="st9" d="M133.07,158.4l0.39-0.78c0.39,0.25,0.98,0.44,1.53,0.44c0.65,0,0.92-0.18,0.92-0.48
				c0-0.84-2.71-0.05-2.71-1.8c0-0.83,0.75-1.37,1.93-1.37c0.58,0,1.25,0.14,1.64,0.38l-0.39,0.78c-0.42-0.25-0.84-0.33-1.26-0.33
				c-0.62,0-0.92,0.21-0.92,0.49c0,0.89,2.71,0.1,2.71,1.81c0,0.82-0.76,1.36-1.99,1.36C134.19,158.89,133.46,158.67,133.07,158.4z"
				/>
			<path class="st9" d="M141.9,156.97h-3.44c0.12,0.64,0.66,1.05,1.42,1.05c0.49,0,0.88-0.16,1.19-0.48l0.55,0.63
				c-0.39,0.47-1.01,0.71-1.77,0.71c-1.47,0-2.42-0.94-2.42-2.25c0-1.31,0.96-2.24,2.27-2.24c1.28,0,2.22,0.9,2.22,2.27
				C141.92,156.74,141.91,156.87,141.9,156.97z M138.45,156.28h2.49c-0.08-0.63-0.57-1.07-1.24-1.07
				C139.04,155.22,138.55,155.64,138.45,156.28z"/>
		</g>
	</g>
	<g>
		<g>
			<g>
				<path class="st21" d="M180.65,148.96h-13.49c-1.75,0-3.17,1.42-3.17,3.17v6.56c0,1.75,1.42,3.17,3.17,3.17h3.53l2.67,6.05
					l3.77-6.05h3.53c1.75,0,3.17-1.42,3.17-3.17v-6.56C183.82,150.38,182.4,148.96,180.65,148.96z"/>
			</g>
		</g>
		<g>
			<path class="st9" d="M170.26,153.83v0.26h1.21v0.82h-1.17v3.53h-1.03v-3.53h-0.72v-0.82h0.72v-0.28c0-0.92,0.55-1.52,1.57-1.52
				c0.35,0,0.7,0.07,0.93,0.24l-0.29,0.77c-0.16-0.11-0.35-0.18-0.57-0.18C170.48,153.12,170.26,153.36,170.26,153.83z"/>
			<path class="st9" d="M171.73,156.25c0-1.31,0.99-2.24,2.33-2.24c1.36,0,2.34,0.93,2.34,2.24c0,1.31-0.98,2.25-2.34,2.25
				C172.71,158.5,171.73,157.56,171.73,156.25z M175.37,156.25c0-0.84-0.56-1.37-1.31-1.37c-0.74,0-1.3,0.53-1.3,1.37
				c0,0.84,0.56,1.37,1.3,1.37C174.81,157.62,175.37,157.09,175.37,156.25z"/>
			<path class="st9" d="M179.92,154.01v0.98c-0.09-0.02-0.16-0.02-0.24-0.02c-0.78,0-1.27,0.46-1.27,1.36v2.13h-1.03v-4.39h0.98
				v0.64C178.66,154.24,179.19,154.01,179.92,154.01z"/>
		</g>
	</g>
	<g>
		<g>
			<g>
				<path class="st21" d="M219.88,148.43H206.4c-1.75,0-3.17,1.42-3.17,3.17v6.56c0,1.75,1.42,3.17,3.17,3.17h3.53l2.67,6.05
					l3.77-6.05h3.53c1.75,0,3.17-1.42,3.17-3.17v-6.56C223.05,149.85,221.63,148.43,219.88,148.43z"/>
			</g>
		</g>
		<g>
			<path class="st9" d="M211.39,153.31h3.79v0.82h-3.79V153.31z M211.39,155.3h3.79v0.82h-3.79V155.3z"/>
		</g>
	</g>
	<g>
		<g>
			<g>
				<path class="st21" d="M120.35,140.84h-13.49c-1.75,0-3.17,1.42-3.17,3.17v6.56c0,1.75,1.42,3.17,3.17,3.17h3.53l2.67,6.05
					l3.77-6.05h3.53c1.75,0,3.17-1.42,3.17-3.17v-6.56C123.52,142.26,122.1,140.84,120.35,140.84z"/>
			</g>
		</g>
		<g>
			<path class="st9" d="M110.44,143.57h1.96v0.82h-0.94v6.05h0.94v0.82h-1.96V143.57z"/>
			<path class="st9" d="M114.94,151.25v-0.82h0.93v-6.05h-0.93v-0.82h1.96v7.69H114.94z"/>
		</g>
	</g>
	<g>
		<g>
			<g>
				<path class="st21" d="M160.45,140.17h-13.49c-1.75,0-3.17,1.42-3.17,3.17v6.56c0,1.75,1.42,3.17,3.17,3.17h3.53l2.67,6.05
					l3.77-6.05h3.53c1.75,0,3.17-1.42,3.17-3.17v-6.56C163.62,141.59,162.2,140.17,160.45,140.17z"/>
			</g>
		</g>
		<g>
			<path class="st9" d="M150.96,146.71c0.33,0.11,0.48,0.33,0.48,0.84v1.56c0,0.39,0.2,0.62,0.61,0.62h0.17v0.82h-0.41
				c-0.93,0-1.4-0.47-1.4-1.34v-1.69c0-0.27-0.14-0.39-0.37-0.39h-0.27v-0.84h0.27c0.23,0,0.37-0.12,0.37-0.39v-1.69
				c0-0.87,0.47-1.34,1.4-1.34h0.41v0.82h-0.17c-0.41,0-0.61,0.23-0.61,0.62v1.56C151.45,146.38,151.29,146.61,150.96,146.71z"/>
			<path class="st9" d="M157.23,146.29v0.84h-0.28c-0.22,0-0.36,0.12-0.36,0.39v1.69c0,0.87-0.48,1.34-1.4,1.34h-0.41v-0.82h0.17
				c0.42,0,0.62-0.23,0.62-0.62v-1.56c0-0.51,0.15-0.73,0.48-0.84c-0.33-0.11-0.48-0.33-0.48-0.84v-1.56c0-0.39-0.2-0.62-0.62-0.62
				h-0.17v-0.82h0.41c0.93,0,1.4,0.47,1.4,1.34v1.69c0,0.27,0.14,0.39,0.36,0.39H157.23z"/>
		</g>
	</g>
	<g>
		<g>
			<g>
				<path class="st21" d="M200.13,138.84h-13.49c-1.75,0-3.17,1.42-3.17,3.17v6.56c0,1.75,1.42,3.17,3.17,3.17h3.53l2.67,6.05
					l3.77-6.05h3.53c1.75,0,3.17-1.42,3.17-3.17v-6.56C203.3,140.26,201.88,138.84,200.13,138.84z"/>
			</g>
		</g>
		<g>
			<path class="st9" d="M192.85,143.69c0-0.41,0.3-0.68,0.67-0.68c0.37,0,0.67,0.27,0.67,0.68c0,0.39-0.3,0.68-0.67,0.68
				C193.15,144.38,192.85,144.09,192.85,143.69z M194.19,146.82c0,0.18-0.04,0.33-0.19,0.71l-0.42,1.16h-0.66l0.33-1.26
				c-0.23-0.1-0.39-0.31-0.39-0.61c0-0.41,0.29-0.68,0.66-0.68C193.91,146.14,194.19,146.42,194.19,146.82z"/>
		</g>
	</g>
	<g>
		<g>
			<g>
				<path class="st21" d="M147.4,253.56h13.49c1.75,0,3.17-1.42,3.17-3.17v-6.56c0-1.75-1.42-3.17-3.17-3.17h-3.53l-1.03-6.05
					l-5.41,6.05h-3.53c-1.75,0-3.17,1.42-3.17,3.17v6.56C144.22,252.14,145.64,253.56,147.4,253.56z"/>
			</g>
		</g>
		<g>
			<path class="st9" d="M152.14,245.76l-2.83,1.06l2.83,1.06v0.85l-3.79-1.47v-0.89l3.79-1.47V245.76z"/>
			<path class="st9" d="M155.12,242.78h0.92l-2.71,7.74h-0.92L155.12,242.78z"/>
			<path class="st9" d="M160.03,246.37v0.89l-3.79,1.47v-0.85l2.83-1.06l-2.83-1.06v-0.85L160.03,246.37z"/>
		</g>
	</g>
	<g>
		<g>
			<g>
				<g>
					<path class="st21" d="M61.65,205.77h13.49c1.75,0,3.17-1.42,3.17-3.17v-6.56c0-1.75-1.42-3.17-3.17-3.17h-3.53l0.77-6.05
						l-7.2,6.05h-3.53c-1.75,0-3.17,1.42-3.17,3.17v6.56C58.48,204.35,59.9,205.77,61.65,205.77z"/>
				</g>
			</g>
		</g>
		<g>
			<path class="st9" d="M65.65,201.61c0-0.35,0.28-0.63,0.67-0.63c0.38,0,0.65,0.28,0.65,0.63c0,0.35-0.27,0.64-0.65,0.64
				C65.93,202.25,65.65,201.96,65.65,201.61z M65.71,196.44h1.22l-0.21,3.84H65.9L65.71,196.44z"/>
			<path class="st9" d="M67.98,197.91h3.79v0.82h-3.79V197.91z M67.98,199.9h3.79v0.82h-3.79V199.9z"/>
		</g>
	</g>
</g>
<g>
	<g>
		<g>
			<g>
				<defs>
					<path id="XMLID_4_" d="M277.61,198.33c0,2.63-0.22,5.19-0.62,7.59c-1.85,11.06-7.67,19.13-14.55,19.13
						c-0.62,0-1.23-0.07-1.83-0.19c-7.51-1.59-13.34-12.86-13.34-26.53c0-14.76,6.79-19.98,15.17-19.98
						C270.82,178.36,277.61,183.58,277.61,198.33z"/>
				</defs>
				<use xlink:href="#XMLID_4_"  style="overflow:visible;fill:#FFFFFF;"/>
				<clipPath id="XMLID_00000023967756513319494590000007016247294789064373_">
					<use xlink:href="#XMLID_4_"  style="overflow:visible;"/>
				</clipPath>
				<g style="opacity:0.25;clip-path:url(#XMLID_00000023967756513319494590000007016247294789064373_);">
					<path class="st11" d="M272.11,198.5c0.56,7.91-0.8,15.87-3.08,23.47c5.72-4.69,8.34-12.07,10.72-19.07
						c1.73-5.08,3.47-10.32,3.16-15.68c-0.31-5.36-3.18-10.93-8.21-12.81c-2.46-0.92-5.32-0.85-7.75,0.13
						c-4.21,1.69-1.91,3.06-0.14,6.09C269.98,186.04,271.67,192.26,272.11,198.5z"/>
					<path class="st12" d="M272.11,198.5c0.56,7.91-0.8,15.87-3.08,23.47c5.72-4.69,8.34-12.07,10.72-19.07
						c1.73-5.08,3.47-10.32,3.16-15.68c-0.31-5.36-3.18-10.93-8.21-12.81c-2.46-0.92-5.32-0.85-7.75,0.13
						c-4.21,1.69-1.91,3.06-0.14,6.09C269.98,186.04,271.67,192.26,272.11,198.5z"/>
				</g>
				<use xlink:href="#XMLID_4_"  style="overflow:visible;fill:none;stroke:#263239;stroke-miterlimit:10;"/>
			</g>
			<g>
				<path class="st4" d="M270.59,211.91c-1.01,3.4-2.69,6.61-4.98,9.33"/>
				<path class="st15" d="M271.07,210.05c-0.08,0.36-0.17,0.72-0.26,1.08"/>
				<path class="st4" d="M271.03,198.3c0.81,3.4,0.89,6.96,0.3,10.41"/>
			</g>
			<path class="st15" d="M247.27,198.33c0,0,17.24-6.82,30.34,0"/>
			<path class="st4" d="M262.44,178.36c0,0,1.73,6.39,1.93,16.79"/>
			<path class="st24" d="M264.84,186.13c0.22,1.99-0.12,3.68-0.77,3.78c-0.65,0.1-1.35-1.43-1.57-3.41
				c-0.22-1.99,0.12-3.68,0.77-3.78C263.92,182.62,264.62,184.15,264.84,186.13z"/>
		</g>
	</g>
	<path class="st15" d="M255.63,230.17h-20.22c-2.52,0-4.59-1.87-4.92-4.29c-0.04-0.22-0.06-0.45-0.06-0.68V177.5
		c0-0.23,0.01-0.46,0.06-0.69c0.33-2.42,2.4-4.28,4.92-4.28h57.36c0.87,0,1.68,0.22,2.38,0.61"/>
</g>
</svg>
